<svg width="24" height="24" viewBox="0 0 24 24" fill="none" xmlns="http://www.w3.org/2000/svg">
<path d="M19.5 12C19.5 7.85786 16.1421 4.5 12 4.5C7.85786 4.5 4.5 7.85786 4.5 12C4.5 16.1421 7.85786 19.5 12 19.5V22C6.47715 22 2 17.5228 2 12C2 6.47715 6.47715 2 12 2C17.5228 2 22 6.47715 22 12C22 17.5228 17.5228 22 12 22V19.5C16.1421 19.5 19.5 16.1421 19.5 12Z" fill="currentColor"/>
<path fill-rule="evenodd" clip-rule="evenodd" d="M11.5631 13.7778V16L16.5 12L11.5631 8V10.2222L8.1 10.2222V13.7778L11.5631 13.7778ZM9.15 12.4625L12.5865 12.4625V13.7778L14.6625 11.9375L12.5865 10.2222V11.4125L9.15 11.4125V12.4625Z" fill="currentColor"/>
</svg>
