<svg width="24" height="24" viewBox="0 0 24 24" fill="none" xmlns="http://www.w3.org/2000/svg">
<g clip-path="url(#clip0_4117_2230)">
<g clip-path="url(#clip1_4117_2230)">
<path d="M20.5122 3.58765H16.1842C16.0217 3.58763 15.8608 3.61866 15.7107 3.67897C15.5606 3.73928 15.4242 3.82768 15.3093 3.93912L5.09395 13.8434C4.97901 13.9548 4.88784 14.087 4.82564 14.2326C4.76344 14.3781 4.73143 14.5342 4.73145 14.6917V18.8879C4.73144 19.0454 4.76344 19.2014 4.82562 19.347C4.8878 19.4926 4.97895 19.6248 5.09386 19.7363C5.20877 19.8477 5.34519 19.936 5.49533 19.9963C5.64547 20.0566 5.80638 20.0877 5.96889 20.0876H10.2968C10.4593 20.0877 10.6202 20.0566 10.7704 19.9963C10.9205 19.936 11.0569 19.8476 11.1718 19.7362L21.3873 9.83187C21.6193 9.60688 21.7496 9.30174 21.7496 8.98358V4.78743C21.7496 4.62987 21.7176 4.47385 21.6555 4.32828C21.5933 4.18272 21.5021 4.05045 21.3872 3.93904C21.2723 3.82763 21.1359 3.73925 20.9857 3.67896C20.8356 3.61867 20.6747 3.58764 20.5122 3.58765Z" fill="#28A8EA"/>
<path d="M20.512 20.0876H16.1839C15.8558 20.0876 15.541 19.9613 15.309 19.7363L13.2402 17.7305V13.9826C13.2402 13.4138 13.4733 12.8682 13.8882 12.4659C14.3031 12.0636 14.8658 11.8376 15.4526 11.8376H19.3182L21.3869 13.8434C21.619 14.0684 21.7493 14.3735 21.7493 14.6917V18.888C21.7493 19.2061 21.619 19.5113 21.3869 19.7363C21.1549 19.9613 20.8401 20.0876 20.512 20.0876Z" fill="#0078D4"/>
<path d="M5.96881 3.58765H10.2968C10.625 3.58765 10.9397 3.71404 11.1718 3.93903L13.2405 5.94479V9.69265C13.2405 10.2615 13.0074 10.8071 12.5926 11.2094C12.1777 11.6117 11.6149 11.8376 11.0282 11.8376H7.16261L5.09386 9.83188C4.86181 9.6069 4.73145 9.30175 4.73145 8.98358V4.78733C4.73145 4.46916 4.86181 4.16401 5.09386 3.93903C5.32591 3.71404 5.64064 3.58765 5.96881 3.58765Z" fill="#50D9FF"/>
<path opacity="0.2" d="M12.5314 7.82611V16.8804C12.5322 16.9266 12.5275 16.9728 12.5173 17.0179C12.485 17.2039 12.3857 17.3727 12.237 17.4942C12.0882 17.6157 11.8998 17.6821 11.7053 17.6814H4.73145V7.02515H11.7053C11.8139 7.02496 11.9214 7.04555 12.0217 7.08574C12.122 7.12593 12.2132 7.18492 12.2899 7.25933C12.3667 7.33375 12.4275 7.42212 12.4689 7.51938C12.5104 7.61664 12.5316 7.72088 12.5314 7.82611Z" fill="black"/>
<path opacity="0.1" d="M12.886 7.82611V16.1929C12.8831 16.4957 12.7577 16.7852 12.5369 16.9992C12.3162 17.2133 12.0176 17.3348 11.7053 17.3376H4.73145V6.6814H11.7053C12.0181 6.68246 12.3178 6.8034 12.539 7.01785C12.7602 7.23229 12.8849 7.52284 12.886 7.82611Z" fill="black"/>
<path opacity="0.2" d="M12.5314 7.82611V16.1929C12.5316 16.2982 12.5104 16.4024 12.4689 16.4997C12.4275 16.5969 12.3667 16.6853 12.2899 16.7597C12.2132 16.8341 12.122 16.8931 12.0217 16.9333C11.9214 16.9735 11.8139 16.9941 11.7053 16.9939H4.73145V7.02515H11.7053C11.8139 7.02496 11.9214 7.04555 12.0217 7.08574C12.122 7.12593 12.2132 7.18492 12.2899 7.25933C12.3667 7.33375 12.4275 7.42212 12.4689 7.51938C12.5104 7.61664 12.5316 7.72088 12.5314 7.82611Z" fill="black"/>
<path opacity="0.1" d="M12.1769 7.82611V16.1929C12.1771 16.2982 12.1559 16.4024 12.1144 16.4997C12.073 16.5969 12.0121 16.6853 11.9354 16.7597C11.8586 16.8341 11.7675 16.8931 11.6671 16.9333C11.5668 16.9735 11.4593 16.9941 11.3508 16.9939H4.73145V7.02515H11.3508C11.4593 7.02496 11.5668 7.04555 11.6671 7.08574C11.7675 7.12593 11.8586 7.18492 11.9354 7.25933C12.0121 7.33375 12.073 7.42212 12.1144 7.51938C12.1559 7.61664 12.1771 7.72088 12.1769 7.82611Z" fill="black"/>
<path d="M11.35 7.02515H3.07727C2.62038 7.02515 2.25 7.38425 2.25 7.82723V15.8481C2.25 16.291 2.62038 16.6501 3.07727 16.6501H11.35C11.8069 16.6501 12.1773 16.291 12.1773 15.8481V7.82723C12.1773 7.38425 11.8069 7.02515 11.35 7.02515Z" fill="#0078D4"/>
<path d="M8.83882 10.078H6.51754V11.394H8.69635V12.2375H6.51754V13.6045H8.96252V14.4444H5.46387V9.23071H8.83882L8.83882 10.078Z" fill="var(--color-foreground)"/>
</g>
</g>
<defs>
<clipPath id="clip0_4117_2230">
<rect width="24" height="24" fill="var(--color-foreground)"/>
</clipPath>
<clipPath id="clip1_4117_2230">
<rect width="19.5" height="16.5" fill="var(--color-foreground)" transform="translate(2.25 3.58765)"/>
</clipPath>
</defs>
</svg>
