<svg width="24" height="24" viewBox="0 0 24 24" fill="none" xmlns="http://www.w3.org/2000/svg">
<g clip-path="url(#clip0_4117_2168)">
<path fill-rule="evenodd" clip-rule="evenodd" d="M12 20C12.5523 20 13 19.5523 13 19C13 18.4477 12.5523 18 12 18C11.4477 18 11 18.4477 11 19C11 19.5523 11.4477 20 12 20ZM12 22C13.6569 22 15 20.6569 15 19C15 17.3431 13.6569 16 12 16C10.3431 16 9 17.3431 9 19C9 20.6569 10.3431 22 12 22Z" fill="currentColor"/>
<path d="M13 4V10H14.17L12 12.17L9.83 10H11V4H13ZM15 2H9V8H5L12 15L19 8H15V2Z" fill="currentColor"/>
</g>
<defs>
<clipPath id="clip0_4117_2168">
<rect width="24" height="24" fill="var(--color-foreground)"/>
</clipPath>
</defs>
</svg>
