<svg width="24" height="24" viewBox="0 0 24 24" fill="none" xmlns="http://www.w3.org/2000/svg">
<g clip-path="url(#clip0_4117_2172)">
<path fill-rule="evenodd" clip-rule="evenodd" d="M19 5H5L5 19H19V5ZM5 3C3.89543 3 3 3.89543 3 5V19C3 20.1046 3.89543 21 5 21H19C20.1046 21 21 20.1046 21 19V5C21 3.89543 20.1046 3 19 3H5Z" fill="currentColor"/>
<path d="M14.7073 9.22L13.7073 9.62C13.4973 9.46 13.2773 9.33 13.0373 9.23L12.8873 8.17C12.8673 8.07 12.7873 8 12.6873 8H11.0873C10.9873 8 10.9073 8.07 10.8973 8.17L10.7473 9.23C10.5073 9.33 10.2773 9.46 10.0773 9.62L9.07726 9.22C8.98726 9.19 8.87726 9.22 8.83726 9.31L8.03726 10.69C7.98726 10.78 8.00726 10.89 8.08726 10.95L8.93726 11.61C8.90726 11.73 8.88726 11.87 8.88726 12C8.88726 12.13 8.89726 12.26 8.91726 12.39L8.07726 13.05C7.99726 13.11 7.97726 13.22 8.02726 13.3L8.82726 14.69C8.87726 14.78 8.97726 14.81 9.07726 14.78L10.0673 14.38C10.2773 14.54 10.4973 14.67 10.7473 14.77L10.8873 15.83C10.9073 15.93 10.9873 16 11.0873 16H12.6873C12.7873 16 12.8673 15.93 12.8873 15.83L13.0373 14.77C13.2773 14.67 13.5073 14.54 13.7073 14.38L14.6973 14.78C14.7873 14.82 14.8973 14.78 14.9373 14.69L15.7373 13.3C15.7873 13.21 15.7673 13.11 15.6873 13.05L14.8573 12.39C14.8773 12.26 14.8873 12.13 14.8873 12C14.8873 11.86 14.8773 11.73 14.8573 11.61L15.7073 10.95C15.7873 10.89 15.8073 10.78 15.7573 10.69L14.9573 9.31C14.9073 9.22 14.7973 9.19 14.7073 9.22ZM11.8873 13.43C11.0973 13.43 10.4573 12.79 10.4573 12C10.4573 11.21 11.0973 10.57 11.8873 10.57C12.6773 10.57 13.3173 11.21 13.3173 12C13.3173 12.79 12.6773 13.43 11.8873 13.43Z" fill="currentColor"/>
</g>
<defs>
<clipPath id="clip0_4117_2172">
<rect width="24" height="24" fill="var(--color-foreground)"/>
</clipPath>
</defs>
</svg>
