<svg width="24" height="24" viewBox="0 0 24 24" fill="none" xmlns="http://www.w3.org/2000/svg">
<g clip-path="url(#clip0_4117_2162)">
<path fill-rule="evenodd" clip-rule="evenodd" d="M9 13C7.89543 13 7 13.8954 7 15V18C7 19.1046 7.89543 20 9 20H20C21.1046 20 22 19.1046 22 18V15C22 13.8954 21.1046 13 20 13H9ZM9 6V9H20V6L9 6ZM9 15V18H20V15H9ZM7 6C7 4.89543 7.89543 4 9 4H20C21.1046 4 22 4.89543 22 6V9C22 10.1046 21.1046 11 20 11H9C7.89543 11 7 10.1046 7 9V6Z" fill="currentColor"/>
<path d="M2.41 16.5902L7 12.0002L2.41 7.41016L1 8.83016L4.17 12.0002L1 15.1702L2.41 16.5902Z" fill="currentColor"/>
</g>
<defs>
<clipPath id="clip0_4117_2162">
<rect width="24" height="24" fill="var(--color-foreground)"/>
</clipPath>
</defs>
</svg>
