<svg class="portal-svg" alt="api automation" width="24" height="24" viewBox="0 0 24 24" fill="none" xmlns="http://www.w3.org/2000/svg">
<path class="portal-custom-svg" d="M16.3921 14.1775L16.3921 15.2011C16.3921 15.4096 16.4704 15.592 16.6269 15.7484C16.7834 15.9048 16.9755 15.983 17.2032 15.983C17.4119 15.983 17.5968 15.9024 17.7581 15.7413C17.9194 15.5802 18 15.3954 18 15.1869V12.2299C18 12.1162 17.9787 12.0143 17.936 11.9243C17.8933 11.8342 17.834 11.7513 17.7581 11.6755C17.6822 11.5997 17.5992 11.5405 17.5091 11.4978C17.419 11.4552 17.317 11.4338 17.2032 11.4338L14.2435 11.4338C14.0349 11.4338 13.8522 11.512 13.6957 11.6684C13.5392 11.8248 13.4562 12.012 13.4467 12.2299C13.4467 12.4574 13.525 12.6493 13.6815 12.8057C13.838 12.9621 14.0301 13.0402 14.2578 13.0402H15.2538L12.3558 15.9366C12.1945 16.0977 12.1139 16.2872 12.1139 16.5052C12.1139 16.7232 12.1945 16.9128 12.3558 17.0739C12.5171 17.235 12.7068 17.3155 12.925 17.3155C13.1431 17.3155 13.3329 17.235 13.4941 17.0739L16.3921 14.1775ZM11.1701 19.3948C11.3313 19.2337 11.412 19.0441 11.412 18.8262C11.412 18.6082 11.3313 18.4186 11.1701 18.2575C11.0088 18.0964 10.8191 18.0158 10.6009 18.0158C10.3827 18.0158 10.193 18.0964 10.0318 18.2575C9.87049 18.4186 9.78986 18.6082 9.78986 18.8262C9.78986 19.0441 9.87049 19.2337 10.0318 19.3948C10.193 19.5559 10.3827 19.6365 10.6009 19.6365C10.8191 19.6365 11.0088 19.5559 11.1701 19.3948ZM8.7462 14.2336L11.6442 11.3373C11.8055 11.1761 11.8861 10.9866 11.8861 10.7686C11.8861 10.5506 11.8055 10.3611 11.6442 10.2C11.4829 10.0389 11.2932 9.9583 11.075 9.9583C10.8569 9.9583 10.6671 10.0389 10.5059 10.2L7.60788 13.0963L7.60788 12.0728C7.60788 11.8643 7.52962 11.6818 7.3731 11.5254C7.21658 11.3691 7.02449 11.2909 6.79683 11.2909C6.58813 11.2909 6.40316 11.3714 6.24189 11.5326C6.08063 11.6937 6 11.8785 6 12.087L6 15.0439C6 15.1576 6.02135 15.2595 6.06403 15.3496C6.10672 15.4396 6.16601 15.5225 6.24189 15.5983C6.31778 15.6742 6.40079 15.7334 6.4909 15.776C6.58102 15.8187 6.68299 15.84 6.79683 15.84L9.75646 15.84C9.96515 15.84 10.1478 15.7618 10.3043 15.6054C10.4608 15.4491 10.5438 15.2619 10.5533 15.0439C10.5533 14.8165 10.475 14.6245 10.3185 14.4682C10.162 14.3118 9.96989 14.2336 9.74223 14.2336H8.7462ZM13.9691 9.01543C14.1304 8.85431 14.211 8.66477 14.211 8.44679C14.211 8.22881 14.1304 8.03926 13.9691 7.87815C13.8079 7.71703 13.6182 7.63647 13.4 7.63647C13.1818 7.63647 12.9921 7.71703 12.8308 7.87815C12.6695 8.03926 12.5889 8.22881 12.5889 8.44679C12.5889 8.66477 12.6695 8.85431 12.8308 9.01543C12.9921 9.17654 13.1818 9.2571 13.4 9.2571C13.6182 9.2571 13.8079 9.17654 13.9691 9.01543Z"/>
<path class="portal-custom-svg" fill-rule="evenodd" clip-rule="evenodd" d="M1.63647 5.72738L4.611 2.29524C4.97361 1.87684 5.50001 1.63647 6.05367 1.63647H17.9465C18.5002 1.63647 19.0266 1.87684 19.3892 2.29524L22.3637 5.72738V20.4547C22.3637 21.509 21.509 22.3637 20.4547 22.3637H3.54557C2.4912 22.3637 1.63647 21.509 1.63647 20.4547V5.72738ZM6.05367 3.27284H17.9465C18.0256 3.27284 18.1008 3.30718 18.1526 3.36695L19.4893 4.9092H4.51096L5.84758 3.36695C5.89938 3.30718 5.97458 3.27284 6.05367 3.27284ZM20.7274 6.54557H3.27284L3.27284 20.4547C3.27284 20.6053 3.39494 20.7274 3.54557 20.7274H20.4547C20.6053 20.7274 20.7274 20.6053 20.7274 20.4547V6.54557Z"/>
</svg>
