<svg class="portal-svg" alt="automation" width="24" height="24" viewBox="0 0 24 24" fill="none" xmlns="http://www.w3.org/2000/svg">
<path class="portal-custom-svg" d="M10.6763 18.1635C10.3062 18.0885 9.96205 17.9586 9.64379 17.7737C9.32536 17.5888 9.03872 17.3587 8.78388 17.0834L8.03852 17.3373C7.81984 17.4122 7.60276 17.4129 7.38728 17.3393C7.17197 17.2655 7.00283 17.1246 6.87986 16.9165L6.68961 16.5925C6.56665 16.3844 6.52233 16.1618 6.55664 15.9246C6.59096 15.6873 6.70189 15.4917 6.88945 15.3379L7.49124 14.8374C7.37988 14.4638 7.3242 14.0837 7.3242 13.6971C7.3242 13.3105 7.37988 12.9304 7.49124 12.5567L6.88945 12.0409C6.70189 11.8869 6.59096 11.6939 6.55664 11.462C6.52233 11.2299 6.56665 11.0098 6.68961 10.8017L6.87986 10.4777C7.00283 10.2696 7.17197 10.1287 7.38728 10.0549C7.60276 9.98125 7.81984 9.98192 8.03852 10.0569L8.78388 10.3108C9.03872 10.0355 9.32536 9.80535 9.64379 9.62046C9.96205 9.43556 10.3062 9.30563 10.6763 9.23067L10.8355 8.41983C10.8833 8.19107 10.9951 8.00332 11.1711 7.85658C11.3472 7.70984 11.5549 7.63647 11.7943 7.63647H12.2056C12.445 7.63647 12.6527 7.70984 12.8288 7.85658C13.0048 8.00332 13.1166 8.19107 13.1644 8.41983L13.3236 9.23067C13.6937 9.30563 14.0379 9.43556 14.3561 9.62046C14.6746 9.80535 14.9612 10.0355 15.216 10.3108L15.9614 10.0569C16.1801 9.98192 16.3971 9.98125 16.6126 10.0549C16.8279 10.1287 16.9971 10.2696 17.12 10.4777L17.3103 10.8017C17.4333 11.0098 17.4776 11.2324 17.4433 11.4695C17.409 11.7069 17.298 11.9024 17.1105 12.0562L16.5087 12.5567C16.62 12.9304 16.6757 13.3105 16.6757 13.6971C16.6757 14.0837 16.62 14.4638 16.5087 14.8374L17.1105 15.3533C17.298 15.5073 17.409 15.7002 17.4433 15.9322C17.4776 16.1643 17.4333 16.3844 17.3103 16.5925L17.12 16.9165C16.9971 17.1246 16.8279 17.2655 16.6126 17.3393C16.3971 17.4129 16.1801 17.4122 15.9614 17.3373L15.216 17.0834C14.9612 17.3587 14.6746 17.5888 14.3561 17.7737C14.0379 17.9586 13.6937 18.0885 13.3236 18.1635L13.1644 18.9743C13.1166 19.2031 13.0048 19.3908 12.8288 19.5376C12.6527 19.6843 12.445 19.7577 12.2056 19.7577H11.7943C11.5549 19.7577 11.3472 19.6843 11.1711 19.5376C10.9951 19.3908 10.8833 19.2031 10.8355 18.9743L10.6763 18.1635ZM12 16.7226C12.841 16.7226 13.5559 16.4284 14.1447 15.8402C14.7334 15.2519 15.0278 14.5375 15.0278 13.6971C15.0278 12.8567 14.7334 12.1423 14.1447 11.554C13.5559 10.9657 12.841 10.6716 12 10.6716C11.1589 10.6716 10.444 10.9657 9.85523 11.554C9.26648 12.1423 8.97211 12.8567 8.97211 13.6971C8.97211 14.5375 9.26648 15.2519 9.85523 15.8402C10.444 16.4284 11.1589 16.7226 12 16.7226Z"/>
<path class="portal-custom-svg" fill-rule="evenodd" clip-rule="evenodd" d="M1.63647 5.72738L4.611 2.29524C4.97361 1.87684 5.50001 1.63647 6.05367 1.63647H17.9465C18.5002 1.63647 19.0266 1.87684 19.3892 2.29524L22.3637 5.72738V20.4547C22.3637 21.509 21.509 22.3637 20.4547 22.3637H3.54557C2.4912 22.3637 1.63647 21.509 1.63647 20.4547V5.72738ZM6.05367 3.27284H17.9465C18.0256 3.27284 18.1008 3.30718 18.1526 3.36695L19.4893 4.9092H4.51096L5.84758 3.36695C5.89938 3.30718 5.97458 3.27284 6.05367 3.27284ZM20.7274 6.54557H3.27284L3.27284 20.4547C3.27284 20.6053 3.39494 20.7274 3.54557 20.7274H20.4547C20.6053 20.7274 20.7274 20.6053 20.7274 20.4547V6.54557Z"/>
</svg>
