<svg class="portal-svg" xmlns="http://www.w3.org/2000/svg" width="20" height="20" viewBox="0 0 20 20" fill="none">
    <path
        d="M6.29813 17.9167C5.5941 17.9167 4.9934 17.668 4.49604 17.1706C3.99868 16.6733 3.75 16.0726 3.75 15.3685V4.79166C3.75 4.03958 4.01333 3.40013 4.54 2.87333C5.06681 2.34666 5.70625 2.08333 6.45833 2.08333H16.25V14.0704C15.8921 14.0704 15.5863 14.1973 15.3325 14.451C15.0788 14.7048 14.9519 15.0106 14.9519 15.3685C14.9519 15.7265 15.0788 16.0323 15.3325 16.286C15.5863 16.5398 15.8921 16.6667 16.25 16.6667V17.9167H6.29813ZM5 13.2035C5.18917 13.0742 5.39188 12.9781 5.60813 12.915C5.82451 12.8521 6.05451 12.8206 6.29813 12.8206H6.82688V3.33333H6.45833C6.05764 3.33333 5.71444 3.47625 5.42875 3.76208C5.14292 4.04777 5 4.39097 5 4.79166V13.2035ZM8.07688 12.8206H15V3.33333H8.07688V12.8206ZM6.29813 16.6667H14.085C13.9642 16.4775 13.8701 16.2769 13.8029 16.065C13.7356 15.8529 13.7019 15.6208 13.7019 15.3685C13.7019 15.1303 13.7334 14.9017 13.7965 14.6827C13.8595 14.4637 13.9557 14.2596 14.085 14.0704H6.29813C5.92632 14.0704 5.61701 14.1973 5.37021 14.451C5.1234 14.7048 5 15.0106 5 15.3685C5 15.7403 5.1234 16.0496 5.37021 16.2965C5.61701 16.5433 5.92632 16.6667 6.29813 16.6667Z"
        class="portal-custom-svg" />
</svg>
