<svg xmlns="http://www.w3.org/2000/svg" width="16" height="16" viewBox="0 0 16 16">
<g id="category_24px">
<path class="category-fill" id="icon/maps/category_24px" fill-rule="evenodd" clip-rule="evenodd" d="M3.99999 7.33333L7.66666 1.33333L11.3333 7.33333H3.99999ZM8.95332 6L7.66666 3.89333L6.37332 6H8.95332ZM11.3333 8.66667C9.67332 8.66667 8.33332 10.0067 8.33332 11.6667C8.33332 13.3267 9.67332 14.6667 11.3333 14.6667C12.9933 14.6667 14.3333 13.3267 14.3333 11.6667C14.3333 10.0067 12.9933 8.66667 11.3333 8.66667ZM9.66666 11.6667C9.66666 12.5867 10.4133 13.3333 11.3333 13.3333C12.2533 13.3333 13 12.5867 13 11.6667C13 10.7467 12.2533 10 11.3333 10C10.4133 10 9.66666 10.7467 9.66666 11.6667ZM1.66666 14.3333H6.99999V9H1.66666V14.3333ZM5.66666 10.3333H2.99999V13H5.66666V10.3333Z"/>
</g>
</svg>
