<svg class="portal-svg" width="32" height="32" viewBox="0 0 32 32" fill="none" xmlns="http://www.w3.org/2000/svg">
<path fill-rule="evenodd" clip-rule="evenodd" d="M22 6H21V4H19V6H9V4H7V6H6C4.9 6 4 6.9 4 8V24C4 25.1 4.9 26 6 26H17.5278C18.6264 27.2275 20.223 28 22 28C25.3137 28 28 25.3137 28 22C28 19.3876 26.3304 17.1651 24 16.3414V8C24 6.9 23.1 6 22 6ZM22 16V13H6V24H16.3414C16.1203 23.3744 16 22.7013 16 22C16 18.6863 18.6863 16 22 16ZM6 11H22V8H6V11ZM22 26.5C24.4853 26.5 26.5 24.4853 26.5 22C26.5 19.5147 24.4853 17.5 22 17.5C19.5147 17.5 17.5 19.5147 17.5 22C17.5 24.4853 19.5147 26.5 22 26.5ZM21.5 22.5V19H22.5V22.25L24.3 23.6L23.7 24.4L21.7 22.9L21.5 22.75V22.5Z" class="date-time-svg-fill" />
</svg>
