<svg class="portal-svg" width="25" height="25" viewBox="0 0 25 25" fill="none" xmlns="http://www.w3.org/2000/svg" alt="directory user">
<path fill-rule="evenodd" clip-rule="evenodd" d="M7.00436 11.0068C8.66122 11.0093 10.0064 9.66817 10.0089 8.01132C10.0114 6.35446 8.67028 5.00929 7.01342 5.00679C5.35657 5.00429 4.0114 6.3454 4.0089 8.00225C4.0064 9.65911 5.34751 11.0043 7.00436 11.0068Z" stroke-width="2" class="picker-svg-stroke"/>
<path d="M12.9999 20.0113C13.0024 16.6976 10.3181 14.0093 7.00439 14.0068C3.69069 14.0043 1.00237 16.6885 0.999864 20.0023" stroke-width="2" class="picker-svg-stroke"/>
<path fill-rule="evenodd" clip-rule="evenodd" d="M12 11L11 11L11 12L11 12.5712C11.7252 12.8629 12.3979 13.2575 13 13.7371L13 13L21 13L21 18L17 18L15.7706 18C15.9355 18.6393 16.0235 19.3094 16.0241 20L17 20L22 20L23 20L23 19L23 12L23 11L22 11L12 11ZM11.9905 15.5C11.6862 15.2312 11.3544 14.9928 11 14.7894L11 15.5L11.9905 15.5Z" class="picker-svg-fill"/>
<path d="M15 9V8C14.4477 8 14 8.44772 14 9H15ZM19 9H20C20 8.44772 19.5523 8 19 8V9ZM15 10H19V8H15V10ZM18 9V12H20V9H18ZM16 12V9H14V12H16Z" class="picker-svg-fill"/>
</svg>
