<svg xmlns="http://www.w3.org/2000/svg" width="10" height="8" viewBox="0 0 10 8" fill="none">
<path class="line-arrow-fill" fill-rule="evenodd" clip-rule="evenodd" d="M0.332031 4C0.332031 3.67783 0.593198 3.41667 0.915365 3.41667H9.08203C9.4042 3.41667 9.66537 3.67783 9.66537 4C9.66537 4.32217 9.4042 4.58333 9.08203 4.58333H0.915365C0.593198 4.58333 0.332031 4.32217 0.332031 4Z"/>
<path class="line-arrow-fill" fill-rule="evenodd" clip-rule="evenodd" d="M5.75289 0.670854C5.98069 0.443049 6.35004 0.443049 6.57784 0.670854L9.49451 3.58752C9.72232 3.81533 9.72232 4.18467 9.49451 4.41248L6.57784 7.32915C6.35004 7.55695 5.98069 7.55695 5.75289 7.32915C5.52508 7.10134 5.52508 6.73199 5.75289 6.50419L8.25707 4L5.75289 1.49581C5.52508 1.26801 5.52508 0.89866 5.75289 0.670854Z"/>
</svg>
