<svg class="portal-svg" width="25" height="25" viewBox="0 0 25 25" fill="none" xmlns="http://www.w3.org/2000/svg" alt="local group">
<path fill-rule="evenodd" clip-rule="evenodd" d="M16.8065 11.8083C18.1328 11.8103 19.2096 10.7368 19.2116 9.41047C19.2136 8.08419 18.1401 7.0074 16.8138 7.0054C15.4875 7.00339 14.4107 8.07693 14.4087 9.40322C14.4067 10.7295 15.4803 11.8063 16.8065 11.8083Z" stroke-width="2" class="picker-svg-stroke"/>
<path fill-rule="evenodd" clip-rule="evenodd" d="M11 19.0083C11.0024 15.8034 13.6024 13.2073 16.8073 13.2098C20.0121 13.2122 22.6082 15.8122 22.6058 19.017L20.6058 19.0155C20.6074 16.9152 18.9061 15.2114 16.8058 15.2098C14.7055 15.2082 13.0016 16.9095 13 19.0098L11 19.0083Z" class="picker-svg-fill"/>
<path fill-rule="evenodd" clip-rule="evenodd" d="M6.80655 16.8083C8.13283 16.8104 9.20961 15.7368 9.21162 14.4105C9.21362 13.0842 8.14008 12.0075 6.8138 12.0055C5.48752 12.0035 4.41073 13.077 4.40873 14.4033C4.40672 15.7296 5.48026 16.8063 6.80655 16.8083Z" stroke-width="2" class="picker-svg-stroke"/>
<path d="M11.6058 24.0163C11.6078 21.3638 9.45912 19.2118 6.80656 19.2098C4.15399 19.2078 2.00204 21.3565 2.00004 24.0091" stroke-width="2" class="picker-svg-stroke"/>
</svg>
