<svg class="portal-svg" width="20" height="20" viewBox="0 0 20 20" xmlns="http://www.w3.org/2000/svg">
    <path fill="currentColor"
        d="M10.4167 13.3333V6.66667L13.75 10L10.4167 13.3333ZM15.8333 17.5C16.2917 17.5 16.684 17.3368 17.0104 17.0104C17.3368 16.684 17.5 16.2917 17.5 15.8333V4.16667C17.5 3.70833 17.3368 3.31597 17.0104 2.98958C16.684 2.66319 16.2917 2.5 15.8333 2.5H4.16667C3.70833 2.5 3.31597 2.66319 2.98958 2.98958C2.66319 3.31597 2.5 3.70833 2.5 4.16667V15.8333C2.5 16.2917 2.66319 16.684 2.98958 17.0104C3.31597 17.3368 3.70833 17.5 4.16667 17.5H15.8333ZM6.66667 15.8333H4.16667V4.16667H6.66667V15.8333ZM8.33333 15.8333V4.16667H15.8333V15.8333H8.33333Z"
        class="portal-custom-svg" />
</svg>
