<svg class="portal-svg" width="18" height="18" viewBox="0 0 18 18" fill="none" xmlns="http://www.w3.org/2000/svg" alt="robot">
<path d="M6.5 2C6.5 1.44772 6.94772 1 7.5 1H10.5C11.0523 1 11.5 1.44772 11.5 2C11.5 2.55228 11.0523 3 10.5 3H7.5C6.94772 3 6.5 2.55228 6.5 2Z" class="picker-svg-fill"/>
<path fill-rule="evenodd" clip-rule="evenodd" d="M4.25 8.75C4.25 8.19772 4.69772 7.75 5.25 7.75H12.75C13.3023 7.75 13.75 8.19772 13.75 8.75V11.75C13.75 12.3023 13.3023 12.75 12.75 12.75H5.25C4.69772 12.75 4.25 12.3023 4.25 11.75V8.75ZM6.25 9.75V10.75H11.75V9.75H6.25Z" class="picker-svg-fill"/>
<path d="M8.25 13C7.69772 13 7.25 13.4477 7.25 14C7.25 14.5523 7.69772 15 8.25 15H9.75C10.3023 15 10.75 14.5523 10.75 14C10.75 13.4477 10.3023 13 9.75 13H8.25Z" class="picker-svg-fill"/>
<path fill-rule="evenodd" clip-rule="evenodd" d="M10 4.25C10 3.69772 9.55229 3.25 9 3.25C8.44771 3.25 8 3.69772 8 4.25V4.75H3.25C2.14543 4.75 1.25 5.64543 1.25 6.75V9.5H1C0.447715 9.5 0 9.94771 0 10.5C0 11.0523 0.447715 11.5 1 11.5H1.25V15.25C1.25 16.3546 2.14543 17.25 3.25 17.25H14.75C15.8546 17.25 16.75 16.3546 16.75 15.25V11.25H17C17.5523 11.25 18 10.8023 18 10.25C18 9.69771 17.5523 9.25 17 9.25H16.75V6.75C16.75 5.64543 15.8546 4.75 14.75 4.75H10V4.25ZM3.25 6.75V15.25H14.75V6.75H3.25Z" class="picker-svg-fill"/>
</svg>
