<svg width="25" height="25" viewBox="0 0 25 25" fill="none" xmlns="http://www.w3.org/2000/svg">
<path d="M14.2773 18.2354L18.2873 18.2354L18.2873 15.2354L22.2773 19.2354L18.2873 23.2354L18.2873 20.2354L14.2773 20.2354L14.2773 18.2354Z" fill="#1976D2"/>
<path d="M14.2773 2.23535H6.27734C5.17734 2.23535 4.28734 3.13535 4.28734 4.23535L4.27734 20.2354C4.27734 21.3354 5.16734 22.2354 6.26734 22.2354H12.2773V20.2354H6.27734V4.23535H13.2773V9.23535H18.2773V13.2354H20.2773V8.23535L14.2773 2.23535Z" fill="currentColor"/>
<path d="M10.2773 9.23535H12.2773V11.2354H10.2773V9.23535Z" fill="currentColor"/>
<path d="M12.2773 13.2354V11.2354H14.2773V13.2354H12.2773Z" fill="currentColor"/>
<path d="M12.2773 15.2354H10.2773V13.2354H12.2773V15.2354Z" fill="currentColor"/>
<path d="M12.2773 15.2354H14.2773V17.2354H12.2773V15.2354Z" fill="currentColor"/>
</svg>
