<svg width="24" height="24" viewBox="0 0 24 24" fill="none" xmlns="http://www.w3.org/2000/svg">
<path d="M16.8558 16.9L14.773 18.9828C14.6345 19.1211 14.4621 19.1887 14.2557 19.1855C14.0494 19.1823 13.877 19.1115 13.7385 18.973C13.6 18.8345 13.5307 18.6599 13.5307 18.4493C13.5307 18.2386 13.6 18.0651 13.7385 17.9288L15.8115 15.8558L13.7288 13.773C13.5904 13.6345 13.5228 13.4605 13.526 13.251C13.5292 13.0413 13.6 12.8673 13.7385 12.7288C13.877 12.5904 14.0516 12.5213 14.2622 12.5213C14.4729 12.5213 14.6464 12.5904 14.7828 12.7288L16.8558 14.8115L18.9385 12.7288C19.0748 12.5904 19.2483 12.5213 19.459 12.5213C19.6697 12.5213 19.8442 12.5904 19.9827 12.7288C20.1211 12.8673 20.1903 13.0418 20.1903 13.2525C20.1903 13.4632 20.1211 13.6367 19.9827 13.773L17.9 15.8558L19.9827 17.9385C20.1211 18.077 20.1903 18.2494 20.1903 18.4558C20.1903 18.6621 20.1211 18.8345 19.9827 18.973C19.8442 19.1115 19.6697 19.1808 19.459 19.1808C19.2483 19.1808 19.0748 19.1115 18.9385 18.973L16.8558 16.9ZM16.2153 8.72301L19.9385 5.00001C20.0872 4.85134 20.2628 4.77792 20.4653 4.77976C20.6679 4.78176 20.8436 4.86034 20.9923 5.01551C21.1308 5.16651 21.2 5.34267 21.2 5.54401C21.2 5.74551 21.1308 5.92059 20.9923 6.06926L16.873 10.2038C16.6923 10.3846 16.4814 10.475 16.2402 10.475C15.9992 10.475 15.7884 10.3846 15.6077 10.2038L13.5635 8.15951C13.425 8.02117 13.3573 7.84717 13.3605 7.63751C13.3638 7.42784 13.4347 7.25384 13.573 7.11551C13.7115 6.97701 13.8861 6.90776 14.0968 6.90776C14.3074 6.90776 14.4809 6.97701 14.6173 7.11551L16.2153 8.72301ZM3.25 15.0578H10.25C10.4625 15.0578 10.6407 15.1297 10.7845 15.2735C10.9282 15.4173 11 15.5955 11 15.808C11 16.0207 10.9282 16.1988 10.7845 16.3423C10.6407 16.4859 10.4625 16.5578 10.25 16.5578H3.25C3.0375 16.5578 2.85942 16.4858 2.71575 16.342C2.57192 16.1982 2.5 16.0199 2.5 15.8073C2.5 15.5948 2.57192 15.4167 2.71575 15.273C2.85942 15.1295 3.0375 15.0578 3.25 15.0578ZM3.25 7.44226H10.25C10.4625 7.44226 10.6407 7.51417 10.7845 7.65801C10.9282 7.80184 11 7.98009 11 8.19276C11 8.40526 10.9282 8.58334 10.7845 8.72701C10.6407 8.87051 10.4625 8.94226 10.25 8.94226H3.25C3.0375 8.94226 2.85942 8.87034 2.71575 8.72651C2.57192 8.58267 2.5 8.40451 2.5 8.19201C2.5 7.97934 2.57192 7.80126 2.71575 7.65776C2.85942 7.51409 3.0375 7.44226 3.25 7.44226Z" fill="currentColor"/>
</svg>
