<svg width="24" height="24" viewBox="0 0 24 24" fill="none" xmlns="http://www.w3.org/2000/svg">
<path d="M12.0003 13.1392L15.3633 16.5022C15.5144 16.6531 15.7042 16.7268 15.9327 16.7234C16.1614 16.7199 16.3514 16.6427 16.5024 16.4916C16.6534 16.3405 16.7288 16.1507 16.7288 15.9221C16.7288 15.6934 16.6534 15.5035 16.5024 15.3524L13.1394 12L16.5024 8.63702C16.6534 8.48593 16.7288 8.29611 16.7288 8.06757C16.7288 7.83884 16.6534 7.64893 16.5024 7.49784C16.3514 7.34693 16.1614 7.27148 15.9327 7.27148C15.7042 7.27148 15.5144 7.34693 15.3633 7.49784L12.0003 10.8608L8.63727 7.49784C8.48618 7.34693 8.29808 7.27148 8.07299 7.27148C7.8479 7.27148 7.65981 7.34693 7.50872 7.49784C7.35763 7.64893 7.28208 7.83884 7.28208 8.06757C7.28208 8.29611 7.35763 8.48593 7.50872 8.63702L10.8611 12L7.49809 15.363C7.34718 15.5141 7.27345 15.7022 7.2769 15.9273C7.28036 16.1524 7.35763 16.3405 7.50872 16.4916C7.65981 16.6427 7.84963 16.7182 8.07818 16.7182C8.3069 16.7182 8.49681 16.6427 8.6479 16.4916L12.0003 13.1392ZM4.69963 21.2727C4.14854 21.2727 3.68208 21.0818 3.30027 20.7C2.91845 20.3182 2.72754 19.8517 2.72754 19.3007V4.69939C2.72754 4.14829 2.91845 3.68184 3.30027 3.30002C3.68208 2.9182 4.14854 2.72729 4.69963 2.72729H19.3009C19.852 2.72729 20.3184 2.9182 20.7003 3.30002C21.0821 3.68184 21.273 4.14829 21.273 4.69939V19.3007C21.273 19.8517 21.0821 20.3182 20.7003 20.7C20.3184 21.0818 19.852 21.2727 19.3009 21.2727H4.69963Z" fill="#CC3D45"/>
</svg>
