<svg width="24" height="24" viewBox="0 0 24 24" fill="none" xmlns="http://www.w3.org/2000/svg">
<path fill-rule="evenodd" clip-rule="evenodd" d="M17.4227 13.353C18.5596 13.353 19.5281 13.749 20.3268 14.5419C21.1253 15.335 21.5242 16.3077 21.5242 17.4588C21.5242 18.5928 21.1251 19.5591 20.3268 20.3576C19.5281 21.1561 18.5596 21.555 17.4227 21.555C16.2857 21.555 15.3181 21.1561 14.5196 20.3576C13.721 19.5591 13.3212 18.5915 13.3211 17.4545C13.3211 16.3175 13.7209 15.349 14.5196 14.5504C15.3181 13.7521 16.2858 13.3531 17.4227 13.353ZM17.4227 14.9893C16.7389 14.9894 16.1572 15.2289 15.6776 15.7085C15.1978 16.1881 14.9575 16.7705 14.9575 17.4545C14.9575 18.1384 15.1979 18.72 15.6776 19.1996C16.1572 19.6793 16.7388 19.9197 17.4227 19.9197C18.1065 19.9197 18.6889 19.6794 19.1688 19.1996C19.6482 18.7201 19.8878 18.1383 19.8879 17.4545C19.8879 16.7705 19.6484 16.1881 19.1688 15.7085C18.6889 15.2286 18.1065 14.9893 17.4227 14.9893Z" fill="currentColor"/>
<path d="M4.63645 12.8544C4.86818 12.8545 5.06174 12.9333 5.21813 13.0898C5.37476 13.2467 5.45357 13.4409 5.45357 13.6726V18.5359H10.3179C10.5495 18.5359 10.7439 18.6146 10.9007 18.7713C11.0572 18.9281 11.135 19.1225 11.135 19.354C11.135 19.5859 11.0573 19.7803 10.9007 19.9368C10.7439 20.0933 10.5495 20.1711 10.3179 20.1712H4.80371C4.52449 20.1711 4.29041 20.0767 4.10165 19.8878C3.91278 19.699 3.81827 19.4649 3.81827 19.1857V13.6726C3.81827 13.441 3.89697 13.2466 4.05371 13.0898C4.21052 12.9332 4.40478 12.8544 4.63645 12.8544Z" fill="currentColor"/>
<path d="M19.1965 3.81818C19.4755 3.81818 19.7096 3.91268 19.8985 4.10156C20.0873 4.29033 20.1819 4.5244 20.1819 4.80362V10.3178C20.1818 10.5494 20.1032 10.7438 19.9465 10.9006C19.7899 11.057 19.5954 11.1349 19.3637 11.1349C19.1322 11.1349 18.9384 11.0569 18.782 10.9006C18.6255 10.7438 18.5467 10.5494 18.5466 10.3178V5.45348H13.6823C13.4508 5.45341 13.2571 5.37471 13.1006 5.21804C12.9438 5.06123 12.8651 4.86697 12.8651 4.6353C12.8652 4.40357 12.9438 4.21 13.1006 4.05362C13.2571 3.89706 13.4507 3.81825 13.6823 3.81818H19.1965Z" fill="currentColor"/>
<path fill-rule="evenodd" clip-rule="evenodd" d="M9.13752 2.60156C9.41677 2.60167 9.65077 2.69614 9.83958 2.88494C10.0283 3.07399 10.123 3.30785 10.123 3.587V9.81818C10.1229 10.0974 10.0284 10.3314 9.83958 10.5202C9.65077 10.709 9.41677 10.8035 9.13752 10.8036H2.90634C2.627 10.8036 2.39315 10.709 2.20428 10.5202C2.01548 10.3314 1.921 10.0974 1.9209 9.81818V3.587C1.9209 3.30773 2.01537 3.07403 2.20428 2.88494C2.39319 2.69603 2.62688 2.60156 2.90634 2.60156H9.13752ZM3.5562 9.16726H8.48659V4.23793H3.5562V9.16726Z" fill="currentColor"/>
</svg>
