<svg width="24" height="24" viewBox="0 0 24 24" fill="none" xmlns="http://www.w3.org/2000/svg">
<path fill-rule="evenodd" clip-rule="evenodd" d="M4 3C3.44772 3 3 3.44772 3 4V19C3 19.5523 3.44772 20 4 20H20C20.5523 20 21 19.5523 21 19V18H11V15H14V13H11V10H21V4C21 3.44772 20.5523 3 20 3H4ZM5 5V8H9V5H5ZM5 10H9V13H5V10ZM5 15H9V18H5V15ZM11 5V8H19V5H11Z" fill="currentColor"/>
<path d="M17.4142 10.55L16 11.9643L17.975 13.9392L16.0001 15.9142L17.4143 17.3284L19.3892 15.3535L21.364 17.3282L22.7782 15.914L20.8034 13.9392L22.7782 11.9644L21.364 10.5502L19.3892 12.525L17.4142 10.55Z" fill="#CC3D45"/>
</svg>
