<svg width="18" height="18" viewBox="0 0 18 18" fill="none" xmlns="http://www.w3.org/2000/svg">
<g clip-path="url(#clip0_4861_9652)">
<path fill-rule="evenodd" clip-rule="evenodd" d="M15.8665 2.41475C16.0862 2.63442 16.0862 2.99058 15.8665 3.21025L3.21025 15.8665C2.99058 16.0862 2.63442 16.0862 2.41475 15.8665C2.19508 15.6468 2.19508 15.2907 2.41475 15.071L15.071 2.41475C15.2907 2.19508 15.6468 2.19508 15.8665 2.41475Z" fill="#9747FF"/>
<path fill-rule="evenodd" clip-rule="evenodd" d="M12.4915 2.41475C12.7112 2.63442 12.7112 2.99058 12.4915 3.21025L3.21025 12.4915C2.99058 12.7112 2.63442 12.7112 2.41475 12.4915C2.19508 12.2718 2.19508 11.9157 2.41475 11.696L11.696 2.41475C11.9157 2.19508 12.2718 2.19508 12.4915 2.41475Z" fill="#9747FF"/>
<path fill-rule="evenodd" clip-rule="evenodd" d="M15.8665 5.78975C16.0862 6.00942 16.0862 6.36558 15.8665 6.58525L6.58525 15.8665C6.36558 16.0862 6.00942 16.0862 5.78975 15.8665C5.57008 15.6468 5.57008 15.2907 5.78975 15.071L15.071 5.78975C15.2907 5.57008 15.6468 5.57008 15.8665 5.78975Z" fill="#9747FF"/>
<path fill-rule="evenodd" clip-rule="evenodd" d="M9.1165 2.41475C9.33617 2.63442 9.33617 2.99058 9.1165 3.21025L3.21025 9.1165C2.99058 9.33617 2.63442 9.33617 2.41475 9.1165C2.19508 8.89683 2.19508 8.54067 2.41475 8.321L8.321 2.41475C8.54067 2.19508 8.89683 2.19508 9.1165 2.41475Z" fill="#9747FF"/>
<path fill-rule="evenodd" clip-rule="evenodd" d="M15.8665 9.16475C16.0862 9.38442 16.0862 9.74058 15.8665 9.96025L9.96025 15.8665C9.74058 16.0862 9.38442 16.0862 9.16475 15.8665C8.94508 15.6468 8.94508 15.2907 9.16475 15.071L15.071 9.16475C15.2907 8.94508 15.6468 8.94508 15.8665 9.16475Z" fill="#9747FF"/>
<path fill-rule="evenodd" clip-rule="evenodd" d="M5.7415 2.41475C5.96117 2.63442 5.96117 2.99058 5.7415 3.21025L3.21025 5.7415C2.99058 5.96117 2.63442 5.96117 2.41475 5.7415C2.19508 5.52183 2.19508 5.16567 2.41475 4.946L4.946 2.41475C5.16567 2.19508 5.52183 2.19508 5.7415 2.41475Z" fill="#9747FF"/>
<path fill-rule="evenodd" clip-rule="evenodd" d="M15.8665 12.5398C16.0862 12.7594 16.0862 13.1156 15.8665 13.3352L13.3352 15.8665C13.1156 16.0862 12.7594 16.0862 12.5398 15.8665C12.3201 15.6468 12.3201 15.2907 12.5398 15.071L15.071 12.5398C15.2907 12.3201 15.6468 12.3201 15.8665 12.5398Z" fill="#9747FF"/>
<path fill-rule="evenodd" clip-rule="evenodd" d="M17.4375 4.5C17.1268 4.5 16.875 4.24816 16.875 3.9375V1.125H14.0625C13.7518 1.125 13.5 0.87316 13.5 0.5625C13.5 0.25184 13.7518 0 14.0625 0H17.4375C17.7482 0 18 0.25184 18 0.5625V3.9375C18 4.24816 17.7482 4.5 17.4375 4.5Z" fill="#9747FF"/>
<path fill-rule="evenodd" clip-rule="evenodd" d="M4.5 0.5625C4.5 0.87316 4.24816 1.125 3.9375 1.125L1.125 1.125L1.125 3.9375C1.125 4.24816 0.87316 4.5 0.5625 4.5C0.251839 4.5 -1.85693e-07 4.24816 -1.72114e-07 3.9375L-2.45877e-08 0.5625C-1.10083e-08 0.25184 0.25184 -1.85693e-07 0.5625 -1.72114e-07L3.9375 -2.45877e-08C4.24816 -1.10083e-08 4.5 0.25184 4.5 0.5625Z" fill="#9747FF"/>
<path fill-rule="evenodd" clip-rule="evenodd" d="M0.5625 13.5C0.87316 13.5 1.125 13.7518 1.125 14.0625L1.125 16.875H3.9375C4.24816 16.875 4.5 17.1268 4.5 17.4375C4.5 17.7482 4.24816 18 3.9375 18H0.5625C0.25184 18 0 17.7482 0 17.4375L0 14.0625C0 13.7518 0.25184 13.5 0.5625 13.5Z" fill="#9747FF"/>
<path fill-rule="evenodd" clip-rule="evenodd" d="M13.5 17.4375C13.5 17.1268 13.7518 16.875 14.0625 16.875L16.875 16.875L16.875 14.0625C16.875 13.7518 17.1268 13.5 17.4375 13.5C17.7482 13.5 18 13.7518 18 14.0625L18 17.4375C18 17.7482 17.7482 18 17.4375 18L14.0625 18C13.7518 18 13.5 17.7482 13.5 17.4375Z" fill="#9747FF"/>
</g>
<defs>
<clipPath id="clip0_4861_9652">
<rect width="18" height="18" fill="var(--color-foreground)"/>
</clipPath>
</defs>
</svg>
