<svg width="24" height="24" viewBox="0 0 24 24" fill="none" xmlns="http://www.w3.org/2000/svg">
<path d="M12.0023 22.3636C10.5688 22.3636 9.22145 22.0916 7.96017 21.5476C6.6989 21.0036 5.60181 20.2654 4.6689 19.3328C3.73599 18.4003 2.99735 17.3036 2.45299 16.0429C1.90881 14.7822 1.63672 13.4352 1.63672 12.0019C1.63672 10.5684 1.90881 9.22108 2.45299 7.95981C2.99699 6.69853 3.73535 5.60144 4.66808 4.66853C5.60081 3.73562 6.69763 2.99699 7.95854 2.45263C9.21945 1.90844 10.5667 1.63635 12.0004 1.63635C12.908 1.63635 13.7877 1.75208 14.6395 1.98353C15.4914 2.21499 16.3061 2.54962 17.0837 2.98744C17.2934 3.1049 17.4304 3.27417 17.4947 3.49526C17.5591 3.71617 17.5214 3.92244 17.3815 4.11408C17.2417 4.30572 17.0567 4.42562 16.8265 4.47381C16.5965 4.52199 16.3745 4.48735 16.1605 4.3699C15.5227 4.01335 14.8517 3.74135 14.1475 3.5539C13.4434 3.36644 12.7276 3.27272 12.0004 3.27272C9.58217 3.27272 7.52308 4.12272 5.82308 5.82272C4.12308 7.52272 3.27308 9.58181 3.27308 12C3.27308 14.4182 4.12308 16.4773 5.82308 18.1773C7.52308 19.8773 9.58217 20.7273 12.0004 20.7273C14.4185 20.7273 16.4776 19.8773 18.1776 18.1773C19.8776 16.4773 20.7276 14.4182 20.7276 12C20.7276 11.7889 20.7196 11.5844 20.7036 11.3864C20.6874 11.1884 20.6598 10.9852 20.6207 10.7768C20.5844 10.5446 20.6242 10.3226 20.7402 10.1108C20.8564 9.89899 21.0311 9.76162 21.2644 9.69872C21.4842 9.63562 21.6881 9.6629 21.8761 9.78053C22.0643 9.89799 22.1765 10.0672 22.2129 10.2881C22.2633 10.5635 22.301 10.8423 22.3261 11.1243C22.3514 11.4061 22.364 11.698 22.364 12C22.364 13.4336 22.092 14.7809 21.548 16.0418C21.004 17.3027 20.2657 18.3995 19.3332 19.3323C18.4006 20.265 17.304 21.0034 16.0433 21.5474C14.7825 22.0915 13.4355 22.3636 12.0023 22.3636ZM10.4521 14.3414L20.6395 4.13699C20.7906 3.98608 20.9777 3.90608 21.2008 3.89699C21.4237 3.8879 21.6206 3.96872 21.7915 4.13944C21.9479 4.29599 22.0261 4.48681 22.0261 4.7119C22.0261 4.93699 21.9471 5.12862 21.7891 5.28681L11.1424 15.9504C10.9451 16.1475 10.715 16.2461 10.4521 16.2461C10.1892 16.2461 9.95908 16.1475 9.76181 15.9504L6.76808 12.9567C6.61717 12.8056 6.5399 12.6157 6.53626 12.387C6.53281 12.1584 6.61008 11.9651 6.76808 11.8069C6.92626 11.6489 7.1179 11.5699 7.34299 11.5699C7.56808 11.5699 7.75972 11.6489 7.9179 11.8069L10.4521 14.3414Z" fill="currentColor"/>
</svg>
