<svg width="24" height="24" viewBox="0 0 24 24" fill="none" xmlns="http://www.w3.org/2000/svg">
<path d="M20.3172 19.4481V23.537C20.3172 23.7851 20.4336 23.9347 20.6665 23.9855C20.8994 24.0364 21.0688 23.9529 21.1748 23.735L23.9543 17.3981C24.026 17.226 24.0125 17.0586 23.9138 16.8959C23.815 16.7332 23.6752 16.6518 23.4943 16.6518H21.2673V12.4747C21.2673 12.2266 21.1509 12.0742 20.918 12.0175C20.6851 11.9609 20.5157 12.0415 20.4097 12.2594L17.5011 18.7017C17.4296 18.8852 17.4397 19.0555 17.5313 19.2126C17.623 19.3696 17.7606 19.4481 17.9441 19.4481H20.3172Z" fill="#0067DF"/>
<path d="M20.392 2.72728C20.9431 2.72731 21.4091 2.91865 21.7908 3.30043C22.1726 3.68222 22.364 4.1482 22.364 4.69923V9.54546C22.364 9.99733 21.9977 10.3636 21.5458 10.3636C21.0939 10.3636 20.7276 9.99733 20.7276 9.54546V4.69923C20.7276 4.61528 20.6921 4.53889 20.6222 4.46911C20.5524 4.39915 20.476 4.36368 20.392 4.36364H3.60866C3.52472 4.36368 3.44833 4.39915 3.37855 4.46911C3.30859 4.53889 3.27312 4.61528 3.27308 4.69923V18.9652L5.89169 16.3636H15.0004C15.4522 16.3636 15.8185 16.73 15.8185 17.1818C15.8185 17.6337 15.4522 18 15.0004 18H6.58736L3.3125 21.2749C3.00221 21.5851 2.64533 21.6556 2.24183 21.4858C1.8384 21.3158 1.63672 21.0095 1.63672 20.5675V4.69923C1.63675 4.1482 1.82809 3.68222 2.20987 3.30043C2.59166 2.91865 3.05764 2.72731 3.60866 2.72728H20.392Z" fill="currentColor"/>
</svg>
