<svg width="24" height="24" viewBox="0 0 24 24" fill="none" xmlns="http://www.w3.org/2000/svg">
<path d="M7.36408 10.9091H16.0914C16.3235 10.9091 16.5179 10.8307 16.6744 10.674C16.8312 10.5175 16.9095 10.3231 16.9095 10.0909C16.9095 9.85873 16.8312 9.66436 16.6744 9.50782C16.5179 9.35109 16.3235 9.27273 16.0914 9.27273H7.36408C7.1319 9.27273 6.93753 9.35109 6.78099 9.50782C6.62426 9.66436 6.5459 9.85873 6.5459 10.0909C6.5459 10.3231 6.62426 10.5175 6.78099 10.674C6.93753 10.8307 7.1319 10.9091 7.36408 10.9091ZM7.36408 7.09091H13.9095C14.1417 7.09091 14.3361 7.01254 14.4926 6.85582C14.6494 6.69927 14.7277 6.50491 14.7277 6.27273C14.7277 6.04054 14.6494 5.84618 14.4926 5.68963C14.3361 5.53291 14.1417 5.45454 13.9095 5.45454H7.36408C7.1319 5.45454 6.93753 5.53291 6.78099 5.68963C6.62426 5.84618 6.5459 6.04054 6.5459 6.27273C6.5459 6.50491 6.62426 6.69927 6.78099 6.85582C6.93753 7.01254 7.1319 7.09091 7.36408 7.09091Z" fill="currentColor"/>
<path d="M7.36408 18.5455H10.0914C10.3235 18.5455 10.5179 18.4671 10.6744 18.3104C10.8312 18.1538 10.9095 17.9595 10.9095 17.7273C10.9095 17.4951 10.8312 17.3007 10.6744 17.1442C10.5179 16.9875 10.3235 16.9091 10.0914 16.9091H7.36408C7.1319 16.9091 6.93753 16.9875 6.78099 17.1442C6.62426 17.3007 6.5459 17.4951 6.5459 17.7273C6.5459 17.9595 6.62426 18.1538 6.78099 18.3104C6.93753 18.4671 7.1319 18.5455 7.36408 18.5455ZM7.36408 14.7273H10.0914C10.3235 14.7273 10.5179 14.6489 10.6744 14.4922C10.8312 14.3356 10.9095 14.1413 10.9095 13.9091C10.9095 13.6769 10.8312 13.4825 10.6744 13.326C10.5179 13.1693 10.3235 13.0909 10.0914 13.0909H7.36408C7.1319 13.0909 6.93753 13.1693 6.78099 13.326C6.62426 13.4825 6.5459 13.6769 6.5459 13.9091C6.5459 14.1413 6.62426 14.3356 6.78099 14.4922C6.93753 14.6489 7.1319 14.7273 7.36408 14.7273Z" fill="currentColor"/>
<path d="M20.3172 19.4481V23.537C20.3172 23.7851 20.4336 23.9347 20.6665 23.9855C20.8994 24.0364 21.0688 23.9529 21.1748 23.735L23.9543 17.3981C24.026 17.226 24.0125 17.0586 23.9138 16.8959C23.815 16.7332 23.6752 16.6518 23.4943 16.6518H21.2673V12.4747C21.2673 12.2266 21.1509 12.0742 20.918 12.0175C20.6851 11.9609 20.5157 12.0415 20.4097 12.2594L17.5011 18.7017C17.4296 18.8852 17.4397 19.0555 17.5313 19.2126C17.623 19.3696 17.7606 19.4481 17.9441 19.4481H20.3172Z" fill="#0067DF"/>
<path d="M16.8905 17.4039L14.5778 17.5558L12.4579 20.7273L12 13.0909L17.2676 16.5685L16.8905 17.4039Z" fill="currentColor"/>
<path d="M3.84519 22.3364C4.22701 22.7182 4.69346 22.9091 5.24455 22.9091H17.1816C17.6334 22.9091 17.9997 22.5428 17.9997 22.0909C17.9997 21.639 17.6334 21.2727 17.1816 21.2727H5.24455C5.16055 21.2727 5.08364 21.2377 5.01383 21.1677C4.94383 21.0979 4.90882 21.021 4.90882 20.937V3.063C4.90882 2.979 4.94383 2.90209 5.01383 2.83227C5.08364 2.76227 5.16055 2.72728 5.24455 2.72728H13.9556C14.1003 2.72728 14.239 2.78474 14.3413 2.88704L18.9309 7.47661C19.0332 7.5789 19.0906 7.71764 19.0906 7.8623V10.0909C19.0906 10.5428 19.457 10.9091 19.9088 10.9091C20.3607 10.9091 20.727 10.5428 20.727 10.0909V7.63418C20.727 7.37127 20.6759 7.11846 20.5737 6.87573C20.4717 6.63318 20.3312 6.42237 20.1521 6.24328L15.5746 1.66582C15.3956 1.48673 15.1847 1.34618 14.9422 1.24418C14.6995 1.142 14.4466 1.09091 14.1837 1.09091H5.24455C4.69346 1.09091 4.22701 1.28182 3.84519 1.66364C3.46337 2.04546 3.27246 2.51191 3.27246 3.063V20.937C3.27246 21.4881 3.46337 21.9545 3.84519 22.3364Z" fill="currentColor"/>
</svg>
