<svg width="24" height="24" viewBox="0 0 24 24" fill="none" xmlns="http://www.w3.org/2000/svg">
<path d="M20.3172 19.4481V23.537C20.3172 23.7851 20.4336 23.9347 20.6665 23.9855C20.8994 24.0364 21.0688 23.9529 21.1748 23.735L23.9543 17.3981C24.026 17.226 24.0125 17.0586 23.9138 16.8959C23.815 16.7332 23.6752 16.6518 23.4943 16.6518H21.2673V12.4747C21.2673 12.2266 21.1509 12.0742 20.918 12.0175C20.6851 11.9609 20.5157 12.0415 20.4097 12.2594L17.5011 18.7017C17.4296 18.8852 17.4397 19.0555 17.5313 19.2126C17.623 19.3696 17.7606 19.4481 17.9441 19.4481H20.3172Z" fill="#0067DF"/>
<path d="M15.8186 19.3636C15.8186 19.8155 15.4523 20.1818 15.0004 20.1818H4.90953C3.69281 20.1818 2.66135 19.7587 1.81517 18.9125C0.968989 18.0664 0.545898 17.0349 0.545898 15.8182C0.545898 14.6685 0.929807 13.6763 1.69763 12.8414C2.46544 12.0063 3.42417 11.544 4.57381 11.4545H4.90953V10.9091C4.90953 8.93563 5.59799 7.26045 6.9749 5.88354C8.35181 4.50663 10.027 3.81818 12.0004 3.81818C13.6717 3.81818 15.1524 4.33636 16.4426 5.37272C17.733 6.40909 18.553 7.74263 18.9026 9.37336C19.22 9.41889 19.5239 9.48874 19.8143 9.58293C20.2085 9.7108 20.3745 10.1559 20.2205 10.5406C20.0407 10.9902 19.5023 11.1683 19.035 11.0417C18.7085 10.9533 18.3636 10.9091 18.0004 10.9091H17.455C17.455 9.39999 16.9232 8.11363 15.8595 7.04999C14.7959 5.98636 13.5095 5.45454 12.0004 5.45454C10.4914 5.45454 9.20499 5.98636 8.14135 7.04999C7.07772 8.11363 6.5459 9.39999 6.5459 10.9091V13.0909H4.90953C4.1459 13.0909 3.50044 13.3545 2.97317 13.8818C2.4459 14.4091 2.18226 15.0545 2.18226 15.8182C2.18226 16.5818 2.4459 17.2273 2.97317 17.7545C3.50044 18.2818 4.1459 18.5454 4.90953 18.5454H15.0004C15.4523 18.5454 15.8186 18.9118 15.8186 19.3636Z" fill="currentColor"/>
</svg>
