<svg width="24" height="24" viewBox="0 0 24 24" fill="none" xmlns="http://www.w3.org/2000/svg">
<path fill-rule="evenodd" clip-rule="evenodd" d="M5.5933 5.26453H9.31046V2.85271H5.5933C3.54036 2.85271 1.87613 4.47242 1.87613 6.47044V10.0882H4.35424V6.47044C4.35424 5.80443 4.90898 5.26453 5.5933 5.26453Z" fill="currentColor"/>
<path fill-rule="evenodd" clip-rule="evenodd" d="M17.9838 19.7355H14.2667V22.1473H17.9838C20.0368 22.1473 21.701 20.5276 21.701 18.5296V14.9118H19.2229V18.5296C19.2229 19.1956 18.6682 19.7355 17.9838 19.7355Z" fill="currentColor"/>
<path fill-rule="evenodd" clip-rule="evenodd" d="M11.4256 12.1468L8.94752 14.5586L7.19524 12.8532L9.67335 10.4413L11.4256 12.1468Z" fill="currentColor"/>
<path fill-rule="evenodd" clip-rule="evenodd" d="M13.9037 14.5586L11.4256 16.9704L9.67335 15.265L12.1515 12.8532L13.9037 14.5586Z" fill="currentColor"/>
<path fill-rule="evenodd" clip-rule="evenodd" d="M5.2304 20.5882L2.75229 23L1 21.2946L3.47811 18.8828L5.2304 20.5882Z" fill="currentColor"/>
<path fill-rule="evenodd" clip-rule="evenodd" d="M10.2249 18.1734L5.88041 13.9452L3.56317 16.2004L7.90766 20.4287L10.2249 18.1734ZM5.88041 10.5343L1.81088 14.495C0.843114 15.4369 0.843115 16.964 1.81088 17.9058L6.15537 22.1341C7.12313 23.076 8.69219 23.076 9.65995 22.1341L13.7295 18.1734L5.88041 10.5343Z" fill="currentColor"/>
<path fill-rule="evenodd" clip-rule="evenodd" d="M18.3467 4.41182L20.8249 2L22.5771 3.70542L20.099 6.11724L18.3467 4.41182Z" fill="currentColor"/>
<path fill-rule="evenodd" clip-rule="evenodd" d="M13.8581 6.73445L18.2038 10.9639L20.5219 8.70777L16.1762 4.47834L13.8581 6.73445ZM18.2038 14.3747L22.2742 10.4132C23.2419 9.47131 23.2419 7.94423 22.2742 7.00235L17.9285 2.77292C16.9607 1.83105 15.3917 1.83104 14.4239 2.77292L10.3535 6.73445L18.2038 14.3747Z" fill="currentColor"/>
</svg>
