<svg width="24" height="24" viewBox="0 0 24 24" fill="none" xmlns="http://www.w3.org/2000/svg">
<path fill-rule="evenodd" clip-rule="evenodd" d="M15.6674 12.0001C15.6674 14.0251 14.026 15.6667 12.0011 15.6667C9.97629 15.6667 8.33483 14.0251 8.33483 12.0001C8.33483 9.97503 9.97629 8.33341 12.0011 8.33341C14.026 8.33341 15.6674 9.97503 15.6674 12.0001ZM13.2232 12.0001C13.2232 12.6751 12.6761 13.2223 12.0011 13.2223C11.3262 13.2223 10.779 12.6751 10.779 12.0001C10.779 11.3251 11.3262 10.7779 12.0011 10.7779C12.6761 10.7779 13.2232 11.3251 13.2232 12.0001Z" fill="currentColor"/>
<path fill-rule="evenodd" clip-rule="evenodd" d="M4.87467 1.41679C4.74696 1.16135 4.48591 0.999996 4.20034 1C3.78398 1.00001 3.44645 1.33758 3.44645 1.75399L3.44646 11.2592C3.44646 11.3167 3.453 11.3726 3.46537 11.4263C3.45281 11.6159 3.44643 11.8073 3.44643 12.0001C3.44643 13.9643 4.1083 15.7739 5.22115 17.2181L1.4581 19.1501C1.18143 19.2608 1 19.5288 1 19.8268C1 20.2293 1.32627 20.5556 1.72876 20.5556H11.2605C11.3179 20.5556 11.3738 20.5491 11.4275 20.5367C11.6171 20.5493 11.8083 20.5556 12.0011 20.5556C13.9663 20.5556 15.7767 19.8929 17.2211 18.7788L19.1223 22.5817C19.2505 22.838 19.5125 23 19.7991 23C20.2171 23 20.5559 22.6612 20.5559 22.2432V12.7408C20.5559 12.6832 20.5493 12.6272 20.5369 12.5735C20.5494 12.384 20.5558 12.1928 20.5558 12.0001C20.5558 10.0337 19.8925 8.22217 18.7773 6.77725L22.5824 4.8754C22.8383 4.74747 23 4.48589 23 4.19975C23 3.78259 22.6619 3.44442 22.2447 3.44442H12.7419C12.6843 3.44442 12.6282 3.45099 12.5744 3.46343C12.3849 3.45089 12.1938 3.44452 12.0011 3.44452C10.0345 3.44452 8.22289 4.10819 6.77797 5.2238L4.87467 1.41679ZM12.0011 18.1112C15.3758 18.1112 18.1116 15.3752 18.1116 12.0001C18.1116 8.625 15.3758 5.88896 12.0011 5.88896C8.62638 5.88896 5.89063 8.625 5.89063 12.0001C5.89063 15.3752 8.62638 18.1112 12.0011 18.1112Z" fill="currentColor"/>
</svg>
