<svg width="24" height="24" viewBox="0 0 24 24" fill="none" xmlns="http://www.w3.org/2000/svg">
<path fill-rule="evenodd" clip-rule="evenodd" d="M15.4285 18H20.5714V14.5714H22.2857V9.42857H13.1314C12.1457 7.35429 10.0457 6 7.71423 6C4.40566 6 1.71423 8.69143 1.71423 12C1.71423 15.3086 4.40566 18 7.71423 18C10.0457 18 12.1542 16.6457 13.1314 14.5714H15.4285V18ZM18.8571 16.2857H17.1428V12.8571H11.9485L11.7514 13.4314C11.1514 15.1371 9.52281 16.2857 7.71423 16.2857C5.34852 16.2857 3.42852 14.3657 3.42852 12C3.42852 9.63429 5.34852 7.71429 7.71423 7.71429C9.52281 7.71429 11.1514 8.86286 11.7514 10.5686L11.9485 11.1429H20.5714V12.8571H18.8571V16.2857ZM7.71423 14.5714C6.29995 14.5714 5.14281 13.4143 5.14281 12C5.14281 10.5857 6.29995 9.42857 7.71423 9.42857C9.12852 9.42857 10.2857 10.5857 10.2857 12C10.2857 13.4143 9.12852 14.5714 7.71423 14.5714ZM6.85709 12C6.85709 11.5286 7.24281 11.1429 7.71423 11.1429C8.18566 11.1429 8.57138 11.5286 8.57138 12C8.57138 12.4714 8.18566 12.8571 7.71423 12.8571C7.24281 12.8571 6.85709 12.4714 6.85709 12Z" fill="currentColor"/>
</svg>
