<svg width="24" height="24" viewBox="0 0 24 24" fill="none" xmlns="http://www.w3.org/2000/svg">
<path d="M22 12C22 17.5228 17.5228 22 12 22C6.47715 22 2 17.5228 2 12C2 6.47715 6.47715 2 12 2C17.5228 2 22 6.47715 22 12Z" fill="var(--color-background)"/>
<path d="M11.165 20.46C11.4393 20.4866 11.7179 20.5 12 20.5V22C11.6691 22 11.3422 21.9826 11.0195 21.9512L11.165 20.46ZM12.835 20.46L12.9795 21.9512C12.6572 21.9825 12.3305 22 12 22V20.5C12.2821 20.5 12.5607 20.4866 12.835 20.46ZM7.99316 19.499C8.47963 19.7596 8.99451 19.9741 9.53125 20.1367L9.0957 21.5703C8.46332 21.3787 7.85771 21.1261 7.28516 20.8193L7.42871 20.5527L7.99316 19.499ZM16.7139 20.8193C16.1413 21.126 15.5358 21.3787 14.9033 21.5703L14.4688 20.1367C15.0055 19.9741 15.5204 19.7596 16.0068 19.499L16.7139 20.8193ZM5.42871 17.3916C5.78249 17.8222 6.17782 18.2175 6.6084 18.5713L5.65527 19.7305C5.14913 19.3146 4.68438 18.85 4.26855 18.3438L5.42871 17.3916ZM19.7305 18.3438C19.3146 18.85 18.85 19.3146 18.3438 19.7305L17.3916 18.5713C17.8222 18.2175 18.2175 17.8222 18.5713 17.3916L19.7305 18.3438ZM3.86328 14.4688C4.0259 15.0055 4.24042 15.5204 4.50098 16.0068L3.17969 16.7139C2.87305 16.1413 2.62028 15.5357 2.42871 14.9033L3.86328 14.4688ZM21.5703 14.9033C21.3787 15.5358 21.126 16.1413 20.8193 16.7139L19.499 16.0068C19.7596 15.5204 19.9741 15.0055 20.1367 14.4688L21.5703 14.9033ZM2 12C2 11.6692 2.01646 11.3421 2.04785 11.0195L2.79395 11.0918L3.54004 11.165C3.51336 11.4393 3.5 11.7179 3.5 12C3.5 12.2821 3.51336 12.5607 3.54004 12.835L2.79297 12.9072L2.79395 12.9082L2.04785 12.9795C2.01652 12.6572 2 12.3305 2 12ZM22 12C22 12.3305 21.9825 12.6572 21.9512 12.9795L21.2061 12.9082L20.46 12.835C20.4866 12.5607 20.5 12.2821 20.5 12C20.5 11.7179 20.4866 11.4393 20.46 11.165L21.2061 11.0918L21.9512 11.0195C21.9826 11.3422 22 11.6691 22 12ZM4.50098 7.99316C4.24042 8.47963 4.0259 8.99451 3.86328 9.53125L2.42871 9.0957C2.62033 8.46337 2.87301 7.85767 3.17969 7.28516L4.50098 7.99316ZM20.8193 7.28516C21.1261 7.85771 21.3787 8.46332 21.5703 9.0957L20.1367 9.53125C19.9741 8.99451 19.7596 8.47963 19.499 7.99316L20.8193 7.28516ZM5.65625 4.26953L6.6084 5.42871C6.17782 5.78249 5.78249 6.17782 5.42871 6.6084L4.26953 5.65625L4.26855 5.65527C4.68439 5.14914 5.14914 4.68439 5.65527 4.26855L5.65625 4.26953ZM18.3438 4.26855C18.85 4.68438 19.3146 5.14913 19.7305 5.65527L18.5713 6.6084C18.2175 6.17782 17.8222 5.78249 17.3916 5.42871L18.3438 4.26855ZM9.53125 3.86328C8.99451 4.0259 8.47963 4.24042 7.99316 4.50098L7.28516 3.17969C7.85767 2.87301 8.46337 2.62033 9.0957 2.42871L9.53125 3.86328ZM14.9033 2.42871C15.5357 2.62028 16.1413 2.87305 16.7139 3.17969L16.0068 4.50098C15.5204 4.24042 15.0055 4.0259 14.4688 3.86328L14.9033 2.42871ZM12 2C12.3305 2 12.6572 2.01652 12.9795 2.04785L12.9082 2.79395L12.9072 2.79297L12.835 3.54004C12.5607 3.51336 12.2821 3.5 12 3.5C11.7179 3.5 11.4393 3.51336 11.165 3.54004L11.0918 2.79297L11.0195 2.04785C11.3421 2.01646 11.6692 2 12 2Z" fill="currentColor"/>
<path d="M19 12C19 15.866 15.866 19 12 19C8.13401 19 5 15.866 5 12C5 8.13401 8.13401 5 12 5C15.866 5 19 8.13401 19 12Z" fill="var(--color-background)"/>
<path d="M11.2793 17.4531C11.5144 17.4838 11.7552 17.5 12 17.5V19C11.6901 19 11.3852 18.9775 11.0859 18.9385L11.2793 17.4531ZM12.9131 18.9385C12.6141 18.9774 12.3096 19 12 19V17.5C12.2448 17.5 12.4856 17.4838 12.7207 17.4531L12.9131 18.9385ZM8.65234 16.3643C9.03128 16.6555 9.44919 16.8979 9.89551 17.083L9.32031 18.4678C8.75098 18.2316 8.22012 17.9222 7.73828 17.5518L8.65234 16.3643ZM16.2607 17.5518C15.7788 17.9222 15.2481 18.2317 14.6787 18.4678L14.3926 17.7764L14.1045 17.083C14.5508 16.8979 14.9687 16.6555 15.3477 16.3643L16.2607 17.5518ZM6.91699 14.1045C7.10207 14.5508 7.34454 14.9687 7.63574 15.3477L6.44727 16.2607C6.07695 15.7789 5.76728 15.2481 5.53125 14.6787L6.12207 14.4346L6.91699 14.1045ZM17.8779 14.4346L18.4678 14.6787C18.2317 15.2481 17.9222 15.7788 17.5518 16.2607L16.3643 15.3477C16.6555 14.9687 16.8979 14.5508 17.083 14.1045L17.8779 14.4346ZM5 12C5 11.6901 5.02152 11.3852 5.06055 11.0859L6.54688 11.2793C6.51621 11.5144 6.5 11.7552 6.5 12C6.5 12.2448 6.51621 12.4856 6.54688 12.7207L5.66797 12.835L5.06055 12.9131C5.0216 12.6142 5 12.3095 5 12ZM19 12C19 12.3096 18.9774 12.6141 18.9385 12.9131L18.332 12.835L17.4531 12.7207C17.4838 12.4856 17.5 12.2448 17.5 12C17.5 11.7552 17.4838 11.5144 17.4531 11.2793L18.9385 11.0859C18.9775 11.3852 19 11.6901 19 12ZM7.63574 8.65234C7.34454 9.03128 7.10207 9.44919 6.91699 9.89551L5.53125 9.32031C5.76734 8.75104 6.07693 8.22009 6.44727 7.73828L7.63574 8.65234ZM17.5518 7.73828C17.9222 8.22012 18.2316 8.75098 18.4678 9.32031L17.083 9.89551C16.8979 9.44919 16.6555 9.03128 16.3643 8.65234L17.5518 7.73828ZM9.89551 6.91699C9.44919 7.10207 9.03128 7.34454 8.65234 7.63574L7.73828 6.44727C8.22009 6.07693 8.75104 5.76734 9.32031 5.53125L9.89551 6.91699ZM14.6787 5.53125C15.2481 5.76728 15.7789 6.07695 16.2607 6.44727L15.3477 7.63574C14.9687 7.34454 14.5508 7.10207 14.1045 6.91699L14.6787 5.53125ZM12 5C12.3095 5 12.6142 5.0216 12.9131 5.06055L12.7207 6.54688C12.4856 6.51621 12.2448 6.5 12 6.5C11.7552 6.5 11.5144 6.51621 11.2793 6.54688L11.0859 5.06055C11.3852 5.02152 11.6901 5 12 5Z" fill="currentColor"/>
<path fill-rule="evenodd" clip-rule="evenodd" d="M11.5631 13.7778V16L16.5 12L11.5631 8V10.2222L8.1 10.2222V13.7778L11.5631 13.7778ZM9.15 12.4625L12.5865 12.4625V13.7778L14.6625 11.9375L12.5865 10.2222V11.4125L9.15 11.4125V12.4625Z" fill="currentColor"/>
</svg>
