<svg width="24" height="24" viewBox="0 0 24 24" fill="none" xmlns="http://www.w3.org/2000/svg">
<g clip-path="url(#clip0_4117_1595)">
<path d="M15 2.41211C16.0544 2.41211 16.9182 3.22799 16.9945 4.26285L17 4.41211V5.41211H15V4.41211H4V15.4121H5V17.4121H4C2.94564 17.4121 2.08183 16.5962 2.00549 15.5614L2 15.4121V4.41211C2 3.35775 2.81588 2.49394 3.85074 2.4176L4 2.41211H15Z" fill="currentColor"/>
<path d="M20 7.41211C21.0544 7.41211 21.9182 8.22799 21.9945 9.26285L22 9.41211V12.4121H20V9.41211H9V20.4121H12V22.4121H9C7.94564 22.4121 7.08183 21.5962 7.00549 20.5614L7 20.4121V9.41211C7 8.35775 7.81588 7.49394 8.85074 7.41759L9 7.41211H20Z" fill="currentColor"/>
<path fill-rule="evenodd" clip-rule="evenodd" d="M17.5 14.4121V15.557C17.2672 15.6263 17.0446 15.7192 16.8349 15.8328L16.0251 15.023L14.6109 16.4372L15.4207 17.247C15.3071 17.4567 15.2142 17.6793 15.1449 17.9121L14 17.9121V19.9121H15.1449C15.2142 20.1449 15.3071 20.3675 15.4207 20.5772L14.6109 21.387L16.0251 22.8012L16.8349 21.9914C17.0446 22.1051 17.2672 22.1979 17.5 22.2672V23.4121H19.5V22.2672C19.7328 22.1979 19.9554 22.1051 20.1651 21.9914L20.9749 22.8012L22.3891 21.387L21.5793 20.5772C21.6929 20.3675 21.7858 20.1449 21.8551 19.9121H23V17.9121H21.8551C21.7858 17.6793 21.6929 17.4567 21.5793 17.247L22.3891 16.4372L20.9749 15.023L20.1651 15.8328C19.9554 15.7192 19.7328 15.6263 19.5 15.557V14.4121H17.5ZM20 18.9121C20 18.0837 19.3284 17.4121 18.5 17.4121C17.6716 17.4121 17 18.0837 17 18.9121C17 19.7405 17.6716 20.4121 18.5 20.4121C19.3284 20.4121 20 19.7405 20 18.9121Z" fill="#1976D2"/>
</g>
<defs>
<clipPath id="clip0_4117_1595">
<rect width="24" height="24" fill="var(--color-foreground)"/>
</clipPath>
</defs>
</svg>
