<svg width="24" height="24" viewBox="0 0 24 24" fill="none" xmlns="http://www.w3.org/2000/svg">
<path d="M16.3921 14.1774L16.3921 15.201C16.3921 15.4095 16.4704 15.5919 16.6269 15.7483C16.7834 15.9046 16.9755 15.9828 17.2032 15.9828C17.4119 15.9828 17.5968 15.9023 17.7581 15.7412C17.9194 15.58 18 15.3952 18 15.1867V12.2298C18 12.1161 17.9787 12.0142 17.936 11.9242C17.8933 11.8341 17.834 11.7512 17.7581 11.6754C17.6822 11.5996 17.5992 11.5403 17.5091 11.4977C17.419 11.455 17.317 11.4337 17.2032 11.4337L14.2435 11.4337C14.0349 11.4337 13.8522 11.5119 13.6957 11.6683C13.5392 11.8247 13.4562 12.0118 13.4467 12.2298C13.4467 12.4573 13.525 12.6492 13.6815 12.8056C13.838 12.9619 14.0301 13.0401 14.2578 13.0401H15.2538L12.3558 15.9365C12.1945 16.0976 12.1139 16.2871 12.1139 16.5051C12.1139 16.7231 12.1945 16.9126 12.3558 17.0737C12.5171 17.2349 12.7068 17.3154 12.925 17.3154C13.1431 17.3154 13.3329 17.2349 13.4941 17.0737L16.3921 14.1774ZM11.1701 19.3947C11.3313 19.2336 11.412 19.044 11.412 18.826C11.412 18.6081 11.3313 18.4185 11.1701 18.2574C11.0088 18.0963 10.8191 18.0157 10.6009 18.0157C10.3827 18.0157 10.193 18.0963 10.0318 18.2574C9.87049 18.4185 9.78986 18.6081 9.78986 18.826C9.78986 19.044 9.87049 19.2336 10.0318 19.3947C10.193 19.5558 10.3827 19.6364 10.6009 19.6364C10.8191 19.6364 11.0088 19.5558 11.1701 19.3947ZM8.7462 14.2335L11.6442 11.3371C11.8055 11.176 11.8861 10.9865 11.8861 10.7685C11.8861 10.5505 11.8055 10.361 11.6442 10.1998C11.4829 10.0387 11.2932 9.95818 11.075 9.95818C10.8569 9.95818 10.6671 10.0387 10.5059 10.1998L7.60788 13.0962L7.60788 12.0726C7.60788 11.8641 7.52962 11.6817 7.3731 11.5253C7.21658 11.3689 7.02449 11.2908 6.79683 11.2908C6.58813 11.2908 6.40316 11.3713 6.24189 11.5324C6.08063 11.6935 6 11.8784 6 12.0869L6 15.0438C6 15.1575 6.02135 15.2594 6.06403 15.3494C6.10672 15.4395 6.16601 15.5224 6.24189 15.5982C6.31778 15.674 6.40079 15.7333 6.4909 15.7759C6.58102 15.8186 6.68299 15.8399 6.79683 15.8399L9.75646 15.8399C9.96515 15.8399 10.1478 15.7617 10.3043 15.6053C10.4608 15.4489 10.5438 15.2618 10.5533 15.0438C10.5533 14.8163 10.475 14.6244 10.3185 14.468C10.162 14.3117 9.96989 14.2335 9.74223 14.2335H8.7462ZM13.9691 9.01531C14.1304 8.85419 14.211 8.66464 14.211 8.44667C14.211 8.22869 14.1304 8.03914 13.9691 7.87803C13.8079 7.71691 13.6182 7.63635 13.4 7.63635C13.1818 7.63635 12.9921 7.71691 12.8308 7.87803C12.6695 8.03914 12.5889 8.22869 12.5889 8.44667C12.5889 8.66464 12.6695 8.85419 12.8308 9.01531C12.9921 9.17642 13.1818 9.25698 13.4 9.25698C13.6182 9.25698 13.8079 9.17642 13.9691 9.01531Z" fill="currentColor"/>
<path fill-rule="evenodd" clip-rule="evenodd" d="M1.63635 5.72726L4.61087 2.29512C4.97349 1.87672 5.49988 1.63635 6.05355 1.63635H17.9464C18.5001 1.63635 19.0265 1.87672 19.3891 2.29512L22.3636 5.72726V20.4545C22.3636 21.5089 21.5089 22.3636 20.4545 22.3636H3.54544C2.49108 22.3636 1.63635 21.5089 1.63635 20.4545V5.72726ZM6.05355 3.27272H17.9464C18.0255 3.27272 18.1007 3.30705 18.1525 3.36683L19.4891 4.90908H4.51084L5.84746 3.36683C5.89926 3.30705 5.97446 3.27272 6.05355 3.27272ZM20.7273 6.54544H3.27272L3.27272 20.4545C3.27272 20.6052 3.39482 20.7273 3.54544 20.7273H20.4545C20.6052 20.7273 20.7273 20.6052 20.7273 20.4545V6.54544Z" fill="currentColor"/>
</svg>
