<svg width="24" height="24" viewBox="0 0 24 24" fill="none" xmlns="http://www.w3.org/2000/svg">
<path fill-rule="evenodd" clip-rule="evenodd" d="M1.63635 5.72726L4.61087 2.29512C4.97349 1.87672 5.49988 1.63635 6.05355 1.63635H17.9464C18.5001 1.63635 19.0265 1.87672 19.3891 2.29512L22.3636 5.72726V20.4545C22.3636 21.5089 21.5089 22.3636 20.4545 22.3636H3.54544C2.49108 22.3636 1.63635 21.5089 1.63635 20.4545V5.72726ZM6.05355 3.27272H17.9464C18.0255 3.27272 18.1007 3.30705 18.1525 3.36683L19.4891 4.90908H4.51084L5.84746 3.36683C5.89926 3.30705 5.97446 3.27272 6.05355 3.27272ZM20.7273 6.54544H3.27272L3.27272 20.4545C3.27272 20.6052 3.39482 20.7273 3.54544 20.7273H20.4545C20.6052 20.7273 20.7273 20.6052 20.7273 20.4545V6.54544Z" fill="#526069"/>
<path d="M13.6701 9.21932C12.9846 9.14315 12.4279 9.31899 12 9.74683L11.6111 10.1358C11.3963 10.3506 11.3963 10.6989 11.6111 10.9137L12 11.3026L10.8332 12.4695C10.723 12.5797 10.6677 12.7092 10.6675 12.8581C10.6672 13.0069 10.7223 13.1365 10.8326 13.2468C10.9429 13.3572 11.0727 13.4124 11.2219 13.4125C11.3712 13.4126 11.5009 13.3576 11.6111 13.2474L12.7779 12.0805L13.5558 12.8584L12.389 14.0253C12.2788 14.1355 12.2236 14.265 12.2233 14.4139C12.223 14.5627 12.2781 14.6923 12.3884 14.8026C12.4987 14.913 12.6285 14.9682 12.7777 14.9683C12.927 14.9685 13.0567 14.9134 13.1669 14.8032L14.3337 13.6364L14.7227 14.0253C14.9375 14.2401 15.2858 14.2401 15.5006 14.0253L15.8896 13.6364C16.3174 13.2085 16.4932 12.6518 16.4171 11.9663C16.3702 11.5447 16.2366 11.1516 16.0163 10.7869L16.6675 10.1358C16.9897 9.81357 16.9897 9.29115 16.6675 8.96893C16.3452 8.64671 15.8228 8.64671 15.5006 8.96893L14.8494 9.62009C14.4848 9.39975 14.0917 9.26616 13.6701 9.21932Z" fill="#526069"/>
<path d="M10.33 18.0534C11.0155 18.1296 11.5722 17.9537 12 17.5259L12.389 17.1369C12.6038 16.9221 12.6038 16.5738 12.389 16.359L9.27737 13.2474C9.06256 13.0326 8.71428 13.0326 8.49946 13.2474L8.11051 13.6364C7.68266 14.0642 7.50683 14.6209 7.583 15.3064C7.62984 15.728 7.76343 16.1212 7.98377 16.4858L7.33261 17.1369C7.01039 17.4591 7.01039 17.9816 7.33261 18.3038C7.65482 18.626 8.17724 18.626 8.49946 18.3038L9.15062 17.6526C9.51523 17.873 9.90835 18.0065 10.33 18.0534Z" fill="#526069"/>
</svg>
