<svg width="24" height="24" viewBox="0 0 24 24" fill="none" xmlns="http://www.w3.org/2000/svg">
<path fill-rule="evenodd" clip-rule="evenodd" d="M14.8645 17.5155C15.1367 17.0201 15.2727 16.4702 15.2727 15.8657C15.2727 15.3208 15.182 14.86 15.0006 14.4835C14.8191 14.107 14.5561 13.78 14.2113 13.5026C13.8666 13.2252 13.4538 12.9676 12.973 12.7298C12.5285 12.5019 12.1701 12.3086 11.898 12.1501C11.6258 11.9916 11.4262 11.838 11.2992 11.6894C11.1722 11.5308 11.1087 11.3475 11.1087 11.1395C11.1087 10.8818 11.1994 10.6688 11.3809 10.5004C11.5623 10.3319 11.839 10.2477 12.2109 10.2477C12.5648 10.2477 12.9276 10.3072 13.2996 10.4261C13.6806 10.5351 14.0889 10.6936 14.5243 10.9017L15.2591 8.92495C14.8055 8.70697 14.3338 8.52862 13.8439 8.3899C13.3631 8.25118 12.8415 8.18182 12.279 8.18182C11.2266 8.18182 10.3875 8.44439 9.7615 8.96954C9.13553 9.49468 8.82255 10.2527 8.82255 11.2435C8.82255 11.8776 8.93595 12.3978 9.16275 12.8041C9.38955 13.2004 9.67986 13.5274 10.0337 13.785C10.3965 14.0327 10.7685 14.2556 11.1495 14.4538C11.7392 14.7511 12.1883 15.0037 12.4967 15.2118C12.8142 15.4199 12.973 15.6973 12.973 16.0441C12.973 16.3314 12.8732 16.5643 12.6736 16.7426C12.4831 16.921 12.1611 17.0102 11.7075 17.0102C11.2357 17.0102 10.7413 16.9259 10.2242 16.7575C9.71614 16.5891 9.21718 16.381 8.72729 16.1333V18.437C9.15368 18.6549 9.58914 18.8184 10.0337 18.9274C10.4873 19.0364 11.0044 19.0909 11.585 19.0909C12.4105 19.0909 13.0955 18.9522 13.6398 18.6748C14.1841 18.3874 14.5924 18.001 14.8645 17.5155Z" fill="#526069"/>
<path fill-rule="evenodd" clip-rule="evenodd" d="M1.63635 5.72726L4.61087 2.29512C4.97349 1.87672 5.49988 1.63635 6.05355 1.63635H17.9464C18.5001 1.63635 19.0265 1.87672 19.3891 2.29512L22.3636 5.72726V20.4545C22.3636 21.5089 21.5089 22.3636 20.4545 22.3636H3.54544C2.49108 22.3636 1.63635 21.5089 1.63635 20.4545V5.72726ZM6.05355 3.27272H17.9464C18.0255 3.27272 18.1007 3.30705 18.1525 3.36683L19.4891 4.90908H4.51084L5.84746 3.36683C5.89926 3.30705 5.97446 3.27272 6.05355 3.27272ZM20.7273 6.54544H3.27272L3.27272 20.4545C3.27272 20.6052 3.39482 20.7273 3.54544 20.7273H20.4545C20.6052 20.7273 20.7273 20.6052 20.7273 20.4545V6.54544Z" fill="#526069"/>
</svg>
