<svg width="24" height="24" viewBox="0 0 24 24" fill="none" xmlns="http://www.w3.org/2000/svg">
<path fill-rule="evenodd" clip-rule="evenodd" d="M1.63635 5.72726L4.61087 2.29512C4.97349 1.87672 5.49988 1.63635 6.05355 1.63635H17.9464C18.5001 1.63635 19.0265 1.87672 19.3891 2.29512L22.3636 5.72726V20.4545C22.3636 21.5089 21.5089 22.3636 20.4545 22.3636H3.54544C2.49108 22.3636 1.63635 21.5089 1.63635 20.4545V5.72726ZM6.05355 3.27272H17.9464C18.0255 3.27272 18.1007 3.30705 18.1525 3.36683L19.4891 4.90908H4.51084L5.84746 3.36683C5.89926 3.30705 5.97446 3.27272 6.05355 3.27272ZM20.7273 6.54544H3.27272L3.27272 20.4545C3.27272 20.6052 3.39482 20.7273 3.54544 20.7273H20.4545C20.6052 20.7273 20.7273 20.6052 20.7273 20.4545V6.54544Z" fill="#526069"/>
<path d="M16.0243 14.237C16.1374 14.1664 16.2222 14.078 16.2788 13.972C16.3354 13.866 16.3636 13.7541 16.3636 13.6364C16.3636 13.5186 16.3354 13.4067 16.2788 13.3007C16.2222 13.1947 16.1374 13.1064 16.0243 13.0357L9.87745 9.37873C9.8146 9.3434 9.74861 9.3169 9.67947 9.29924C9.61034 9.28157 9.54434 9.27274 9.48149 9.27274C9.28037 9.27274 9.10439 9.34046 8.95355 9.4759C8.8027 9.61134 8.72728 9.77918 8.72728 9.9794V17.2933C8.72728 17.4936 8.8027 17.6614 8.95355 17.7968C9.10439 17.9323 9.28037 18 9.48149 18C9.54434 18 9.61034 17.9912 9.67947 17.9735C9.74861 17.9558 9.8146 17.9293 9.87745 17.894L16.0243 14.237Z" fill="#526069"/>
</svg>
