<svg width="24" height="24" viewBox="0 0 24 24" fill="none" xmlns="http://www.w3.org/2000/svg">
<g clip-path="url(#clip0_4117_1704)">
<g clip-path="url(#clip1_4117_1704)">
<g clip-path="url(#clip2_4117_1704)">
<g clip-path="url(#clip3_4117_1704)">
<g clip-path="url(#clip4_4117_1704)">
<path d="M6.00871 11.8115C6.00871 11.8369 6.00871 11.8606 6.00871 11.8859V20.2101C6.00871 20.2355 6.00871 20.2592 6.00871 20.2845H2.49507H2.4528H2.35811L2.22453 20.2625C1.99464 20.2189 1.77831 20.1216 1.59318 19.9785C1.40806 19.8354 1.25938 19.6506 1.15928 19.4391C1.09934 19.3114 1.0556 19.1768 1.02908 19.0383C1.02908 19.013 0.998643 18.9825 1.02908 18.9521C1.03606 18.9148 1.02882 18.8762 1.00879 18.8439V8.05103C1.02665 8.05742 1.04368 8.06593 1.05952 8.07638L5.66885 11.5325L6.00702 11.7879V11.798L6.00871 11.8115Z" fill="#4285F4"/>
<path d="M18.0049 5.29829L18.0488 5.2611L19.3914 4.24657C19.6148 4.07687 19.8667 3.94858 20.1354 3.86781C20.2706 3.82841 20.4094 3.80237 20.5497 3.79004L20.668 3.7782H20.8371L20.9555 3.79004L21.1246 3.81202C21.2751 3.83451 21.4227 3.87422 21.5642 3.93037C21.8685 4.04251 22.1445 4.2199 22.3729 4.45008C22.6014 4.68026 22.7766 4.95765 22.8864 5.26278C22.9649 5.47524 23.0078 5.6992 23.0133 5.92561C23.0133 5.94083 23.0133 5.95435 23.0133 5.96957V7.15318C23.0133 7.45078 23.0133 7.75007 23.0133 8.04936L22.9524 8.09163L21.3004 9.33103L18.3938 11.5106C18.2771 11.5985 18.1588 11.6797 18.0404 11.771H18.0235C18.0235 11.7456 18.0235 11.7202 18.0235 11.6949V5.29829H18.0049Z" fill="#FBBC04"/>
<path d="M3.4683 3.80021C3.50212 3.80021 3.53594 3.81543 3.56975 3.81881C3.71802 3.83153 3.86375 3.86512 4.00262 3.91858C4.21946 3.99482 4.42311 4.10434 4.60626 4.24322L5.23358 4.71667C5.47706 4.90097 5.72224 5.08189 5.96742 5.26282L6.008 5.29833C6.008 5.32369 6.008 5.35074 6.008 5.37779V11.7068C6.008 11.7338 6.008 11.7609 6.008 11.7879L5.66982 11.5326L1.06049 8.07644C1.04466 8.06598 1.02763 8.05747 1.00977 8.05108V6.01019C1.01991 5.97468 1.04189 5.94086 1.0216 5.90366V5.84279C1.02464 5.7918 1.03028 5.74102 1.03851 5.69061C1.06049 5.58409 1.08586 5.47756 1.11122 5.37103C1.13902 5.27503 1.17523 5.18168 1.21944 5.09205C1.28665 4.94799 1.36883 4.8114 1.46461 4.68454C1.70924 4.36487 2.03421 4.11575 2.40643 3.96253C2.62169 3.87125 2.8499 3.8142 3.08278 3.79344L3.22143 3.78162H3.34994L3.4683 3.80021Z" fill="#C5221F"/>
<path d="M1.02029 18.9538H1V18.8473C1.01961 18.8791 1.02684 18.917 1.02029 18.9538Z" fill="#80ADF7"/>
<path d="M1.01184 5.90369C1.03213 5.94089 1.01184 5.9747 1 6.01021V5.90369H1.01184Z" fill="#D76563"/>
<path d="M3.07422 3.79846V3.78662H3.21456L3.07422 3.79846Z" fill="#DF8785"/>
<path d="M3.46861 3.80015L3.3418 3.78662H3.4703L3.46861 3.80015Z" fill="#E7A6A5"/>
<path d="M20.6682 3.78662L20.5498 3.79846V3.78662H20.6682Z" fill="#FDE292"/>
<path d="M20.9426 3.78662V3.79846L20.8242 3.78662H20.9426Z" fill="#FDE498"/>
<path d="M1.01184 5.90361H1V5.83936H1.01691L1.01184 5.90361Z" fill="#EEC1C0"/>
<path d="M6.00488 11.7879C6.00488 11.7609 6.00488 11.7338 6.00488 11.7068V5.37781C6.00488 5.35075 6.00488 5.3237 6.00488 5.29834L6.33291 5.54013L11.9669 9.76733L12.0041 9.79269L12.0515 9.76057L16.0673 6.74912L17.9611 5.32877C17.9729 5.31863 17.9881 5.31187 18.0017 5.30172V11.7034C18.0017 11.7287 18.0017 11.7541 18.0017 11.7795V11.7947L17.6635 12.05L12.0599 16.2518L12.0126 16.2857L11.9737 16.2603L6.17228 11.9097L6.02855 11.8048L6.01165 11.793L6.00488 11.7879Z" fill="#EA4335"/>
<path d="M18.0056 11.7998L18.0242 11.7845C18.1426 11.6983 18.2609 11.6154 18.3776 11.5241L21.2808 9.33784L22.9328 8.09842L22.9937 8.05615C22.9937 8.07644 22.9937 8.09843 22.9937 8.12041C22.9937 11.669 22.9937 15.2198 22.9937 18.7729C22.9937 18.8101 22.9937 18.8473 22.9937 18.8845C22.9891 19.0074 22.968 19.1291 22.9311 19.2464C22.8647 19.4621 22.7499 19.6599 22.5955 19.8246C22.4411 19.9893 22.2511 20.1165 22.04 20.1966C21.9179 20.2448 21.79 20.2766 21.6596 20.2913H21.5531H21.5006H18.0783H18.0039C18.0039 20.2338 18.0039 20.1764 18.0039 20.1222V11.8792C18.0073 11.8522 18.0056 11.8268 18.0056 11.7998Z" fill="#34A853"/>
<path d="M6.00879 11.7981L6.0257 11.8099H6.00879V11.7981Z" fill="#D4E3FD"/>
<path d="M18.0235 11.7777L18.0049 11.7929V11.7777H18.0235Z" fill="#F69B1D"/>
</g>
</g>
</g>
</g>
</g>
<defs>
<clipPath id="clip0_4117_1704">
<rect width="24" height="24" fill="white"/>
</clipPath>
<clipPath id="clip1_4117_1704">
<rect width="24" height="24" fill="white"/>
</clipPath>
<clipPath id="clip2_4117_1704">
<rect width="24" height="24" fill="white"/>
</clipPath>
<clipPath id="clip3_4117_1704">
<rect width="24" height="24" fill="white"/>
</clipPath>
<clipPath id="clip4_4117_1704">
<rect width="22" height="22" fill="white" transform="translate(1 1)"/>
</clipPath>
</defs>
</svg>
