<svg width="24" height="24" viewBox="0 0 24 24" fill="none" xmlns="http://www.w3.org/2000/svg">
<g clip-path="url(#clip0_4117_2220)">
<path fill-rule="evenodd" clip-rule="evenodd" d="M20.7819 2.23877H8.79532C8.2583 2.23877 7.81641 2.68066 7.81641 3.21768V4.33036L14.5724 6.42216L21.7608 4.33036V3.21768C21.7608 2.68066 21.3189 2.23877 20.7819 2.23877Z" fill="#0364B8"/>
<path fill-rule="evenodd" clip-rule="evenodd" d="M22.9104 12.9796C23.0125 12.6586 23.0941 12.3315 23.1544 12C23.1544 11.8342 23.0659 11.6805 22.9223 11.5977L22.9132 11.5928L22.9104 11.5915L15.3539 7.2868C15.3213 7.26571 15.2875 7.24633 15.2529 7.22889C14.9603 7.08386 14.616 7.08386 14.3234 7.22889C14.2888 7.24633 14.255 7.2656 14.2223 7.2868L6.66589 11.5915L6.66305 11.5928L6.65393 11.5977C6.51042 11.6805 6.42188 11.8342 6.42188 12C6.48222 12.3315 6.56376 12.6586 6.66589 12.9796L14.6783 18.8397L22.9104 12.9796Z" fill="#0A2767"/>
<path fill-rule="evenodd" clip-rule="evenodd" d="M17.5758 4.33032H12.6953L11.2861 6.42212L12.6953 8.51371L17.5758 12.697H21.7591V8.51371L17.5758 4.33032Z" fill="#28A8EA"/>
<path fill-rule="evenodd" clip-rule="evenodd" d="M7.81641 4.33032H12.697V8.51361H7.81641V4.33032Z" fill="#0078D4"/>
<path fill-rule="evenodd" clip-rule="evenodd" d="M17.5762 4.33032H21.7595V8.51361H17.5762V4.33032Z" fill="#50D9FF"/>
<path d="M17.5775 12.697L12.697 8.51367H7.81641V12.697L12.697 16.8804L20.2492 18.113L17.5775 12.697Z" fill="#0364B8"/>
<path fill-rule="evenodd" clip-rule="evenodd" d="M12.6973 8.51367H17.5778V12.697H12.6973V8.51367Z" fill="#0078D4"/>
<path fill-rule="evenodd" clip-rule="evenodd" d="M7.81641 12.697H12.697V16.8803H7.81641V12.697Z" fill="#064A8C"/>
<path fill-rule="evenodd" clip-rule="evenodd" d="M17.5762 12.697H21.7595V16.8803H17.5762V12.697Z" fill="#0078D4"/>
<path fill-rule="evenodd" clip-rule="evenodd" d="M14.9213 18.4268L6.69824 12.4307L7.04267 11.8248C7.04267 11.8248 14.5343 16.0918 14.6486 16.156C14.7433 16.194 14.8498 16.191 14.9422 16.1476C15.0488 16.0877 22.5642 11.804 22.5642 11.804L22.91 12.4098L14.9213 18.4268Z" fill="#0A2767" fill-opacity="0.498039"/>
<path fill-rule="evenodd" clip-rule="evenodd" d="M22.9225 12.402L22.9134 12.4076L22.9113 12.409L15.3549 16.7137C15.05 16.9102 14.6638 16.9343 14.3369 16.7771L16.9689 20.3057L22.7238 21.5586V21.5615C22.9951 21.3652 23.1561 21.0499 23.156 20.715V11.9998C23.1561 12.1655 23.0674 12.3192 22.9239 12.402H22.9225Z" fill="#1490DF"/>
<path fill-rule="evenodd" clip-rule="evenodd" d="M23.1553 20.7152V20.2007L16.1949 16.2349L15.3548 16.7132C15.05 16.9097 14.6638 16.9339 14.3369 16.7765L16.9689 20.3053L22.7238 21.5581V21.561C22.9951 21.3646 23.156 21.0494 23.156 20.7145L23.1553 20.7152Z" fill="black" fill-opacity="0.047059"/>
<path fill-rule="evenodd" clip-rule="evenodd" d="M23.1205 20.9822L15.4908 16.6357L15.3548 16.7131C15.05 16.9097 14.6638 16.9338 14.3369 16.7765L16.9689 20.3052L22.7238 21.5581V21.5609C22.919 21.4193 23.0595 21.2146 23.1211 20.9815L23.1205 20.9822Z" fill="black" fill-opacity="0.098039"/>
<path fill-rule="evenodd" clip-rule="evenodd" d="M6.66592 12.4111V12.4041H6.65903L6.63803 12.3902C6.50274 12.307 6.42059 12.1586 6.42189 11.9998V20.7164C6.42189 21.2894 6.89341 21.7609 7.46644 21.7609H22.1095C22.1965 21.76 22.2833 21.7483 22.3674 21.726C22.4111 21.7184 22.4534 21.7043 22.493 21.6842C22.5078 21.6827 22.522 21.6779 22.5348 21.6702C22.5918 21.6469 22.6457 21.6164 22.6951 21.5795L22.723 21.5586L6.66592 12.4111Z" fill="#28A8EA"/>
<path fill-rule="evenodd" clip-rule="evenodd" d="M13.3941 18.0427V6.655C13.3926 6.14567 12.974 5.72711 12.4647 5.72559H7.83801V10.924L6.66589 11.5919L6.66315 11.5934L6.65413 11.5982C6.51052 11.6812 6.42188 11.8348 6.42188 12.0005V18.9749V18.972H12.4647C12.974 18.9706 13.3926 18.5519 13.3941 18.0427Z" fill="black" fill-opacity="0.098039"/>
<path fill-rule="evenodd" clip-rule="evenodd" d="M12.697 18.7397V7.35202C12.6954 6.84279 12.2768 6.42423 11.7675 6.42261H7.83801V10.9239L6.66589 11.5918L6.66315 11.5932L6.65413 11.5981C6.51052 11.6811 6.42188 11.8347 6.42188 12.0003V19.672V19.6691H11.7675C12.2768 19.6676 12.6954 19.2491 12.697 18.7397ZM12.697 17.3453V7.35202C12.6954 6.84279 12.2768 6.42423 11.7675 6.42261H7.83801V10.9239L6.66589 11.5918L6.66315 11.5932L6.65413 11.5981C6.51052 11.6811 6.42188 11.8347 6.42188 12.0003V18.2774V18.2747H11.7675C12.2768 18.2732 12.6954 17.8546 12.697 17.3453ZM11.9997 17.3453V7.35202C11.9982 6.84279 11.5796 6.42423 11.0704 6.42261H7.83801V10.9239L6.66589 11.5918L6.66315 11.5932L6.65413 11.5981C6.51052 11.6811 6.42188 11.8347 6.42188 12.0003V18.2774V18.2747H11.0704C11.5796 18.2732 11.9982 17.8546 11.9997 17.3453Z" fill="black" fill-opacity="0.2"/>
<path fill-rule="evenodd" clip-rule="evenodd" d="M1.77317 6.42212H11.0692C11.579 6.42212 11.9986 6.84159 11.9986 7.35143V16.6475C11.9986 17.1574 11.579 17.577 11.0692 17.577H1.77317C1.26333 17.577 0.84375 17.1574 0.84375 16.6475V7.35143C0.84375 6.84159 1.26333 6.42212 1.77317 6.42212Z" fill="#0078D4"/>
<path fill-rule="evenodd" clip-rule="evenodd" d="M3.53903 10.2343C3.78599 9.70807 4.18477 9.2676 4.68386 8.96963C5.23691 8.653 5.86663 8.49529 6.50365 8.51364C7.09361 8.50066 7.67597 8.65026 8.18672 8.9459C8.66736 9.23211 9.05448 9.65199 9.30083 10.1542C9.56919 10.7076 9.70306 11.3165 9.6913 11.9314C9.70438 12.5741 9.56655 13.211 9.28906 13.791C9.03724 14.3109 8.63845 14.7459 8.1421 15.0418C7.61147 15.3467 7.00741 15.5004 6.39554 15.4859C5.7928 15.5002 5.19756 15.349 4.67484 15.0487C4.19045 14.762 3.79867 14.3417 3.54674 13.8383C3.27666 13.2929 3.14126 12.6905 3.15211 12.082C3.14014 11.4448 3.2727 10.8132 3.53974 10.2343H3.53903ZM4.75912 13.2031C4.89086 13.5359 5.11429 13.8246 5.40344 14.0356C5.69766 14.2417 6.0504 14.348 6.40943 14.3389C6.79199 14.354 7.16917 14.2444 7.48388 14.0266C7.76948 13.8156 7.98703 13.5253 8.10934 13.192C8.24687 12.8204 8.31461 12.4265 8.30944 12.0304C8.3137 11.6308 8.25001 11.2332 8.12121 10.8549C8.00762 10.5144 7.79788 10.2138 7.51735 9.98972C7.21096 9.76091 6.83479 9.64469 6.45274 9.66061C6.0859 9.65108 5.72525 9.75797 5.42291 9.96599C5.12839 10.1777 4.89999 10.4688 4.7647 10.8054C4.46551 11.5761 4.46378 12.4313 4.75983 13.2031H4.75912Z" fill="white"/>
</g>
<defs>
<clipPath id="clip0_4117_2220">
<rect width="24" height="24" fill="white"/>
</clipPath>
</defs>
</svg>
