<svg width="24" height="24" viewBox="0 0 24 24" fill="none" xmlns="http://www.w3.org/2000/svg">
<g clip-path="url(#clip0_4117_1702)">
<g clip-path="url(#clip1_4117_1702)">
<g clip-path="url(#clip2_4117_1702)">
<g clip-path="url(#clip3_4117_1702)">
<path d="M5.53846 1H14.4615L20 6.5V21.4722C20 22.316 19.3112 23 18.4615 23H5.53846C4.68879 23 4 22.316 4 21.4722V2.52778C4 1.68401 4.68879 1 5.53846 1Z" fill="#0F9D58"/>
<path d="M4 21.1666C4 22.0104 4.68879 22.6944 5.53846 22.6944H18.4615C19.3112 22.6944 20 22.0104 20 21.1666V21.4722C20 22.316 19.3112 23 18.4615 23H5.53846C4.68879 23 4 22.316 4 21.4722V21.1666Z" fill="#263238" fill-opacity="0.1"/>
<path d="M5.53846 1H14.4615V1.30556H5.53846C4.68879 1.30556 4 1.98956 4 2.83333V2.52778C4 1.68401 4.68879 1 5.53846 1Z" fill="white" fill-opacity="0.2"/>
<path d="M14.7695 5.88892L20.0003 11.0834V6.50003" fill="url(#paint0_linear_4117_1702)"/>
<path d="M14.4609 1L19.9994 6.5H15.9994C15.1497 6.5 14.4609 5.81599 14.4609 4.97222V1Z" fill="#87CEAC"/>
<path d="M7.69238 10.7778H16.3078V19.3334H7.69238V10.7778ZM8.92315 12.0001V13.2223H11.3847V12.0001H8.92315ZM8.92315 14.4445V15.6667H11.3847V14.4445H8.92315ZM8.92315 16.8889V18.1112H11.3847V16.8889H8.92315ZM12.6155 12.0001V13.2223H15.077V12.0001H12.6155ZM12.6155 14.4445V15.6667H15.077V14.4445H12.6155ZM12.6155 16.8889V18.1112H15.077V16.8889H12.6155Z" fill="#F1F1F1"/>
<path d="M5.53846 1H14.4615L20 6.5V21.4722C20 22.316 19.3112 23 18.4615 23H5.53846C4.68879 23 4 22.316 4 21.4722V2.52778C4 1.68401 4.68879 1 5.53846 1Z" fill="url(#paint1_radial_4117_1702)" fill-opacity="0.1"/>
</g>
</g>
</g>
</g>
<defs>
<linearGradient id="paint0_linear_4117_1702" x1="17.3852" y1="6.33491" x2="17.3852" y2="11.0841" gradientUnits="userSpaceOnUse">
<stop stop-color="#1A237E" stop-opacity="0.2"/>
<stop offset="1" stop-color="#1A237E" stop-opacity="0.02"/>
</linearGradient>
<radialGradient id="paint1_radial_4117_1702" cx="0" cy="0" r="1" gradientUnits="userSpaceOnUse" gradientTransform="translate(4.50688 1.45143) scale(25.7997 25.643)">
<stop stop-color="white"/>
<stop offset="1" stop-color="white" stop-opacity="0"/>
</radialGradient>
<clipPath id="clip0_4117_1702">
<rect width="24" height="24" fill="white"/>
</clipPath>
<clipPath id="clip1_4117_1702">
<rect width="24" height="24" fill="white"/>
</clipPath>
<clipPath id="clip2_4117_1702">
<rect width="24" height="24" fill="white"/>
</clipPath>
<clipPath id="clip3_4117_1702">
<rect width="24" height="24" fill="white"/>
</clipPath>
</defs>
</svg>
