<svg width="960" height="240" viewBox="0 0 960 240" fill="none" xmlns="http://www.w3.org/2000/svg">
<rect x="0.5" y="0.5" width="959" height="239" rx="4.5" stroke="#7B61FF" stroke-dasharray="10 5"/>
<g clip-path="url(#clip0_4117_1956)">
<path fill-rule="evenodd" clip-rule="evenodd" d="M198.272 49.0518C197.153 49.0526 196.247 49.9592 196.248 51.0763C196.247 52.1935 197.154 53.1001 198.273 53.1009H200.298V51.0772C200.299 49.96 199.392 49.0534 198.272 49.0518C198.273 49.0518 198.273 49.0518 198.272 49.0518V49.0518ZM198.272 54.4518H192.873C191.754 54.4526 190.847 55.3592 190.848 56.4763C190.846 57.5935 191.753 58.5001 192.872 58.5018H198.272C199.392 58.5009 200.298 57.5943 200.297 56.4772C200.298 55.3592 199.392 54.4526 198.272 54.4518Z" fill="#1AB9FE"/>
<path fill-rule="evenodd" clip-rule="evenodd" d="M211.097 56.4763C211.098 55.3592 210.191 54.4526 209.072 54.4518C207.953 54.4526 207.046 55.3592 207.047 56.4763V58.5018H209.072C210.191 58.5009 211.098 57.5943 211.097 56.4763ZM205.697 56.4763V51.0763C205.698 49.96 204.792 49.0534 203.673 49.0518C202.553 49.0526 201.647 49.9592 201.647 51.0763V56.4763C201.646 57.5935 202.553 58.5001 203.672 58.5018C204.791 58.5009 205.698 57.5943 205.697 56.4763Z" fill="#40B658"/>
<path fill-rule="evenodd" clip-rule="evenodd" d="M203.673 69.3017C204.792 69.3008 205.699 68.3942 205.698 67.2771C205.699 66.1599 204.792 65.2533 203.673 65.2525H201.647V67.2771C201.647 68.3934 202.553 69.3 203.673 69.3017ZM203.673 63.9008H209.073C210.192 63.9 211.099 62.9934 211.098 61.8762C211.1 60.7591 210.193 59.8525 209.074 59.8508H203.674C202.554 59.8517 201.647 60.7583 201.648 61.8754C201.647 62.9934 202.553 63.9 203.673 63.9008Z" fill="#FCC003"/>
<path fill-rule="evenodd" clip-rule="evenodd" d="M190.848 61.8764C190.847 62.9936 191.754 63.9002 192.873 63.901C193.992 63.9002 194.899 62.9936 194.898 61.8764V59.8518H192.873C191.754 59.8526 190.847 60.7592 190.848 61.8764ZM196.248 61.8764V67.2764C196.246 68.3936 197.153 69.3002 198.272 69.3018C199.392 69.301 200.298 68.3944 200.297 67.2772V61.878C200.299 60.7609 199.392 59.8543 198.273 59.8526C197.153 59.8526 196.247 60.7592 196.248 61.8764C196.248 61.8772 196.248 61.8764 196.248 61.8764Z" fill="#E3066A"/>
</g>
<g clip-path="url(#clip1_4117_1956)">
<path fill-rule="evenodd" clip-rule="evenodd" d="M598.272 49.0518C597.153 49.0526 596.247 49.9592 596.248 51.0763C596.247 52.1935 597.154 53.1001 598.273 53.1009H600.298V51.0772C600.299 49.96 599.392 49.0534 598.272 49.0518C598.273 49.0518 598.273 49.0518 598.272 49.0518V49.0518ZM598.272 54.4518H592.873C591.754 54.4526 590.847 55.3592 590.848 56.4763C590.846 57.5935 591.753 58.5001 592.872 58.5018H598.272C599.392 58.5009 600.298 57.5943 600.297 56.4772C600.298 55.3592 599.392 54.4526 598.272 54.4518Z" fill="#1AB9FE"/>
<path fill-rule="evenodd" clip-rule="evenodd" d="M611.097 56.4763C611.098 55.3592 610.191 54.4526 609.072 54.4518C607.953 54.4526 607.046 55.3592 607.047 56.4763V58.5018H609.072C610.191 58.5009 611.098 57.5943 611.097 56.4763ZM605.697 56.4763V51.0763C605.698 49.96 604.792 49.0534 603.673 49.0518C602.553 49.0526 601.647 49.9592 601.647 51.0763V56.4763C601.646 57.5935 602.553 58.5001 603.672 58.5018C604.791 58.5009 605.698 57.5943 605.697 56.4763Z" fill="#40B658"/>
<path fill-rule="evenodd" clip-rule="evenodd" d="M603.673 69.3017C604.792 69.3008 605.699 68.3942 605.698 67.2771C605.699 66.1599 604.792 65.2533 603.673 65.2525H601.647V67.2771C601.647 68.3934 602.553 69.3 603.673 69.3017ZM603.673 63.9008H609.073C610.192 63.9 611.099 62.9934 611.098 61.8762C611.1 60.7591 610.193 59.8525 609.074 59.8508H603.674C602.554 59.8517 601.647 60.7583 601.648 61.8754C601.647 62.9934 602.553 63.9 603.673 63.9008Z" fill="#FCC003"/>
<path fill-rule="evenodd" clip-rule="evenodd" d="M590.848 61.8764C590.847 62.9936 591.754 63.9002 592.873 63.901C593.992 63.9002 594.899 62.9936 594.898 61.8764V59.8518H592.873C591.754 59.8526 590.847 60.7592 590.848 61.8764ZM596.248 61.8764V67.2764C596.246 68.3936 597.153 69.3002 598.272 69.3018C599.392 69.301 600.298 68.3944 600.297 67.2772V61.878C600.299 60.7609 599.392 59.8543 598.273 59.8526C597.153 59.8526 596.247 60.7592 596.248 61.8764C596.248 61.8772 596.248 61.8764 596.248 61.8764Z" fill="#E3066A"/>
</g>
<g clip-path="url(#clip2_4117_1956)">
<path fill-rule="evenodd" clip-rule="evenodd" d="M39.2722 169.052C38.1528 169.053 37.2469 169.959 37.2477 171.076C37.2469 172.194 38.1536 173.1 39.273 173.101H41.2983V171.077C41.2991 169.96 40.3924 169.053 39.2722 169.052C39.273 169.052 39.273 169.052 39.2722 169.052V169.052ZM39.2722 174.452H33.873C32.7536 174.453 31.8468 175.359 31.8477 176.476C31.846 177.594 32.7528 178.5 33.8721 178.502H39.2722C40.3916 178.501 41.2983 177.594 41.2975 176.477C41.2983 175.359 40.3916 174.453 39.2722 174.452Z" fill="#1AB9FE"/>
<path fill-rule="evenodd" clip-rule="evenodd" d="M52.0973 176.476C52.0981 175.359 51.1914 174.453 50.072 174.452C48.9526 174.453 48.0458 175.359 48.0467 176.476V178.502H50.072C51.1914 178.501 52.0981 177.594 52.0973 176.476ZM46.6973 176.476V171.076C46.6981 169.96 45.7922 169.053 44.6728 169.052C43.5534 169.053 42.6466 169.959 42.6475 171.076V176.476C42.6458 177.594 43.5526 178.5 44.672 178.502C45.7913 178.501 46.6981 177.594 46.6973 176.476Z" fill="#40B658"/>
<path fill-rule="evenodd" clip-rule="evenodd" d="M44.6728 189.302C45.7922 189.301 46.6989 188.394 46.6981 187.277C46.6989 186.16 45.7922 185.253 44.6728 185.252H42.6475V187.277C42.6466 188.393 43.5534 189.3 44.6728 189.302ZM44.6728 183.901H50.0728C51.1922 183.9 52.0989 182.993 52.0981 181.876C52.0998 180.759 51.193 179.852 50.0736 179.851H44.6736C43.5542 179.852 42.6475 180.758 42.6483 181.875C42.6475 182.993 43.5534 183.9 44.6728 183.901Z" fill="#FCC003"/>
<path fill-rule="evenodd" clip-rule="evenodd" d="M31.8477 181.876C31.8468 182.994 32.7536 183.9 33.873 183.901C34.9924 183.9 35.8991 182.994 35.8983 181.876V179.852H33.873C32.7536 179.853 31.8468 180.759 31.8477 181.876ZM37.2477 181.876V187.276C37.246 188.394 38.1528 189.3 39.2722 189.302C40.3916 189.301 41.2983 188.394 41.2975 187.277V181.878C41.2991 180.761 40.3924 179.854 39.273 179.853C38.1528 179.853 37.2469 180.759 37.2477 181.876C37.2477 181.877 37.2477 181.876 37.2477 181.876Z" fill="#E3066A"/>
</g>
<g clip-path="url(#clip3_4117_1956)">
<path fill-rule="evenodd" clip-rule="evenodd" d="M119.272 169.052C118.153 169.053 117.247 169.959 117.248 171.076C117.247 172.194 118.154 173.1 119.273 173.101H121.298V171.077C121.299 169.96 120.392 169.053 119.272 169.052C119.273 169.052 119.273 169.052 119.272 169.052V169.052ZM119.272 174.452H113.873C112.754 174.453 111.847 175.359 111.848 176.476C111.846 177.594 112.753 178.5 113.872 178.502H119.272C120.392 178.501 121.298 177.594 121.297 176.477C121.298 175.359 120.392 174.453 119.272 174.452Z" fill="#1AB9FE"/>
<path fill-rule="evenodd" clip-rule="evenodd" d="M132.097 176.476C132.098 175.359 131.191 174.453 130.072 174.452C128.953 174.453 128.046 175.359 128.047 176.476V178.502H130.072C131.191 178.501 132.098 177.594 132.097 176.476ZM126.697 176.476V171.076C126.698 169.96 125.792 169.053 124.673 169.052C123.553 169.053 122.647 169.959 122.647 171.076V176.476C122.646 177.594 123.553 178.5 124.672 178.502C125.791 178.501 126.698 177.594 126.697 176.476Z" fill="#40B658"/>
<path fill-rule="evenodd" clip-rule="evenodd" d="M124.673 189.302C125.792 189.301 126.699 188.394 126.698 187.277C126.699 186.16 125.792 185.253 124.673 185.252H122.647V187.277C122.647 188.393 123.553 189.3 124.673 189.302ZM124.673 183.901H130.073C131.192 183.9 132.099 182.993 132.098 181.876C132.1 180.759 131.193 179.852 130.074 179.851H124.674C123.554 179.852 122.647 180.758 122.648 181.875C122.647 182.993 123.553 183.9 124.673 183.901Z" fill="#FCC003"/>
<path fill-rule="evenodd" clip-rule="evenodd" d="M111.848 181.876C111.847 182.994 112.754 183.9 113.873 183.901C114.992 183.9 115.899 182.994 115.898 181.876V179.852H113.873C112.754 179.853 111.847 180.759 111.848 181.876ZM117.248 181.876V187.276C117.246 188.394 118.153 189.3 119.272 189.302C120.392 189.301 121.298 188.394 121.297 187.277V181.878C121.299 180.761 120.392 179.854 119.273 179.853C118.153 179.853 117.247 180.759 117.248 181.876C117.248 181.877 117.248 181.876 117.248 181.876Z" fill="#E3066A"/>
</g>
<g clip-path="url(#clip4_4117_1956)">
<path fill-rule="evenodd" clip-rule="evenodd" d="M278.272 49.0518C277.153 49.0526 276.247 49.9592 276.248 51.0763C276.247 52.1935 277.154 53.1001 278.273 53.1009H280.298V51.0772C280.299 49.96 279.392 49.0534 278.272 49.0518C278.273 49.0518 278.273 49.0518 278.272 49.0518V49.0518ZM278.272 54.4518H272.873C271.754 54.4526 270.847 55.3592 270.848 56.4763C270.846 57.5935 271.753 58.5001 272.872 58.5018H278.272C279.392 58.5009 280.298 57.5943 280.297 56.4772C280.298 55.3592 279.392 54.4526 278.272 54.4518Z" fill="#1AB9FE"/>
<path fill-rule="evenodd" clip-rule="evenodd" d="M291.097 56.4763C291.098 55.3592 290.191 54.4526 289.072 54.4518C287.953 54.4526 287.046 55.3592 287.047 56.4763V58.5018H289.072C290.191 58.5009 291.098 57.5943 291.097 56.4763ZM285.697 56.4763V51.0763C285.698 49.96 284.792 49.0534 283.673 49.0518C282.553 49.0526 281.647 49.9592 281.647 51.0763V56.4763C281.646 57.5935 282.553 58.5001 283.672 58.5018C284.791 58.5009 285.698 57.5943 285.697 56.4763Z" fill="#40B658"/>
<path fill-rule="evenodd" clip-rule="evenodd" d="M283.673 69.3017C284.792 69.3008 285.699 68.3942 285.698 67.2771C285.699 66.1599 284.792 65.2533 283.673 65.2525H281.647V67.2771C281.647 68.3934 282.553 69.3 283.673 69.3017ZM283.673 63.9008H289.073C290.192 63.9 291.099 62.9934 291.098 61.8762C291.1 60.7591 290.193 59.8525 289.074 59.8508H283.674C282.554 59.8517 281.647 60.7583 281.648 61.8754C281.647 62.9934 282.553 63.9 283.673 63.9008Z" fill="#FCC003"/>
<path fill-rule="evenodd" clip-rule="evenodd" d="M270.848 61.8764C270.847 62.9936 271.754 63.9002 272.873 63.901C273.992 63.9002 274.899 62.9936 274.898 61.8764V59.8518H272.873C271.754 59.8526 270.847 60.7592 270.848 61.8764ZM276.248 61.8764V67.2764C276.246 68.3936 277.153 69.3002 278.272 69.3018C279.392 69.301 280.298 68.3944 280.297 67.2772V61.878C280.299 60.7609 279.392 59.8543 278.273 59.8526C277.153 59.8526 276.247 60.7592 276.248 61.8764C276.248 61.8772 276.248 61.8764 276.248 61.8764Z" fill="#E3066A"/>
</g>
<g clip-path="url(#clip5_4117_1956)">
<path fill-rule="evenodd" clip-rule="evenodd" d="M678.272 49.0518C677.153 49.0526 676.247 49.9592 676.248 51.0763C676.247 52.1935 677.154 53.1001 678.273 53.1009H680.298V51.0772C680.299 49.96 679.392 49.0534 678.272 49.0518C678.273 49.0518 678.273 49.0518 678.272 49.0518V49.0518ZM678.272 54.4518H672.873C671.754 54.4526 670.847 55.3592 670.848 56.4763C670.846 57.5935 671.753 58.5001 672.872 58.5018H678.272C679.392 58.5009 680.298 57.5943 680.297 56.4772C680.298 55.3592 679.392 54.4526 678.272 54.4518Z" fill="#1AB9FE"/>
<path fill-rule="evenodd" clip-rule="evenodd" d="M691.097 56.4763C691.098 55.3592 690.191 54.4526 689.072 54.4518C687.953 54.4526 687.046 55.3592 687.047 56.4763V58.5018H689.072C690.191 58.5009 691.098 57.5943 691.097 56.4763ZM685.697 56.4763V51.0763C685.698 49.96 684.792 49.0534 683.673 49.0518C682.553 49.0526 681.647 49.9592 681.647 51.0763V56.4763C681.646 57.5935 682.553 58.5001 683.672 58.5018C684.791 58.5009 685.698 57.5943 685.697 56.4763Z" fill="#40B658"/>
<path fill-rule="evenodd" clip-rule="evenodd" d="M683.673 69.3017C684.792 69.3008 685.699 68.3942 685.698 67.2771C685.699 66.1599 684.792 65.2533 683.673 65.2525H681.647V67.2771C681.647 68.3934 682.553 69.3 683.673 69.3017ZM683.673 63.9008H689.073C690.192 63.9 691.099 62.9934 691.098 61.8762C691.1 60.7591 690.193 59.8525 689.074 59.8508H683.674C682.554 59.8517 681.647 60.7583 681.648 61.8754C681.647 62.9934 682.553 63.9 683.673 63.9008Z" fill="#FCC003"/>
<path fill-rule="evenodd" clip-rule="evenodd" d="M670.848 61.8764C670.847 62.9936 671.754 63.9002 672.873 63.901C673.992 63.9002 674.899 62.9936 674.898 61.8764V59.8518H672.873C671.754 59.8526 670.847 60.7592 670.848 61.8764ZM676.248 61.8764V67.2764C676.246 68.3936 677.153 69.3002 678.272 69.3018C679.392 69.301 680.298 68.3944 680.297 67.2772V61.878C680.299 60.7609 679.392 59.8543 678.273 59.8526C677.153 59.8526 676.247 60.7592 676.248 61.8764C676.248 61.8772 676.248 61.8764 676.248 61.8764Z" fill="#E3066A"/>
</g>
<g clip-path="url(#clip6_4117_1956)">
<path fill-rule="evenodd" clip-rule="evenodd" d="M358.272 49.0518C357.153 49.0526 356.247 49.9592 356.248 51.0763C356.247 52.1935 357.154 53.1001 358.273 53.1009H360.298V51.0772C360.299 49.96 359.392 49.0534 358.272 49.0518C358.273 49.0518 358.273 49.0518 358.272 49.0518V49.0518ZM358.272 54.4518H352.873C351.754 54.4526 350.847 55.3592 350.848 56.4763C350.846 57.5935 351.753 58.5001 352.872 58.5018H358.272C359.392 58.5009 360.298 57.5943 360.297 56.4772C360.298 55.3592 359.392 54.4526 358.272 54.4518Z" fill="#1AB9FE"/>
<path fill-rule="evenodd" clip-rule="evenodd" d="M371.097 56.4763C371.098 55.3592 370.191 54.4526 369.072 54.4518C367.953 54.4526 367.046 55.3592 367.047 56.4763V58.5018H369.072C370.191 58.5009 371.098 57.5943 371.097 56.4763ZM365.697 56.4763V51.0763C365.698 49.96 364.792 49.0534 363.673 49.0518C362.553 49.0526 361.647 49.9592 361.647 51.0763V56.4763C361.646 57.5935 362.553 58.5001 363.672 58.5018C364.791 58.5009 365.698 57.5943 365.697 56.4763Z" fill="#40B658"/>
<path fill-rule="evenodd" clip-rule="evenodd" d="M363.673 69.3017C364.792 69.3008 365.699 68.3942 365.698 67.2771C365.699 66.1599 364.792 65.2533 363.673 65.2525H361.647V67.2771C361.647 68.3934 362.553 69.3 363.673 69.3017ZM363.673 63.9008H369.073C370.192 63.9 371.099 62.9934 371.098 61.8762C371.1 60.7591 370.193 59.8525 369.074 59.8508H363.674C362.554 59.8517 361.647 60.7583 361.648 61.8754C361.647 62.9934 362.553 63.9 363.673 63.9008Z" fill="#FCC003"/>
<path fill-rule="evenodd" clip-rule="evenodd" d="M350.848 61.8764C350.847 62.9936 351.754 63.9002 352.873 63.901C353.992 63.9002 354.899 62.9936 354.898 61.8764V59.8518H352.873C351.754 59.8526 350.847 60.7592 350.848 61.8764ZM356.248 61.8764V67.2764C356.246 68.3936 357.153 69.3002 358.272 69.3018C359.392 69.301 360.298 68.3944 360.297 67.2772V61.878C360.299 60.7609 359.392 59.8543 358.273 59.8526C357.153 59.8526 356.247 60.7592 356.248 61.8764C356.248 61.8772 356.248 61.8764 356.248 61.8764Z" fill="#E3066A"/>
</g>
<g clip-path="url(#clip7_4117_1956)">
<path fill-rule="evenodd" clip-rule="evenodd" d="M758.272 49.0518C757.153 49.0526 756.247 49.9592 756.248 51.0763C756.247 52.1935 757.154 53.1001 758.273 53.1009H760.298V51.0772C760.299 49.96 759.392 49.0534 758.272 49.0518C758.273 49.0518 758.273 49.0518 758.272 49.0518V49.0518ZM758.272 54.4518H752.873C751.754 54.4526 750.847 55.3592 750.848 56.4763C750.846 57.5935 751.753 58.5001 752.872 58.5018H758.272C759.392 58.5009 760.298 57.5943 760.297 56.4772C760.298 55.3592 759.392 54.4526 758.272 54.4518Z" fill="#1AB9FE"/>
<path fill-rule="evenodd" clip-rule="evenodd" d="M771.097 56.4763C771.098 55.3592 770.191 54.4526 769.072 54.4518C767.953 54.4526 767.046 55.3592 767.047 56.4763V58.5018H769.072C770.191 58.5009 771.098 57.5943 771.097 56.4763ZM765.697 56.4763V51.0763C765.698 49.96 764.792 49.0534 763.673 49.0518C762.553 49.0526 761.647 49.9592 761.647 51.0763V56.4763C761.646 57.5935 762.553 58.5001 763.672 58.5018C764.791 58.5009 765.698 57.5943 765.697 56.4763Z" fill="#40B658"/>
<path fill-rule="evenodd" clip-rule="evenodd" d="M763.673 69.3017C764.792 69.3008 765.699 68.3942 765.698 67.2771C765.699 66.1599 764.792 65.2533 763.673 65.2525H761.647V67.2771C761.647 68.3934 762.553 69.3 763.673 69.3017ZM763.673 63.9008H769.073C770.192 63.9 771.099 62.9934 771.098 61.8762C771.1 60.7591 770.193 59.8525 769.074 59.8508H763.674C762.554 59.8517 761.647 60.7583 761.648 61.8754C761.647 62.9934 762.553 63.9 763.673 63.9008Z" fill="#FCC003"/>
<path fill-rule="evenodd" clip-rule="evenodd" d="M750.848 61.8764C750.847 62.9936 751.754 63.9002 752.873 63.901C753.992 63.9002 754.899 62.9936 754.898 61.8764V59.8518H752.873C751.754 59.8526 750.847 60.7592 750.848 61.8764ZM756.248 61.8764V67.2764C756.246 68.3936 757.153 69.3002 758.272 69.3018C759.392 69.301 760.298 68.3944 760.297 67.2772V61.878C760.299 60.7609 759.392 59.8543 758.273 59.8526C757.153 59.8526 756.247 60.7592 756.248 61.8764C756.248 61.8772 756.248 61.8764 756.248 61.8764Z" fill="#E3066A"/>
</g>
<g clip-path="url(#clip8_4117_1956)">
<path fill-rule="evenodd" clip-rule="evenodd" d="M199.272 169.052C198.153 169.053 197.247 169.959 197.248 171.076C197.247 172.194 198.154 173.1 199.273 173.101H201.298V171.077C201.299 169.96 200.392 169.053 199.272 169.052C199.273 169.052 199.273 169.052 199.272 169.052V169.052ZM199.272 174.452H193.873C192.754 174.453 191.847 175.359 191.848 176.476C191.846 177.594 192.753 178.5 193.872 178.502H199.272C200.392 178.501 201.298 177.594 201.297 176.477C201.298 175.359 200.392 174.453 199.272 174.452Z" fill="#1AB9FE"/>
<path fill-rule="evenodd" clip-rule="evenodd" d="M212.097 176.476C212.098 175.359 211.191 174.453 210.072 174.452C208.953 174.453 208.046 175.359 208.047 176.476V178.502H210.072C211.191 178.501 212.098 177.594 212.097 176.476ZM206.697 176.476V171.076C206.698 169.96 205.792 169.053 204.673 169.052C203.553 169.053 202.647 169.959 202.647 171.076V176.476C202.646 177.594 203.553 178.5 204.672 178.502C205.791 178.501 206.698 177.594 206.697 176.476Z" fill="#40B658"/>
<path fill-rule="evenodd" clip-rule="evenodd" d="M204.673 189.302C205.792 189.301 206.699 188.394 206.698 187.277C206.699 186.16 205.792 185.253 204.673 185.252H202.647V187.277C202.647 188.393 203.553 189.3 204.673 189.302ZM204.673 183.901H210.073C211.192 183.9 212.099 182.993 212.098 181.876C212.1 180.759 211.193 179.852 210.074 179.851H204.674C203.554 179.852 202.647 180.758 202.648 181.875C202.647 182.993 203.553 183.9 204.673 183.901Z" fill="#FCC003"/>
<path fill-rule="evenodd" clip-rule="evenodd" d="M191.848 181.876C191.847 182.994 192.754 183.9 193.873 183.901C194.992 183.9 195.899 182.994 195.898 181.876V179.852H193.873C192.754 179.853 191.847 180.759 191.848 181.876ZM197.248 181.876V187.276C197.246 188.394 198.153 189.3 199.272 189.302C200.392 189.301 201.298 188.394 201.297 187.277V181.878C201.299 180.761 200.392 179.854 199.273 179.853C198.153 179.853 197.247 180.759 197.248 181.876C197.248 181.877 197.248 181.876 197.248 181.876Z" fill="#E3066A"/>
</g>
<g clip-path="url(#clip9_4117_1956)">
<path fill-rule="evenodd" clip-rule="evenodd" d="M38.2722 49.0518C37.1528 49.0526 36.2469 49.9592 36.2477 51.0763C36.2469 52.1935 37.1536 53.1001 38.273 53.1009H40.2983V51.0772C40.2991 49.96 39.3924 49.0534 38.2722 49.0518C38.273 49.0518 38.273 49.0518 38.2722 49.0518V49.0518ZM38.2722 54.4518H32.873C31.7536 54.4526 30.8468 55.3592 30.8477 56.4763C30.846 57.5935 31.7528 58.5001 32.8721 58.5018H38.2722C39.3916 58.5009 40.2983 57.5943 40.2975 56.4772C40.2983 55.3592 39.3916 54.4526 38.2722 54.4518Z" fill="#1AB9FE"/>
<path fill-rule="evenodd" clip-rule="evenodd" d="M51.0973 56.4763C51.0981 55.3592 50.1914 54.4526 49.072 54.4518C47.9526 54.4526 47.0458 55.3592 47.0467 56.4763V58.5018H49.072C50.1914 58.5009 51.0981 57.5943 51.0973 56.4763ZM45.6973 56.4763V51.0763C45.6981 49.96 44.7922 49.0534 43.6728 49.0518C42.5534 49.0526 41.6466 49.9592 41.6475 51.0763V56.4763C41.6458 57.5935 42.5526 58.5001 43.672 58.5018C44.7913 58.5009 45.6981 57.5943 45.6973 56.4763Z" fill="#40B658"/>
<path fill-rule="evenodd" clip-rule="evenodd" d="M43.6728 69.3017C44.7922 69.3008 45.6989 68.3942 45.6981 67.2771C45.6989 66.1599 44.7922 65.2533 43.6728 65.2525H41.6475V67.2771C41.6466 68.3934 42.5534 69.3 43.6728 69.3017ZM43.6728 63.9008H49.0728C50.1922 63.9 51.0989 62.9934 51.0981 61.8762C51.0998 60.7591 50.193 59.8525 49.0736 59.8508H43.6736C42.5542 59.8517 41.6475 60.7583 41.6483 61.8754C41.6475 62.9934 42.5534 63.9 43.6728 63.9008Z" fill="#FCC003"/>
<path fill-rule="evenodd" clip-rule="evenodd" d="M30.8477 61.8764C30.8468 62.9936 31.7536 63.9002 32.873 63.901C33.9924 63.9002 34.8991 62.9936 34.8983 61.8764V59.8518H32.873C31.7536 59.8526 30.8468 60.7592 30.8477 61.8764ZM36.2477 61.8764V67.2764C36.246 68.3936 37.1528 69.3002 38.2722 69.3018C39.3916 69.301 40.2983 68.3944 40.2975 67.2772V61.878C40.2991 60.7609 39.3924 59.8543 38.273 59.8526C37.1528 59.8526 36.2469 60.7592 36.2477 61.8764C36.2477 61.8772 36.2477 61.8764 36.2477 61.8764Z" fill="#E3066A"/>
</g>
<g clip-path="url(#clip10_4117_1956)">
<path fill-rule="evenodd" clip-rule="evenodd" d="M438.272 49.0518C437.153 49.0526 436.247 49.9592 436.248 51.0763C436.247 52.1935 437.154 53.1001 438.273 53.1009H440.298V51.0772C440.299 49.96 439.392 49.0534 438.272 49.0518C438.273 49.0518 438.273 49.0518 438.272 49.0518V49.0518ZM438.272 54.4518H432.873C431.754 54.4526 430.847 55.3592 430.848 56.4763C430.846 57.5935 431.753 58.5001 432.872 58.5018H438.272C439.392 58.5009 440.298 57.5943 440.297 56.4772C440.298 55.3592 439.392 54.4526 438.272 54.4518Z" fill="#1AB9FE"/>
<path fill-rule="evenodd" clip-rule="evenodd" d="M451.097 56.4763C451.098 55.3592 450.191 54.4526 449.072 54.4518C447.953 54.4526 447.046 55.3592 447.047 56.4763V58.5018H449.072C450.191 58.5009 451.098 57.5943 451.097 56.4763ZM445.697 56.4763V51.0763C445.698 49.96 444.792 49.0534 443.673 49.0518C442.553 49.0526 441.647 49.9592 441.647 51.0763V56.4763C441.646 57.5935 442.553 58.5001 443.672 58.5018C444.791 58.5009 445.698 57.5943 445.697 56.4763Z" fill="#40B658"/>
<path fill-rule="evenodd" clip-rule="evenodd" d="M443.673 69.3017C444.792 69.3008 445.699 68.3942 445.698 67.2771C445.699 66.1599 444.792 65.2533 443.673 65.2525H441.647V67.2771C441.647 68.3934 442.553 69.3 443.673 69.3017ZM443.673 63.9008H449.073C450.192 63.9 451.099 62.9934 451.098 61.8762C451.1 60.7591 450.193 59.8525 449.074 59.8508H443.674C442.554 59.8517 441.647 60.7583 441.648 61.8754C441.647 62.9934 442.553 63.9 443.673 63.9008Z" fill="#FCC003"/>
<path fill-rule="evenodd" clip-rule="evenodd" d="M430.848 61.8764C430.847 62.9936 431.754 63.9002 432.873 63.901C433.992 63.9002 434.899 62.9936 434.898 61.8764V59.8518H432.873C431.754 59.8526 430.847 60.7592 430.848 61.8764ZM436.248 61.8764V67.2764C436.246 68.3936 437.153 69.3002 438.272 69.3018C439.392 69.301 440.298 68.3944 440.297 67.2772V61.878C440.299 60.7609 439.392 59.8543 438.273 59.8526C437.153 59.8526 436.247 60.7592 436.248 61.8764C436.248 61.8772 436.248 61.8764 436.248 61.8764Z" fill="#E3066A"/>
</g>
<g clip-path="url(#clip11_4117_1956)">
<path fill-rule="evenodd" clip-rule="evenodd" d="M838.272 49.0518C837.153 49.0526 836.247 49.9592 836.248 51.0763C836.247 52.1935 837.154 53.1001 838.273 53.1009H840.298V51.0772C840.299 49.96 839.392 49.0534 838.272 49.0518C838.273 49.0518 838.273 49.0518 838.272 49.0518V49.0518ZM838.272 54.4518H832.873C831.754 54.4526 830.847 55.3592 830.848 56.4763C830.846 57.5935 831.753 58.5001 832.872 58.5018H838.272C839.392 58.5009 840.298 57.5943 840.297 56.4772C840.298 55.3592 839.392 54.4526 838.272 54.4518Z" fill="#1AB9FE"/>
<path fill-rule="evenodd" clip-rule="evenodd" d="M851.097 56.4763C851.098 55.3592 850.191 54.4526 849.072 54.4518C847.953 54.4526 847.046 55.3592 847.047 56.4763V58.5018H849.072C850.191 58.5009 851.098 57.5943 851.097 56.4763ZM845.697 56.4763V51.0763C845.698 49.96 844.792 49.0534 843.673 49.0518C842.553 49.0526 841.647 49.9592 841.647 51.0763V56.4763C841.646 57.5935 842.553 58.5001 843.672 58.5018C844.791 58.5009 845.698 57.5943 845.697 56.4763Z" fill="#40B658"/>
<path fill-rule="evenodd" clip-rule="evenodd" d="M843.673 69.3017C844.792 69.3008 845.699 68.3942 845.698 67.2771C845.699 66.1599 844.792 65.2533 843.673 65.2525H841.647V67.2771C841.647 68.3934 842.553 69.3 843.673 69.3017ZM843.673 63.9008H849.073C850.192 63.9 851.099 62.9934 851.098 61.8762C851.1 60.7591 850.193 59.8525 849.074 59.8508H843.674C842.554 59.8517 841.647 60.7583 841.648 61.8754C841.647 62.9934 842.553 63.9 843.673 63.9008Z" fill="#FCC003"/>
<path fill-rule="evenodd" clip-rule="evenodd" d="M830.848 61.8764C830.847 62.9936 831.754 63.9002 832.873 63.901C833.992 63.9002 834.899 62.9936 834.898 61.8764V59.8518H832.873C831.754 59.8526 830.847 60.7592 830.848 61.8764ZM836.248 61.8764V67.2764C836.246 68.3936 837.153 69.3002 838.272 69.3018C839.392 69.301 840.298 68.3944 840.297 67.2772V61.878C840.299 60.7609 839.392 59.8543 838.273 59.8526C837.153 59.8526 836.247 60.7592 836.248 61.8764C836.248 61.8772 836.248 61.8764 836.248 61.8764Z" fill="#E3066A"/>
</g>
<g clip-path="url(#clip12_4117_1956)">
<path d="M122 65L122 61L124 61L124 64L128 64L128 61.5L131.5 65L128 68.5L128 66L123 66C122.45 66 122 65.55 122 65Z" fill="#1976D2"/>
<path fill-rule="evenodd" clip-rule="evenodd" d="M118.272 49.0518C117.153 49.0526 116.247 49.9592 116.248 51.0763C116.247 52.1935 117.154 53.1001 118.273 53.1009H120.298V51.0772C120.299 49.96 119.392 49.0534 118.272 49.0518C118.273 49.0518 118.273 49.0518 118.272 49.0518V49.0518ZM118.272 54.4518H112.873C111.754 54.4526 110.847 55.3592 110.848 56.4763C110.846 57.5935 111.753 58.5001 112.872 58.5018H118.272C119.392 58.5009 120.298 57.5943 120.297 56.4772C120.298 55.3592 119.392 54.4526 118.272 54.4518Z" fill="#1AB9FE"/>
<path fill-rule="evenodd" clip-rule="evenodd" d="M131.097 56.4763C131.098 55.3592 130.191 54.4526 129.072 54.4518C127.953 54.4526 127.046 55.3592 127.047 56.4763V58.5018H129.072C130.191 58.5009 131.098 57.5943 131.097 56.4763ZM125.697 56.4763V51.0763C125.698 49.96 124.792 49.0534 123.673 49.0518C122.553 49.0526 121.647 49.9592 121.647 51.0763V56.4763C121.646 57.5935 122.553 58.5001 123.672 58.5018C124.791 58.5009 125.698 57.5943 125.697 56.4763Z" fill="#40B658"/>
<path fill-rule="evenodd" clip-rule="evenodd" d="M123.673 69.3017C124.792 69.3008 125.699 68.3942 125.698 67.2771C125.699 66.1599 124.792 65.2533 123.673 65.2525H121.647V67.2771C121.647 68.3934 122.553 69.3 123.673 69.3017ZM123.673 63.9008H129.073C130.192 63.9 131.099 62.9934 131.098 61.8762C131.1 60.7591 130.193 59.8525 129.074 59.8508H123.674C122.554 59.8517 121.647 60.7583 121.648 61.8754C121.647 62.9934 122.553 63.9 123.673 63.9008Z" fill="#FCC003"/>
<path fill-rule="evenodd" clip-rule="evenodd" d="M110.848 61.8764C110.847 62.9936 111.754 63.9002 112.873 63.901C113.992 63.9002 114.899 62.9936 114.898 61.8764V59.8518H112.873C111.754 59.8526 110.847 60.7592 110.848 61.8764ZM116.248 61.8764V67.2764C116.246 68.3936 117.153 69.3002 118.272 69.3018C119.392 69.301 120.298 68.3944 120.297 67.2772V61.878C120.299 60.7609 119.392 59.8543 118.273 59.8526C117.153 59.8526 116.247 60.7592 116.248 61.8764C116.248 61.8772 116.248 61.8764 116.248 61.8764Z" fill="#E3066A"/>
</g>
<g clip-path="url(#clip13_4117_1956)">
<path fill-rule="evenodd" clip-rule="evenodd" d="M518.272 49.0518C517.153 49.0526 516.247 49.9592 516.248 51.0763C516.247 52.1935 517.154 53.1001 518.273 53.1009H520.298V51.0772C520.299 49.96 519.392 49.0534 518.272 49.0518C518.273 49.0518 518.273 49.0518 518.272 49.0518V49.0518ZM518.272 54.4518H512.873C511.754 54.4526 510.847 55.3592 510.848 56.4763C510.846 57.5935 511.753 58.5001 512.872 58.5018H518.272C519.392 58.5009 520.298 57.5943 520.297 56.4772C520.298 55.3592 519.392 54.4526 518.272 54.4518Z" fill="#1AB9FE"/>
<path fill-rule="evenodd" clip-rule="evenodd" d="M531.097 56.4763C531.098 55.3592 530.191 54.4526 529.072 54.4518C527.953 54.4526 527.046 55.3592 527.047 56.4763V58.5018H529.072C530.191 58.5009 531.098 57.5943 531.097 56.4763ZM525.697 56.4763V51.0763C525.698 49.96 524.792 49.0534 523.673 49.0518C522.553 49.0526 521.647 49.9592 521.647 51.0763V56.4763C521.646 57.5935 522.553 58.5001 523.672 58.5018C524.791 58.5009 525.698 57.5943 525.697 56.4763Z" fill="#40B658"/>
<path fill-rule="evenodd" clip-rule="evenodd" d="M523.673 69.3017C524.792 69.3008 525.699 68.3942 525.698 67.2771C525.699 66.1599 524.792 65.2533 523.673 65.2525H521.647V67.2771C521.647 68.3934 522.553 69.3 523.673 69.3017ZM523.673 63.9008H529.073C530.192 63.9 531.099 62.9934 531.098 61.8762C531.1 60.7591 530.193 59.8525 529.074 59.8508H523.674C522.554 59.8517 521.647 60.7583 521.648 61.8754C521.647 62.9934 522.553 63.9 523.673 63.9008Z" fill="#FCC003"/>
<path fill-rule="evenodd" clip-rule="evenodd" d="M510.848 61.8764C510.847 62.9936 511.754 63.9002 512.873 63.901C513.992 63.9002 514.899 62.9936 514.898 61.8764V59.8518H512.873C511.754 59.8526 510.847 60.7592 510.848 61.8764ZM516.248 61.8764V67.2764C516.246 68.3936 517.153 69.3002 518.272 69.3018C519.392 69.301 520.298 68.3944 520.297 67.2772V61.878C520.299 60.7609 519.392 59.8543 518.273 59.8526C517.153 59.8526 516.247 60.7592 516.248 61.8764C516.248 61.8772 516.248 61.8764 516.248 61.8764Z" fill="#E3066A"/>
</g>
<g clip-path="url(#clip14_4117_1956)">
<path fill-rule="evenodd" clip-rule="evenodd" d="M918.272 49.0518C917.153 49.0526 916.247 49.9592 916.248 51.0763C916.247 52.1935 917.154 53.1001 918.273 53.1009H920.298V51.0772C920.299 49.96 919.392 49.0534 918.272 49.0518C918.273 49.0518 918.273 49.0518 918.272 49.0518V49.0518ZM918.272 54.4518H912.873C911.754 54.4526 910.847 55.3592 910.848 56.4763C910.846 57.5935 911.753 58.5001 912.872 58.5018H918.272C919.392 58.5009 920.298 57.5943 920.297 56.4772C920.298 55.3592 919.392 54.4526 918.272 54.4518Z" fill="#1AB9FE"/>
<path fill-rule="evenodd" clip-rule="evenodd" d="M931.097 56.4763C931.098 55.3592 930.191 54.4526 929.072 54.4518C927.953 54.4526 927.046 55.3592 927.047 56.4763V58.5018H929.072C930.191 58.5009 931.098 57.5943 931.097 56.4763ZM925.697 56.4763V51.0763C925.698 49.96 924.792 49.0534 923.673 49.0518C922.553 49.0526 921.647 49.9592 921.647 51.0763V56.4763C921.646 57.5935 922.553 58.5001 923.672 58.5018C924.791 58.5009 925.698 57.5943 925.697 56.4763Z" fill="#40B658"/>
<path fill-rule="evenodd" clip-rule="evenodd" d="M923.673 69.3017C924.792 69.3008 925.699 68.3942 925.698 67.2771C925.699 66.1599 924.792 65.2533 923.673 65.2525H921.647V67.2771C921.647 68.3934 922.553 69.3 923.673 69.3017ZM923.673 63.9008H929.073C930.192 63.9 931.099 62.9934 931.098 61.8762C931.1 60.7591 930.193 59.8525 929.074 59.8508H923.674C922.554 59.8517 921.647 60.7583 921.648 61.8754C921.647 62.9934 922.553 63.9 923.673 63.9008Z" fill="#FCC003"/>
<path fill-rule="evenodd" clip-rule="evenodd" d="M910.848 61.8764C910.847 62.9936 911.754 63.9002 912.873 63.901C913.992 63.9002 914.899 62.9936 914.898 61.8764V59.8518H912.873C911.754 59.8526 910.847 60.7592 910.848 61.8764ZM916.248 61.8764V67.2764C916.246 68.3936 917.153 69.3002 918.272 69.3018C919.392 69.301 920.298 68.3944 920.297 67.2772V61.878C920.299 60.7609 919.392 59.8543 918.273 59.8526C917.153 59.8526 916.247 60.7592 916.248 61.8764C916.248 61.8772 916.248 61.8764 916.248 61.8764Z" fill="#E3066A"/>
</g>
<defs>
<clipPath id="clip0_4117_1956">
<rect width="24" height="24" fill="white" transform="translate(189 47)"/>
</clipPath>
<clipPath id="clip1_4117_1956">
<rect width="24" height="24" fill="white" transform="translate(589 47)"/>
</clipPath>
<clipPath id="clip2_4117_1956">
<rect width="24" height="24" fill="white" transform="translate(30 167)"/>
</clipPath>
<clipPath id="clip3_4117_1956">
<rect width="24" height="24" fill="white" transform="translate(110 167)"/>
</clipPath>
<clipPath id="clip4_4117_1956">
<rect width="24" height="24" fill="white" transform="translate(269 47)"/>
</clipPath>
<clipPath id="clip5_4117_1956">
<rect width="24" height="24" fill="white" transform="translate(669 47)"/>
</clipPath>
<clipPath id="clip6_4117_1956">
<rect width="24" height="24" fill="white" transform="translate(349 47)"/>
</clipPath>
<clipPath id="clip7_4117_1956">
<rect width="24" height="24" fill="white" transform="translate(749 47)"/>
</clipPath>
<clipPath id="clip8_4117_1956">
<rect width="24" height="24" fill="white" transform="translate(190 167)"/>
</clipPath>
<clipPath id="clip9_4117_1956">
<rect width="24" height="24" fill="white" transform="translate(29 47)"/>
</clipPath>
<clipPath id="clip10_4117_1956">
<rect width="24" height="24" fill="white" transform="translate(429 47)"/>
</clipPath>
<clipPath id="clip11_4117_1956">
<rect width="24" height="24" fill="white" transform="translate(829 47)"/>
</clipPath>
<clipPath id="clip12_4117_1956">
<rect width="24" height="24" fill="white" transform="translate(109 47)"/>
</clipPath>
<clipPath id="clip13_4117_1956">
<rect width="24" height="24" fill="white" transform="translate(509 47)"/>
</clipPath>
<clipPath id="clip14_4117_1956">
<rect width="24" height="24" fill="white" transform="translate(909 47)"/>
</clipPath>
</defs>
</svg>
