<svg width="20" height="20" viewBox="0 0 20 20" fill="none" xmlns="http://www.w3.org/2000/svg">
    <path
        d="M10.9305 0.74464C11.2979 -0.248213 12.7021 -0.248213 13.0695 0.744639L14.2001 3.79992L17.2554 4.93047C18.2482 5.29786 18.2482 6.70214 17.2554 7.06953L14.2001 8.20008L13.0695 11.2554C12.7021 12.2482 11.2979 12.2482 10.9305 11.2554L9.79992 8.20008L6.74464 7.06953C5.75179 6.70214 5.75179 5.29786 6.74464 4.93047L9.79992 3.79992L10.9305 0.74464Z"
        fill="var(--color-primary)" />
    <path
        d="M3.28698 9.49643C3.53191 8.83452 4.46809 8.83452 4.71302 9.49643L5.46672 11.5333L7.50357 12.287C8.16547 12.5319 8.16547 13.4681 7.50357 13.713L5.46672 14.4667L4.71302 16.5036C4.46809 17.1655 3.53191 17.1655 3.28698 16.5036L2.53328 14.4667L0.496426 13.713C-0.165475 13.4681 -0.165476 12.5319 0.496426 12.287L2.53328 11.5333L3.28698 9.49643Z"
        fill="var(--color-icon-default)" />
    <path
        d="M15.4652 13.3723C15.6489 12.8759 16.3511 12.8759 16.5348 13.3723L17.1 14.9L18.6277 15.4652C19.1241 15.6489 19.1241 16.3511 18.6277 16.5348L17.1 17.1L16.5348 18.6277C16.3511 19.1241 15.6489 19.1241 15.4652 18.6277L14.9 17.1L13.3723 16.5348C12.8759 16.3511 12.8759 15.6489 13.3723 15.4652L14.9 14.9L15.4652 13.3723Z"
        fill="var(--color-icon-default)" />
</svg>
