<svg width="24" height="24" viewBox="0 0 24 24" fill="none" xmlns="http://www.w3.org/2000/svg">
    <path
        d="M12.9305 2.74464C13.2979 1.75179 14.7021 1.75179 15.0695 2.74464L16.2001 5.79992L19.2554 6.93047C20.2482 7.29786 20.2482 8.70214 19.2554 9.06953L16.2001 10.2001L15.0695 13.2554C14.7021 14.2482 13.2979 14.2482 12.9305 13.2554L11.7999 10.2001L8.74464 9.06953C7.75179 8.70214 7.75179 7.29786 8.74464 6.93047L11.7999 5.79992L12.9305 2.74464Z"
        fill="#0BA2B3" />
    <path
        d="M6.28698 11.4964C6.53191 10.8345 7.46809 10.8345 7.71302 11.4964L8.46672 13.5333L10.5036 14.287C11.1655 14.5319 11.1655 15.4681 10.5036 15.713L8.46672 16.4667L7.71302 18.5036C7.46809 19.1655 6.53191 19.1655 6.28698 18.5036L5.53328 16.4667L3.49643 15.713C2.83452 15.4681 2.83452 14.5319 3.49643 14.287L5.53328 13.5333L6.28698 11.4964Z"
        fill="#FA4616" />
    <path
        d="M16.4652 15.3723C16.6489 14.8759 17.3511 14.8759 17.5348 15.3723L18.1 16.9L19.6277 17.4652C20.1241 17.6489 20.1241 18.3511 19.6277 18.5348L18.1 19.1L17.5348 20.6277C17.3511 21.1241 16.6489 21.1241 16.4652 20.6277L15.9 19.1L14.3723 18.5348C13.8759 18.3511 13.8759 17.6489 14.3723 17.4652L15.9 16.9L16.4652 15.3723Z"
        fill="#526069" />
</svg>
