<svg width="16" height="16" viewBox="0 0 16 16" fill="none" xmlns="http://www.w3.org/2000/svg">
    <g clip-path="url(#clip0_1613_679)" filter="url(#filter0_ii_1613_679)">
        <path
            d="M9.67441 8.85554L8.55813 0.666656H8.47478C4.41571 0.678511 1.12812 3.96724 1.11627 8.02772V8.1111L9.67441 8.85554Z"
            fill="#ED6C47" />
        <path
            d="M8.64146 0.666656H8.55811V8.1111L12.279 9.59999L16 8.1111V8.02772C15.9881 3.96724 12.7005 0.678511 8.64146 0.666656Z"
            fill="#FF8F6B" />
        <path
            d="M16 8.11111V8.193C15.9883 12.2544 12.7 15.5439 8.63999 15.5556H8.47627C4.41629 15.5439 1.12792 12.2544 1.11627 8.193V8.11111H16Z"
            fill="#D35230" />
        <path opacity="0.1"
            d="M8.93017 4.32558V12.2688C8.92832 12.5448 8.76112 12.7928 8.50599 12.8979C8.42475 12.9322 8.33745 12.95 8.24924 12.95H2.8725C2.76831 12.8309 2.66785 12.7043 2.57482 12.5777C1.62684 11.3127 1.11499 9.774 1.11622 8.19297V8.02919C1.11404 6.60314 1.53067 5.20786 2.31436 4.01663C2.39622 3.89008 2.4818 3.76352 2.57482 3.64441H8.24924C8.62413 3.64725 8.92734 3.95057 8.93017 4.32558Z"
            fill="black" />
        <path opacity="0.2"
            d="M8.55815 4.69783V12.6411C8.55813 12.7293 8.54042 12.8166 8.50606 12.8979C8.401 13.1531 8.15313 13.3204 7.87722 13.3222H3.21117C3.09344 13.2027 2.98048 13.0785 2.87256 12.95C2.76837 12.8309 2.66791 12.7043 2.57489 12.5778C1.6269 11.3127 1.11505 9.77402 1.11628 8.193V8.02922C1.11411 6.60317 1.53073 5.20789 2.31442 4.01666H7.87722C8.25211 4.0195 8.55532 4.32281 8.55815 4.69783Z"
            fill="black" />
        <path opacity="0.2"
            d="M8.55808 4.69783V11.8966C8.55525 12.2716 8.25204 12.5749 7.87715 12.5778H2.57482C1.62684 11.3127 1.11499 9.77402 1.11622 8.193V8.02922C1.11404 6.60317 1.53067 5.20789 2.31436 4.01666H7.87715C8.25204 4.01949 8.55525 4.3228 8.55808 4.69783Z"
            fill="black" />
        <path opacity="0.2"
            d="M8.18599 4.69783V11.8966C8.18316 12.2716 7.87995 12.5749 7.50506 12.5778H2.57482C1.62684 11.3127 1.11499 9.77402 1.11622 8.193V8.02922C1.11404 6.60317 1.53067 5.20789 2.31436 4.01666H7.50506C7.87995 4.01949 8.18316 4.3228 8.18599 4.69783Z"
            fill="black" />
        <path
            d="M0.682043 4.01666H7.504C7.88069 4.01666 8.18604 4.32213 8.18604 4.69894V11.5233C8.18604 11.9001 7.88068 12.2056 7.504 12.2056H0.682043C0.305367 12.2056 0 11.9001 0 11.5233V4.69894C0 4.32213 0.305367 4.01666 0.682043 4.01666Z"
            fill="url(#paint0_linear_1613_679)" />
        <path
            d="M4.16739 5.83647C4.61148 5.80649 5.05174 5.93553 5.40944 6.20051C5.70779 6.46695 5.8672 6.85574 5.84181 7.25501C5.84669 7.53256 5.77275 7.80581 5.62861 8.043C5.48267 8.27612 5.27242 8.46202 5.02321 8.57826C4.73831 8.71081 4.42683 8.77626 4.11269 8.76958H3.24981V10.3739H2.36609V5.83647H4.16739ZM3.24907 8.07651H4.00963C4.25075 8.09422 4.48999 8.02284 4.68201 7.87588C4.84083 7.72348 4.92407 7.50855 4.90936 7.28889C4.90936 6.78887 4.61887 6.53886 4.03792 6.53886H3.24908V8.07651H3.24907Z"
            fill="white" />
    </g>
    <defs>
        <filter id="filter0_ii_1613_679" x="0" y="-1.33334" width="16" height="18.8889" filterUnits="userSpaceOnUse"
            color-interpolation-filters="sRGB">
            <feFlood flood-opacity="0" result="BackgroundImageFix" />
            <feBlend mode="normal" in="SourceGraphic" in2="BackgroundImageFix" result="shape" />
            <feColorMatrix in="SourceAlpha" type="matrix" values="0 0 0 0 0 0 0 0 0 0 0 0 0 0 0 0 0 0 127 0"
                result="hardAlpha" />
            <feOffset dy="2" />
            <feGaussianBlur stdDeviation="2" />
            <feComposite in2="hardAlpha" operator="arithmetic" k2="-1" k3="1" />
            <feColorMatrix type="matrix" values="0 0 0 0 1 0 0 0 0 1 0 0 0 0 1 0 0 0 0.25 0" />
            <feBlend mode="normal" in2="shape" result="effect1_innerShadow_1613_679" />
            <feColorMatrix in="SourceAlpha" type="matrix" values="0 0 0 0 0 0 0 0 0 0 0 0 0 0 0 0 0 0 127 0"
                result="hardAlpha" />
            <feOffset dy="-2" />
            <feGaussianBlur stdDeviation="2" />
            <feComposite in2="hardAlpha" operator="arithmetic" k2="-1" k3="1" />
            <feColorMatrix type="matrix" values="0 0 0 0 0 0 0 0 0 0 0 0 0 0 0 0 0 0 0.12 0" />
            <feBlend mode="normal" in2="effect1_innerShadow_1613_679" result="effect2_innerShadow_1613_679" />
        </filter>
        <linearGradient id="paint0_linear_1613_679" x1="1.42208" y1="3.48354" x2="6.76675" y2="12.7371"
            gradientUnits="userSpaceOnUse">
            <stop stop-color="#CA4C28" />
            <stop offset="0.5" stop-color="#C5401E" />
            <stop offset="1" stop-color="#B62F14" />
        </linearGradient>
        <clipPath id="clip0_1613_679">
            <rect width="16" height="14.8889" fill="white" transform="translate(0 0.666656)" />
        </clipPath>
    </defs>
</svg>
