<svg width="24" height="24" viewBox="0 0 24 24" fill="none" xmlns="http://www.w3.org/2000/svg">
<path fill-rule="evenodd" clip-rule="evenodd" d="M2 5C2 4.44772 2.44772 4 3 4H8C8.55228 4 9 4.44772 9 5V10C9 10.5523 8.55228 11 8 11H3C2.44772 11 2 10.5523 2 10V5ZM4 9V6H7V9H4Z" fill="#526069"/>
<path fill-rule="evenodd" clip-rule="evenodd" d="M2 14C2 13.4477 2.44772 13 3 13H8C8.55228 13 9 13.4477 9 14V19C9 19.5523 8.55228 20 8 20H3C2.44772 20 2 19.5523 2 19V14ZM4 18V15H7V18H4Z" fill="#526069"/>
<path d="M11 4H22V6H11V4Z" fill="#526069"/>
<path d="M16 13H11V15H16V13Z" fill="#526069"/>
<path d="M11 8H17V10H11V8Z" fill="#526069"/>
<path d="M13 17H11V19H13V17Z" fill="#526069"/>
<path d="M20 15H18V18H15V20H18V23H20V20H23V18H20V15Z" fill="#038108"/>
</svg>
