<svg width="24" height="24" viewBox="0 0 24 24" fill="none" xmlns="http://www.w3.org/2000/svg">
<g clip-path="url(#clip0_2_2020)">
<path fill-rule="evenodd" clip-rule="evenodd" d="M2.00006 12C2.00006 11.4477 2.44778 11 3.00006 11H7.07642C7.6287 11 8.07642 11.4477 8.07642 12C8.07642 12.5523 7.6287 13 7.07642 13H3.00006C2.44778 13 2.00006 12.5523 2.00006 12Z" fill="#526069"/>
<path fill-rule="evenodd" clip-rule="evenodd" d="M2 7C2 6.44772 2.44772 6 3 6L11 6C11.5523 6 12 6.44772 12 7C12 7.55228 11.5523 8 11 8L3 8C2.44771 8 2 7.55228 2 7Z" fill="#526069"/>
<path fill-rule="evenodd" clip-rule="evenodd" d="M5 17C5 16.4477 5.44772 16 6 16H11C11.5523 16 12 16.4477 12 17C12 17.5523 11.5523 18 11 18H6C5.44772 18 5 17.5523 5 17Z" fill="#526069"/>
<path d="M14.9305 6.74464C15.2979 5.75179 16.7021 5.75179 17.0695 6.74464L18.2001 9.79992L21.2554 10.9305C22.2482 11.2979 22.2482 12.7021 21.2554 13.0695L18.2001 14.2001L17.0695 17.2554C16.7021 18.2482 15.2979 18.2482 14.9305 17.2554L13.7999 14.2001L10.7446 13.0695C9.75179 12.7021 9.75179 11.2979 10.7446 10.9305L13.7999 9.79992L14.9305 6.74464Z" fill="#0067DF"/>
</g>
<defs>
<clipPath id="clip0_2_2020">
<rect width="24" height="24" fill="white"/>
</clipPath>
</defs>
</svg>
