<svg width="24" height="24" viewBox="0 0 24 24" fill="none" xmlns="http://www.w3.org/2000/svg">
<path d="M16.7841 6.61748C16.7841 9.25895 14.6423 11.4023 12.0009 11.4023C9.35775 11.4023 7.21602 9.26061 7.21602 6.61748C7.21602 3.97437 9.35775 1.83264 12.0009 1.83264C14.6423 1.83264 16.7841 3.97437 16.7841 6.61748ZM5.78484 12.5977C3.14344 12.5977 1 14.7395 1 17.3809C1 20.0223 3.14174 22.1658 5.78484 22.1658C8.42801 22.1658 10.5697 20.024 10.5697 17.3809C10.5697 14.7395 8.42801 12.5977 5.78484 12.5977ZM18.2152 12.5977C15.5721 12.5977 13.4303 14.7395 13.4303 17.3826C13.4303 20.0257 15.5721 22.1674 18.2152 22.1674C20.8566 22.1674 23 20.0257 23 17.3826C23 14.7395 20.8583 12.5977 18.2152 12.5977Z" fill="#F06A6A"/>
</svg>
