<svg width="456" height="40" viewBox="0 0 456 40" fill="none" xmlns="http://www.w3.org/2000/svg">
<rect x="0.5" y="0.5" width="455" height="39" rx="4.5" stroke="#9747FF" stroke-dasharray="10 5"/>
<path d="M30 20C30 25.5228 25.5228 30 20 30C14.4772 30 10 25.5228 10 20C10 14.4772 14.4772 10 20 10C25.5228 10 30 14.4772 30 20Z" fill="white"/>
<path d="M28.5 20C28.5 15.3056 24.6944 11.5 20 11.5C15.3056 11.5 11.5 15.3056 11.5 20C11.5 24.6944 15.3056 28.5 20 28.5V30C14.4772 30 10 25.5228 10 20C10 14.4772 14.4772 10 20 10C25.5228 10 30 14.4772 30 20C30 25.5228 25.5228 30 20 30V28.5C24.6944 28.5 28.5 24.6944 28.5 20Z" fill="#526069"/>
<path d="M27 20C27 23.866 23.866 27 20 27C16.134 27 13 23.866 13 20C13 16.134 16.134 13 20 13C23.866 13 27 16.134 27 20Z" fill="white"/>
<path d="M25.5 20C25.5 16.9624 23.0376 14.5 20 14.5C16.9624 14.5 14.5 16.9624 14.5 20C14.5 23.0376 16.9624 25.5 20 25.5V27C16.134 27 13 23.866 13 20C13 16.134 16.134 13 20 13C23.866 13 27 16.134 27 20C27 23.866 23.866 27 20 27V25.5C23.0376 25.5 25.5 23.0376 25.5 20Z" fill="#526069"/>
<path d="M62 20C62 25.5228 57.5228 30 52 30C46.4772 30 42 25.5228 42 20C42 14.4772 46.4772 10 52 10C57.5228 10 62 14.4772 62 20Z" fill="white"/>
<path d="M60.5 20C60.5 15.3056 56.6944 11.5 52 11.5C47.3056 11.5 43.5 15.3056 43.5 20C43.5 24.6944 47.3056 28.5 52 28.5V30C46.4772 30 42 25.5228 42 20C42 14.4772 46.4772 10 52 10C57.5228 10 62 14.4772 62 20C62 25.5228 57.5228 30 52 30V28.5C56.6944 28.5 60.5 24.6944 60.5 20Z" fill="#526069"/>
<path d="M59 20C59 23.866 55.866 27 52 27C48.134 27 45 23.866 45 20C45 16.134 48.134 13 52 13C55.866 13 59 16.134 59 20Z" fill="white"/>
<path d="M57.5 20C57.5 16.9624 55.0376 14.5 52 14.5C48.9624 14.5 46.5 16.9624 46.5 20C46.5 23.0376 48.9624 25.5 52 25.5V27C48.134 27 45 23.866 45 20C45 16.134 48.134 13 52 13C55.866 13 59 16.134 59 20C59 23.866 55.866 27 52 27V25.5C55.0376 25.5 57.5 23.0376 57.5 20Z" fill="#526069"/>
<path fill-rule="evenodd" clip-rule="evenodd" d="M54.98 17C55.376 17 55.7 17.3375 55.7 17.75V22.25C55.7 22.6625 55.376 23 54.98 23H49.22C48.824 23 48.5 22.6625 48.5 22.25V17.75C48.5 17.3375 48.824 17 49.22 17H54.98ZM52.1 19.5493L54.98 17.5493V18.4507L52.1 20.4507L49.22 18.4507V17.5493L52.1 19.5493Z" fill="#526069"/>
<path d="M94 20C94 25.5228 89.5228 30 84 30C78.4772 30 74 25.5228 74 20C74 14.4772 78.4772 10 84 10C89.5228 10 94 14.4772 94 20Z" fill="white"/>
<path d="M92.5 20C92.5 15.3056 88.6944 11.5 84 11.5C79.3056 11.5 75.5 15.3056 75.5 20C75.5 24.6944 79.3056 28.5 84 28.5V30C78.4772 30 74 25.5228 74 20C74 14.4772 78.4772 10 84 10C89.5228 10 94 14.4772 94 20C94 25.5228 89.5228 30 84 30V28.5C88.6944 28.5 92.5 24.6944 92.5 20Z" fill="#526069"/>
<path d="M91 20C91 23.866 87.866 27 84 27C80.134 27 77 23.866 77 20C77 16.134 80.134 13 84 13C87.866 13 91 16.134 91 20Z" fill="white"/>
<path d="M89.5 20C89.5 16.9624 87.0376 14.5 84 14.5C80.9624 14.5 78.5 16.9624 78.5 20C78.5 23.0376 80.9624 25.5 84 25.5V27C80.134 27 77 23.866 77 20C77 16.134 80.134 13 84 13C87.866 13 91 16.134 91 20C91 23.866 87.866 27 84 27V25.5C87.0376 25.5 89.5 23.0376 89.5 20Z" fill="#526069"/>
<path d="M86.98 17C87.376 17 87.7 17.3375 87.7 17.75V22.25C87.7 22.6625 87.376 23 86.98 23H81.22C80.824 23 80.5 22.6625 80.5 22.25V17.75C80.5 17.3375 80.824 17 81.22 17H86.98ZM84.1 20.88L81.54 19.13V21.94H86.66V19.13L84.1 20.88ZM84.1 19.81L86.66 18H81.54L84.1 19.81Z" fill="#526069"/>
<path d="M126 20C126 25.5228 121.523 30 116 30C110.477 30 106 25.5228 106 20C106 14.4772 110.477 10 116 10C121.523 10 126 14.4772 126 20Z" fill="white"/>
<path d="M124.5 20C124.5 15.3056 120.694 11.5 116 11.5C111.306 11.5 107.5 15.3056 107.5 20C107.5 24.6944 111.306 28.5 116 28.5V30C110.477 30 106 25.5228 106 20C106 14.4772 110.477 10 116 10C121.523 10 126 14.4772 126 20C126 25.5228 121.523 30 116 30V28.5C120.694 28.5 124.5 24.6944 124.5 20Z" fill="#526069"/>
<path d="M123 20C123 23.866 119.866 27 116 27C112.134 27 109 23.866 109 20C109 16.134 112.134 13 116 13C119.866 13 123 16.134 123 20Z" fill="white"/>
<path d="M121.5 20C121.5 16.9624 119.038 14.5 116 14.5C112.962 14.5 110.5 16.9624 110.5 20C110.5 23.0376 112.962 25.5 116 25.5V27C112.134 27 109 23.866 109 20C109 16.134 112.134 13 116 13C119.866 13 123 16.134 123 20C123 23.866 119.866 27 116 27V25.5C119.038 25.5 121.5 23.0376 121.5 20Z" fill="#526069"/>
<path fill-rule="evenodd" clip-rule="evenodd" d="M116.235 16.0484C116.158 15.9154 115.966 15.915 115.889 16.0477L112.176 22.4118C112.098 22.5455 112.195 22.7133 112.35 22.7126L119.718 22.6798C119.871 22.6791 119.967 22.5128 119.89 22.3798L116.235 16.0484Z" fill="#526069"/>
<path d="M158 20C158 25.5228 153.523 30 148 30C142.477 30 138 25.5228 138 20C138 14.4772 142.477 10 148 10C153.523 10 158 14.4772 158 20Z" fill="white"/>
<path d="M156.5 20C156.5 15.3056 152.694 11.5 148 11.5C143.306 11.5 139.5 15.3056 139.5 20C139.5 24.6944 143.306 28.5 148 28.5V30C142.477 30 138 25.5228 138 20C138 14.4772 142.477 10 148 10C153.523 10 158 14.4772 158 20C158 25.5228 153.523 30 148 30V28.5C152.694 28.5 156.5 24.6944 156.5 20Z" fill="#526069"/>
<path d="M155 20C155 23.866 151.866 27 148 27C144.134 27 141 23.866 141 20C141 16.134 144.134 13 148 13C151.866 13 155 16.134 155 20Z" fill="white"/>
<path d="M153.5 20C153.5 16.9624 151.038 14.5 148 14.5C144.962 14.5 142.5 16.9624 142.5 20C142.5 23.0376 144.962 25.5 148 25.5V27C144.134 27 141 23.866 141 20C141 16.134 144.134 13 148 13C151.866 13 155 16.134 155 20C155 23.866 151.866 27 148 27V25.5C151.038 25.5 153.5 23.0376 153.5 20Z" fill="#526069"/>
<path fill-rule="evenodd" clip-rule="evenodd" d="M148.235 16.0483C148.158 15.9153 147.966 15.9149 147.889 16.0475L144.176 22.4117C144.098 22.5454 144.195 22.7131 144.35 22.7124L151.718 22.6796C151.871 22.679 151.967 22.5126 151.89 22.3796L148.235 16.0483ZM148.087 18.4011C148.048 18.3341 147.952 18.3343 147.913 18.4014L146.165 21.464L149.677 21.464C149.754 21.464 149.802 21.3808 149.763 21.3141L148.087 18.4011Z" fill="#526069"/>
<path d="M190 20C190 25.5228 185.523 30 180 30C174.477 30 170 25.5228 170 20C170 14.4772 174.477 10 180 10C185.523 10 190 14.4772 190 20Z" fill="white"/>
<path d="M188.5 20C188.5 15.3056 184.694 11.5 180 11.5C175.306 11.5 171.5 15.3056 171.5 20C171.5 24.6944 175.306 28.5 180 28.5V30C174.477 30 170 25.5228 170 20C170 14.4772 174.477 10 180 10C185.523 10 190 14.4772 190 20C190 25.5228 185.523 30 180 30V28.5C184.694 28.5 188.5 24.6944 188.5 20Z" fill="#526069"/>
<path d="M187 20C187 23.866 183.866 27 180 27C176.134 27 173 23.866 173 20C173 16.134 176.134 13 180 13C183.866 13 187 16.134 187 20Z" fill="white"/>
<path d="M185.5 20C185.5 16.9624 183.038 14.5 180 14.5C176.962 14.5 174.5 16.9624 174.5 20C174.5 23.0376 176.962 25.5 180 25.5V27C176.134 27 173 23.866 173 20C173 16.134 176.134 13 180 13C183.866 13 187 16.134 187 20C187 23.866 183.866 27 180 27V25.5C183.038 25.5 185.5 23.0376 185.5 20Z" fill="#526069"/>
<path d="M176.296 22.3895L179.625 15.7321C179.779 15.4226 180.221 15.4226 180.375 15.7321L183.704 22.3895C183.877 22.7347 183.531 23.1104 183.173 22.967L180.156 21.7602C180.056 21.7202 179.944 21.7202 179.844 21.7602L176.827 22.967C176.469 23.1104 176.123 22.7347 176.296 22.3895Z" fill="#526069"/>
<path d="M222 20C222 25.5228 217.523 30 212 30C206.477 30 202 25.5228 202 20C202 14.4772 206.477 10 212 10C217.523 10 222 14.4772 222 20Z" fill="white"/>
<path d="M220.5 20C220.5 15.3056 216.694 11.5 212 11.5C207.306 11.5 203.5 15.3056 203.5 20C203.5 24.6944 207.306 28.5 212 28.5V30C206.477 30 202 25.5228 202 20C202 14.4772 206.477 10 212 10C217.523 10 222 14.4772 222 20C222 25.5228 217.523 30 212 30V28.5C216.694 28.5 220.5 24.6944 220.5 20Z" fill="#526069"/>
<path d="M219 20C219 23.866 215.866 27 212 27C208.134 27 205 23.866 205 20C205 16.134 208.134 13 212 13C215.866 13 219 16.134 219 20Z" fill="white"/>
<path d="M217.5 20C217.5 16.9624 215.038 14.5 212 14.5C208.962 14.5 206.5 16.9624 206.5 20C206.5 23.0376 208.962 25.5 212 25.5V27C208.134 27 205 23.866 205 20C205 16.134 208.134 13 212 13C215.866 13 219 16.134 219 20C219 23.866 215.866 27 212 27V25.5C215.038 25.5 217.5 23.0376 217.5 20Z" fill="#526069"/>
<path fill-rule="evenodd" clip-rule="evenodd" d="M212.376 15.7321C212.222 15.4226 211.78 15.4226 211.625 15.7321L208.296 22.391C208.123 22.7364 208.469 23.1121 208.827 22.9687L211.845 21.7616C211.945 21.7216 212.057 21.7216 212.157 21.7616L215.174 22.9687C215.533 23.1121 215.879 22.7364 215.706 22.391L212.376 15.7321ZM213.5 21L212.469 20.5634C212.168 20.4433 211.833 20.4433 211.533 20.5634L210.5 21L212 17.5L213.5 21Z" fill="#526069"/>
<path d="M254 20C254 25.5228 249.523 30 244 30C238.477 30 234 25.5228 234 20C234 14.4772 238.477 10 244 10C249.523 10 254 14.4772 254 20Z" fill="white"/>
<path d="M252.5 20C252.5 15.3056 248.694 11.5 244 11.5C239.306 11.5 235.5 15.3056 235.5 20C235.5 24.6944 239.306 28.5 244 28.5V30C238.477 30 234 25.5228 234 20C234 14.4772 238.477 10 244 10C249.523 10 254 14.4772 254 20C254 25.5228 249.523 30 244 30V28.5C248.694 28.5 252.5 24.6944 252.5 20Z" fill="#526069"/>
<path d="M251 20C251 23.866 247.866 27 244 27C240.134 27 237 23.866 237 20C237 16.134 240.134 13 244 13C247.866 13 251 16.134 251 20Z" fill="white"/>
<path d="M249.5 20C249.5 16.9624 247.038 14.5 244 14.5C240.962 14.5 238.5 16.9624 238.5 20C238.5 23.0376 240.962 25.5 244 25.5V27C240.134 27 237 23.866 237 20C237 16.134 240.134 13 244 13C247.866 13 251 16.134 251 20C251 23.866 247.866 27 244 27V25.5C247.038 25.5 249.5 23.0376 249.5 20Z" fill="#526069"/>
<path d="M240.1 18.2222L243.563 18.2222V16L248.5 20L243.563 24V21.7778L240.1 21.7778V18.2222Z" fill="#526069"/>
<path d="M286 20C286 25.5228 281.523 30 276 30C270.477 30 266 25.5228 266 20C266 14.4772 270.477 10 276 10C281.523 10 286 14.4772 286 20Z" fill="white"/>
<path d="M284.5 20C284.5 15.3056 280.694 11.5 276 11.5C271.306 11.5 267.5 15.3056 267.5 20C267.5 24.6944 271.306 28.5 276 28.5V30C270.477 30 266 25.5228 266 20C266 14.4772 270.477 10 276 10C281.523 10 286 14.4772 286 20C286 25.5228 281.523 30 276 30V28.5C280.694 28.5 284.5 24.6944 284.5 20Z" fill="#526069"/>
<path d="M283 20C283 23.866 279.866 27 276 27C272.134 27 269 23.866 269 20C269 16.134 272.134 13 276 13C279.866 13 283 16.134 283 20Z" fill="white"/>
<path d="M281.5 20C281.5 16.9624 279.038 14.5 276 14.5C272.962 14.5 270.5 16.9624 270.5 20C270.5 23.0376 272.962 25.5 276 25.5V27C272.134 27 269 23.866 269 20C269 16.134 272.134 13 276 13C279.866 13 283 16.134 283 20C283 23.866 279.866 27 276 27V25.5C279.038 25.5 281.5 23.0376 281.5 20Z" fill="#526069"/>
<path fill-rule="evenodd" clip-rule="evenodd" d="M275.563 21.7778V24L280.5 20L275.563 16V18.2222L272.1 18.2222V21.7778L275.563 21.7778ZM273.15 20.4625L276.586 20.4625V21.7778L278.663 19.9375L276.586 18.2222V19.4125L273.15 19.4125V20.4625Z" fill="#526069"/>
<path d="M318 20C318 25.5228 313.523 30 308 30C302.477 30 298 25.5228 298 20C298 14.4772 302.477 10 308 10C313.523 10 318 14.4772 318 20Z" fill="white"/>
<path d="M316.5 20C316.5 15.3056 312.694 11.5 308 11.5C303.306 11.5 299.5 15.3056 299.5 20C299.5 24.6944 303.306 28.5 308 28.5V30C302.477 30 298 25.5228 298 20C298 14.4772 302.477 10 308 10C313.523 10 318 14.4772 318 20C318 25.5228 313.523 30 308 30V28.5C312.694 28.5 316.5 24.6944 316.5 20Z" fill="#526069"/>
<path d="M315 20C315 23.866 311.866 27 308 27C304.134 27 301 23.866 301 20C301 16.134 304.134 13 308 13C311.866 13 315 16.134 315 20Z" fill="white"/>
<path d="M313.5 20C313.5 16.9624 311.038 14.5 308 14.5C304.962 14.5 302.5 16.9624 302.5 20C302.5 23.0376 304.962 25.5 308 25.5V27C304.134 27 301 23.866 301 20C301 16.134 304.134 13 308 13C311.866 13 315 16.134 315 20C315 23.866 311.866 27 308 27V25.5C311.038 25.5 313.5 23.0376 313.5 20Z" fill="#526069"/>
<path d="M307.25 17L303 20L307.25 23V17Z" fill="#526069"/>
<path d="M311.583 17L307.333 20L311.583 23V17Z" fill="#526069"/>
<path d="M350 20C350 25.5228 345.523 30 340 30C334.477 30 330 25.5228 330 20C330 14.4772 334.477 10 340 10C345.523 10 350 14.4772 350 20Z" fill="white"/>
<path d="M348.5 20C348.5 15.3056 344.694 11.5 340 11.5C335.306 11.5 331.5 15.3056 331.5 20C331.5 24.6944 335.306 28.5 340 28.5V30C334.477 30 330 25.5228 330 20C330 14.4772 334.477 10 340 10C345.523 10 350 14.4772 350 20C350 25.5228 345.523 30 340 30V28.5C344.694 28.5 348.5 24.6944 348.5 20Z" fill="#526069"/>
<path d="M347 20C347 23.866 343.866 27 340 27C336.134 27 333 23.866 333 20C333 16.134 336.134 13 340 13C343.866 13 347 16.134 347 20Z" fill="white"/>
<path d="M345.5 20C345.5 16.9624 343.038 14.5 340 14.5C336.962 14.5 334.5 16.9624 334.5 20C334.5 23.0376 336.962 25.5 340 25.5V27C336.134 27 333 23.866 333 20C333 16.134 336.134 13 340 13C343.866 13 347 16.134 347 20C347 23.866 343.866 27 340 27V25.5C343.038 25.5 345.5 23.0376 345.5 20Z" fill="#526069"/>
<path fill-rule="evenodd" clip-rule="evenodd" d="M339.251 23L335.001 20L339.251 17V23ZM336.667 20L338.167 21V19L336.667 20Z" fill="#526069"/>
<path fill-rule="evenodd" clip-rule="evenodd" d="M343.584 23L339.333 20L343.584 17V23ZM341 20L342.5 21V19L341 20Z" fill="#526069"/>
<path d="M382 20C382 25.5228 377.523 30 372 30C366.477 30 362 25.5228 362 20C362 14.4772 366.477 10 372 10C377.523 10 382 14.4772 382 20Z" fill="white"/>
<path d="M380.5 20C380.5 15.3056 376.694 11.5 372 11.5C367.306 11.5 363.5 15.3056 363.5 20C363.5 24.6944 367.306 28.5 372 28.5V30C366.477 30 362 25.5228 362 20C362 14.4772 366.477 10 372 10C377.523 10 382 14.4772 382 20C382 25.5228 377.523 30 372 30V28.5C376.694 28.5 380.5 24.6944 380.5 20Z" fill="#526069"/>
<path d="M379 20C379 23.866 375.866 27 372 27C368.134 27 365 23.866 365 20C365 16.134 368.134 13 372 13C375.866 13 379 16.134 379 20Z" fill="white"/>
<path d="M377.5 20C377.5 16.9624 375.038 14.5 372 14.5C368.962 14.5 366.5 16.9624 366.5 20C366.5 23.0376 368.962 25.5 372 25.5V27C368.134 27 365 23.866 365 20C365 16.134 368.134 13 372 13C375.866 13 379 16.134 379 20C379 23.866 375.866 27 372 27V25.5C375.038 25.5 377.5 23.0376 377.5 20Z" fill="#526069"/>
<path d="M368 18.5H369V17.5L368 17.5V18.5Z" fill="#526069"/>
<path d="M370 17.5V18.5H376V17.5H370Z" fill="#526069"/>
<path d="M368 20.5H369V19.5H368V20.5Z" fill="#526069"/>
<path d="M370 19.5V20.5H376V19.5H370Z" fill="#526069"/>
<path d="M368 22.5H369V21.5H368V22.5Z" fill="#526069"/>
<path d="M370 21.5V22.5H376V21.5H370Z" fill="#526069"/>
<path d="M414 20C414 25.5228 409.523 30 404 30C398.477 30 394 25.5228 394 20C394 14.4772 398.477 10 404 10C409.523 10 414 14.4772 414 20Z" fill="white"/>
<path d="M412.5 20C412.5 15.3056 408.694 11.5 404 11.5C399.306 11.5 395.5 15.3056 395.5 20C395.5 24.6944 399.306 28.5 404 28.5V30C398.477 30 394 25.5228 394 20C394 14.4772 398.477 10 404 10C409.523 10 414 14.4772 414 20C414 25.5228 409.523 30 404 30V28.5C408.694 28.5 412.5 24.6944 412.5 20Z" fill="#526069"/>
<path d="M411 20C411 23.866 407.866 27 404 27C400.134 27 397 23.866 397 20C397 16.134 400.134 13 404 13C407.866 13 411 16.134 411 20Z" fill="white"/>
<path d="M409.5 20C409.5 16.9624 407.038 14.5 404 14.5C400.962 14.5 398.5 16.9624 398.5 20C398.5 23.0376 400.962 25.5 404 25.5V27C400.134 27 397 23.866 397 20C397 16.134 400.134 13 404 13C407.866 13 411 16.134 411 20C411 23.866 407.866 27 404 27V25.5C407.038 25.5 409.5 23.0376 409.5 20Z" fill="#526069"/>
<path d="M404 16C406.209 16 408 17.7909 408 20C408 22.2091 406.209 24 404 24L403.794 23.9951C401.681 23.8879 400 22.14 400 20C400 17.7909 401.791 16 404 16ZM404 17.5C402.619 17.5 401.5 18.6193 401.5 20C401.5 21.3807 402.619 22.5 404 22.5C405.381 22.5 406.5 21.3807 406.5 20C406.5 18.6193 405.381 17.5 404 17.5ZM404.5 18.2949L404.5 20.0166L405.5 20.5586L405 21.5L403.5 20.5898L403.5 18.2949H404.5Z" fill="#526069"/>
<path d="M446 20C446 25.5228 441.523 30 436 30C430.477 30 426 25.5228 426 20C426 14.4772 430.477 10 436 10C441.523 10 446 14.4772 446 20Z" fill="white"/>
<path d="M444.5 20C444.5 15.3056 440.694 11.5 436 11.5C431.306 11.5 427.5 15.3056 427.5 20C427.5 24.6944 431.306 28.5 436 28.5V30C430.477 30 426 25.5228 426 20C426 14.4772 430.477 10 436 10C441.523 10 446 14.4772 446 20C446 25.5228 441.523 30 436 30V28.5C440.694 28.5 444.5 24.6944 444.5 20Z" fill="#526069"/>
<path d="M443 20C443 23.866 439.866 27 436 27C432.134 27 429 23.866 429 20C429 16.134 432.134 13 436 13C439.866 13 443 16.134 443 20Z" fill="white"/>
<path d="M441.5 20C441.5 16.9624 439.038 14.5 436 14.5C432.962 14.5 430.5 16.9624 430.5 20C430.5 23.0376 432.962 25.5 436 25.5V27C432.134 27 429 23.866 429 20C429 16.134 432.134 13 436 13C439.866 13 443 16.134 443 20C443 23.866 439.866 27 436 27V25.5C439.038 25.5 441.5 23.0376 441.5 20Z" fill="#526069"/>
<path fill-rule="evenodd" clip-rule="evenodd" d="M437.883 19.1574C437.723 19.3486 437.42 19.3599 437.245 19.1812L434.737 16.6273C434.511 16.3973 434.105 16.4939 434.022 16.7975L432.258 23.2266C432.202 23.4286 432.473 23.5641 432.619 23.4076L434.605 21.2831C434.767 21.1106 435.049 21.1034 435.22 21.2674L437.423 23.3813C437.647 23.5955 438.031 23.5068 438.125 23.2196L440.115 17.1079C440.184 16.8981 439.893 16.7544 439.749 16.9268L437.883 19.1574ZM433.733 21.0173L434.643 17.6988L436.628 19.7205C437.089 20.1901 437.844 20.2222 438.347 19.8371L437.528 22.3506L435.82 20.711C435.307 20.2188 434.459 20.2405 433.975 20.7582L433.733 21.0173Z" fill="#526069"/>
<path d="M433.897 16.7627C434.009 16.3559 434.54 16.2398 434.831 16.5361L437.337 19.0899C437.459 19.2141 437.673 19.2059 437.784 19.0742L439.65 16.8438L439.696 16.7969C439.81 16.7022 439.959 16.7031 440.07 16.7578C440.181 16.813 440.272 16.9338 440.253 17.083L440.239 17.1484L438.249 23.2598C438.123 23.644 437.621 23.7508 437.333 23.4746L435.13 21.3613C435.011 21.2472 434.812 21.2529 434.701 21.3721L432.714 23.4961C432.596 23.6228 432.426 23.6286 432.304 23.5674C432.181 23.5056 432.085 23.3643 432.132 23.1924L433.897 16.7627ZM434.737 16.6273C434.511 16.3973 434.105 16.4939 434.022 16.7975L432.258 23.2266C432.202 23.4286 432.473 23.5641 432.619 23.4076L434.605 21.2831C434.767 21.1106 435.049 21.1034 435.22 21.2674L437.423 23.3813C437.647 23.5955 438.031 23.5068 438.125 23.2196L440.115 17.1079C440.184 16.8981 439.893 16.7544 439.749 16.9268L437.883 19.1574C437.723 19.3486 437.42 19.3599 437.245 19.1812L434.737 16.6273ZM436.628 19.7205C437.089 20.1901 437.844 20.2222 438.347 19.8371L437.528 22.3506L435.82 20.711C435.307 20.2188 434.459 20.2405 433.975 20.7582L433.733 21.0173L434.643 17.6988L436.628 19.7205ZM433.992 20.5625C434.536 20.0979 435.382 20.1113 435.91 20.6172L437.468 22.1123L438.119 20.1162C437.597 20.336 436.957 20.2406 436.536 19.8115L434.708 17.9512L433.992 20.5625Z" fill="#526069"/>
</svg>
