<svg width="264" height="40" viewBox="0 0 264 40" fill="none" xmlns="http://www.w3.org/2000/svg">
<rect x="0.5" y="0.5" width="263" height="39" rx="4.5" stroke="#9747FF" stroke-dasharray="10 5"/>
<path d="M28.5 20C28.5 15.3056 24.6944 11.5 20 11.5C15.3056 11.5 11.5 15.3056 11.5 20C11.5 24.6944 15.3056 28.5 20 28.5V30C14.4772 30 10 25.5228 10 20C10 14.4772 14.4772 10 20 10C25.5228 10 30 14.4772 30 20C30 25.5228 25.5228 30 20 30V28.5C24.6944 28.5 28.5 24.6944 28.5 20Z" fill="#526069"/>
<path d="M60.5 20C60.5 15.3056 56.6944 11.5 52 11.5C47.3056 11.5 43.5 15.3056 43.5 20C43.5 24.6944 47.3056 28.5 52 28.5V30C46.4772 30 42 25.5228 42 20C42 14.4772 46.4772 10 52 10C57.5228 10 62 14.4772 62 20C62 25.5228 57.5228 30 52 30V28.5C56.6944 28.5 60.5 24.6944 60.5 20Z" fill="#526069"/>
<path d="M54.98 17C55.376 17 55.7 17.3375 55.7 17.75V22.25C55.7 22.6625 55.376 23 54.98 23H49.22C48.824 23 48.5 22.6625 48.5 22.25V17.75C48.5 17.3375 48.824 17 49.22 17H54.98ZM52.1 20.88L49.54 19.13V21.94H54.66V19.13L52.1 20.88ZM52.1 19.81L54.66 18H49.54L52.1 19.81Z" fill="#526069"/>
<path d="M92.5 20C92.5 15.3056 88.6944 11.5 84 11.5C79.3056 11.5 75.5 15.3056 75.5 20C75.5 24.6944 79.3056 28.5 84 28.5V30C78.4772 30 74 25.5228 74 20C74 14.4772 78.4772 10 84 10C89.5228 10 94 14.4772 94 20C94 25.5228 89.5228 30 84 30V28.5C88.6944 28.5 92.5 24.6944 92.5 20Z" fill="#526069"/>
<path fill-rule="evenodd" clip-rule="evenodd" d="M84.2346 16.0483C84.1578 15.9153 83.966 15.9149 83.8886 16.0475L80.1764 22.4117C80.0984 22.5454 80.1952 22.7131 80.35 22.7124L87.7176 22.6796C87.8711 22.679 87.9666 22.5126 87.8899 22.3796L84.2346 16.0483ZM84.087 18.4011C84.0485 18.3341 83.9518 18.3343 83.9135 18.4014L82.1651 21.464L85.6766 21.464C85.7535 21.464 85.8016 21.3808 85.7633 21.3141L84.087 18.4011Z" fill="#526069"/>
<path d="M124.5 20C124.5 15.3056 120.694 11.5 116 11.5C111.306 11.5 107.5 15.3056 107.5 20C107.5 24.6944 111.306 28.5 116 28.5V30C110.477 30 106 25.5228 106 20C106 14.4772 110.477 10 116 10C121.523 10 126 14.4772 126 20C126 25.5228 121.523 30 116 30V28.5C120.694 28.5 124.5 24.6944 124.5 20Z" fill="#526069"/>
<path fill-rule="evenodd" clip-rule="evenodd" d="M116.376 15.7321C116.222 15.4226 115.78 15.4226 115.625 15.7321L112.296 22.391C112.123 22.7364 112.469 23.1121 112.827 22.9687L115.845 21.7616C115.945 21.7216 116.057 21.7216 116.157 21.7616L119.174 22.9687C119.533 23.1121 119.879 22.7364 119.706 22.391L116.376 15.7321ZM117.5 21L116.469 20.5634C116.168 20.4433 115.833 20.4433 115.533 20.5634L114.5 21L116 17.5L117.5 21Z" fill="#526069"/>
<path d="M156.5 20C156.5 15.3056 152.694 11.5 148 11.5C143.306 11.5 139.5 15.3056 139.5 20C139.5 24.6944 143.306 28.5 148 28.5V30C142.477 30 138 25.5228 138 20C138 14.4772 142.477 10 148 10C153.523 10 158 14.4772 158 20C158 25.5228 153.523 30 148 30V28.5C152.694 28.5 156.5 24.6944 156.5 20Z" fill="#526069"/>
<path fill-rule="evenodd" clip-rule="evenodd" d="M147.563 21.7778V24L152.5 20L147.563 16V18.2222L144.1 18.2222V21.7778L147.563 21.7778ZM145.15 20.4625L148.586 20.4625V21.7778L150.663 19.9375L148.586 18.2222V19.4125L145.15 19.4125V20.4625Z" fill="#526069"/>
<path d="M188.5 20C188.5 15.3056 184.694 11.5 180 11.5C175.306 11.5 171.5 15.3056 171.5 20C171.5 24.6944 175.306 28.5 180 28.5V30C174.477 30 170 25.5228 170 20C170 14.4772 174.477 10 180 10C185.523 10 190 14.4772 190 20C190 25.5228 185.523 30 180 30V28.5C184.694 28.5 188.5 24.6944 188.5 20Z" fill="#526069"/>
<path fill-rule="evenodd" clip-rule="evenodd" d="M179.251 23L175.001 20L179.251 17V23ZM176.667 20L178.167 21V19L176.667 20Z" fill="#526069"/>
<path fill-rule="evenodd" clip-rule="evenodd" d="M183.584 23L179.333 20L183.584 17V23ZM181 20L182.5 21V19L181 20Z" fill="#526069"/>
<path d="M220.5 20C220.5 15.3056 216.694 11.5 212 11.5C207.306 11.5 203.5 15.3056 203.5 20C203.5 24.6944 207.306 28.5 212 28.5V30C206.477 30 202 25.5228 202 20C202 14.4772 206.477 10 212 10C217.523 10 222 14.4772 222 20C222 25.5228 217.523 30 212 30V28.5C216.694 28.5 220.5 24.6944 220.5 20Z" fill="#526069"/>
<path d="M208 18.5H209V17.5L208 17.5V18.5Z" fill="#526069"/>
<path d="M210 17.5V18.5H216V17.5H210Z" fill="#526069"/>
<path d="M208 20.5H209V19.5H208V20.5Z" fill="#526069"/>
<path d="M210 19.5V20.5H216V19.5H210Z" fill="#526069"/>
<path d="M208 22.5H209V21.5H208V22.5Z" fill="#526069"/>
<path d="M210 21.5V22.5H216V21.5H210Z" fill="#526069"/>
<path d="M252.5 20C252.5 15.3056 248.694 11.5 244 11.5C239.306 11.5 235.5 15.3056 235.5 20C235.5 24.6944 239.306 28.5 244 28.5V30C238.477 30 234 25.5228 234 20C234 14.4772 238.477 10 244 10C249.523 10 254 14.4772 254 20C254 25.5228 249.523 30 244 30V28.5C248.694 28.5 252.5 24.6944 252.5 20Z" fill="#526069"/>
<path d="M244 16C246.209 16 248 17.7909 248 20C248 22.2091 246.209 24 244 24L243.794 23.9951C241.681 23.8879 240 22.14 240 20C240 17.7909 241.791 16 244 16ZM244 17.5C242.619 17.5 241.5 18.6193 241.5 20C241.5 21.3807 242.619 22.5 244 22.5C245.381 22.5 246.5 21.3807 246.5 20C246.5 18.6193 245.381 17.5 244 17.5ZM244.5 18.2949L244.5 20.0166L245.5 20.5586L245 21.5L243.5 20.5898L243.5 18.2949H244.5Z" fill="#526069"/>
</svg>
