<svg width="508" height="40" viewBox="0 0 508 40" fill="none" xmlns="http://www.w3.org/2000/svg">
<rect x="0.5" y="0.5" width="507" height="39" rx="4.5" stroke="#9747FF" stroke-dasharray="10 5"/>
<path fill-rule="evenodd" clip-rule="evenodd" d="M28.5 14C28.5 13.7239 28.2761 13.5 28 13.5H12C11.7239 13.5 11.5 13.7239 11.5 14V26C11.5 26.2761 11.7239 26.5 12 26.5H28C28.2761 26.5 28.5 26.2761 28.5 26V14ZM12 12C10.8954 12 10 12.8954 10 14V26C10 27.1046 10.8954 28 12 28H28C29.1046 28 30 27.1046 30 26V14C30 12.8954 29.1046 12 28 12H12Z" fill="#526069"/>
<path fill-rule="evenodd" clip-rule="evenodd" d="M63.5 15C63.5 14.7239 63.2761 14.5 63 14.5H49C48.7239 14.5 48.5 14.7239 48.5 15V25C48.5 25.2761 48.7239 25.5 49 25.5H63C63.2761 25.5 63.5 25.2761 63.5 25V15ZM48 12C46.8954 12 46 12.8954 46 14V26C46 27.1046 46.8954 28 48 28H64C65.1046 28 66 27.1046 66 26V14C66 12.8954 65.1046 12 64 12H48Z" fill="#526069"/>
<path fill-rule="evenodd" clip-rule="evenodd" d="M100.5 14C100.5 13.7239 100.276 13.5 100 13.5H84C83.7239 13.5 83.5 13.7239 83.5 14V26C83.5 26.2761 83.7239 26.5 84 26.5H100C100.276 26.5 100.5 26.2761 100.5 26V14ZM84 12C82.8954 12 82 12.8954 82 14V26C82 27.1046 82.8954 28 84 28H100C101.105 28 102 27.1046 102 26V14C102 12.8954 101.105 12 100 12H84Z" fill="#526069"/>
<path fill-rule="evenodd" clip-rule="evenodd" d="M96.5 18C96.5 17.7239 96.2761 17.5 96 17.5H88C87.7239 17.5 87.5 17.7239 87.5 18V27H96.5V18ZM88 16C86.8954 16 86 16.8954 86 18V26.5C86 27.6046 86.3954 27 87.5 27H96.5C97.6046 27 98 27.8372 98 26.7327V18C98 16.8954 97.1046 16 96 16H88Z" fill="#526069"/>
<path d="M91.25 19.5C91.25 19.2239 91.4739 19 91.75 19H92.25C92.5261 19 92.75 19.2239 92.75 19.5V24.5C92.75 24.7761 92.5261 25 92.25 25L91.75 25C91.4739 25 91.25 24.7761 91.25 24.5V19.5Z" fill="#526069"/>
<path d="M94.5 21.25C94.7761 21.25 95 21.4739 95 21.75V22.25C95 22.5261 94.7761 22.75 94.5 22.75H89.5C89.2239 22.75 89 22.5261 89 22.25V21.75C89 21.4739 89.2239 21.25 89.5 21.25H94.5Z" fill="#526069"/>
<path fill-rule="evenodd" clip-rule="evenodd" d="M136.5 14C136.5 13.7239 136.276 13.5 136 13.5H120C119.724 13.5 119.5 13.7239 119.5 14V26C119.5 26.2761 119.724 26.5 120 26.5H136C136.276 26.5 136.5 26.2761 136.5 26V14ZM120 12C118.895 12 118 12.8954 118 14V26C118 27.1046 118.895 28 120 28H136C137.105 28 138 27.1046 138 26V14C138 12.8954 137.105 12 136 12H120Z" fill="#526069"/>
<path fill-rule="evenodd" clip-rule="evenodd" d="M132.5 18C132.5 17.7239 132.276 17.5 132 17.5H124C123.724 17.5 123.5 17.7239 123.5 18V27H132.5V18ZM124 16C122.895 16 122 16.8954 122 18V26.5C122 27.6046 122.395 27 123.5 27H132.5C133.605 27 134 27.8372 134 26.7327V18C134 16.8954 133.105 16 132 16H124Z" fill="#526069"/>
<path d="M130.5 21.25C130.776 21.25 131 21.4739 131 21.75V22.25C131 22.5261 130.776 22.75 130.5 22.75H125.5C125.224 22.75 125 22.5261 125 22.25V21.75C125 21.4739 125.224 21.25 125.5 21.25H130.5Z" fill="#526069"/>
<path fill-rule="evenodd" clip-rule="evenodd" d="M172.5 14C172.5 13.7239 172.276 13.5 172 13.5H156C155.724 13.5 155.5 13.7239 155.5 14V26C155.5 26.2761 155.724 26.5 156 26.5H172C172.276 26.5 172.5 26.2761 172.5 26V14ZM156 12C154.895 12 154 12.8954 154 14V26C154 27.1046 154.895 28 156 28H172C173.105 28 174 27.1046 174 26V14C174 12.8954 173.105 12 172 12H156Z" fill="#526069"/>
<path d="M163.25 17.5C163.25 17.2239 163.474 17 163.75 17H164.25C164.526 17 164.75 17.2239 164.75 17.5V22.5C164.75 22.7761 164.526 23 164.25 23L163.75 23C163.474 23 163.25 22.7761 163.25 22.5V17.5Z" fill="#526069"/>
<path d="M166.5 19.25C166.776 19.25 167 19.4739 167 19.75V20.25C167 20.5261 166.776 20.75 166.5 20.75H161.5C161.224 20.75 161 20.5261 161 20.25V19.75C161 19.4739 161.224 19.25 161.5 19.25H166.5Z" fill="#526069"/>
<path d="M158.5 23.25C158.5 23.3881 158.612 23.5 158.75 23.5H169.25C169.388 23.5 169.5 23.3881 169.5 23.25V16.75C169.5 16.6119 169.388 16.5 169.25 16.5H158.75C158.612 16.5 158.5 16.6119 158.5 16.75V23.25ZM171 24.5C171 24.7761 170.776 25 170.5 25H157.5L157.399 24.9902C157.171 24.9437 157 24.7417 157 24.5V15.5C157 15.2239 157.224 15 157.5 15H170.5C170.776 15 171 15.2239 171 15.5V24.5Z" fill="#526069"/>
<path fill-rule="evenodd" clip-rule="evenodd" d="M208.5 14C208.5 13.7239 208.276 13.5 208 13.5H192C191.724 13.5 191.5 13.7239 191.5 14V26C191.5 26.2761 191.724 26.5 192 26.5H208C208.276 26.5 208.5 26.2761 208.5 26V14ZM192 12C190.895 12 190 12.8954 190 14V26C190 27.1046 190.895 28 192 28H208C209.105 28 210 27.1046 210 26V14C210 12.8954 209.105 12 208 12H192Z" fill="#526069"/>
<path d="M202.5 19.25C202.776 19.25 203 19.4739 203 19.75V20.25C203 20.5261 202.776 20.75 202.5 20.75H197.5C197.224 20.75 197 20.5261 197 20.25V19.75C197 19.4739 197.224 19.25 197.5 19.25H202.5Z" fill="#526069"/>
<path d="M194.5 23.25C194.5 23.3881 194.612 23.5 194.75 23.5H205.25C205.388 23.5 205.5 23.3881 205.5 23.25V16.75C205.5 16.6119 205.388 16.5 205.25 16.5H194.75C194.612 16.5 194.5 16.6119 194.5 16.75V23.25ZM207 24.5C207 24.7761 206.776 25 206.5 25H193.5L193.399 24.9902C193.171 24.9437 193 24.7417 193 24.5V15.5C193 15.2239 193.224 15 193.5 15H206.5C206.776 15 207 15.2239 207 15.5V24.5Z" fill="#526069"/>
<path d="M239.5 21.4C239.5 20.6268 240.06 20 240.75 20C241.44 20 242 20.6268 242 21.4V22.6C242 23.3732 241.44 24 240.75 24C240.06 24 239.5 23.3732 239.5 22.6V21.4Z" fill="#526069"/>
<path d="M235.5 21.4C235.5 20.6268 236.06 20 236.75 20C237.44 20 238 20.6268 238 21.4V22.6C238 23.3732 237.44 24 236.75 24C236.06 24 235.5 23.3732 235.5 22.6V21.4Z" fill="#526069"/>
<path d="M244 12C245.105 12 246 12.8954 246 14V26C246 27.1046 245.105 28 244 28H228C226.895 28 226 27.1046 226 26V14C226 12.8954 226.895 12 228 12H228.5V13.5H228C227.724 13.5 227.5 13.7239 227.5 14V26C227.5 26.2761 227.724 26.5 228 26.5H244C244.276 26.5 244.5 26.2761 244.5 26V14C244.5 13.7239 244.276 13.5 244 13.5H236.5V12H244Z" fill="#526069"/>
<path d="M231.904 9.45485C232.121 8.84838 232.948 8.84838 233.164 9.45485L233.83 11.3211L235.63 12.0117C236.214 12.2361 236.214 13.0939 235.63 13.3183L233.83 14.0089L233.164 15.8751C232.948 16.4816 232.121 16.4816 231.904 15.8751L231.238 14.0089L229.439 13.3183C228.854 13.0939 228.854 12.2361 229.439 12.0117L231.238 11.3211L231.904 9.45485Z" fill="#FA4616"/>
<path fill-rule="evenodd" clip-rule="evenodd" d="M267 15.9996C267 13.2382 269.239 10.9996 272 10.9996C274.762 10.9996 277 13.2382 277 15.9996C277 18.761 274.77 20.9996 272.009 20.9996C269.247 20.9996 267 18.761 267 15.9996ZM272 12.4998C270.466 12.4998 268.5 13.4998 268.5 15.9996C268.5 18.4993 270.475 19.4998 272.009 19.4998C273.543 19.4998 275.5 18.4993 275.5 15.9996C275.5 13.4998 273.534 12.4998 272 12.4998ZM272.009 22C276.017 22 280.996 24.0904 281 28.9996L279.5 28.9998C279.497 25.3179 275.682 23.4972 272 23.5C268.318 23.5028 264.497 25.318 264.5 28.9998L263 28.9996C262.996 24.0903 268 22 272.009 22Z" fill="#526069"/>
<path d="M305.692 29.5L305.311 26.4538C305.043 26.3641 304.769 26.2385 304.487 26.077C304.206 25.9153 303.954 25.7422 303.732 25.5577L300.911 26.75L298.604 22.75L301.044 20.9058C301.021 20.7571 301.004 20.6077 300.995 20.4578C300.985 20.3078 300.98 20.1583 300.98 20.0095C300.98 19.8673 300.985 19.7228 300.995 19.576C301.004 19.4292 301.021 19.2686 301.044 19.0943L298.604 17.25L300.911 13.2693L303.723 14.452C303.964 14.261 304.221 14.0863 304.495 13.928C304.768 13.7697 305.037 13.6424 305.302 13.5462L305.692 10.5H310.307L310.688 13.5557C310.988 13.6647 311.259 13.792 311.502 13.9375C311.745 14.083 311.991 14.2545 312.238 14.452L315.088 13.2693L317.396 17.25L314.917 19.123C314.953 19.2845 314.972 19.4355 314.976 19.576C314.979 19.7163 314.98 19.8577 314.98 20C314.98 20.1358 314.977 20.274 314.971 20.4145C314.964 20.5548 314.941 20.7154 314.902 20.8963L317.361 22.75L315.053 26.75L312.238 25.548C311.991 25.7455 311.738 25.9202 311.48 26.072C311.223 26.224 310.959 26.3481 310.688 26.4443L310.307 29.5H305.692ZM307 28H308.965L309.325 25.3212C309.835 25.1879 310.301 24.9985 310.724 24.753C311.146 24.5073 311.553 24.1916 311.946 23.8057L314.43 24.85L315.415 23.15L313.246 21.5155C313.329 21.2565 313.386 21.0026 313.416 20.7537C313.446 20.5051 313.461 20.2538 313.461 20C313.461 19.7397 313.446 19.4884 313.416 19.2463C313.386 19.0039 313.329 18.7564 313.246 18.5038L315.434 16.85L314.45 15.15L311.936 16.2095C311.601 15.8518 311.2 15.5358 310.733 15.2615C310.266 14.9872 309.793 14.7929 309.315 14.6788L309 12H307.015L306.684 14.6693C306.174 14.7898 305.703 14.9743 305.271 15.223C304.839 15.4718 304.426 15.7923 304.034 16.1845L301.55 15.15L300.565 16.85L302.725 18.4595C302.641 18.6968 302.583 18.9437 302.55 19.2C302.516 19.4563 302.5 19.7262 302.5 20.0095C302.5 20.2698 302.516 20.525 302.55 20.775C302.583 21.025 302.638 21.2718 302.715 21.5155L300.565 23.15L301.55 24.85L304.025 23.8C304.404 24.1897 304.81 24.5089 305.242 24.7578C305.674 25.0064 306.152 25.1974 306.675 25.3307L307 28Z" fill="#526069"/>
<path d="M312 20C312 22.2091 310.209 24 308 24C305.79 24 304 22.2091 304 20C304 17.7909 305.79 16 308 16C310.209 16 312 17.7909 312 20ZM305.52 20C305.52 21.3696 306.63 22.4799 308 22.4799C309.369 22.4799 310.479 21.3696 310.479 20C310.479 18.6304 309.369 17.5201 308 17.5201C306.63 17.5201 305.52 18.6304 305.52 20Z" fill="#526069"/>
<path d="M352 12C353.1 12 354 12.9 354 14V26C354 27.1 353.1 28 352 28H336C334.9 28 334 27.1 334 26V14C334 12.9 334.9 12 336 12H352ZM344 21L335.5 15V26.5H352.5V15L344 21ZM344 19.5L352.5 13.5H335.5L344 19.5Z" fill="#526069"/>
<path fill-rule="evenodd" clip-rule="evenodd" d="M388 12C389.1 12 390 12.9 390 14V26C390 27.1 389.1 28 388 28H372C370.9 28 370 27.1 370 26V14C370 12.9 370.9 12 372 12H388ZM380 19L388.5 13.5V15L380 20.5L371.5 15V13.5L380 19Z" fill="#526069"/>
<path d="M419.166 26.625C420.259 26.625 421.146 25.7383 421.146 24.6458C421.146 24.5112 421.146 24.3767 421.106 24.25L421.541 24.25C422.634 24.25 423.521 23.3633 423.521 22.2708C423.521 22.0887 423.497 21.9067 423.449 21.7404C424.186 21.4475 424.708 20.735 424.708 19.8958C424.708 18.9221 424.003 18.1146 423.077 17.9483C423.125 17.8137 423.125 17.6712 423.125 17.5208C423.125 16.4283 422.238 15.5417 421.146 15.5417L416.483 15.5417C416.728 15.2725 416.91 14.94 417.005 14.5758L417.187 13.9583C417.353 13.3092 417.1 12.6204 416.514 12.2325C416.063 11.9317 415.477 11.9158 414.971 12.1137L411.463 13.3487C408.946 14.3542 407.291 17.5762 407.291 20.2917C407.291 23.7908 410.126 26.625 413.625 26.625L419.166 26.625ZM413.625 25.0417C411.004 25.0417 408.875 22.9121 408.875 20.2917C408.875 18.2254 410.133 15.5812 412.041 14.8212L415.643 13.5625L415.533 13.9583C415.438 14.3542 415.168 14.6312 414.812 14.75L412.833 15.5417L412.833 17.125L421.146 17.125C421.367 17.125 421.541 17.2992 421.541 17.5208C421.541 17.7425 421.367 17.9167 421.146 17.9167L415.208 17.9167L415.208 19.5L422.729 19.5C422.951 19.5 423.125 19.6742 423.125 19.8958C423.125 20.1175 422.951 20.2917 422.729 20.2917L415.208 20.2917L415.208 21.875L421.541 21.875C421.763 21.875 421.937 22.0492 421.937 22.2708C421.937 22.4925 421.763 22.6667 421.541 22.6667L415.208 22.6667L415.208 24.25L419.166 24.25C419.388 24.25 419.562 24.4242 419.562 24.6458C419.562 24.8675 419.388 25.0417 419.166 25.0417L413.625 25.0417Z" fill="#526069"/>
<path d="M460 11C461.1 11 462 11.9 462 13V27C462 28.1 461.1 29 460 29H444C442.9 29 442 28.1 442 27V13C442 11.9 442.9 11 444 11H460ZM443.5 27.5H447.5V18H443.5V27.5ZM449 27.5H455V18H449V27.5ZM456.5 18V27.5H460.5V18H456.5ZM443.5 16.5H460.5V12.5H443.5V16.5Z" fill="#526069"/>
<path d="M483 11C481.895 11 481 11.8954 481 13V23H482.5V12.5H493.5V25.0006C493.5 26.1052 493.065 27.5 491.5 27.5C490 27.5 489 26.6046 489 25.5H478C478 27.7091 479.79 29 481.999 29H491.5C493.709 29 495 27.2098 495 25.0006V14.5H498V13C498 11.8954 497.105 11 496 11H483Z" fill="#526069"/>
<path d="M485 15H491V17H485V15Z" fill="#526069"/>
<path d="M491 19H485V21H491V19Z" fill="#526069"/>
</svg>
