<svg width="488" height="40" viewBox="0 0 488 40" fill="none" xmlns="http://www.w3.org/2000/svg">
<rect x="0.5" y="0.5" width="487" height="39" rx="4.5" stroke="#9747FF" stroke-dasharray="10 5"/>
<path d="M27.5 20C27.5 15.8579 24.1421 12.5 20 12.5C15.8579 12.5 12.5 15.8579 12.5 20C12.5 24.1421 15.8579 27.5 20 27.5V30C14.4772 30 10 25.5228 10 20C10 14.4772 14.4772 10 20 10C25.5228 10 30 14.4772 30 20C30 25.5228 25.5228 30 20 30V27.5C24.1421 27.5 27.5 24.1421 27.5 20Z" fill="#526069"/>
<path d="M59.5 20C59.5 15.8579 56.1421 12.5 52 12.5C47.8579 12.5 44.5 15.8579 44.5 20C44.5 24.1421 47.8579 27.5 52 27.5V30C46.4772 30 42 25.5228 42 20C42 14.4772 46.4772 10 52 10C57.5228 10 62 14.4772 62 20C62 25.5228 57.5228 30 52 30V27.5C56.1421 27.5 59.5 24.1421 59.5 20Z" fill="#526069"/>
<path fill-rule="evenodd" clip-rule="evenodd" d="M54.98 17C55.376 17 55.7 17.3375 55.7 17.75V22.25C55.7 22.6625 55.376 23 54.98 23H49.22C48.824 23 48.5 22.6625 48.5 22.25V17.75C48.5 17.3375 48.824 17 49.22 17H54.98ZM52.1 19.5493L54.98 17.5493V18.4507L52.1 20.4507L49.22 18.4507V17.5493L52.1 19.5493Z" fill="#526069"/>
<path d="M91.5 20C91.5 15.8579 88.1421 12.5 84 12.5C79.8579 12.5 76.5 15.8579 76.5 20C76.5 24.1421 79.8579 27.5 84 27.5V30C78.4772 30 74 25.5228 74 20C74 14.4772 78.4772 10 84 10C89.5228 10 94 14.4772 94 20C94 25.5228 89.5228 30 84 30V27.5C88.1421 27.5 91.5 24.1421 91.5 20Z" fill="#526069"/>
<path d="M86.98 17C87.376 17 87.7 17.3375 87.7 17.75V22.25C87.7 22.6625 87.376 23 86.98 23H81.22C80.824 23 80.5 22.6625 80.5 22.25V17.75C80.5 17.3375 80.824 17 81.22 17H86.98ZM84.1 20.88L81.54 19.13V21.94H86.66V19.13L84.1 20.88ZM84.1 19.81L86.66 18H81.54L84.1 19.81Z" fill="#526069"/>
<path d="M123.5 20C123.5 15.8579 120.142 12.5 116 12.5C111.858 12.5 108.5 15.8579 108.5 20C108.5 24.1421 111.858 27.5 116 27.5V30C110.477 30 106 25.5228 106 20C106 14.4772 110.477 10 116 10C121.523 10 126 14.4772 126 20C126 25.5228 121.523 30 116 30V27.5C120.142 27.5 123.5 24.1421 123.5 20Z" fill="#526069"/>
<path fill-rule="evenodd" clip-rule="evenodd" d="M116.235 16.0484C116.158 15.9154 115.966 15.915 115.889 16.0477L112.176 22.4118C112.098 22.5455 112.195 22.7133 112.35 22.7126L119.718 22.6798C119.871 22.6791 119.967 22.5128 119.89 22.3798L116.235 16.0484Z" fill="#526069"/>
<path d="M155.5 20C155.5 15.8579 152.142 12.5 148 12.5C143.858 12.5 140.5 15.8579 140.5 20C140.5 24.1421 143.858 27.5 148 27.5V30C142.477 30 138 25.5228 138 20C138 14.4772 142.477 10 148 10C153.523 10 158 14.4772 158 20C158 25.5228 153.523 30 148 30V27.5C152.142 27.5 155.5 24.1421 155.5 20Z" fill="#526069"/>
<path fill-rule="evenodd" clip-rule="evenodd" d="M148.235 16.0483C148.158 15.9153 147.966 15.9149 147.889 16.0475L144.176 22.4117C144.098 22.5454 144.195 22.7131 144.35 22.7124L151.718 22.6796C151.871 22.679 151.967 22.5126 151.89 22.3796L148.235 16.0483ZM148.087 18.4011C148.048 18.3341 147.952 18.3343 147.913 18.4014L146.165 21.464L149.677 21.464C149.754 21.464 149.802 21.3808 149.763 21.3141L148.087 18.4011Z" fill="#526069"/>
<path d="M187.5 20C187.5 15.8579 184.142 12.5 180 12.5C175.858 12.5 172.5 15.8579 172.5 20C172.5 24.1421 175.858 27.5 180 27.5V30C174.477 30 170 25.5228 170 20C170 14.4772 174.477 10 180 10C185.523 10 190 14.4772 190 20C190 25.5228 185.523 30 180 30V27.5C184.142 27.5 187.5 24.1421 187.5 20Z" fill="#526069"/>
<path d="M176.296 22.3895L179.625 15.7321C179.779 15.4226 180.221 15.4226 180.375 15.7321L183.704 22.3895C183.877 22.7347 183.531 23.1104 183.173 22.967L180.156 21.7602C180.056 21.7202 179.944 21.7202 179.844 21.7602L176.827 22.967C176.469 23.1104 176.123 22.7347 176.296 22.3895Z" fill="#526069"/>
<path d="M219.5 20C219.5 15.8579 216.142 12.5 212 12.5C207.858 12.5 204.5 15.8579 204.5 20C204.5 24.1421 207.858 27.5 212 27.5V30C206.477 30 202 25.5228 202 20C202 14.4772 206.477 10 212 10C217.523 10 222 14.4772 222 20C222 25.5228 217.523 30 212 30V27.5C216.142 27.5 219.5 24.1421 219.5 20Z" fill="#526069"/>
<path fill-rule="evenodd" clip-rule="evenodd" d="M212.376 15.7321C212.222 15.4226 211.78 15.4226 211.625 15.7321L208.296 22.391C208.123 22.7364 208.469 23.1121 208.827 22.9687L211.845 21.7616C211.945 21.7216 212.057 21.7216 212.157 21.7616L215.174 22.9687C215.533 23.1121 215.879 22.7364 215.706 22.391L212.376 15.7321ZM213.5 21L212.469 20.5634C212.168 20.4433 211.833 20.4433 211.533 20.5634L210.5 21L212 17.5L213.5 21Z" fill="#526069"/>
<path d="M251.5 20C251.5 15.8579 248.142 12.5 244 12.5C239.858 12.5 236.5 15.8579 236.5 20C236.5 24.1421 239.858 27.5 244 27.5V30C238.477 30 234 25.5228 234 20C234 14.4772 238.477 10 244 10C249.523 10 254 14.4772 254 20C254 25.5228 249.523 30 244 30V27.5C248.142 27.5 251.5 24.1421 251.5 20Z" fill="#526069"/>
<path d="M240.1 18.2222L243.563 18.2222V16L248.5 20L243.563 24V21.7778L240.1 21.7778V18.2222Z" fill="#526069"/>
<path d="M283.5 20C283.5 15.8579 280.142 12.5 276 12.5C271.858 12.5 268.5 15.8579 268.5 20C268.5 24.1421 271.858 27.5 276 27.5V30C270.477 30 266 25.5228 266 20C266 14.4772 270.477 10 276 10C281.523 10 286 14.4772 286 20C286 25.5228 281.523 30 276 30V27.5C280.142 27.5 283.5 24.1421 283.5 20Z" fill="#526069"/>
<path fill-rule="evenodd" clip-rule="evenodd" d="M275.563 21.7778V24L280.5 20L275.563 16V18.2222L272.1 18.2222V21.7778L275.563 21.7778ZM273.15 20.4625L276.586 20.4625V21.7778L278.663 19.9375L276.586 18.2222V19.4125L273.15 19.4125V20.4625Z" fill="#526069"/>
<path d="M315.5 20C315.5 15.8579 312.142 12.5 308 12.5C303.858 12.5 300.5 15.8579 300.5 20C300.5 24.1421 303.858 27.5 308 27.5V30C302.477 30 298 25.5228 298 20C298 14.4772 302.477 10 308 10C313.523 10 318 14.4772 318 20C318 25.5228 313.523 30 308 30V27.5C312.142 27.5 315.5 24.1421 315.5 20Z" fill="#526069"/>
<path d="M307.25 17L303 20L307.25 23V17Z" fill="#526069"/>
<path d="M311.583 17L307.333 20L311.583 23V17Z" fill="#526069"/>
<path d="M347.5 20C347.5 15.8579 344.142 12.5 340 12.5C335.858 12.5 332.5 15.8579 332.5 20C332.5 24.1421 335.858 27.5 340 27.5V30C334.477 30 330 25.5228 330 20C330 14.4772 334.477 10 340 10C345.523 10 350 14.4772 350 20C350 25.5228 345.523 30 340 30V27.5C344.142 27.5 347.5 24.1421 347.5 20Z" fill="#526069"/>
<path fill-rule="evenodd" clip-rule="evenodd" d="M339.251 23L335.001 20L339.251 17V23ZM336.667 20L338.167 21V19L336.667 20Z" fill="#526069"/>
<path fill-rule="evenodd" clip-rule="evenodd" d="M343.584 23L339.333 20L343.584 17V23ZM341 20L342.5 21V19L341 20Z" fill="#526069"/>
<path d="M379.5 20C379.5 15.8579 376.142 12.5 372 12.5C367.858 12.5 364.5 15.8579 364.5 20C364.5 24.1421 367.858 27.5 372 27.5V30C366.477 30 362 25.5228 362 20C362 14.4772 366.477 10 372 10C377.523 10 382 14.4772 382 20C382 25.5228 377.523 30 372 30V27.5C376.142 27.5 379.5 24.1421 379.5 20Z" fill="#526069"/>
<path d="M368 18.5H369V17.5L368 17.5V18.5Z" fill="#526069"/>
<path d="M370 17.5V18.5H376V17.5H370Z" fill="#526069"/>
<path d="M368 20.5H369V19.5H368V20.5Z" fill="#526069"/>
<path d="M370 19.5V20.5H376V19.5H370Z" fill="#526069"/>
<path d="M368 22.5H369V21.5H368V22.5Z" fill="#526069"/>
<path d="M370 21.5V22.5H376V21.5H370Z" fill="#526069"/>
<path d="M411.5 20C411.5 15.8579 408.142 12.5 404 12.5C399.858 12.5 396.5 15.8579 396.5 20C396.5 24.1421 399.858 27.5 404 27.5V30C398.477 30 394 25.5228 394 20C394 14.4772 398.477 10 404 10C409.523 10 414 14.4772 414 20C414 25.5228 409.523 30 404 30V27.5C408.142 27.5 411.5 24.1421 411.5 20Z" fill="#526069"/>
<path d="M404 16C406.209 16 408 17.7909 408 20C408 22.2091 406.209 24 404 24L403.794 23.9951C401.681 23.8879 400 22.14 400 20C400 17.7909 401.791 16 404 16ZM404 17.5C402.619 17.5 401.5 18.6193 401.5 20C401.5 21.3807 402.619 22.5 404 22.5C405.381 22.5 406.5 21.3807 406.5 20C406.5 18.6193 405.381 17.5 404 17.5ZM404.5 18.2949L404.5 20.0166L405.5 20.5586L405 21.5L403.5 20.5898L403.5 18.2949H404.5Z" fill="#526069"/>
<path d="M443.5 20C443.5 15.8579 440.142 12.5 436 12.5C431.858 12.5 428.5 15.8579 428.5 20C428.5 24.1421 431.858 27.5 436 27.5V30C430.477 30 426 25.5228 426 20C426 14.4772 430.477 10 436 10C441.523 10 446 14.4772 446 20C446 25.5228 441.523 30 436 30V27.5C440.142 27.5 443.5 24.1421 443.5 20Z" fill="#526069"/>
<path d="M436 16C438.209 16 440 17.7909 440 20C440 22.2091 438.209 24 436 24L435.794 23.9951C433.681 23.8879 432 22.14 432 20C432 17.7909 433.791 16 436 16Z" fill="#526069"/>
<path d="M475.5 20C475.5 15.8579 472.142 12.5 468 12.5C463.858 12.5 460.5 15.8579 460.5 20C460.5 24.1421 463.858 27.5 468 27.5V30C462.477 30 458 25.5228 458 20C458 14.4772 462.477 10 468 10C473.523 10 478 14.4772 478 20C478 25.5228 473.523 30 468 30V27.5C472.142 27.5 475.5 24.1421 475.5 20Z" fill="#526069"/>
<path fill-rule="evenodd" clip-rule="evenodd" d="M469.882 19.1574C469.722 19.3486 469.419 19.3599 469.244 19.1812L466.736 16.6273C466.51 16.3973 466.104 16.4939 466.021 16.7975L464.257 23.2266C464.201 23.4286 464.472 23.5641 464.618 23.4076L466.604 21.2831C466.766 21.1106 467.048 21.1034 467.219 21.2674L469.422 23.3813C469.646 23.5955 470.03 23.5068 470.124 23.2196L472.114 17.1079C472.183 16.8981 471.893 16.7544 471.748 16.9268L469.882 19.1574ZM465.732 21.0173L466.642 17.6988L468.627 19.7205C469.088 20.1901 469.843 20.2222 470.346 19.8371L469.527 22.3506L467.819 20.711C467.306 20.2188 466.458 20.2405 465.974 20.7582L465.732 21.0173Z" fill="#526069"/>
<path d="M465.896 16.7627C466.008 16.3559 466.539 16.2398 466.83 16.5361L469.336 19.0899C469.458 19.2141 469.672 19.2059 469.783 19.0742L471.649 16.8438L471.695 16.7969C471.809 16.7022 471.958 16.7031 472.069 16.7578C472.18 16.813 472.271 16.9338 472.252 17.083L472.238 17.1484L470.248 23.2598C470.122 23.644 469.62 23.7508 469.332 23.4746L467.129 21.3613C467.01 21.2472 466.811 21.2529 466.7 21.3721L464.713 23.4961C464.595 23.6228 464.425 23.6286 464.303 23.5674C464.18 23.5056 464.084 23.3643 464.131 23.1924L465.896 16.7627ZM466.736 16.6273C466.51 16.3973 466.104 16.4939 466.021 16.7975L464.257 23.2266C464.201 23.4286 464.472 23.5641 464.618 23.4076L466.604 21.2831C466.766 21.1106 467.048 21.1034 467.219 21.2674L469.422 23.3813C469.646 23.5955 470.03 23.5068 470.124 23.2196L472.114 17.1079C472.183 16.8981 471.893 16.7544 471.748 16.9268L469.882 19.1574C469.722 19.3486 469.419 19.3599 469.244 19.1812L466.736 16.6273ZM468.627 19.7205C469.088 20.1901 469.843 20.2222 470.346 19.8371L469.527 22.3506L467.819 20.711C467.306 20.2188 466.458 20.2405 465.974 20.7582L465.732 21.0173L466.642 17.6988L468.627 19.7205ZM465.991 20.5625C466.535 20.0979 467.381 20.1113 467.909 20.6172L469.467 22.1123L470.118 20.1162C469.596 20.336 468.956 20.2406 468.535 19.8115L466.707 17.9512L465.991 20.5625Z" fill="#526069"/>
</svg>
