<svg width="76" height="40" viewBox="0 0 76 40" fill="none" xmlns="http://www.w3.org/2000/svg">
<rect x="0.5" y="0.5" width="75" height="39" rx="4.5" stroke="#9747FF" stroke-dasharray="10 5"/>
<path d="M22 11L28 17V27C28 28.0999 27.0999 28.9999 26 29H14C12.9 29 12.0098 28.1 12.0098 27V13C12.0098 11.9 12.9 11 14 11H22ZM13.5 12.5V27.5H26.5V18H21V12.5H13.5Z" fill="#526069"/>
<path d="M56 11C51.58 11 47 12.79 47 15V25C47 27.21 51.59 29 56 29C60.41 29 65 27.21 65 25V15C65 12.79 60.42 11 56 11ZM63.5 25C63.5 25.5 59.87 27.3 56 27.3C52.13 27.3 48.5 25.5 48.5 25V22C50.11 22.78 53.72 23.4 56 23.4C58.28 23.4 61.89 22.78 63.5 22V25ZM63.5 20.5C62.2 21.45 58.42 22 56 22C53.58 22 49.8 21.45 48.5 20.5V17C49.97 17.83 53.61 18.5 56 18.5C58.39 18.5 62.03 17.83 63.5 17V20.5ZM56 17C52.13 17 48.5 15.5 48.5 15C48.5 14.5 52.13 12.5 56 12.5C59.87 12.5 63.5 14.5 63.5 15C63.5 15.5 59.87 17 56 17Z" fill="#526069"/>
</svg>
