<svg width="184" height="40" viewBox="0 0 184 40" fill="none" xmlns="http://www.w3.org/2000/svg">
<rect x="0.5" y="0.5" width="183" height="39" rx="4.5" stroke="#9747FF" stroke-dasharray="10 5"/>
<path fill-rule="evenodd" clip-rule="evenodd" d="M30.6066 19.2929C30.9971 19.6834 30.997 20.3166 30.6066 20.7071L20.7071 30.6066C20.3166 30.9971 19.6834 30.9971 19.2929 30.6066L9.39342 20.7071C9.00301 20.3166 9.00294 19.6834 9.39342 19.2929L19.2929 9.3934C19.6834 9.00302 20.3166 9.00303 20.7071 9.3934L30.6066 19.2929ZM20.3536 11.1612C20.1583 10.9659 19.8417 10.966 19.6465 11.1612L11.1612 19.6464C10.9659 19.8417 10.9659 20.1583 11.1612 20.3536L19.6465 28.8388C19.8417 29.0341 20.1583 29.0341 20.3536 28.8388L28.8389 20.3536C29.034 20.1583 29.0341 19.8417 28.8389 19.6464L20.3536 11.1612Z" fill="currentColor"/>
<path d="M16 17.0607L17.0607 16L24.1318 23.0711L23.0711 24.1317L16 17.0607Z" fill="currentColor"/>
<path d="M23.0711 16L24.1318 17.0607L17.0607 24.1317L16 23.0711L23.0711 16Z" fill="currentColor"/>
<path fill-rule="evenodd" clip-rule="evenodd" d="M66.6066 19.2929C66.9971 19.6834 66.997 20.3166 66.6066 20.7071L56.7071 30.6066C56.3166 30.9971 55.6834 30.9971 55.2929 30.6066L45.3934 20.7071C45.003 20.3166 45.0029 19.6834 45.3934 19.2929L55.2929 9.3934C55.6834 9.00302 56.3166 9.00303 56.7071 9.3934L66.6066 19.2929ZM56.3536 11.1612C56.1583 10.9659 55.8417 10.966 55.6465 11.1612L47.1612 19.6464C46.9659 19.8417 46.9659 20.1583 47.1612 20.3536L55.6465 28.8388C55.8417 29.0341 56.1583 29.0341 56.3536 28.8388L64.8389 20.3536C65.034 20.1583 65.0341 19.8417 64.8389 19.6464L56.3536 11.1612Z" fill="currentColor"/>
<path d="M55.316 15.0657H56.816L56.816 25.0657H55.316L55.316 15.0657Z" fill="currentColor"/>
<path d="M61.066 19.3159V20.8159H51.066V19.3159H61.066Z" fill="currentColor"/>
<path fill-rule="evenodd" clip-rule="evenodd" d="M102.607 19.2929C102.997 19.6834 102.997 20.3166 102.607 20.7071L92.7071 30.6066C92.3166 30.9971 91.6834 30.9971 91.2929 30.6066L81.3934 20.7071C81.003 20.3166 81.0029 19.6834 81.3934 19.2929L91.2929 9.3934C91.6834 9.00302 92.3166 9.00303 92.7071 9.3934L102.607 19.2929ZM92.3536 11.1612C92.1583 10.9659 91.8417 10.966 91.6465 11.1612L83.1612 19.6464C82.9659 19.8417 82.9659 20.1583 83.1612 20.3536L91.6465 28.8388C91.8417 29.0341 92.1583 29.0341 92.3536 28.8388L100.839 20.3536C101.034 20.1583 101.034 19.8417 100.839 19.6464L92.3536 11.1612Z" fill="currentColor"/>
<path d="M97 20C97 22.7614 94.7614 25 92 25C89.2386 25 87 22.7614 87 20C87 17.2386 89.2386 15 92 15C94.7614 15 97 17.2386 97 20ZM88.5 20C88.5 21.933 90.067 23.5 92 23.5C93.933 23.5 95.5 21.933 95.5 20C95.5 18.067 93.933 16.5 92 16.5C90.067 16.5 88.5 18.067 88.5 20Z" fill="currentColor"/>
<path fill-rule="evenodd" clip-rule="evenodd" d="M138.607 19.2929C138.997 19.6834 138.997 20.3166 138.607 20.7071L128.707 30.6066C128.317 30.9971 127.683 30.9971 127.293 30.6066L117.393 20.7071C117.003 20.3166 117.003 19.6834 117.393 19.2929L127.293 9.3934C127.683 9.00302 128.317 9.00303 128.707 9.3934L138.607 19.2929ZM128.354 11.1612C128.158 10.9659 127.842 10.966 127.646 11.1612L119.161 19.6464C118.966 19.8417 118.966 20.1583 119.161 20.3536L127.646 28.8388C127.842 29.0341 128.158 29.0341 128.354 28.8388L136.839 20.3536C137.034 20.1583 137.034 19.8417 136.839 19.6464L128.354 11.1612Z" fill="currentColor"/>
<path d="M124 17.0605L125.061 15.9999L132.132 23.071L131.071 24.1316L124 17.0605Z" fill="currentColor"/>
<path d="M131.071 16L132.132 17.0607L125.061 24.1317L124 23.0711L131.071 16Z" fill="currentColor"/>
<path d="M127.316 15.0657H128.816L128.816 25.0657H127.316L127.316 15.0657Z" fill="currentColor"/>
<path d="M133.066 19.3159V20.8159H123.066V19.3159H133.066Z" fill="currentColor"/>
<path fill-rule="evenodd" clip-rule="evenodd" d="M174.607 19.2929C174.997 19.6834 174.997 20.3166 174.607 20.7071L164.707 30.6066C164.317 30.9971 163.683 30.9971 163.293 30.6066L153.393 20.7071C153.003 20.3166 153.003 19.6834 153.393 19.2929L163.293 9.39338C163.683 9.003 164.317 9.00301 164.707 9.39338L174.607 19.2929ZM164.354 11.1611C164.158 10.9659 163.842 10.966 163.646 11.1611L155.161 19.6464C154.966 19.8417 154.966 20.1583 155.161 20.3535L163.646 28.8388C163.842 29.0341 164.158 29.0341 164.354 28.8388L172.839 20.3535C173.034 20.1583 173.034 19.8417 172.839 19.6464L164.354 11.1611Z" fill="currentColor"/>
<path d="M169 20C169 22.7614 166.761 25 164 25C161.239 25 159 22.7614 159 20C159 17.2386 161.239 15 164 15C166.761 15 169 17.2386 169 20ZM160.5 20C160.5 21.933 162.067 23.5 164 23.5C165.933 23.5 167.5 21.933 167.5 20C167.5 18.067 165.933 16.5 164 16.5C162.067 16.5 160.5 18.067 160.5 20Z" fill="currentColor"/>
<path d="M166.828 18.9336L166.115 22.5H161.885L161.172 18.9336L164 16.8125L166.828 18.9336ZM162.827 19.5654L163.115 21H164.885L165.172 19.5654L164 18.6865L162.827 19.5654Z" fill="currentColor"/>
</svg>
