<svg width="24" height="24" viewBox="0 0 24 24" fill="none" xmlns="http://www.w3.org/2000/svg">
<path fill-rule="evenodd" clip-rule="evenodd" d="M4 3C3.44772 3 3 3.44772 3 4V19C3 19.5523 3.44772 20 4 20H20C20.5523 20 21 19.5523 21 19V18H11V5H21V4C21 3.44772 20.5523 3 20 3H4ZM5 5V8H9V5H5ZM5 10H9V13H5V10ZM5 15H9V18H5V15Z" fill="currentColor"/>
<path fill-rule="evenodd" clip-rule="evenodd" d="M16.5 7V8.14494C16.2672 8.21422 16.0446 8.30705 15.8349 8.42069L15.0251 7.61092L13.6109 9.02513L14.4207 9.83491C14.3071 10.0446 14.2142 10.2672 14.1449 10.5L13 10.5V12.5H14.1449C14.2142 12.7328 14.3071 12.9554 14.4207 13.1651L13.6109 13.9749L15.0251 15.3891L15.8349 14.5793C16.0446 14.6929 16.2672 14.7858 16.5 14.8551V16H18.5V14.8551C18.7328 14.7858 18.9554 14.6929 19.1651 14.5793L19.9749 15.3891L21.3891 13.9749L20.5793 13.1651C20.6929 12.9554 20.7858 12.7328 20.8551 12.5H22V10.5H20.8551C20.7858 10.2672 20.6929 10.0446 20.5793 9.83491L21.3891 9.02513L19.9749 7.61092L19.1651 8.42069C18.9554 8.30705 18.7328 8.21422 18.5 8.14494V7H16.5ZM19 11.5C19 10.6716 18.3284 10 17.5 10C16.6716 10 16 10.6716 16 11.5C16 12.3284 16.6716 13 17.5 13C18.3284 13 19 12.3284 19 11.5Z" fill="currentColor"/>
</svg>
