<svg width="24" height="24" viewBox="0 0 24 24" fill="none" xmlns="http://www.w3.org/2000/svg">
<path d="M15 2C16.0544 2 16.9182 2.81588 16.9945 3.85074L17 4V5H15V4H4V15H5V17H4C2.94564 17 2.08183 16.1841 2.00549 15.1493L2 15V4C2 2.94564 2.81588 2.08183 3.85074 2.00549L4 2H15Z" fill="#526069"/>
<path d="M20 7C21.0544 7 21.9182 7.81588 21.9945 8.85074L22 9V12H20V9H9V20H12V22H9C7.94564 22 7.08183 21.1841 7.00549 20.1493L7 20V9C7 7.94564 7.81588 7.08183 8.85074 7.00549L9 7H20Z" fill="#526069"/>
<path fill-rule="evenodd" clip-rule="evenodd" d="M17.5 14V15.1449C17.2672 15.2142 17.0446 15.3071 16.8349 15.4207L16.0251 14.6109L14.6109 16.0251L15.4207 16.8349C15.3071 17.0446 15.2142 17.2672 15.1449 17.5L14 17.5V19.5H15.1449C15.2142 19.7328 15.3071 19.9554 15.4207 20.1651L14.6109 20.9749L16.0251 22.3891L16.8349 21.5793C17.0446 21.6929 17.2672 21.7858 17.5 21.8551V23H19.5V21.8551C19.7328 21.7858 19.9554 21.6929 20.1651 21.5793L20.9749 22.3891L22.3891 20.9749L21.5793 20.1651C21.6929 19.9554 21.7858 19.7328 21.8551 19.5H23V17.5H21.8551C21.7858 17.2672 21.6929 17.0446 21.5793 16.8349L22.3891 16.0251L20.9749 14.6109L20.1651 15.4207C19.9554 15.3071 19.7328 15.2142 19.5 15.1449V14H17.5ZM20 18.5C20 17.6716 19.3284 17 18.5 17C17.6716 17 17 17.6716 17 18.5C17 19.3284 17.6716 20 18.5 20C19.3284 20 20 19.3284 20 18.5Z" fill="#1976D2"/>
</svg>
