<svg width="24" height="24" viewBox="0 0 24 24" fill="none" xmlns="http://www.w3.org/2000/svg">
<path fill-rule="evenodd" clip-rule="evenodd" d="M14.1178 8.45996L15.532 9.87417L13.4109 11.995L15.532 14.1168L14.1178 15.531L11.9959 13.41L9.87515 15.531L8.46094 14.1168L10.5819 11.995L8.46094 9.87417L9.87515 8.45996L11.9959 10.581L14.1178 8.45996Z" fill="#526069"/>
<path fill-rule="evenodd" clip-rule="evenodd" d="M16 4V2H20C21.0544 2 21.9182 2.81588 21.9945 3.85074L22 4V8H20V4H16Z" fill="#526069"/>
<path fill-rule="evenodd" clip-rule="evenodd" d="M20 16H22V20C22 21.0544 21.1841 21.9182 20.1493 21.9945L20 22H16V20H20V16Z" fill="#526069"/>
<path fill-rule="evenodd" clip-rule="evenodd" d="M4 2H8V4H4V8H2V4C2 2.89543 2.89543 2 4 2Z" fill="#526069"/>
<path fill-rule="evenodd" clip-rule="evenodd" d="M2 20L2 16H4V20H8V22H4C2.89543 22 2 21.1046 2 20Z" fill="#526069"/>
<path fill-rule="evenodd" clip-rule="evenodd" d="M12 6C8.68629 6 6 8.68629 6 12C6 15.3137 8.68629 18 12 18C15.3137 18 18 15.3137 18 12C18 8.68629 15.3137 6 12 6ZM4 12C4 7.58172 7.58172 4 12 4C16.4183 4 20 7.58172 20 12C20 16.4183 16.4183 20 12 20C7.58172 20 4 16.4183 4 12Z" fill="#526069"/>
</svg>
