<svg width="24" height="24" viewBox="0 0 24 24" fill="none" xmlns="http://www.w3.org/2000/svg">
<path fill-rule="evenodd" clip-rule="evenodd" d="M14.3751 18.5741C13.4392 17.5965 13.4392 16.0112 14.3751 15.0336C15.3108 14.0558 16.828 14.0558 17.7639 15.0336C18.6997 16.0112 18.6997 17.5965 17.7639 18.5741C16.828 19.5519 15.3108 19.5519 14.3751 18.5741ZM12.6806 13.2633C10.8089 15.2187 10.8089 18.389 12.6806 20.3444C14.2597 21.9943 16.6665 22.2522 18.5044 21.118L20.3056 23L22 21.2296L20.1988 19.3477C21.2842 17.4276 21.0374 14.913 19.4583 13.2633C17.5867 11.3078 14.5521 11.3078 12.6806 13.2633Z" fill="#526069"/>
<path fill-rule="evenodd" clip-rule="evenodd" d="M5.37395 6.22894L5.11185 6.42919L4.84976 6.62944L4.58767 6.82969L2.4909 8.43169L2 8.80674V9.44212V21.4002V22.652H3.19815H13.9305C13.1662 22.3474 12.4495 21.8734 11.8334 21.2296C11.5132 20.8951 11.2368 20.5321 11.0042 20.1484H4.39631V11.5675L10.3303 15.0047C10.5563 14.2154 10.9345 13.4635 11.4649 12.7993L5.41819 9.29675L6.00218 8.85056L6.26428 8.65031V8.35589V8.04131V7.33784L5.37395 6.22894ZM15.5583 10.5676C17.257 10.4165 19.0057 11.02 20.3056 12.3781C20.6424 12.73 20.9307 13.1132 21.1704 13.5189V9.44212V8.80674L20.6796 8.43169L19.6312 7.63069L19.107 7.23019L18.5828 6.82969L18.0586 6.42919L17.7966 6.22894L16.5277 8.04131V8.51073L17.1682 8.85056L17.6924 9.25106L17.7522 9.29675L15.5583 10.5676ZM20.6386 22.652H19.9725L18.5043 21.118C16.6665 22.2522 14.2597 21.9943 12.6806 20.3444C12.6193 20.2803 12.5599 20.215 12.5026 20.1484H18.7741V12.6692C19.0151 12.8416 19.2443 13.0397 19.4584 13.2633C21.0374 14.913 21.2843 17.4276 20.1989 19.3478L21.1704 20.363V21.4002V22.0963L20.6386 22.652ZM17.7985 12.1326C16.0834 11.4408 14.0643 11.8177 12.6806 13.2633C12.0327 13.9401 11.6091 14.7627 11.4097 15.6299L11.5852 15.7316L12.1662 15.3951L16.3597 12.966L17.7985 12.1326ZM18.2781 22.652H18.2074C18.2244 22.6452 18.2414 22.6383 18.2583 22.6313L18.2781 22.652Z" fill="#526069"/>
<path d="M18.3249 1V10.8579L16.5277 10.3884V2.87769H6.19361V9.91903H4.39638V1H18.3249Z" fill="#526069"/>
<path d="M9.18899 6.78949H7.99084V9.29308H9.18899V6.78949Z" fill="#526069"/>
<path d="M11.5851 8.04132H10.387V9.29311H11.5851V8.04132Z" fill="#526069"/>
<path d="M10.3871 6.78949H9.18891V8.04128H10.3871V6.78949Z" fill="#526069"/>
<path fill-rule="evenodd" clip-rule="evenodd" d="M11.5853 4.28595H7.99084V6.78954H9.18899V5.53774H10.3871V6.78954H11.5853V4.28595Z" fill="#526069"/>
<path d="M13.9815 8.04132H12.7834V9.29311H13.9815V8.04132Z" fill="#526069"/>
<path d="M13.9815 5.53772H12.7834V6.78951H13.9815V5.53772Z" fill="#526069"/>
</svg>
