<svg width="24" height="24" viewBox="0 0 24 24" fill="none" xmlns="http://www.w3.org/2000/svg">
<path d="M10.4995 10.0128C11.3279 10.0128 11.9995 9.34119 11.9995 8.51276C11.9995 7.68433 11.3279 7.01276 10.4995 7.01276C9.67108 7.01276 8.99951 7.68433 8.99951 8.51276C8.99951 9.34119 9.67108 10.0128 10.4995 10.0128Z" fill="#526069"/>
<path d="M8.49951 15.0128C9.32794 15.0128 9.99951 14.3412 9.99951 13.5128C9.99951 12.6843 9.32794 12.0128 8.49951 12.0128C7.67108 12.0128 6.99951 12.6843 6.99951 13.5128C6.99951 14.3412 7.67108 15.0128 8.49951 15.0128Z" fill="#526069"/>
<path d="M14.9995 16.0128C15.5518 16.0128 15.9995 15.565 15.9995 15.0128C15.9995 14.4605 15.5518 14.0128 14.9995 14.0128C14.4472 14.0128 13.9995 14.4605 13.9995 15.0128C13.9995 15.565 14.4472 16.0128 14.9995 16.0128Z" fill="#526069"/>
<path d="M21.9495 11.0028C20.1595 10.9728 18.2495 9.05276 19.2695 6.78276C16.2995 7.78276 13.4895 5.19276 14.0795 2.22276C7.10951 0.752762 1.99951 6.42276 1.99951 12.0128C1.99951 17.5328 6.47951 22.0128 11.9995 22.0128C17.8895 22.0128 22.5395 16.9328 21.9495 11.0028ZM11.9995 20.0128C7.58951 20.0128 3.99951 16.4228 3.99951 12.0128C3.99951 8.70276 6.72951 3.83276 12.0795 3.99276C12.4995 6.53276 14.5195 8.55276 17.0695 8.93276C17.1395 9.29276 17.5895 11.4828 19.9895 12.5628C19.6995 16.8728 16.0595 20.0128 11.9995 20.0128Z" fill="#526069"/>
</svg>
