<svg width="24" height="24" viewBox="0 0 24 24" fill="none" xmlns="http://www.w3.org/2000/svg">
<path d="M4 22H2V20H4V22ZM13 22H6V20H13V22ZM14 2C14.5305 2 15.039 2.21088 15.4141 2.58594C15.7892 2.961 16 3.46958 16 4V6H20C20.5305 6 21.039 6.21088 21.4141 6.58594C21.7892 6.961 22 7.46958 22 8V19C22 19.5304 21.7892 20.039 21.4141 20.4141C21.039 20.7891 20.5305 21 20 21H14V19H20V8H4V12H2V8C2 7.46958 2.21082 6.961 2.58594 6.58594C2.961 6.21088 3.46954 6 4 6H8V4C8 3.46958 8.21082 2.961 8.58594 2.58594C8.961 2.21088 9.46954 2 10 2H14ZM4 19H2V17H4V19ZM13 19H6V17H13V19ZM4 16H2V14H4V16ZM13 16H6V14H13V16ZM10 6H14V4H10V6Z" fill="#526069"/>
</svg>
