<svg width="24" height="24" viewBox="0 0 24 24" fill="none" xmlns="http://www.w3.org/2000/svg">
<path d="M15 2C16.0544 2 16.9182 2.81588 16.9945 3.85074L17 4V5H15V4H4V15H5V17H4C2.94564 17 2.08183 16.1841 2.00549 15.1493L2 15V4C2 2.94564 2.81588 2.08183 3.85074 2.00549L4 2H15Z" fill="currentColor"/>
<path d="M20 7C21.0544 7 21.9182 7.81588 21.9945 8.85074L22 9V12H20V9H9V20H15V22H9C7.94564 22 7.08183 21.1841 7.00549 20.1493L7 20V9C7 7.94564 7.81588 7.08183 8.85074 7.00549L9 7H20Z" fill="currentColor"/>
<path d="M20 21V23H18V21H20ZM19 14C20.6952 14 22 15.2442 22 17C22 18.0472 21.3779 18.894 20.2903 19.5042C20.1366 19.5905 20.0331 19.7421 20.0067 19.9131L20 20H18C18 19.133 18.4369 18.3291 19.1538 17.8562L19.3117 17.76C19.8227 17.4733 20 17.232 20 17C20 16.3706 19.6114 16 19 16C18.4872 16 18.0645 16.386 18.0067 16.8834L18 17H16C16 15.3431 17.3431 14 19 14Z" fill="#1976D2"/>
</svg>
