<svg width="24" height="24" viewBox="0 0 24 24" fill="none" xmlns="http://www.w3.org/2000/svg">
<rect width="24" height="24" fill="#CFD8DD"/>
<path d="M5.2448 22.9091C4.6937 22.9091 4.22725 22.7182 3.84543 22.3363C3.46361 21.9545 3.27271 21.4881 3.27271 20.937L3.27271 3.06297C3.27271 2.51188 3.46361 2.04543 3.84543 1.66361C4.22725 1.28179 4.6937 1.09088 5.2448 1.09088H14.184C14.4469 1.09088 14.6997 1.14197 14.9424 1.24415C15.185 1.34615 15.3958 1.4867 15.5749 1.66579L20.1523 6.24324C20.3314 6.42234 20.472 6.63315 20.574 6.8757C20.6762 7.11843 20.7273 7.37124 20.7273 7.63415V20.937C20.7273 21.4881 20.5363 21.9545 20.1545 22.3363C19.7727 22.7182 19.3063 22.9091 18.7552 22.9091H5.2448ZM19.0909 7.86227C19.0909 7.71761 19.0334 7.57887 18.9311 7.47658L14.3416 2.887C14.2393 2.78471 14.1005 2.72725 13.9559 2.72725H5.2448C5.1608 2.72725 5.08389 2.76224 5.01407 2.83224C4.94407 2.90206 4.90907 2.97897 4.90907 3.06297V20.937C4.90907 21.021 4.94407 21.0979 5.01407 21.1677C5.08389 21.2377 5.1608 21.2727 5.2448 21.2727H18.7552C18.8392 21.2727 18.9161 21.2377 18.9859 21.1677C19.0559 21.0979 19.0909 21.021 19.0909 20.937V7.86227Z" fill="currentColor"/>
<path d="M7.08217 9.63111C6.90616 9.80701 6.81816 10.025 6.81816 10.2852V14.7114C6.81816 15.025 6.92421 15.2878 7.13632 15.4998C7.34822 15.712 7.61091 15.8182 7.92438 15.8182H12.3483C12.6084 15.8182 12.8263 15.7302 13.0021 15.5543C13.1781 15.3786 13.2661 15.1606 13.2661 14.9002C13.2661 14.6401 13.1781 14.4219 13.0021 14.2458C12.8263 14.0697 12.6084 13.9817 12.3483 13.9817H10.0866C10.2651 13.1481 10.6887 12.461 11.3575 11.9203C12.0262 11.3795 12.7953 11.1092 13.6647 11.1092C14.3644 11.1092 14.991 11.2764 15.5445 11.6108C15.9797 11.8737 16.5571 11.8895 16.9166 11.5298C17.2753 11.171 17.28 10.581 16.8702 10.2819C15.9481 9.60912 14.884 9.2727 13.6779 9.2727C12.5427 9.2727 11.527 9.57959 10.6309 10.1934C9.73473 10.8072 9.07567 11.6038 8.6537 12.5832V10.2852C8.6537 10.025 8.5658 9.80701 8.39 9.63111C8.2144 9.45502 7.99648 9.36697 7.73624 9.36697C7.4762 9.36697 7.25818 9.45502 7.08217 9.63111Z" fill="currentColor"/>
</svg>
