<svg width="24" height="24" viewBox="0 0 24 24" fill="none" xmlns="http://www.w3.org/2000/svg">
<path d="M3.84543 22.3363C4.22725 22.7182 4.6937 22.9091 5.2448 22.9091H18.7552C19.3063 22.9091 19.7727 22.7182 20.1545 22.3363C20.5363 21.9545 20.7273 21.4881 20.7273 20.937V20.4545C20.7273 20.0026 20.3609 19.6363 19.9091 19.6363C19.4572 19.6363 19.0909 20.0026 19.0909 20.4545V20.937C19.0909 21.021 19.0559 21.0979 18.9859 21.1677C18.9161 21.2377 18.8392 21.2727 18.7552 21.2727H5.2448C5.1608 21.2727 5.08389 21.2377 5.01407 21.1677C4.94407 21.0979 4.90907 21.021 4.90907 20.937V3.06297C4.90907 2.97897 4.94407 2.90206 5.01407 2.83224C5.08389 2.76224 5.1608 2.72725 5.2448 2.72725H13.9559C14.1005 2.72725 14.2393 2.78471 14.3416 2.887L18.9311 7.47658C19.0334 7.57887 19.0909 7.71761 19.0909 7.86227V8.45452C19.0909 8.90639 19.4572 9.2727 19.9091 9.2727C20.3609 9.2727 20.7273 8.90639 20.7273 8.45452V7.63415C20.7273 7.37124 20.6762 7.11843 20.574 6.8757C20.472 6.63315 20.3314 6.42234 20.1523 6.24324L15.5749 1.66579C15.3958 1.4867 15.185 1.34615 14.9424 1.24415C14.6997 1.14197 14.4469 1.09088 14.184 1.09088H5.2448C4.6937 1.09088 4.22725 1.28179 3.84543 1.66361C3.46361 2.04543 3.27271 2.51188 3.27271 3.06297V20.937C3.27271 21.4881 3.46361 21.9545 3.84543 22.3363Z" fill="currentColor"/>
<path d="M5.80638 18V10.9205H7.79672C8.16199 10.9205 8.48626 10.9621 8.76953 11.0455C9.0528 11.1212 9.29134 11.2387 9.48516 11.3978C9.68643 11.5568 9.83552 11.7462 9.93243 11.9659C10.0368 12.1856 10.089 12.4394 10.089 12.7273C10.089 12.9394 10.0554 13.1478 9.98834 13.3523C9.92125 13.5568 9.82061 13.7387 9.68643 13.8978C9.55971 14.0493 9.40316 14.1667 9.2168 14.25C9.3808 14.3334 9.52989 14.4356 9.66407 14.5568C9.8057 14.6705 9.92497 14.7993 10.0219 14.9432C10.1188 15.0796 10.1933 15.2349 10.2455 15.4091C10.2977 15.5758 10.3238 15.7538 10.3238 15.9432C10.3238 16.2538 10.2679 16.5379 10.1561 16.7955C10.0517 17.0531 9.89143 17.2728 9.67525 17.4546C9.46652 17.6288 9.20189 17.7652 8.88135 17.8637C8.56826 17.9546 8.20299 18 7.78554 18H5.80638ZM7.26 16.7387H7.90854C8.10236 16.7387 8.26636 16.7046 8.40054 16.6364C8.54217 16.5682 8.64653 16.4735 8.71362 16.3523C8.78817 16.2235 8.82544 16.072 8.82544 15.8978C8.82544 15.6932 8.78817 15.519 8.71362 15.375C8.64653 15.2235 8.53472 15.1061 8.37817 15.0228C8.22163 14.9394 8.00918 14.8978 7.74082 14.8978H7.26V16.7387ZM7.26 13.6705H7.71845C7.94954 13.6705 8.13217 13.6402 8.26636 13.5796C8.40054 13.5114 8.49372 13.4167 8.5459 13.2955C8.59808 13.1743 8.62417 13.0265 8.62417 12.8523C8.62417 12.7387 8.60926 12.6402 8.57944 12.5568C8.54963 12.4659 8.49744 12.394 8.4229 12.3409C8.35581 12.2803 8.27008 12.2349 8.16572 12.2046C8.06881 12.1743 7.95327 12.1591 7.81909 12.1591H7.26V13.6705Z" fill="currentColor"/>
<path d="M10.4824 18V10.9205H12.6964C13.1884 10.9205 13.5984 11.0114 13.9264 11.1932C14.2543 11.375 14.5003 11.6288 14.6643 11.9546C14.8283 12.2728 14.9103 12.6364 14.9103 13.0455C14.9103 13.3409 14.8619 13.6175 14.765 13.875C14.6755 14.125 14.5413 14.3447 14.3624 14.5341C14.1835 14.7235 13.9562 14.875 13.6804 14.9887C13.412 15.0947 13.0989 15.1478 12.7411 15.1478H11.9584V18H10.4824ZM11.9584 13.8864H12.6628C12.8045 13.8864 12.9312 13.8523 13.043 13.7841C13.1623 13.7084 13.2554 13.6061 13.3225 13.4773C13.3896 13.3485 13.4232 13.2008 13.4232 13.0341C13.4232 12.8599 13.3896 12.7121 13.3225 12.5909C13.2554 12.4697 13.166 12.3788 13.0542 12.3182C12.9424 12.25 12.8119 12.2159 12.6628 12.2159H11.9584V13.8864Z" fill="currentColor"/>
<path d="M15.0632 18V10.9205H16.3603L17.3555 13.8409L18.3395 10.9091H19.6365V18H18.4065L18.4177 13.3182L17.6686 15.6705H16.9865L16.2708 13.3296L16.282 18H15.0632Z" fill="currentColor"/>
<path d="M20.0467 10.9205H21.5562L22.8094 14.5568L22.72 10.9205L23.9947 10.9205V18H22.6305L21.3326 14.1198V18H20.0467V10.9205Z" fill="currentColor"/>
</svg>
