<svg width="24" height="24" viewBox="0 0 24 24" fill="none" xmlns="http://www.w3.org/2000/svg">
<path d="M3.84543 22.3363C4.22725 22.7182 4.6937 22.9091 5.2448 22.9091H18.7552C19.3063 22.9091 19.7727 22.7182 20.1545 22.3363C20.5363 21.9545 20.7273 21.4881 20.7273 20.937V20.4545C20.7273 20.0026 20.3609 19.6363 19.9091 19.6363C19.4572 19.6363 19.0909 20.0026 19.0909 20.4545V20.937C19.0909 21.021 19.0559 21.0979 18.9859 21.1677C18.9161 21.2377 18.8392 21.2727 18.7552 21.2727H5.2448C5.1608 21.2727 5.08389 21.2377 5.01407 21.1677C4.94407 21.0979 4.90907 21.021 4.90907 20.937V3.06297C4.90907 2.97897 4.94407 2.90206 5.01407 2.83224C5.08389 2.76224 5.1608 2.72725 5.2448 2.72725H13.9559C14.1005 2.72725 14.2393 2.78471 14.3416 2.887L18.9311 7.47658C19.0334 7.57887 19.0909 7.71761 19.0909 7.86227V8.45452C19.0909 8.90639 19.4572 9.2727 19.9091 9.2727C20.3609 9.2727 20.7273 8.90639 20.7273 8.45452V7.63415C20.7273 7.37124 20.6762 7.11843 20.574 6.8757C20.472 6.63315 20.3314 6.42234 20.1523 6.24324L15.5749 1.66579C15.3958 1.4867 15.185 1.34615 14.9424 1.24415C14.6997 1.14197 14.4469 1.09088 14.184 1.09088H5.2448C4.6937 1.09088 4.22725 1.28179 3.84543 1.66361C3.46361 2.04543 3.27271 2.51188 3.27271 3.06297V20.937C3.27271 21.4881 3.46361 21.9545 3.84543 22.3363Z" fill="currentColor"/>
<path d="M20.6889 16.6851V10.9091H19.0233V18L23.0852 18.0001V16.6851H20.6889Z" fill="currentColor"/>
<path d="M11.6505 10.9091V18H13.3161V16.3442L13.1745 13.4701L14.3972 18H15.4978L16.7152 13.4782L16.574 16.3442V18H18.2444V10.9091H16.0628L14.9475 15.8426L13.8322 10.9091H11.6505Z" fill="currentColor"/>
<path d="M7.66561 10.9091L8.46431 13.2663L9.25327 10.9091H11.1477L9.56496 14.4254L11.1867 18H9.27275L8.46431 15.5991L7.651 18H5.72729L7.35879 14.4254L5.76626 10.9091H7.66561Z" fill="currentColor"/>
</svg>
