<svg width="24" height="24" viewBox="0 0 24 24" fill="none" xmlns="http://www.w3.org/2000/svg">
<rect width="24" height="24" fill="#CFD8DD"/>
<path d="M5.2448 22.9091C4.69371 22.9091 4.22725 22.7182 3.84543 22.3363C3.46361 21.9545 3.27271 21.4881 3.27271 20.937L3.27271 3.06297C3.27271 2.51188 3.46361 2.04543 3.84543 1.66361C4.22725 1.28179 4.69371 1.09088 5.2448 1.09088H14.184C14.4469 1.09088 14.6997 1.14197 14.9424 1.24415C15.185 1.34615 15.3958 1.4867 15.5749 1.66579L20.1523 6.24324C20.3314 6.42234 20.472 6.63315 20.574 6.8757C20.6762 7.11843 20.7273 7.37124 20.7273 7.63415V20.937C20.7273 21.4881 20.5363 21.9545 20.1545 22.3363C19.7727 22.7182 19.3063 22.9091 18.7552 22.9091H5.2448ZM19.0909 7.84344C19.0909 7.71083 19.0382 7.58366 18.9444 7.48989L14.3282 2.87369C14.2345 2.77992 14.1073 2.72725 13.9747 2.72725H5.2448C5.1608 2.72725 5.08389 2.76224 5.01407 2.83224C4.94407 2.90206 4.90907 2.97897 4.90907 3.06297V20.937C4.90907 21.021 4.94407 21.0979 5.01407 21.1677C5.08389 21.2377 5.1608 21.2727 5.2448 21.2727H18.7552C18.8392 21.2727 18.9161 21.2377 18.9859 21.1677C19.0559 21.0979 19.0909 21.021 19.0909 20.937V7.84344Z" fill="currentColor"/>
<path d="M16.0243 13.1461C16.1374 13.0755 16.2222 12.9871 16.2788 12.8811C16.3354 12.7751 16.3636 12.6632 16.3636 12.5455C16.3636 12.4277 16.3354 12.3158 16.2788 12.2098C16.2222 12.1038 16.1374 12.0155 16.0243 11.9448L9.87745 8.28782C9.8146 8.25249 9.74861 8.22599 9.67947 8.20832C9.61034 8.19066 9.54434 8.18182 9.48149 8.18182C9.28037 8.18182 9.10439 8.24955 8.95355 8.38499C8.8027 8.52043 8.72728 8.68826 8.72728 8.88849V16.2024C8.72728 16.4027 8.8027 16.5705 8.95355 16.7059C9.10439 16.8414 9.28037 16.9091 9.48149 16.9091C9.54434 16.9091 9.61034 16.9003 9.67947 16.8826C9.74861 16.8649 9.8146 16.8384 9.87745 16.8031L16.0243 13.1461Z" fill="currentColor"/>
</svg>
