<svg width="24" height="24" viewBox="0 0 24 24" fill="none" xmlns="http://www.w3.org/2000/svg">
<rect width="24" height="24" fill="#CFD8DD"/>
<path d="M5.2448 22.9091C4.69371 22.9091 4.22725 22.7182 3.84543 22.3363C3.46361 21.9545 3.27271 21.4881 3.27271 20.937L3.27271 3.06297C3.27271 2.51188 3.46361 2.04543 3.84543 1.66361C4.22725 1.28179 4.69371 1.09088 5.2448 1.09088H14.184C14.4469 1.09088 14.6997 1.14197 14.9424 1.24415C15.185 1.34615 15.3958 1.4867 15.5749 1.66579L20.1523 6.24324C20.3314 6.42234 20.472 6.63315 20.574 6.8757C20.6762 7.11843 20.7273 7.37124 20.7273 7.63415V20.937C20.7273 21.4881 20.5363 21.9545 20.1545 22.3363C19.7727 22.7182 19.3063 22.9091 18.7552 22.9091H5.2448ZM19.0909 7.84344C19.0909 7.71083 19.0382 7.58366 18.9444 7.48989L14.3282 2.87369C14.2345 2.77992 14.1073 2.72725 13.9747 2.72725H5.2448C5.1608 2.72725 5.08389 2.76224 5.01407 2.83224C4.94407 2.90206 4.90907 2.97897 4.90907 3.06297V20.937C4.90907 21.021 4.94407 21.0979 5.01407 21.1677C5.08389 21.2377 5.1608 21.2727 5.2448 21.2727H18.7552C18.8392 21.2727 18.9161 21.2377 18.9859 21.1677C19.0559 21.0979 19.0909 21.021 19.0909 20.937V7.84344Z" fill="currentColor"/>
<path fill-rule="evenodd" clip-rule="evenodd" d="M9.65569 18.0749C10.3847 18.3886 11.1652 18.5455 11.9973 18.5455C12.0853 18.5455 12.1727 18.5437 12.2595 18.5402C12.5802 18.5273 12.8182 18.2526 12.8182 17.9316C12.8182 17.5783 12.5318 17.2919 12.1784 17.2919H11.9865C11.6969 16.9466 11.4486 16.5599 11.2416 16.1317C11.0346 15.7036 10.8688 15.2285 10.7443 14.7065H12.3497C12.6084 14.7065 12.8182 14.4967 12.8182 14.238C12.8182 13.9792 12.6084 13.7694 12.3497 13.7694H10.5519C10.5167 13.5067 10.4935 13.2833 10.4822 13.0994C10.471 12.9155 10.4654 12.7254 10.4654 12.529C10.4654 12.3334 10.471 12.1482 10.4822 11.9735C10.4935 11.7988 10.5167 11.58 10.5519 11.3172H13.4497C13.4813 11.58 13.5009 11.7988 13.5085 11.9735C13.5161 12.1482 13.5199 12.3334 13.5199 12.529C13.5199 12.609 13.5165 12.7318 13.5119 12.8617C13.5022 13.1355 13.72 13.3637 13.994 13.3637C14.2466 13.3637 14.4563 13.1687 14.4686 12.9164C14.4758 12.7684 14.4813 12.6226 14.4813 12.529C14.4813 12.3591 14.4762 12.1876 14.4659 12.0146C14.4556 11.8418 14.4406 11.6093 14.4208 11.3172H16.5489C16.6063 11.5333 16.6478 11.7308 16.6737 11.9097C16.6996 12.0885 16.7125 12.2949 16.7125 12.529C16.7125 12.559 16.7117 12.5922 16.7103 12.6278C16.6945 13.0187 16.9889 13.3637 17.3801 13.3637C17.7036 13.3637 17.9808 13.1242 17.9943 12.801C17.9981 12.7109 18 12.6202 18 12.529C18 11.6955 17.8429 10.9153 17.5288 10.1883C17.2147 9.46133 16.7868 8.82789 16.2451 8.288C15.7034 7.74822 15.0685 7.32285 14.3401 7.0119C13.6117 6.70095 12.8308 6.54547 11.9973 6.54547C11.1652 6.54547 10.3847 6.70095 9.65569 7.0119C8.92658 7.32285 8.29122 7.74822 7.7496 8.288C7.20789 8.82789 6.78089 9.46133 6.46859 10.1883C6.1562 10.9153 6 11.6955 6 12.529C6 13.3609 6.1562 14.1431 6.46859 14.8754C6.78089 15.6076 7.20789 16.2455 7.7496 16.7889C8.29122 17.3325 8.92658 17.7611 9.65569 18.0749ZM10.137 15.9982C10.2866 16.394 10.474 16.7612 10.6992 17.0996C9.98563 16.8578 9.40209 16.5505 8.94855 16.1779C8.49491 15.8051 8.10617 15.3146 7.78234 14.7065H9.7539C9.85967 15.1717 9.98736 15.6023 10.137 15.9982ZM9.57117 13.7694H7.43476C7.37389 13.5533 7.33144 13.3496 7.3074 13.1585C7.28337 12.9673 7.27135 12.7574 7.27135 12.529C7.27135 12.2949 7.28337 12.0885 7.3074 11.9097C7.33144 11.7308 7.37389 11.5333 7.43476 11.3172H9.58083C9.55199 11.5351 9.53194 11.7347 9.52069 11.9159C9.50954 12.097 9.50396 12.3014 9.50396 12.529C9.50396 12.7254 9.50795 12.922 9.51593 13.1187C9.52391 13.3153 9.54232 13.5322 9.57117 13.7694ZM16.2041 10.3721H14.238C14.1259 9.89756 13.9939 9.46695 13.8421 9.08024C13.6903 8.69352 13.5018 8.33233 13.2766 7.99667C13.9259 8.1707 14.5023 8.46218 15.0057 8.87111C15.5093 9.28004 15.9087 9.78035 16.2041 10.3721ZM13.267 10.3721H10.7443C10.9073 9.75747 11.0875 9.24936 11.2849 8.84774C11.4823 8.44622 11.7161 8.10484 11.9865 7.8236C12.2815 8.17166 12.5427 8.56593 12.7702 9.00639C12.9978 9.44695 13.1634 9.90218 13.267 10.3721ZM9.76357 10.3721H7.78234C8.08694 9.77035 8.48438 9.26912 8.97465 8.86837C9.46492 8.46771 10.0365 8.18036 10.6895 8.00633C10.4579 8.36122 10.2705 8.73039 10.1273 9.11384C9.98414 9.49738 9.86289 9.91679 9.76357 10.3721Z" fill="currentColor"/>
<path d="M15.8182 13.6364C15.3663 13.6364 15 14.0027 15 14.4545V15.5454H13.9091C13.4573 15.5454 13.0909 15.9118 13.0909 16.3636C13.0909 16.8155 13.4573 17.1818 13.9091 17.1818H15V18.2727C15 18.7246 15.3663 19.0909 15.8182 19.0909C16.2701 19.0909 16.6364 18.7246 16.6364 18.2727V17.1818H17.7273C18.1792 17.1818 18.5455 16.8155 18.5455 16.3636C18.5455 15.9118 18.1792 15.5454 17.7273 15.5454H16.6364V14.4545C16.6364 14.0027 16.2701 13.6364 15.8182 13.6364Z" fill="currentColor"/>
</svg>
