<svg width="24" height="24" viewBox="0 0 24 24" fill="none" xmlns="http://www.w3.org/2000/svg">
<path d="M20.8994 11.5352L19.4854 12.9502L17.999 11.4639C18.5853 11.1248 19.0773 10.6419 19.4268 10.0625L20.8994 11.5352ZM16 6C17.1046 6 18 6.89543 18 8C18 9.10457 17.1046 10 16 10C14.8955 9.99992 14 9.10452 14 8C14 6.89548 14.8955 6.00008 16 6ZM22 9H19.874C19.9563 8.68037 20 8.34531 20 8C20 7.65469 19.9563 7.31963 19.874 7H22V9ZM13.9365 4.57227C13.3573 4.92173 12.8751 5.41483 12.5361 6.00098L11 4.46484L12.4141 3.05078L13.9365 4.57227ZM20.8994 4.46484L19.4268 5.93652C19.0772 5.35732 18.5852 4.87408 17.999 4.53516L19.4854 3.0498L20.8994 4.46484ZM17 4.12598C16.6804 4.04374 16.3452 4 16 4C15.6547 4.00001 15.3196 4.0437 15 4.12598V2H17V4.12598Z" fill="currentColor"/>
<path d="M9.45507 6.6377C10.2074 5.85865 11.4182 5.79244 12.2568 6.44434L12.4307 6.5957C13.2673 7.40394 13.2983 8.73523 12.4922 9.57031L12.2471 9.82227L12.3418 9.89063L12.5107 10.0371C13.1245 10.6299 13.3047 11.5041 13.0391 12.2578L13.0225 12.2988L13.0693 12.3271L13.2568 12.457L13.4316 12.6084C14.0453 13.2011 14.2258 14.0753 13.96 14.8291L13.9434 14.8701L14.0693 14.9492L14.167 15.0195L14.3525 15.1797C15.1894 15.988 15.22 17.3197 14.4141 18.1543L11.0527 21.6357C8.85415 23.9124 5.21023 23.9545 2.91405 21.7373C0.690851 19.5904 0.442029 15.9232 1.97167 10.9561C2.12737 9.80123 3.19368 9.00036 4.34765 9.16895C5.03545 9.26953 5.60028 9.69212 5.9082 10.2617L5.9248 10.293L9.45507 6.6377ZM11.1973 7.87109C11.0615 7.74008 10.8518 7.74247 10.7295 7.86914L3.89257 14.9492L4.38378 11.3086C4.40825 11.126 4.27597 10.952 4.08984 10.9248C3.91138 10.8989 3.75254 11.0186 3.69823 11.334C2.31195 15.8719 2.51572 18.8876 4.14452 20.4609C5.73937 22.0011 8.2605 21.972 9.77538 20.4033L13.1377 16.9219C13.2597 16.7952 13.2547 16.586 13.1191 16.4551C13.0223 16.3617 12.8846 16.334 12.7666 16.3779C12.8069 16.3631 12.7741 16.4093 12.7031 16.4854L10.1855 18.9912L8.92187 17.7471L12.2168 14.3506C12.3144 14.2493 12.3304 14.0953 12.2637 13.9707L12.1982 13.8838C12.0885 13.778 11.9268 13.7577 11.8037 13.8262C11.8095 13.8229 11.8012 13.8341 11.7803 13.8574L9.11425 16.5811L7.84472 15.3428L11.2959 11.7793C11.4179 11.6526 11.413 11.4435 11.2773 11.3125C11.1628 11.2021 10.992 11.1853 10.8682 11.2637L8.1162 14.0938L6.84374 12.8584L11.2158 8.33789C11.3378 8.2112 11.3329 8.00205 11.1973 7.87109Z" fill="currentColor"/>
</svg>
