<svg width="24" height="24" viewBox="0 0 24 24" fill="none" xmlns="http://www.w3.org/2000/svg">
<path d="M12 2C8.73 2 5.82 3.58 4 6.01V4H2V10H8V8H5.09C6.47 5.61 9.05 4 12 4V2Z" fill="#526069"/>
<path d="M16 8H14V2L20 2V4H17.99C20.42 5.81999 22 8.72997 22 12H20C20 9.04997 18.39 6.46999 16 5.09V8Z" fill="#526069"/>
<path d="M6.01 20C3.58 18.18 2 15.27 2 12H4C4 14.95 5.61 17.53 8 18.91L8 16H10V22H4V20H6.01Z" fill="#526069"/>
<path d="M13 19L13 15L15 15L15 18L19 18L19 15.5L22.5 19L19 22.5L19 20L14 20C13.45 20 13 19.55 13 19Z" fill="#1976D2"/>
</svg>
