<svg width="24" height="24" viewBox="0 0 24 24" fill="none" xmlns="http://www.w3.org/2000/svg">
<path d="M12 22.3636C10.5791 22.3636 9.23817 22.0913 7.97726 21.5465C6.71635 21.0018 5.61672 20.2602 4.67835 19.3216C3.73981 18.3833 2.99817 17.2836 2.45344 16.0227C1.90872 14.7618 1.63635 13.4209 1.63635 12C1.63635 10.5678 1.90872 9.22408 2.45344 7.96881C2.99817 6.71353 3.73981 5.61672 4.67835 4.67835C5.61672 3.73981 6.71635 2.99817 7.97726 2.45344C9.23817 1.90872 10.5791 1.63635 12 1.63635C13.4322 1.63635 14.7759 1.90872 16.0312 2.45344C17.2864 2.99817 18.3833 3.73981 19.3216 4.67835C20.2602 5.61672 21.0018 6.71353 21.5465 7.96881C22.0913 9.22408 22.3636 10.5678 22.3636 12C22.3636 13.4209 22.0913 14.7618 21.5465 16.0227C21.0018 17.2836 20.2602 18.3833 19.3216 19.3216C18.3833 20.2602 17.2864 21.0018 16.0312 21.5465C14.7759 22.0913 13.4322 22.3636 12 22.3636ZM12 20.7041C12.5567 19.9657 13.0253 19.221 13.4056 18.4699C13.786 17.7188 14.0958 16.8978 14.3351 16.0069H9.6649C9.91817 16.9258 10.2315 17.7608 10.605 18.5119C10.9783 19.263 11.4433 19.9937 12 20.7041ZM9.88744 20.4041C9.46926 19.8041 9.09372 19.122 8.76081 18.3578C8.4279 17.5934 8.16917 16.8098 7.98462 16.0069H4.28399C4.86017 17.1398 5.6329 18.0916 6.60217 18.8624C7.57144 19.6329 8.66653 20.1468 9.88744 20.4041ZM14.1125 20.4041C15.3334 20.1468 16.4285 19.6329 17.3978 18.8624C18.3671 18.0916 19.1398 17.1398 19.716 16.0069H16.0154C15.7957 16.8167 15.5194 17.6038 15.1865 18.3682C14.8538 19.1325 14.4958 19.8112 14.1125 20.4041ZM3.59781 14.3705H7.65326C7.58472 13.9651 7.53499 13.5675 7.50408 13.1779C7.47335 12.7884 7.45799 12.3958 7.45799 12C7.45799 11.6042 7.47335 11.2115 7.50408 10.8221C7.53499 10.4324 7.58472 10.0349 7.65326 9.62944H3.59781C3.4929 9.99999 3.41253 10.3853 3.35672 10.7853C3.30072 11.1853 3.27272 11.5902 3.27272 12C3.27272 12.4098 3.30072 12.8147 3.35672 13.2147C3.41253 13.6147 3.4929 14 3.59781 14.3705ZM9.28935 14.3705H14.7106C14.779 13.9651 14.8286 13.5711 14.8595 13.1885C14.8903 12.806 14.9056 12.4098 14.9056 12C14.9056 11.5902 14.8903 11.194 14.8595 10.8114C14.8286 10.4289 14.779 10.0349 14.7106 9.62944H9.28935C9.22099 10.0349 9.17135 10.4289 9.14044 10.8114C9.10972 11.194 9.09435 11.5902 9.09435 12C9.09435 12.4098 9.10972 12.806 9.14044 13.1885C9.17135 13.5711 9.22099 13.9651 9.28935 14.3705ZM16.3467 14.3705H20.4022C20.5071 14 20.5874 13.6147 20.6433 13.2147C20.6993 12.8147 20.7273 12.4098 20.7273 12C20.7273 11.5902 20.6993 11.1853 20.6433 10.7853C20.5874 10.3853 20.5071 9.99999 20.4022 9.62944H16.3467C16.4153 10.0349 16.465 10.4324 16.4959 10.8221C16.5266 11.2115 16.542 11.6042 16.542 12C16.542 12.3958 16.5266 12.7884 16.4959 13.1779C16.465 13.5675 16.4153 13.9651 16.3467 14.3705ZM16.0154 7.99308H19.716C19.1329 6.84617 18.3654 5.89435 17.4136 5.13762C16.4618 4.38108 15.3614 3.86363 14.1125 3.58526C14.5307 4.22017 14.9027 4.91462 15.2285 5.66862C15.5545 6.42244 15.8168 7.19726 16.0154 7.99308ZM9.6649 7.99308H14.3351C14.0818 7.08108 13.7633 6.24081 13.3794 5.47226C12.9954 4.70372 12.5356 3.97826 12 3.2959C11.4644 3.97826 11.0045 4.70372 10.6205 5.47226C10.2367 6.24081 9.91817 7.08108 9.6649 7.99308ZM4.28399 7.99308H7.98462C8.18317 7.19726 8.44544 6.42244 8.77144 5.66862C9.09726 4.91462 9.46926 4.22017 9.88744 3.58526C8.63144 3.86363 7.52935 4.3829 6.58117 5.14308C5.63281 5.90308 4.86708 6.85308 4.28399 7.99308Z" fill="#526069"/>
</svg>
