<svg width="24" height="24" viewBox="0 0 24 24" fill="none" xmlns="http://www.w3.org/2000/svg">
<path fill-rule="evenodd" clip-rule="evenodd" d="M1.10669 8.56114L2.24638 3.77862C2.48995 2.73848 3.40625 2 4.45298 2H19.5313C20.5891 2 21.4941 2.72776 21.7487 3.77804L22.8885 8.56099C23.1705 9.72191 22.9107 10.9178 22.1883 11.851L22.1871 11.8524C22.1372 11.9153 22.0797 11.973 22.0256 12.0248C22.0054 12.0441 21.9861 12.0622 21.9676 12.0795C21.9498 12.0963 21.9324 12.1126 21.9156 12.1287V19.6617C21.9156 20.9481 20.8723 22 19.5966 22H4.39869C3.12286 22 2.0796 20.9481 2.0796 19.6617V12.1251C2.05611 12.1013 2.03126 12.0777 2.00431 12.0522L1.96968 12.0193C1.91619 11.9681 1.85695 11.909 1.80547 11.8381C1.08364 10.9044 0.836309 9.71975 1.10669 8.56114ZM18.1805 9.64172L17.5703 4.48661L19.3824 4.47713L20.4947 9.14527C20.5931 9.56185 20.5038 9.97518 20.2504 10.2994C20.1125 10.4783 19.8252 10.7563 19.3469 10.7563C18.7658 10.7563 18.2489 10.283 18.1805 9.64172ZM13.2311 9.47162V4.48748H15.0795L15.6501 9.30325L15.6502 9.30453C15.6992 9.68898 15.5818 10.0724 15.3286 10.3571L15.3259 10.3603C15.1177 10.6083 14.8133 10.7563 14.4075 10.7563C13.7716 10.7563 13.2311 10.1874 13.2311 9.47162ZM3.75191 10.2948C3.49163 9.9838 3.40189 9.56265 3.50052 9.14499L4.5706 4.48748H6.42483L5.81499 9.63974C5.73614 10.2847 5.22761 10.7563 4.64838 10.7563C4.17977 10.7563 3.88318 10.4766 3.75911 10.3034L3.75191 10.2948ZM8.33437 9.30216L8.91541 4.48748H10.7641V9.47162C10.7641 10.1818 10.2288 10.7563 9.51167 10.7563C9.18968 10.7563 8.89182 10.6141 8.65597 10.3574C8.41334 10.0725 8.29547 9.68809 8.33437 9.30216ZM4.54668 19.5125V13.2366C4.57803 13.2407 4.61203 13.2437 4.64838 13.2437C5.58331 13.2437 6.43605 12.8738 7.08085 12.2626C7.7466 12.8841 8.61223 13.2437 9.58766 13.2437C10.5236 13.2437 11.3663 12.8731 12.0093 12.2813C12.6644 12.8738 13.5285 13.2437 14.4944 13.2437C15.3993 13.2437 16.2608 12.883 16.9252 12.2626C17.5701 12.8738 18.4228 13.2437 19.3577 13.2437C19.3941 13.2437 19.428 13.2407 19.4594 13.2366V19.5125H4.54668ZM19.6077 13.0617C19.6076 13.0617 19.6078 13.0617 19.6077 13.0617V13.0617ZM19.358 13.0945C18.4136 13.0945 17.556 12.7005 16.9263 12.0547C16.9263 12.0547 16.9263 12.0548 16.9263 12.0547C16.9407 12.0693 16.9548 12.084 16.9694 12.0983C17.5947 12.7182 18.435 13.0945 19.358 13.0945ZM14.4946 13.0945C13.5177 13.0945 12.6492 12.7005 12.0087 12.0766C12.0087 12.0767 12.0088 12.0766 12.0087 12.0766C12.6492 12.7005 13.5177 13.0945 14.4946 13.0945ZM9.58795 13.0945C8.60009 13.0945 7.73165 12.7114 7.08031 12.0547C7.08026 12.0548 7.08036 12.0547 7.08031 12.0547C7.09511 12.0696 7.10987 12.0846 7.12489 12.0992C7.771 12.7287 8.6226 13.0945 9.58795 13.0945ZM4.64866 13.0945C4.59229 13.0945 4.5405 13.0853 4.48734 13.0758C4.50725 13.0794 4.52682 13.0829 4.54668 13.0859C4.57976 13.0909 4.61346 13.0945 4.64866 13.0945Z" fill="currentColor"/>
</svg>
