<svg width="24" height="24" viewBox="0 0 24 24" fill="none" xmlns="http://www.w3.org/2000/svg">
<g clip-path="url(#clip0_2_1851)">
<path d="M7.60736 23H2.99264C2.86228 23 2.73321 22.9743 2.61277 22.9244C2.49234 22.8746 2.38291 22.8014 2.29074 22.7093C2.19856 22.6171 2.12545 22.5077 2.07556 22.3872C2.02568 22.2668 2 22.1377 2 22.0074V11.67L5.48333 10.6433L8.6 11.67V22.0074C8.6 22.1377 8.57432 22.2668 8.52444 22.3872C8.47455 22.5077 8.40144 22.6171 8.30926 22.7093C8.21709 22.8014 8.10766 22.8746 7.98723 22.9244C7.86679 22.9743 7.73771 23 7.60736 23Z" fill="#185C37"/>
<path d="M14.7598 1H20.7746C21.0465 1 21.3072 1.10801 21.4995 1.30027C21.6918 1.49254 21.7998 1.7533 21.7998 2.0252V14.0548C21.7998 14.3267 21.6918 14.5875 21.4995 14.7797C21.3072 14.972 21.0465 15.08 20.7746 15.08H14.7598L13.5864 7.56334L14.7598 1Z" fill="#33C481"/>
<path d="M2 2.0252V12H8.6V19.04H14.1748C14.4467 19.04 14.7075 18.932 14.8997 18.7397C15.092 18.5475 15.2 18.2867 15.2 18.0148V1H3.0252C2.7533 1 2.49254 1.10801 2.30027 1.30027C2.10801 1.49254 2 1.7533 2 2.0252Z" fill="#107C41"/>
<path d="M8.6001 1H15.2001V8.48H8.6001V1Z" fill="#21A366"/>
</g>
<defs>
<clipPath id="clip0_2_1851">
<rect width="19.8" height="22" fill="white" transform="translate(2 1)"/>
</clipPath>
</defs>
</svg>
