<svg width="24" height="24" viewBox="0 0 24 24" fill="none" xmlns="http://www.w3.org/2000/svg">
<path d="M11.3052 21.75C12.4052 21.75 13.3052 20.85 13.3052 19.75H9.30518C9.30518 20.85 10.2052 21.75 11.3052 21.75ZM11.3052 6.25C13.7952 6.25 15.3052 8.27 15.3052 10.75V10.85L17.3052 12.85V10.75C17.3052 7.68 15.6752 5.11 12.8052 4.43V3.75C12.8052 2.92 12.1352 2.25 11.3052 2.25C10.4752 2.25 9.80518 2.92 9.80518 3.75V4.43C9.56518 4.49 9.33518 4.58 9.11518 4.66L10.7552 6.3C10.9352 6.28 11.1152 6.25 11.3052 6.25ZM4.71518 3.1L3.30518 4.51L6.11518 7.32C5.59518 8.32 5.30518 9.49 5.30518 10.75V15.75L3.30518 17.75V18.75H17.5452L19.2852 20.49L20.6952 19.08L4.71518 3.1ZM15.3052 16.75H7.30518V10.75C7.30518 10.07 7.42518 9.43 7.64518 8.85L15.3052 16.51V16.75Z" fill="#526069"/>
</svg>
