<svg width="32" height="32" viewBox="0 0 32 32" fill="none" xmlns="http://www.w3.org/2000/svg">
<g clip-path="url(#clip0_4117_1877)">
<rect x="1" y="1" width="30" height="30" rx="2" fill="white"/>
<g clip-path="url(#clip1_4117_1877)">
<path fill-rule="evenodd" clip-rule="evenodd" d="M4.82737 22.2878C4.53411 22.7091 4.11173 23.7168 4.11173 23.7168L8.34822 22.4706C8.34822 22.4706 7.99985 21.7752 7.87143 21.006C7.74296 20.2368 7.88959 19.6322 7.88959 19.6322L8.73295 19.2841C8.73295 19.2841 8.62466 19.9808 8.62466 20.6956C8.62466 21.4097 9.04437 22.0869 9.04437 22.0869C9.04437 22.0869 9.81448 20.8414 10.3101 19.962C10.8052 19.0826 11.2275 18.1118 11.2275 18.1118L11.8503 17.8552C11.8503 17.8552 11.3916 19.1558 11.0251 19.9432C10.6585 20.7313 9.85143 22.0312 9.85143 22.0312C9.85143 22.0312 11.1717 21.6462 11.9788 21.4192C12.7859 21.1921 13.8492 20.6204 13.8492 20.6204C13.8492 20.6204 12.9688 19.7409 12.6567 19.2466C12.3446 18.752 11.997 17.7806 11.997 17.7806L12.3823 17.616C12.3823 17.616 12.7489 18.5505 13.1894 19.1182C13.6293 19.6859 14.2346 20.2543 14.2346 20.2543C14.2346 20.2543 14.5648 19.2835 14.6744 18.3671C14.7848 17.4514 14.7114 16.6452 14.7114 16.6452L15.2064 16.4255C15.2064 16.4255 15.2434 17.4884 15.1701 18.4041C15.0968 19.3198 14.8399 20.3093 14.8399 20.3093L18.1409 18.4773L15.39 16.4256L15.7566 16.2791L18.3978 18.1474L18.2874 15.3997L18.9109 15.1431C18.9109 15.1431 19.3508 17.0114 18.9109 21.4192C18.4711 25.827 15.9766 29.7967 15.9766 29.7967C15.9766 29.7967 4.75273 29.7967 3.39818 24.8522C2.95157 23.2237 5.61292 21.0611 5.61292 21.0611C5.61292 21.0611 5.12127 21.8666 4.82737 22.2878ZM4.84553 25.5669C5.28537 26.1165 5.89069 26.6109 5.89069 26.6109L8.40338 23.057L4.16689 24.0648C4.16759 24.0648 4.40569 25.0174 4.84553 25.5669ZM8.95423 23.2955L6.16643 26.8313L11.2289 25.1827C11.2289 25.1827 10.403 24.7615 9.94492 24.3402C9.4856 23.9183 8.95423 23.2955 8.95423 23.2955ZM8.03686 27.9116C8.77059 28.2233 9.68733 28.5162 9.68733 28.5162L11.5214 25.7316L6.49601 27.0322C6.49601 27.0322 7.30306 27.6005 8.03686 27.9116ZM12.3648 25.6401L10.1434 28.5894C10.1434 28.5894 12.0898 28.1864 13.2271 27.8565C14.3637 27.5266 16.6747 26.7393 16.6747 26.7393C16.6747 26.7393 14.7672 26.5377 13.9971 26.2999C13.2271 26.0614 12.3648 25.6401 12.3648 25.6401ZM13.484 29.2304C14.5843 29.3587 15.8312 29.4688 15.8312 29.4688C15.8312 29.4688 16.1063 28.7547 16.2529 28.3698C16.3996 27.9848 16.7668 26.9778 16.7668 26.9778C16.7668 26.9778 14.5291 27.839 13.6495 28.0957C12.769 28.3523 10.8065 28.7735 10.8065 28.7735C10.8065 28.7735 12.3837 29.1027 13.484 29.2304ZM10.6962 23.9915C11.1912 24.3577 11.9431 24.834 11.9431 24.834C11.9431 24.834 12.8599 23.4964 13.1168 22.9106C13.3737 22.3241 13.8687 21.3352 13.8687 21.3352C13.8687 21.3352 12.4933 21.8451 11.7783 22.05C11.0634 22.2543 9.46739 22.7641 9.46739 22.7641C9.46739 22.7641 10.2012 23.6254 10.6962 23.9915ZM14.6206 21.1336C14.6206 21.1336 14.1619 22.3241 13.8687 22.8736C13.5755 23.4238 12.9701 24.6694 12.9701 24.6694C12.9701 24.6694 14.5473 24.0466 15.2441 23.7168C15.9409 23.3869 17.9398 22.5236 17.9398 22.5236C17.9398 22.5236 16.9127 22.2878 16.1057 21.9029C15.2992 21.5186 14.6206 21.1336 14.6206 21.1336ZM14.969 20.7305C14.969 20.7305 15.7579 21.2432 16.3081 21.5186C16.8582 21.7934 18.1604 22.181 18.1604 22.181C18.1604 22.181 18.3251 20.9872 18.3621 20.4746C18.3991 19.9613 18.3621 18.7527 18.3621 18.7527C18.3621 18.7527 17.3351 19.4125 16.8953 19.6503C16.4547 19.8881 14.969 20.7305 14.969 20.7305ZM18.0682 22.8011C18.0682 22.8011 16.2341 23.7356 15.4546 24.0836C14.6751 24.4316 12.8047 25.2189 12.8047 25.2189C12.8047 25.2189 13.5748 25.7322 14.4552 25.9519C15.3356 26.1716 16.986 26.3368 16.986 26.3368C16.986 26.3368 17.4326 25.1457 17.5981 24.5229C17.7635 23.9002 18.0682 22.8011 18.0682 22.8011Z" fill="url(#paint0_linear_4117_1877)"/>
<path fill-rule="evenodd" clip-rule="evenodd" d="M7.89844 4.76875C7.89844 4.76875 8.89179 3.78714 10.2881 3.1732C11.8451 2.48861 13.9031 1.80737 13.9031 1.80737C13.9031 1.80737 14.5487 3.34655 14.918 4.25548C15.2872 5.16441 16.2894 6.82385 16.2894 6.82385L15.5246 6.70492L14.6543 5.04548L12.7826 6.48115L12.0939 6.3233L14.4566 4.80841C14.4566 4.80841 12.7557 4.61078 11.9782 4.49254C11.2001 4.3743 9.8294 3.99205 9.8294 3.99205L11.9782 6.20442L10.9364 6.0989L9.59199 4.05727C9.59199 4.05727 9.17025 4.32064 8.89318 4.6364C8.61604 4.95279 8.51116 5.46612 8.51116 5.46612L7.89844 4.76869V4.76875ZM10.1442 3.74146L14.4829 4.43946C14.4829 4.43946 14.1533 3.66219 14.0215 3.25438C13.8897 2.84594 13.7841 2.12168 13.7841 2.12168C13.7841 2.12168 12.9138 2.38517 12.0173 2.75401C11.1207 3.1229 10.1442 3.74157 10.1442 3.74157V3.74146Z" fill="url(#paint1_linear_4117_1877)"/>
<path fill-rule="evenodd" clip-rule="evenodd" d="M10.3692 16.1149C11.4285 14.637 11.6948 13.0622 11.834 11.9383C12.2308 8.73706 8.35481 5.81066 8.01922 5.41425C7.68352 5.01789 7.89745 4.71289 7.89745 4.71289C7.89745 4.71289 8.14163 5.29202 9.9865 5.6017C12.2933 5.98869 19.085 7.01119 22.1505 7.94434C27.1558 9.46866 29.0484 13.1576 29.0484 13.1576C29.0484 13.1576 26.5121 13.5789 23.4129 14.3105C20.3548 15.0326 16.7491 16.0599 14.4906 16.9984C13.0776 17.5856 11.4493 18.2117 10.1438 18.8277C7.24912 20.1936 5.18164 21.4189 5.18164 21.4189C5.18164 21.4189 8.41067 18.8465 10.3692 16.1149ZM9.17875 5.87178C9.17875 5.87178 9.79419 6.45085 10.1426 6.84721C10.4909 7.24362 11.2846 8.3407 11.2846 8.3407C11.2846 8.3407 11.1164 7.45322 10.918 6.8775C10.7801 6.4771 10.6739 6.29838 10.6739 6.29838L9.17875 5.87178ZM11.2846 6.45085L11.9256 8.73775L14.184 6.93926L11.2846 6.45085ZM14.6421 7.14151L12.4051 9.10185L15.0112 9.87045C15.0112 9.87045 15.0737 8.95279 14.9641 8.3414C14.8539 7.73006 14.642 7.14157 14.642 7.14157L14.6421 7.14151ZM15.1922 7.23622C15.1922 7.23622 15.3967 7.86299 15.4511 8.3414C15.5063 8.81968 15.5063 9.87039 15.5063 9.87039L18.74 7.90266C18.74 7.90266 17.5704 7.58892 16.7701 7.43981C15.969 7.29063 15.1922 7.23628 15.1922 7.23628V7.23622ZM19.3837 8.09815L15.969 10.1445C15.969 10.1445 16.5575 10.4737 17.0208 10.7324C17.4836 10.991 18.0176 11.3357 18.0176 11.3357C18.0176 11.3357 18.5355 10.6773 18.8186 10.0182C19.1011 9.36048 19.3836 8.09815 19.3836 8.09815H19.3837ZM19.8155 8.09815C19.8155 8.09815 19.6977 8.9917 19.4778 9.66623C19.2578 10.3407 18.9599 11.1791 18.9599 11.1791C18.9599 11.1791 20.5062 10.4576 21.1888 10.2856C21.8715 10.1129 24.0142 9.53319 24.0142 9.53319C24.0142 9.53319 22.6954 8.9843 21.9186 8.73371C21.1424 8.48242 19.8155 8.09815 19.8155 8.09815ZM24.3525 9.87045C24.3525 9.87045 22.2413 10.5053 21.4087 10.7875C20.5767 11.0696 19.0459 11.8302 19.0459 11.8302C19.0459 11.8302 19.6271 12.2769 20.0427 12.7236C20.4584 13.1704 21.0865 14.033 21.0865 14.033C21.0865 14.033 22.4129 12.4805 23.0336 11.6575C23.6537 10.8345 24.3525 9.87045 24.3525 9.87045ZM24.7534 9.91682C24.7534 9.91682 24.3216 10.9441 23.7956 11.728C23.2697 12.512 21.6992 14.0726 21.6992 14.0726C21.6992 14.0726 23.9443 13.5473 25.4986 13.2806C27.0529 13.0139 28.4888 12.9514 28.4888 12.9514C28.4888 12.9514 27.6017 11.9397 26.8168 11.3048C26.0326 10.6699 24.7534 9.91682 24.7534 9.91682ZM12.1885 9.87045C12.1885 9.87045 12.3189 10.3999 12.3479 11.1798C12.3694 11.7603 12.2463 12.6189 12.2463 12.6189L14.535 10.502C14.535 10.502 13.8968 10.2635 13.3614 10.1043C12.826 9.9444 12.1885 9.87045 12.1885 9.87045ZM14.7745 11.0367L12.405 13.0663C12.405 13.0663 12.7918 13.2672 13.0197 13.4949C13.2477 13.7227 13.5323 14.033 13.5323 14.033C13.5323 14.033 14.1591 13.1563 14.3413 12.5349C14.5236 11.9128 14.7745 11.0367 14.7745 11.0367ZM15.367 10.8433C15.367 10.8433 15.2755 11.462 15.1047 11.9948C14.9339 12.5275 14.535 13.4607 14.535 13.4607L17.2469 11.8671L15.367 10.8433ZM17.1136 12.6646L13.8853 14.4402C13.8853 14.4402 14.1019 14.9406 14.2156 15.2598C14.3293 15.5789 14.4886 16.0794 14.4886 16.0794C14.4886 16.0794 15.4572 15.0663 16.0153 14.3266C16.5749 13.5863 17.1136 12.6646 17.1136 12.6646ZM18.2153 12.4368C18.2153 12.4368 17.3491 13.6319 16.8137 14.2238C16.2783 14.8157 15.1504 16.0787 15.1504 16.0787L20.5512 14.3145C20.5512 14.3145 20.0615 13.7683 19.5027 13.3128C18.9444 12.858 18.2153 12.4368 18.2153 12.4368ZM11.5959 14.7472C11.3565 15.1912 10.9234 15.8966 10.9234 15.8966L12.9061 14.4858C12.9061 14.4858 12.6781 14.1674 12.4729 14.0337C12.2678 13.9007 12.0055 13.8026 12.0055 13.8026C12.0055 13.8026 11.8347 14.3031 11.5959 14.7472ZM12.5416 15.339L10.5373 16.5571L9.20292 18.2185C9.20292 18.2185 10.4559 17.3988 11.0713 16.8413C11.6867 16.2836 12.5416 15.339 12.5416 15.339ZM13.3614 15.0314C13.3614 15.0314 12.6666 15.9302 12.1306 16.4428C11.5952 16.9554 10.0228 18.2185 10.0228 18.2185C10.0228 18.2185 12.1192 17.2853 12.5409 17.0689C12.9626 16.8526 13.9768 16.42 13.9768 16.42C13.9768 16.42 13.8403 15.8053 13.7145 15.589C13.5894 15.3733 13.3614 15.0314 13.3614 15.0314Z" fill="url(#paint2_radial_4117_1877)"/>
</g>
</g>
<defs>
<linearGradient id="paint0_linear_4117_1877" x1="3.34766" y1="22.4699" x2="19.1064" y2="22.4699" gradientUnits="userSpaceOnUse">
<stop stop-color="#706F70"/>
<stop offset="1" stop-color="#D9D9D9"/>
</linearGradient>
<linearGradient id="paint1_linear_4117_1877" x1="7.89844" y1="4.31561" x2="16.2894" y2="4.31561" gradientUnits="userSpaceOnUse">
<stop stop-color="#706F70"/>
<stop offset="1" stop-color="#D9D9D9"/>
</linearGradient>
<radialGradient id="paint2_radial_4117_1877" cx="0" cy="0" r="1" gradientUnits="userSpaceOnUse" gradientTransform="translate(12.5923 11.699) scale(9.71537 9.7154)">
<stop stop-color="#9DCAEA"/>
<stop offset="0.0744" stop-color="#8CC1E7"/>
<stop offset="0.2677" stop-color="#65ACDE"/>
<stop offset="0.3685" stop-color="#56A4DB"/>
<stop offset="1" stop-color="#3361A1"/>
</radialGradient>
<clipPath id="clip0_4117_1877">
<rect width="32" height="32" fill="white"/>
</clipPath>
<clipPath id="clip1_4117_1877">
<rect width="30" height="29.6039" fill="white" transform="translate(1 1)"/>
</clipPath>
</defs>
</svg>
