<svg width="24" height="24" viewBox="0 0 24 24" fill="none" xmlns="http://www.w3.org/2000/svg">
<path d="M21 8C21 6.62 19.88 5.5 18.5 5.5C18.33 5.5 18.16 5.5 18 5.55V5C18 3.62 16.88 2.5 15.5 2.5C15.27 2.5 15.04 2.53 14.83 2.59C14.46 1.66 13.56 1 12.5 1C11.27 1 10.25 1.89 10.04 3.06C9.86997 3 9.68997 3 9.49997 3C8.11997 3 6.99997 4.12 6.99997 5.5V11.39C6.65997 11.08 6.23997 10.85 5.77997 10.73L4.99997 10.5C4.17997 10.29 3.30997 10.61 2.81997 11.35C2.43997 11.92 2.41997 12.66 2.66997 13.3L4.22997 17.73C5.49997 20.91 9.56997 23 13 23C17.42 23 21 19.42 21 15V8ZM19 15C19 18.31 16.31 21 13 21C10.39 21 7.04997 19.41 6.08997 17L4.49997 12.45L4.99997 12.59C5.49997 12.71 5.84997 13.05 5.99997 13.5L6.99997 16H8.99997V5.5C8.99997 5.22 9.21997 5 9.49997 5C9.77997 5 9.99997 5.22 9.99997 5.5V13H12V3.5C12 3.22 12.22 3 12.5 3C12.78 3 13 3.22 13 3.5V13H15V5C15 4.72 15.22 4.5 15.5 4.5C15.78 4.5 16 4.72 16 5V13H18V8C18 7.72 18.22 7.5 18.5 7.5C18.78 7.5 19 7.72 19 8V15Z" fill="#526069"/>
</svg>
