<svg width="24" height="24" viewBox="0 0 24 24" fill="none" xmlns="http://www.w3.org/2000/svg">
<rect x="7" y="7" width="10" height="2" fill="currentColor"/>
<rect x="7" y="11" width="10" height="2" fill="currentColor"/>
<rect x="7" y="15" width="7" height="2" fill="currentColor"/>
<path d="M2 4C2 2.89543 2.89543 2 4 2H7V4L4 4V20H7V22H4C2.89543 22 2 21.1046 2 20V4Z" fill="currentColor"/>
<path d="M22 4C22 2.89543 21.1046 2 20 2H17V4L20 4V13H22V4Z" fill="currentColor"/>
<path d="M20 15L20 19.01L23 19.01L19 23L15 19.01L18 19.01L18 15L20 15Z" fill="#1976D2"/>
</svg>
