<svg width="24" height="25" viewBox="0 0 24 25" fill="none" xmlns="http://www.w3.org/2000/svg">
<path fill-rule="evenodd" clip-rule="evenodd" d="M12.8125 3.13964C13.2982 2.84875 13.625 2.30506 13.625 1.68235C13.625 0.753215 12.8975 0 12 0C11.1025 0 10.375 0.753215 10.375 1.68235C10.375 2.30506 10.7018 2.84875 11.1875 3.13964V5.04706L5.6875 5.04706C5.13522 5.04706 4.6875 5.49477 4.6875 6.04706V8.41177H3.0625V11.7765H4.6875V14.1412C4.6875 14.6935 5.13522 15.1412 5.6875 15.1412L7.9375 15.1412V16.8235L2 16.8235C1.44772 16.8235 1 17.2712 1 17.8235V22H3.0625V19.0059C3.0625 18.7298 3.28636 18.5059 3.5625 18.5059H20.4375C20.7136 18.5059 20.9375 18.7298 20.9375 19.0059V22H23V17.8235C23 17.2712 22.5523 16.8235 22 16.8235L16.0625 16.8235V15.1412L18.3125 15.1412C18.8648 15.1412 19.3125 14.6935 19.3125 14.1412V11.7765H20.9375V8.41177H19.3125V6.04706C19.3125 5.49477 18.8648 5.04706 18.3125 5.04706L12.8125 5.04706V3.13964ZM14.4375 15.1412H9.5625V16.8235H14.4375V15.1412ZM9.5625 8.41177H7.9375V10.0941H9.5625V8.41177ZM16.0625 8.41177H14.4375V10.0941H16.0625V8.41177ZM6.3125 7.22935C6.3125 6.95321 6.53636 6.72935 6.8125 6.72935H17.1875C17.4636 6.72935 17.6875 6.95321 17.6875 7.22935V12.9588C17.6875 13.2349 17.4636 13.4588 17.1875 13.4588H6.8125C6.53636 13.4588 6.3125 13.2349 6.3125 12.9588V7.22935Z" fill="#526069"/>
</svg>
