<svg width="24" height="24" viewBox="0 0 24 24" fill="none" xmlns="http://www.w3.org/2000/svg">
<path d="M18 23L18 18.99L15 18.99L19 15L23 18.99L20 18.99L20 23L18 23Z" fill="#1976D2"/>
<path fill-rule="evenodd" clip-rule="evenodd" d="M14.82 4H19C20.1 4 21 4.9 21 6V13H19V6H5V20H14V22H5C3.9 22 3 21.1 3 20V6C3 4.9 3.9 4 5 4H9.18C9.6 2.84 10.7 2 12 2C13.3 2 14.4 2.84 14.82 4ZM12.55 4C12.41 3.85 12.22 3.75 12 3.75C11.78 3.75 11.59 3.85 11.45 4C11.33 4.13 11.25 4.31 11.25 4.5C11.25 4.91 11.59 5.25 12 5.25C12.41 5.25 12.75 4.91 12.75 4.5C12.75 4.31 12.67 4.13 12.55 4Z" fill="currentColor"/>
<path d="M16.6121 15.2217C15.2706 14.3067 13.261 13.89 12 13.89C9.97 13.89 6 14.96 6 17.47V19H14V17H14.0821L8.31 17C9 16.44 10.69 15.88 12 15.88C12.8572 15.88 13.8814 16.1198 14.6775 16.4424L16.6121 15.2217Z" fill="currentColor"/>
<path fill-rule="evenodd" clip-rule="evenodd" d="M9 10C9 8.35 10.35 7 12 7C13.65 7 15 8.35 15 10C15 11.65 13.65 13 12 13C10.35 13 9 11.65 9 10ZM12 11C11.45 11 11 10.55 11 10C11 9.45 11.45 9 12 9C12.55 9 13 9.45 13 10C13 10.55 12.55 11 12 11Z" fill="currentColor"/>
</svg>
