<svg width="24" height="24" viewBox="0 0 24 24" fill="none" xmlns="http://www.w3.org/2000/svg">
<rect width="24" height="24" fill="#CFD8DD"/>
<path d="M5.2448 22.9091C4.69371 22.9091 4.22725 22.7182 3.84543 22.3364C3.46361 21.9546 3.27271 21.4881 3.27271 20.937L3.27271 3.06303C3.27271 2.51194 3.46361 2.04549 3.84543 1.66367C4.22725 1.28185 4.69371 1.09094 5.2448 1.09094H14.184C14.4469 1.09094 14.6997 1.14203 14.9424 1.24421C15.185 1.34621 15.3958 1.48676 15.5749 1.66585L20.1523 6.24331C20.3314 6.4224 20.472 6.63321 20.574 6.87576C20.6762 7.11849 20.7273 7.37131 20.7273 7.63421V20.937C20.7273 21.4881 20.5363 21.9546 20.1545 22.3364C19.7727 22.7182 19.3063 22.9091 18.7552 22.9091H5.2448ZM19.0909 7.8435C19.0909 7.7109 19.0382 7.58372 18.9444 7.48995L14.3282 2.87375C14.2345 2.77998 14.1073 2.72731 13.9747 2.72731H5.2448C5.1608 2.72731 5.08389 2.76231 5.01407 2.83231C4.94407 2.90212 4.90907 2.97903 4.90907 3.06303V20.937C4.90907 21.021 4.94407 21.0979 5.01407 21.1678C5.08389 21.2378 5.1608 21.2728 5.2448 21.2728H18.7552C18.8392 21.2728 18.9161 21.2378 18.9859 21.1678C19.0559 21.0979 19.0909 21.021 19.0909 20.937V7.8435Z" fill="currentColor"/>
<path fill-rule="evenodd" clip-rule="evenodd" d="M11.7273 9.27268C11.7273 10.4939 10.9246 11.5276 9.81816 11.8751V13.909H10.2355L12.5454 11.9708V9.81814C12.5454 9.21565 13.0338 8.72723 13.6363 8.72723H16.3636C16.9661 8.72723 17.4545 9.21565 17.4545 9.81814V12.2727C17.4545 12.8752 16.9661 13.3636 16.3636 13.3636H15.8182V15.5454H16.3636C16.9661 15.5454 17.4545 16.0338 17.4545 16.6363V19.0909C17.4545 19.6934 16.9661 20.1818 16.3636 20.1818H13.6363C13.0338 20.1818 12.5454 19.6934 12.5454 19.0909V17.8636H11.3752C11.2134 18.2634 10.8214 18.5454 10.3636 18.5454H7.63634C7.03385 18.5454 6.54543 18.057 6.54543 17.4545V15C6.54543 14.3975 7.03385 13.909 7.63634 13.909H8.1818V11.8751C7.07531 11.5276 6.27271 10.4939 6.27271 9.27268C6.27271 7.76645 7.49375 6.54541 8.99998 6.54541C10.5062 6.54541 11.7273 7.76645 11.7273 9.27268ZM10.0909 9.27268C10.0909 9.87518 9.60247 10.3636 8.99998 10.3636C8.39749 10.3636 7.90907 9.87518 7.90907 9.27268C7.90907 8.67019 8.39749 8.18177 8.99998 8.18177C9.60247 8.18177 10.0909 8.67019 10.0909 9.27268ZM13.4502 13.3478L11.4545 15.0223V16.2272H12.6247C12.7866 15.8274 13.1785 15.5454 13.6363 15.5454H14.1818V13.3636H13.6363C13.5729 13.3636 13.5107 13.3582 13.4502 13.3478ZM14.1818 11.7272V10.3636H15.8182V11.7272H14.1818ZM14.1818 18.5454H15.8182V17.1818H14.1818V18.5454ZM8.1818 16.909V15.5454H9.81816V16.909H8.1818Z" fill="currentColor"/>
</svg>
