<svg width="24" height="24" viewBox="0 0 24 24" fill="none" xmlns="http://www.w3.org/2000/svg">
<path d="M12 23C14.7614 23 17 20.7614 17 18C17 15.2386 14.7614 13 12 13C9.23858 13 7 15.2386 7 18C7 20.7614 9.23858 23 12 23Z" fill="currentColor"/>
<path fill-rule="evenodd" clip-rule="evenodd" d="M13.5569 15.5L14.5711 16.5142L13.0499 18.0352L14.5711 19.5569L13.5569 20.5711L12.0352 19.0499L10.5142 20.5711L9.5 19.5569L11.0211 18.0352L9.5 16.5142L10.5142 15.5L12.0352 17.0211L13.5569 15.5Z" fill="white"/>
<path fill-rule="evenodd" clip-rule="evenodd" d="M1 3C1 1.89543 1.89543 1 3 1H21C22.1046 1 23 1.89543 23 3V5C23 6.10457 22.1046 7 21 7H3C1.89543 7 1 6.10457 1 5V3ZM21 3H3V5H21V3ZM1 11C1 9.89543 1.89543 9 3 9H21C22.1046 9 23 9.89543 23 11V13C23 14.1046 22.1046 15 21 15H19.5V13H21V11H3V13H4.5V15H3C1.89543 15 1 14.1046 1 13V11Z" fill="currentColor"/>
</svg>
