<svg width="24" height="24" viewBox="0 0 24 24" fill="none" xmlns="http://www.w3.org/2000/svg">
<path d="M14 17H7V15H14V17ZM17 13H7V11H17V13ZM17 9H7V7H17V9Z" fill="currentColor"/>
<path d="M2 4C2 2.89543 2.89543 2 4 2H7V4L4 4V20H7V22H4C2.89543 22 2 21.1046 2 20V4Z" fill="currentColor"/>
<path d="M22 4C22 2.89543 21.1046 2 20 2H17V4L20 4V13H22V4Z" fill="currentColor"/>
<path d="M21.001 15.5514C19.4671 14.6454 17.4583 14.8514 16.1403 16.1694C14.8224 17.4873 14.6164 19.4961 15.5223 21.03L17.0366 19.5157C16.8584 18.8485 17.0311 18.107 17.5545 17.5836C18.078 17.0601 18.8194 16.8875 19.4867 17.0657L21.001 15.5514Z" fill="#1976D2"/>
<path d="M18.4508 20.9299C19.1181 21.1081 19.8595 20.9355 20.383 20.412C20.9064 19.8886 21.0791 19.1471 20.9009 18.4799L22.4152 16.9656C23.3211 18.4995 23.1151 20.5083 21.7972 21.8262C20.4792 23.1442 18.4704 23.3502 16.9365 22.4442L18.4508 20.9299Z" fill="#1976D2"/>
</svg>
