<svg width="24" height="24" viewBox="0 0 24 24" fill="none" xmlns="http://www.w3.org/2000/svg">
<g clip-path="url(#clip0_2839_909)">
<path fill-rule="evenodd" clip-rule="evenodd" d="M5.80728 17.2102C9.01213 17.2126 11.6082 19.8126 11.6058 23.0175L9.60579 23.016C9.60738 20.9157 7.90605 19.2118 5.80577 19.2102C3.70549 19.2086 2.00159 20.9099 2 23.0102L0 23.0087C0.00241988 19.8039 2.60243 17.2078 5.80728 17.2102ZM20 11.0002C20.5523 11.0002 21 11.448 21 12.0002V14.0002H24V23.0002H12V14.0002H15V12.0002C15 11.448 15.4477 11.0002 16 11.0002H20ZM22 16.0002H14V21.0002H22V16.0002ZM12.8074 7.20983C14.9074 7.21141 16.7461 8.32839 17.7635 10H15.124C14.4826 9.50513 13.6787 9.21049 12.8059 9.20983C10.9212 9.2084 9.35569 10.5782 9.05298 12.377C9.15665 12.7036 9.21235 13.0515 9.2118 13.4124C9.20896 15.291 7.68379 16.8116 5.80522 16.8088C3.92665 16.8059 2.40608 15.2807 2.40891 13.4022C2.41175 11.5236 3.93693 10.003 5.81549 10.0059C6.45861 10.0068 7.05977 10.1862 7.57221 10.4971C8.51002 8.55065 10.5022 7.20809 12.8074 7.20983ZM5.81247 12.0059C5.03848 12.0047 4.41008 12.6312 4.40891 13.4052C4.40774 14.1792 5.03424 14.8076 5.80824 14.8088C6.58224 14.8099 7.21063 14.1834 7.2118 13.4094C7.21297 12.6354 6.58647 12.007 5.81247 12.0059ZM19 13.0002H18.0001V13.0166L17 13.0159V14.0002H19V13.0002ZM12.8155 0.00586333C14.6941 0.00870418 16.2146 1.53388 16.2118 3.41244C16.209 5.29101 14.6838 6.81159 12.8052 6.80876C10.9267 6.80591 9.40608 5.28074 9.40891 3.40217C9.41175 1.52361 10.9369 0.0030304 12.8155 0.00586333ZM12.8125 2.00586C12.0385 2.00469 11.4101 2.63119 11.4089 3.40519C11.4077 4.17919 12.0342 4.80759 12.8082 4.80876C13.5822 4.80992 14.2106 4.18342 14.2118 3.40942C14.213 2.63543 13.5865 2.00703 12.8125 2.00586Z" fill="#526069"/>
</g>
<defs>
<clipPath id="clip0_2839_909">
<rect width="23.9819" height="23.9819" fill="white"/>
</clipPath>
</defs>
</svg>
