<svg width="24" height="24" viewBox="0 0 24 24" fill="none" xmlns="http://www.w3.org/2000/svg">
<path d="M19.4231 13.2381C15.2592 12.5326 11.9733 9.06621 11.3046 4.67351C11.292 4.5906 11.1901 4.5906 11.1775 4.67351C10.5088 9.06621 7.22293 12.5326 3.05898 13.2381C2.98034 13.2514 2.98034 13.3589 3.05898 13.3722C7.22293 14.0776 10.5088 17.5441 11.1775 21.9368C11.1901 22.0198 11.292 22.0198 11.3046 21.9368C11.9733 17.5441 15.2592 14.0776 19.4231 13.3722C19.5017 13.3589 19.5017 13.2514 19.4231 13.2381ZM15.3321 13.3387C13.2501 13.6914 11.6072 15.4247 11.2728 17.621C11.2665 17.6625 11.2156 17.6625 11.2093 17.621C10.8749 15.4247 9.23198 13.6914 7.15 13.3387C7.11069 13.3321 7.11069 13.2783 7.15 13.2717C9.23198 12.9189 10.8749 11.1857 11.2093 8.98934C11.2156 8.94789 11.2665 8.94789 11.2728 8.98934C11.6072 11.1857 13.2501 12.9189 15.3321 13.2717C15.3714 13.2783 15.3714 13.3321 15.3321 13.3387Z" fill="#101926"/>
<path d="M19.4231 13.2381C15.2592 12.5326 11.9733 9.06621 11.3046 4.67351C11.292 4.5906 11.1901 4.5906 11.1775 4.67351C10.5088 9.06621 7.22293 12.5326 3.05898 13.2381C2.98034 13.2514 2.98034 13.3589 3.05898 13.3722C7.22293 14.0776 10.5088 17.5441 11.1775 21.9368C11.1901 22.0198 11.292 22.0198 11.3046 21.9368C11.9733 17.5441 15.2592 14.0776 19.4231 13.3722C19.5017 13.3589 19.5017 13.2514 19.4231 13.2381ZM15.3321 13.3387C13.2501 13.6914 11.6072 15.4247 11.2728 17.621C11.2665 17.6625 11.2156 17.6625 11.2093 17.621C10.8749 15.4247 9.23198 13.6914 7.15 13.3387C7.11069 13.3321 7.11069 13.2783 7.15 13.2717C9.23198 12.9189 10.8749 11.1857 11.2093 8.98934C11.2156 8.94789 11.2665 8.94789 11.2728 8.98934C11.6072 11.1857 13.2501 12.9189 15.3321 13.2717C15.3714 13.2783 15.3714 13.3321 15.3321 13.3387Z" fill="#101926"/>
<path d="M21.9186 6.38045C19.8366 6.73316 18.1937 8.4664 17.8593 10.6628C17.853 10.7042 17.8021 10.7042 17.7958 10.6628C17.4614 8.4664 15.8185 6.73316 13.7365 6.38045C13.6972 6.3738 13.6972 6.32005 13.7365 6.3134C15.8185 5.96062 17.4614 4.22744 17.7958 2.03109C17.8021 1.98964 17.853 1.98964 17.8593 2.03109C18.1937 4.22744 19.8366 5.96062 21.9186 6.3134C21.9579 6.32005 21.9579 6.3738 21.9186 6.38045Z" fill="#101926"/>
<path d="M21.9186 6.38045C19.8366 6.73316 18.1937 8.4664 17.8593 10.6628C17.853 10.7042 17.8021 10.7042 17.7958 10.6628C17.4614 8.4664 15.8185 6.73316 13.7365 6.38045C13.6972 6.3738 13.6972 6.32005 13.7365 6.3134C15.8185 5.96062 17.4614 4.22744 17.7958 2.03109C17.8021 1.98964 17.853 1.98964 17.8593 2.03109C18.1937 4.22744 19.8366 5.96062 21.9186 6.3134C21.9579 6.32005 21.9579 6.3738 21.9186 6.38045Z" fill="#101926"/>
</svg>
