<svg width="384" height="384" viewBox="0 0 384 384" fill="none" xmlns="http://www.w3.org/2000/svg">
<path d="M204.2 109.68H198.48C183.52 109.68 174.2 118.92 174.2 133.84V253.6C174.2 310.4 156.84 333.56 114.24 333.56C71.64 333.56 54.28 310.28 54.28 253.24V133.84C54.28 118.96 44.96 109.68 30 109.68H24.28C9.32 109.68 0 118.92 0 133.84V253.6C0 340.12 38.44 383.96 114.28 383.96C190.12 383.96 228.56 340.08 228.56 253.6V133.84C228.56 118.96 219.24 109.68 204.28 109.68H204.2Z" fill="#FFFFFF"/>
<path d="M297.12 182.36H292.36C277 182.36 267.48 191.96 267.48 207.44V358.88C267.48 374.36 277 383.96 292.36 383.96H297.12C312.48 383.96 322 374.36 322 358.88V207.44C322 191.96 312.48 182.36 297.12 182.36Z" fill="#FFFFFF"/>
<path d="M362.92 88.6001C328.24 83.0401 300.88 55.6801 295.28 21.0401C295.16 20.4001 294.32 20.4001 294.24 21.0401C288.68 55.6801 261.32 83.0401 226.6 88.6001C225.96 88.7201 225.96 89.5601 226.6 89.6401C261.28 95.2001 288.64 122.56 294.24 157.2C294.36 157.84 295.2 157.84 295.28 157.2C300.84 122.56 328.2 95.2001 362.92 89.6401C363.56 89.5201 363.56 88.6801 362.92 88.6001ZM328.84 89.4001C311.48 92.2001 297.8 105.84 295.04 123.16C295 123.48 294.56 123.48 294.52 123.16C291.72 105.84 278.04 92.1601 260.72 89.4001C260.4 89.4001 260.4 88.9201 260.72 88.8801C278.08 86.0801 291.76 72.4401 294.52 55.1201C294.56 54.8001 295 54.8001 295.04 55.1201C297.84 72.4401 311.52 86.1201 328.84 88.8801C329.16 88.8801 329.16 89.3601 328.84 89.4001Z" fill="#FFFFFF"/>
<path d="M383.72 34.52C366.36 37.32 352.68 50.96 349.92 68.28C349.88 68.6 349.44 68.6 349.4 68.28C346.6 50.96 332.92 37.28 315.6 34.52C315.28 34.48 315.28 34.04 315.6 34C332.96 31.2 346.64 17.56 349.4 0.24C349.44 -0.08 349.88 -0.08 349.92 0.24C352.72 17.56 366.4 31.24 383.72 34C384.04 34.04 384.04 34.48 383.72 34.52Z" fill="#FFFFFF"/>
</svg>
