<svg width="17" height="17" viewBox="0 0 17 17" fill="none" xmlns="http://www.w3.org/2000/svg">
<g clip-path="url(#clip0_1082_9758)">
<path d="M8.59671 4.6748H8.35533C7.72501 4.6748 7.33347 5.06887 7.33347 5.70306V10.8048C7.33347 13.2236 6.60217 14.2102 4.80929 14.2102C3.01641 14.2102 2.2851 13.2191 2.2851 10.7895V5.70306C2.2851 5.06887 1.89354 4.6748 1.26332 4.6748H1.02181C0.391556 4.6748 0 5.06887 0 5.70306V10.8048C0 14.4894 1.61812 16.3577 4.80929 16.3577C8.00047 16.3577 9.6185 14.4894 9.6185 10.8048V5.70306C9.6185 5.06887 9.22695 4.6748 8.59671 4.6748Z" fill="#101926"/>
<path d="M12.5078 7.77075H12.3078C11.6619 7.77075 11.2607 8.18011 11.2607 8.83891V15.2897C11.2607 15.9485 11.6619 16.3579 12.3078 16.3579H12.5078C13.1536 16.3579 13.5548 15.9485 13.5548 15.2897V8.83891C13.5548 8.18011 13.1536 7.77075 12.5078 7.77075Z" fill="#101926"/>
<path d="M15.2809 3.77662C13.8212 3.53958 12.6692 2.37505 12.4348 0.89931C12.4304 0.871454 12.3947 0.871454 12.3902 0.89931C12.1558 2.37505 11.0039 3.53958 9.54411 3.77662C9.51654 3.78108 9.51654 3.8172 9.54411 3.82167C11.0039 4.05866 12.1558 5.22324 12.3902 6.69898C12.3947 6.72684 12.4304 6.72684 12.4348 6.69898C12.6692 5.22324 13.8212 4.05866 15.2809 3.82167C15.3085 3.8172 15.3085 3.78108 15.2809 3.77662ZM13.8467 3.81041C13.1168 3.9289 12.5409 4.51119 12.4237 5.24906C12.4214 5.26299 12.4036 5.26299 12.4014 5.24906C12.2842 4.51119 11.7082 3.9289 10.9783 3.81041C10.9645 3.80817 10.9645 3.79011 10.9783 3.78788C11.7082 3.66936 12.2842 3.08709 12.4014 2.34922C12.4036 2.3353 12.4214 2.3353 12.4237 2.34922C12.5409 3.08709 13.1168 3.66936 13.8467 3.78788C13.8605 3.79011 13.8605 3.80817 13.8467 3.81041Z" fill="#101926"/>
<path d="M16.1551 1.47187C15.4252 1.59037 14.8493 2.17265 14.732 2.91053C14.7298 2.92445 14.712 2.92445 14.7098 2.91053C14.5925 2.17265 14.0166 1.59037 13.2867 1.47187C13.2729 1.46964 13.2729 1.45158 13.2867 1.44934C14.0166 1.33083 14.5925 0.74856 14.7098 0.0106895C14.712 -0.00323766 14.7298 -0.00323766 14.732 0.0106895C14.8493 0.74856 15.4252 1.33083 16.1551 1.44934C16.1689 1.45158 16.1689 1.46964 16.1551 1.47187Z" fill="#101926"/>
</g>
<defs>
<clipPath id="clip0_1082_9758">
<rect width="17" height="17" fill="white"/>
</clipPath>
</defs>
</svg>
