<svg width="16" height="16" viewBox="0 0 16 16" fill="none" xmlns="http://www.w3.org/2000/svg">
<rect width="16" height="16" fill="#FA4616"/>
<path d="M9.26399 4.40802H9.07199C8.55999 4.40802 8.24 4.72002 8.24 5.23202V9.32002C8.24 11.256 7.64799 12.048 6.19199 12.048C4.73599 12.048 4.14399 11.256 4.14399 9.30402V5.22402C4.14399 4.71202 3.82399 4.40002 3.31199 4.40002H3.11999C2.60799 4.40002 2.28799 4.71202 2.28799 5.22402V9.31202C2.28799 12.264 3.59999 13.76 6.19199 13.76C8.78399 13.76 10.096 12.264 10.096 9.31202V5.22402C10.096 4.71202 9.77599 4.40002 9.26399 4.40002V4.40802Z" fill="white"/>
<path d="M12.44 6.896H12.272C11.8036 6.896 11.424 7.27566 11.424 7.744V12.928C11.424 13.3963 11.8036 13.776 12.272 13.776H12.44C12.9083 13.776 13.288 13.3963 13.288 12.928V7.744C13.288 7.27566 12.9083 6.896 12.44 6.896Z" fill="white"/>
<path d="M14.68 3.68797C13.496 3.49597 12.56 2.56797 12.368 1.38397C12.368 1.35997 12.336 1.35997 12.328 1.38397C12.136 2.56797 11.2 3.50397 10.016 3.68797C9.99199 3.68797 9.99199 3.71997 10.016 3.72797C11.2 3.91997 12.136 4.84797 12.328 6.03197C12.328 6.05597 12.36 6.05597 12.368 6.03197C12.56 4.84797 13.496 3.91197 14.68 3.72797C14.704 3.72797 14.704 3.69597 14.68 3.68797Z" fill="white"/>
</svg>
