<svg width="17" height="17" viewBox="0 0 17 17" fill="none" xmlns="http://www.w3.org/2000/svg">
<path d="M8.59671 4.67488H8.35533C7.72501 4.67488 7.33347 5.06895 7.33347 5.70314V10.8049C7.33347 13.2237 6.60217 14.2103 4.80929 14.2103C3.01641 14.2103 2.2851 13.2192 2.2851 10.7896V5.70314C2.2851 5.06895 1.89354 4.67488 1.26332 4.67488H1.02181C0.391556 4.67488 0 5.06895 0 5.70314V10.8049C0 14.4895 1.61812 16.3578 4.80929 16.3578C8.00047 16.3578 9.6185 14.4895 9.6185 10.8049V5.70314C9.6185 5.06895 9.22695 4.67488 8.59671 4.67488Z" fill="white"/>
<path d="M12.5078 7.77068H12.3078C11.6619 7.77068 11.2607 8.18004 11.2607 8.83884V15.2896C11.2607 15.9484 11.6619 16.3578 12.3078 16.3578H12.5078C13.1536 16.3578 13.5548 15.9484 13.5548 15.2896V8.83884C13.5548 8.18004 13.1536 7.77068 12.5078 7.77068Z" fill="white"/>
<path d="M15.2811 3.7765C13.8214 3.53946 12.6694 2.37493 12.435 0.899188C12.4306 0.871332 12.3949 0.871332 12.3904 0.899188C12.156 2.37493 11.0041 3.53946 9.54431 3.7765C9.51674 3.78096 9.51674 3.81708 9.54431 3.82155C11.0041 4.05854 12.156 5.22312 12.3904 6.69886C12.3949 6.72672 12.4306 6.72672 12.435 6.69886C12.6694 5.22312 13.8214 4.05854 15.2811 3.82155C15.3087 3.81708 15.3087 3.78096 15.2811 3.7765ZM13.8469 3.81029C13.117 3.92878 12.5411 4.51107 12.4239 5.24894C12.4216 5.26287 12.4038 5.26287 12.4016 5.24894C12.2844 4.51107 11.7084 3.92878 10.9785 3.81029C10.9647 3.80805 10.9647 3.78999 10.9785 3.78776C11.7084 3.66924 12.2844 3.08697 12.4016 2.3491C12.4038 2.33518 12.4216 2.33518 12.4239 2.3491C12.5411 3.08697 13.117 3.66924 13.8469 3.78776C13.8607 3.78999 13.8607 3.80805 13.8469 3.81029Z" fill="white"/>
<path d="M16.1549 1.47181C15.425 1.59031 14.8491 2.17259 14.7318 2.91047C14.7296 2.92439 14.7118 2.92439 14.7096 2.91047C14.5923 2.17259 14.0164 1.59031 13.2865 1.47181C13.2727 1.46958 13.2727 1.45152 13.2865 1.44928C14.0164 1.33077 14.5923 0.748499 14.7096 0.0106285C14.7118 -0.00329869 14.7296 -0.00329869 14.7318 0.0106285C14.8491 0.748499 15.425 1.33077 16.1549 1.44928C16.1687 1.45152 16.1687 1.46958 16.1549 1.47181Z" fill="white"/>
</svg>
