<svg width="592" height="592" viewBox="0 0 592 592" fill="none" xmlns="http://www.w3.org/2000/svg">
<path d="M465.012 326.136C363.744 308.976 283.832 224.675 267.568 117.844C267.262 115.827 264.784 115.827 264.477 117.844C248.214 224.675 168.302 308.976 67.0344 326.136C65.1218 326.459 65.1218 329.074 67.0344 329.397C168.302 346.553 248.214 430.858 264.477 537.689C264.784 539.706 267.262 539.706 267.568 537.689C283.832 430.858 363.744 346.553 465.012 329.397C466.923 329.074 466.923 326.459 465.012 326.136ZM365.517 328.582C314.883 337.16 274.927 379.312 266.796 432.728C266.642 433.736 265.403 433.736 265.25 432.728C257.118 379.312 217.162 337.16 166.528 328.582C165.572 328.42 165.572 327.113 166.528 326.951C217.162 318.371 257.118 276.22 265.25 222.805C265.403 221.797 266.642 221.797 266.796 222.805C274.927 276.22 314.883 318.371 365.517 326.951C366.473 327.113 366.473 328.42 365.517 328.582Z" fill="white"/>
<path d="M525.683 159.333C475.049 167.911 435.093 210.064 426.962 263.479C426.808 264.487 425.569 264.487 425.416 263.479C417.284 210.064 377.328 167.911 326.694 159.333C325.738 159.171 325.738 157.864 326.694 157.702C377.328 149.123 417.284 106.972 425.416 53.5562C425.569 52.548 426.808 52.548 426.962 53.5562C435.093 106.972 475.049 149.123 525.683 157.702C526.639 157.864 526.639 159.171 525.683 159.333Z" fill="white"/>
</svg>
