<svg width="32" height="32" viewBox="0 0 32 32" fill="none" xmlns="http://www.w3.org/2000/svg">
<path d="M0 8C0 3.58172 3.58172 0 8 0H24C28.4183 0 32 3.58172 32 8V24C32 28.4183 28.4183 32 24 32H8C3.58172 32 0 28.4183 0 24V8Z" fill="#FB4616"/>
<path d="M16.5089 12.627H16.2699C15.6461 12.627 15.2585 13.017 15.2585 13.6447V18.6943C15.2585 21.0883 14.5347 22.0648 12.7601 22.0648C10.9856 22.0648 10.2617 21.0839 10.2617 18.6792V13.6447C10.2617 13.017 9.87419 12.627 9.25041 12.627H9.01137C8.38755 12.627 8 13.017 8 13.6447V18.6943C8 22.3412 9.60158 24.1904 12.7601 24.1904C15.9187 24.1904 17.5202 22.3412 17.5202 18.6943V13.6447C17.5202 13.017 17.1327 12.627 16.5089 12.627Z" fill="white"/>
<path d="M20.3803 15.6909H20.1823C19.5428 15.6909 19.1457 16.0961 19.1457 16.7482V23.133C19.1457 23.785 19.5428 24.1902 20.1823 24.1902H20.3803C21.0196 24.1902 21.4168 23.785 21.4168 23.133V16.7482C21.4168 16.0961 21.0196 15.6909 20.3803 15.6909Z" fill="white"/>
<path d="M23.1249 11.7377C21.6801 11.5031 20.5399 10.3505 20.3079 8.88982C20.3035 8.86225 20.2682 8.86225 20.2638 8.88982C20.0318 10.3505 18.8916 11.5031 17.4468 11.7377C17.4195 11.7421 17.4195 11.7779 17.4468 11.7823C18.8916 12.0169 20.0318 13.1695 20.2638 14.6302C20.2682 14.6578 20.3035 14.6578 20.3079 14.6302C20.5399 13.1695 21.6801 12.0169 23.1249 11.7823C23.1522 11.7779 23.1522 11.7421 23.1249 11.7377ZM21.7054 11.7712C20.983 11.8884 20.4129 12.4648 20.2969 13.1951C20.2947 13.2089 20.277 13.2089 20.2748 13.1951C20.1588 12.4648 19.5887 11.8884 18.8663 11.7712C18.8527 11.7689 18.8527 11.7511 18.8663 11.7489C19.5887 11.6315 20.1588 11.0552 20.2748 10.3249C20.277 10.3111 20.2947 10.3111 20.2969 10.3249C20.4129 11.0552 20.983 11.6315 21.7054 11.7489C21.719 11.7511 21.719 11.7689 21.7054 11.7712Z" fill="white"/>
<path d="M23.9903 9.45658C23.2677 9.57386 22.6975 10.1502 22.5815 10.8805C22.5793 10.8943 22.5616 10.8943 22.5594 10.8805C22.4434 10.1502 21.8732 9.57386 21.1506 9.45658C21.137 9.45437 21.137 9.43649 21.1506 9.43428C21.8732 9.31698 22.4434 8.74066 22.5594 8.01034C22.5616 7.99655 22.5793 7.99655 22.5815 8.01034C22.6975 8.74066 23.2677 9.31698 23.9903 9.43428C24.0039 9.43649 24.0039 9.45437 23.9903 9.45658Z" fill="white"/>
</svg>
