<svg width="24" height="24" viewBox="0 0 24 24" fill="none" xmlns="http://www.w3.org/2000/svg">
<path d="M14.9111 14.1324H3.48145C2.21184 14.1324 1.18262 15.1617 1.18262 16.4313C1.18262 17.7009 2.21184 18.7301 3.48145 18.7301H14.9111C16.1807 18.7301 17.21 17.7009 17.21 16.4313C17.21 15.1617 16.1807 14.1324 14.9111 14.1324Z" fill="#EA4335"/>
<path d="M4.3309 11.5827L13.5777 18.3009C14.6048 19.0471 16.0425 18.8194 16.7887 17.7923C17.535 16.7652 17.3073 15.3276 16.2801 14.5813L7.03333 7.8631C6.0062 7.11684 4.56858 7.34454 3.82232 8.37167C3.07607 9.39881 3.30376 10.8364 4.3309 11.5827Z" fill="#FBBC04"/>
<path d="M17.1447 15.6988L13.6127 4.82853C13.2204 3.62106 11.9235 2.96026 10.716 3.35259C9.50856 3.74492 8.84776 5.04181 9.24009 6.24928L12.7721 17.1196C13.1644 18.327 14.4613 18.9878 15.6687 18.5955C16.8762 18.2032 17.537 16.9063 17.1447 15.6988Z" fill="#34A853"/>
<path d="M16.2961 4.82841L12.7641 15.6987C12.3718 16.9062 13.0326 18.2031 14.24 18.5954C15.4475 18.9877 16.7444 18.3269 17.1367 17.1194L20.6687 6.24917C21.061 5.0417 20.4002 3.74481 19.1927 3.35247C17.9853 2.96014 16.6884 3.62094 16.2961 4.82841Z" fill="#4285F4"/>
<path d="M11.4227 6.70225C12.0563 6.70225 12.5699 6.1886 12.5699 5.55498C12.5699 4.92136 12.0563 4.40771 11.4227 4.40771C10.789 4.40771 10.2754 4.92136 10.2754 5.55498C10.2754 6.1886 10.789 6.70225 11.4227 6.70225Z" fill="var(--color-foreground)"/>
<path d="M5.64824 10.8342C6.28186 10.8342 6.79551 10.3206 6.79551 9.68694C6.79551 9.05332 6.28186 8.53967 5.64824 8.53967C5.01463 8.53967 4.50098 9.05332 4.50098 9.68694C4.50098 10.3206 5.01463 10.8342 5.64824 10.8342Z" fill="var(--color-foreground)"/>
<path d="M3.4959 17.5871C4.12952 17.5871 4.64316 17.0735 4.64316 16.4399C4.64316 15.8063 4.12952 15.2926 3.4959 15.2926C2.86228 15.2926 2.34863 15.8063 2.34863 16.4399C2.34863 17.0735 2.86228 17.5871 3.4959 17.5871Z" fill="var(--color-foreground)"/>
<path d="M14.9627 17.5459C15.5963 17.5459 16.11 17.0322 16.11 16.3986C16.11 15.765 15.5963 15.2513 14.9627 15.2513C14.3291 15.2513 13.8154 15.765 13.8154 16.3986C13.8154 17.0322 14.3291 17.5459 14.9627 17.5459Z" fill="var(--color-foreground)"/>
<path d="M18.5057 6.64255C19.1393 6.64255 19.6529 6.12891 19.6529 5.49529C19.6529 4.86167 19.1393 4.34802 18.5057 4.34802C17.872 4.34802 17.3584 4.86167 17.3584 5.49529C17.3584 6.12891 17.872 6.64255 18.5057 6.64255Z" fill="var(--color-foreground)"/>
</svg>
