<svg width="400" height="116" viewBox="0 0 400 116" fill="none" xmlns="http://www.w3.org/2000/svg">
<path d="M62.6439 33.1428H60.885C56.2918 33.1428 53.4387 35.9376 53.4387 40.4354V76.6177C53.4387 93.7722 48.1098 100.769 35.0451 100.769C21.9804 100.769 16.6514 93.7404 16.6514 76.5096V40.4354C16.6514 35.9377 13.7982 33.1428 9.20575 33.1428H7.44592C2.85326 33.1428 0 35.9377 0 40.4354V76.6177C0 102.75 11.7912 116 35.0451 116C58.2991 116 70.0897 102.75 70.0897 76.6177V40.4354C70.0897 35.9377 67.2364 33.1428 62.6439 33.1428Z" fill="white"/>
<path d="M91.1326 55.0989H89.675C84.9685 55.0989 82.0451 58.0021 82.0451 62.6744V108.425C82.0451 113.097 84.9685 116 89.675 116H91.1326C95.8386 116 98.762 113.097 98.762 108.425V62.6744C98.762 58.0021 95.8386 55.0989 91.1326 55.0989Z" fill="white"/>
<path d="M111.321 26.7779C100.684 25.0968 92.2902 16.8378 90.5818 6.37155C90.5496 6.174 90.2894 6.174 90.2572 6.37155C88.5488 16.8378 80.1548 25.0968 69.5175 26.7779C69.3166 26.8096 69.3166 27.0658 69.5175 27.0974C80.1548 28.7782 88.5488 37.0376 90.2572 47.5038C90.2894 47.7013 90.5496 47.7013 90.5818 47.5038C92.2902 37.0376 100.684 28.7782 111.321 27.0974C111.522 27.0658 111.522 26.8096 111.321 26.7779ZM100.87 27.0175C95.5518 27.8579 91.3548 31.9876 90.5006 37.2207C90.4845 37.3195 90.3544 37.3195 90.3383 37.2207C89.4841 31.9876 85.2871 27.8579 79.9685 27.0175C79.868 27.0017 79.868 26.8736 79.9685 26.8578C85.2871 26.0172 89.4841 21.8877 90.3383 16.6546C90.3544 16.5558 90.4845 16.5558 90.5006 16.6546C91.3548 21.8877 95.5518 26.0172 100.87 26.8578C100.971 26.8736 100.971 27.0017 100.87 27.0175Z" fill="white"/>
<path d="M117.694 10.4371C112.376 11.2774 108.179 15.4071 107.324 20.6402C107.308 20.739 107.178 20.739 107.162 20.6402C106.308 15.4071 102.111 11.2774 96.7923 10.4371C96.6919 10.4212 96.6919 10.2931 96.7923 10.2773C102.111 9.43674 106.308 5.3072 107.162 0.0740898C107.178 -0.0246966 107.308 -0.0246966 107.324 0.0740898C108.179 5.3072 112.376 9.43672 117.694 10.2773C117.795 10.2931 117.795 10.4212 117.694 10.4371Z" fill="white"/>
<path d="M135.312 33.1428H119.087C114.445 33.1428 111.561 35.9674 111.561 40.5133V108.63C111.561 113.175 114.445 116 119.087 116H120.865C125.507 116 128.391 113.175 128.391 108.63V92.5057H135.423C163.58 92.5057 175.066 83.9066 175.066 62.8243C175.066 41.7419 163.548 33.1428 135.312 33.1428ZM158.014 62.6067C158.014 73.4525 152.762 77.1123 137.201 77.1123H128.391V48.2095H137.201C152.762 48.2095 158.014 51.842 158.014 62.6067Z" fill="white"/>
<path d="M237.564 48.4738H236.23C231.589 48.4738 228.705 51.2984 228.705 55.8443V55.8537C223.938 50.4473 216.554 47.2771 208.114 47.2771C199.516 47.2771 191.74 50.371 186.22 55.9902C180.207 62.1093 177.029 70.9411 177.029 81.5298C177.029 92.1646 180.226 101.047 186.274 107.217C191.825 112.881 199.621 116 208.225 116C216.505 116 223.944 112.79 228.711 107.462C228.711 107.468 228.711 108.998 228.712 109.004C228.866 113.33 231.717 116 236.23 116H237.564C242.206 116 245.09 113.176 245.09 108.63V55.8443C245.09 51.2985 242.206 48.4738 237.564 48.4738ZM229.038 81.5298C229.038 93.9677 222.256 101.695 211.337 101.695C200.281 101.695 193.414 93.9677 193.414 81.5298C193.414 69.1578 200.196 61.4729 211.115 61.4729C222.003 61.4729 229.038 69.3461 229.038 81.5298Z" fill="white"/>
<path d="M334.448 47.3425C325.733 47.3425 319.516 50.7417 315.624 55.0256V40.5179C315.624 35.9693 312.738 33.1428 308.094 33.1428H306.759C302.115 33.1428 299.229 35.9693 299.229 40.5179V108.625C299.229 113.174 302.115 116 306.759 116H308.094C312.738 116 315.624 113.174 315.624 108.625V81.2897C315.624 63.7894 324.146 61.7657 330.556 61.7657C341.32 61.7657 345.711 67.0125 345.711 79.8746V108.625C345.711 113.174 348.596 116 353.241 116H354.576C359.22 116 362.105 113.174 362.105 108.625V78.8938C362.105 57.6627 353.059 47.3425 334.448 47.3425Z" fill="white"/>
<path d="M294.515 107.664C294.284 105.472 292.945 102.34 286.565 102.34C279.021 102.34 275.431 100.037 275.431 86.9529V61.7658H286.675C291.313 61.7658 294.194 59.19 294.194 55.0446C294.194 50.966 291.313 48.4317 286.675 48.4317H275.444V40.5179C275.444 35.9693 272.541 33.1428 267.869 33.1428H266.526C261.854 33.1428 258.951 35.9693 258.951 40.5179V48.4317H256.366C252.276 48.4317 249.736 50.966 249.736 55.0446C249.736 59.19 252.617 61.7658 257.254 61.7658H258.951V88.3689C258.951 107.737 266.645 116 284.677 116C284.707 116 284.736 115.999 284.765 115.998C285.813 115.997 286.937 115.981 288.081 115.881C290.354 115.67 292.073 114.885 293.191 113.546C294.305 112.213 294.75 109.87 294.515 107.664Z" fill="white"/>
<path d="M367.331 47.6328V36.4082H364.1C362.823 36.4082 362.105 35.8367 362.105 34.7755C362.105 33.7143 362.823 33.1428 364.1 33.1428H373.952C375.228 33.1428 375.946 33.7143 375.946 34.7755C375.946 35.8367 375.228 36.4082 373.952 36.4082H370.801V47.6328C370.801 48.939 370.203 49.6733 369.086 49.6733C367.969 49.6733 367.331 48.939 367.331 47.6328ZM377.822 49.7139C376.745 49.7139 376.174 48.8937 376.465 47.4695L379.018 34.9388C379.258 33.7553 379.976 33.1428 381.172 33.1428H381.771C382.887 33.1428 383.637 33.6775 384.044 34.7341L388.192 45.5096L392.38 34.7341C392.795 33.6652 393.577 33.1428 394.694 33.1428H395.252C396.449 33.1428 397.167 33.7553 397.406 34.9388L399.919 47.4695C400.206 48.8979 399.72 49.7143 398.643 49.7143C397.486 49.7143 396.772 49.1022 396.529 47.9183L394.415 37.6736L390.426 48.1226C390.007 49.2164 389.309 49.7139 388.232 49.7139C387.115 49.7139 386.417 49.2164 385.998 48.1226L382.01 37.6736L379.935 47.9183C379.696 49.1022 378.978 49.7139 377.822 49.7139Z" fill="white"/>
</svg>
