<svg width="24" height="24" viewBox="0 0 24 24" fill="none" xmlns="http://www.w3.org/2000/svg">
<path d="M22 12C22 17.5228 17.5228 22 12 22C6.47715 22 2 17.5228 2 12C2 6.47715 6.47715 2 12 2C17.5228 2 22 6.47715 22 12Z" fill="var(--color-background)"/>
<path d="M20.5 12C20.5 7.30558 16.6944 3.5 12 3.5C7.30558 3.5 3.5 7.30558 3.5 12C3.5 16.6944 7.30558 20.5 12 20.5V22C6.47715 22 2 17.5228 2 12C2 6.47715 6.47715 2 12 2C17.5228 2 22 6.47715 22 12C22 17.5228 17.5228 22 12 22V20.5C16.6944 20.5 20.5 16.6944 20.5 12Z" fill="currentColor"/>
<path d="M19 12C19 15.866 15.866 19 12 19C8.13401 19 5 15.866 5 12C5 8.13401 8.13401 5 12 5C15.866 5 19 8.13401 19 12Z" fill="var(--color-background)"/>
<path d="M17.5 12C17.5 8.96243 15.0376 6.5 12 6.5C8.96243 6.5 6.5 8.96243 6.5 12C6.5 15.0376 8.96243 17.5 12 17.5V19C8.13401 19 5 15.866 5 12C5 8.13401 8.13401 5 12 5C15.866 5 19 8.13401 19 12C19 15.866 15.866 19 12 19V17.5C15.0376 17.5 17.5 15.0376 17.5 12Z" fill="currentColor"/>
<path d="M12 8C14.2091 8 16 9.79086 16 12C16 14.2091 14.2091 16 12 16L11.7939 15.9951C9.68056 15.8879 8 14.14 8 12C8 9.79087 9.79087 8.00001 12 8ZM12 9.5C10.6193 9.50001 9.5 10.6193 9.5 12C9.5 13.3807 10.6193 14.5 12 14.5C13.3807 14.5 14.5 13.3807 14.5 12C14.5 10.6193 13.3807 9.5 12 9.5ZM12.5 10.2949L12.5 12.0166L13.5 12.5586L13 13.5L11.5 12.5898L11.5 10.2949H12.5Z" fill="currentColor"/>
</svg>
