<svg width="24" height="24" viewBox="0 0 24 24" fill="none" xmlns="http://www.w3.org/2000/svg">
<path d="M22 12C22 17.5228 17.5228 22 12 22C6.47715 22 2 17.5228 2 12C2 6.47715 6.47715 2 12 2C17.5228 2 22 6.47715 22 12Z" fill="var(--color-background)"/>
<path d="M20.5 12C20.5 7.30558 16.6944 3.5 12 3.5C7.30558 3.5 3.5 7.30558 3.5 12C3.5 16.6944 7.30558 20.5 12 20.5V22C6.47715 22 2 17.5228 2 12C2 6.47715 6.47715 2 12 2C17.5228 2 22 6.47715 22 12C22 17.5228 17.5228 22 12 22V20.5C16.6944 20.5 20.5 16.6944 20.5 12Z" fill="currentColor"/>
<path d="M19 12C19 15.866 15.866 19 12 19C8.13401 19 5 15.866 5 12C5 8.13401 8.13401 5 12 5C15.866 5 19 8.13401 19 12Z" fill="var(--color-background)"/>
<path d="M17.5 12C17.5 8.96243 15.0376 6.5 12 6.5C8.96243 6.5 6.5 8.96243 6.5 12C6.5 15.0376 8.96243 17.5 12 17.5V19C8.13401 19 5 15.866 5 12C5 8.13401 8.13401 5 12 5C15.866 5 19 8.13401 19 12C19 15.866 15.866 19 12 19V17.5C15.0376 17.5 17.5 15.0376 17.5 12Z" fill="currentColor"/>
<path d="M8.29581 14.3895L11.6245 7.73206C11.7792 7.42265 12.2208 7.42265 12.3755 7.73206L15.7042 14.3895C15.8768 14.7347 15.5312 15.1104 15.1728 14.967L12.1559 13.7602C12.0558 13.7202 11.9442 13.7202 11.8441 13.7602L8.82719 14.967C8.46879 15.1104 8.12318 14.7347 8.29581 14.3895Z" fill="currentColor"/>
</svg>
