<svg class="portal-svg" alt="app" width="24" height="24" viewBox="0 0 24 24" fill="none" xmlns="http://www.w3.org/2000/svg">
<path class="portal-custom-svg" fill-rule="evenodd" clip-rule="evenodd" d="M1.63647 5.72738L4.611 2.29524C4.97361 1.87684 5.50001 1.63647 6.05367 1.63647H17.9465C18.5002 1.63647 19.0266 1.87684 19.3892 2.29524L22.3637 5.72738V20.4547C22.3637 21.509 21.509 22.3637 20.4547 22.3637H3.54557C2.4912 22.3637 1.63647 21.509 1.63647 20.4547V5.72738ZM6.05367 3.27284H17.9465C18.0256 3.27284 18.1008 3.30718 18.1526 3.36695L19.4893 4.9092H4.51096L5.84758 3.36695C5.89938 3.30718 5.97458 3.27284 6.05367 3.27284ZM20.7274 6.54557H3.27284L3.27284 20.4547C3.27284 20.6053 3.39494 20.7274 3.54557 20.7274H20.4547C20.6053 20.7274 20.7274 20.6053 20.7274 20.4547V6.54557Z"/>
<path class="portal-custom-svg" fill-rule="evenodd" clip-rule="evenodd" d="M6.54541 9.27279C6.54541 8.6703 7.03383 8.18188 7.63632 8.18188H10.3636C10.9661 8.18188 11.4545 8.6703 11.4545 9.27279V12.0001C11.4545 12.6026 10.9661 13.091 10.3636 13.091H7.63632C7.03383 13.091 6.54541 12.6026 6.54541 12.0001V9.27279ZM8.18177 11.4546V9.81825H9.81814V11.4546H8.18177Z"/>
<path class="portal-custom-svg" fill-rule="evenodd" clip-rule="evenodd" d="M6.54541 15.2728C6.54541 14.6703 7.03383 14.1819 7.63632 14.1819H10.3636C10.9661 14.1819 11.4545 14.6703 11.4545 15.2728V18.0001C11.4545 18.6026 10.9661 19.091 10.3636 19.091H7.63632C7.03383 19.091 6.54541 18.6026 6.54541 18.0001V15.2728ZM8.18177 17.4546V15.8182H9.81814V17.4546H8.18177Z"/>
<path class="portal-custom-svg" d="M15 13.9092C14.5481 13.9092 14.1818 14.2755 14.1818 14.7273V15.8182H13.0909C12.639 15.8182 12.2727 16.1846 12.2727 16.6364C12.2727 17.0883 12.639 17.4546 13.0909 17.4546H14.1818V18.5455C14.1818 18.9974 14.5481 19.3637 15 19.3637C15.4518 19.3637 15.8181 18.9974 15.8181 18.5455V17.4546H16.909C17.3609 17.4546 17.7272 17.0883 17.7272 16.6364C17.7272 16.1846 17.3609 15.8182 16.909 15.8182H15.8181V14.7273C15.8181 14.2755 15.4518 13.9092 15 13.9092Z"/>
<path class="portal-custom-svg" fill-rule="evenodd" clip-rule="evenodd" d="M12.5454 9.27279C12.5454 8.6703 13.0338 8.18188 13.6363 8.18188H16.3636C16.9661 8.18188 17.4545 8.6703 17.4545 9.27279V12.0001C17.4545 12.6026 16.9661 13.091 16.3636 13.091H13.6363C13.0338 13.091 12.5454 12.6026 12.5454 12.0001V9.27279ZM14.1818 11.4546V9.81825H15.8181V11.4546H14.1818Z"/>
</svg>
