<svg class="portal-svg" width="20" height="20" viewBox="0 0 20 20" fill="none" xmlns="http://www.w3.org/2000/svg">
  <g id="Wrapper" clip-path="url(#clip0_3506_36833)">
    <path id="Star 10"
      d="M11.1631 0.868746C11.6223 -0.289581 13.3777 -0.289582 13.8369 0.868745L15.2501 4.43324L19.0692 5.75222C20.3103 6.18084 20.3103 7.81916 19.0692 8.24778L15.2501 9.56676L13.8369 13.1313C13.3777 14.2896 11.6223 14.2896 11.1631 13.1313L9.7499 9.56676L5.9308 8.24778C4.68973 7.81916 4.68973 6.18084 5.9308 5.75222L9.7499 4.43324L11.1631 0.868746Z"
      fill="var(--color-brand-secondary, #0067DF)" />
    <path id="Star 13"
      d="M3.28698 10.4964C3.53191 9.83452 4.46809 9.83452 4.71302 10.4964L5.46672 12.5333L7.50357 13.287C8.16548 13.5319 8.16548 14.4681 7.50357 14.713L5.46672 15.4667L4.71302 17.5036C4.46809 18.1655 3.53191 18.1655 3.28698 17.5036L2.53328 15.4667L0.496426 14.713C-0.165475 14.4681 -0.165476 13.5319 0.496426 13.287L2.53328 12.5333L3.28698 10.4964Z"
      fill="var(--color-brand-primary, #FA4616)" />
    <path id="Star 14"
      d="M16.4652 14.3723C16.6489 13.8759 17.3511 13.8759 17.5348 14.3723L18.1 15.9L19.6277 16.4652C20.1241 16.6489 20.1241 17.3511 19.6277 17.5348L18.1 18.1L17.5348 19.6277C17.3511 20.1241 16.6489 20.1241 16.4652 19.6277L15.9 18.1L14.3723 17.5348C13.8759 17.3511 13.8759 16.6489 14.3723 16.4652L15.9 15.9L16.4652 14.3723Z"
      fill="var(--color-icon-default, #526069)" />
  </g>
  <defs>
    <clipPath id="clip0_3506_36833">
      <rect width="20" height="20" fill="white" />
    </clipPath>
  </defs>
</svg>
