<svg class="portal-svg" role="img" aria-labelledby="global-header-autopilot-chat-toggle" alt="Autopilot Chat Toggle" title="Autopilot Chat Toggle" width="20" height="20" viewBox="0 0 20 20" fill="none" xmlns="http://www.w3.org/2000/svg">
<path class="autopilot-fill" d="M16.4231 11.2391C12.2592 10.5335 8.97333 7.06719 8.30459 2.67449C8.29198 2.59158 8.19012 2.59158 8.1775 2.67449C7.50876 7.06719 4.22293 10.5335 0.0589795 11.2391C-0.0196598 11.2524 -0.0196598 11.3599 0.0589795 11.3732C4.22293 12.0786 7.50876 15.5451 8.1775 19.9378C8.19012 20.0207 8.29198 20.0207 8.30459 19.9378C8.97333 15.5451 12.2592 12.0786 16.4231 11.3732C16.5017 11.3599 16.5017 11.2524 16.4231 11.2391ZM12.3321 11.3397C10.2501 11.6924 8.60718 13.4256 8.27282 15.622C8.26651 15.6634 8.21557 15.6634 8.20927 15.622C7.8749 13.4256 6.23198 11.6924 4.15 11.3397C4.11069 11.333 4.11069 11.2793 4.15 11.2726C6.23198 10.9198 7.8749 9.18667 8.20927 6.99032C8.21557 6.94886 8.26651 6.94886 8.27282 6.99032C8.60718 9.18667 10.2501 10.9198 12.3321 11.2726C12.3714 11.2793 12.3714 11.333 12.3321 11.3397Z"/>
<path class="autopilot-fill" d="M18.9179 4.38045C16.8359 4.73316 15.193 6.46641 14.8586 8.66276C14.8523 8.70421 14.8014 8.70421 14.7951 8.66276C14.4607 6.46641 12.8178 4.73316 10.7358 4.38045C10.6965 4.37381 10.6965 4.32005 10.7358 4.3134C12.8178 3.96062 14.4607 2.22744 14.7951 0.0310918C14.8014 -0.0103639 14.8523 -0.0103639 14.8586 0.0310918C15.193 2.22744 16.8359 3.96062 18.9179 4.3134C18.9572 4.32005 18.9572 4.37381 18.9179 4.38045Z"/>
</svg>
