<svg
  class="portal-svg"
  width="16"
  height="16"
  viewBox="0 0 16 16"
  fill="none"
  xmlns="http://www.w3.org/2000/svg"
  alt="cloud download"
>
  <path
    class="portal-custom-svg"
    d="M8 2.66675C10.4266 2.66675 12.447 4.39322 12.9004 6.69312C14.6334 6.81328 15.9998 8.24003 16 9.99976C16 11.8396 14.5068 13.3336 12.667 13.3337H4C1.79344 13.3337 0.000176699 11.5403 0 9.33374C0 7.27383 1.55986 5.57356 3.56641 5.36011C4.39974 3.76011 6.07333 2.66675 8 2.66675ZM8 3.99976C6.62667 3.99976 5.38626 4.76022 4.75293 5.98022L4.41992 6.61304L3.70703 6.68628C2.3537 6.82628 1.33301 7.96707 1.33301 9.33374C1.33318 10.8069 2.52678 11.9998 4 11.9998H12.667C13.7668 11.9996 14.667 11.0996 14.667 9.99976C14.6668 8.96662 13.8533 8.09384 12.8135 8.0271L11.793 7.95386L11.5938 6.95386C11.2537 5.24052 9.74667 3.99976 8 3.99976ZM8.9668 6.66675V8.66675H10.667L8 11.3337L5.33301 8.66675H7.0332V6.66675H8.9668Z"
  />
</svg>
