<svg class="portal-svg" width="25" height="25" viewBox="0 0 25 25" fill="none" xmlns="http://www.w3.org/2000/svg" alt="directory group">
<path d="M23 16H13V19.5V23H15.5H18H23V16Z" stroke-width="2" class="picker-svg-stroke"/>
<path d="M16 13V12C15.4477 12 15 12.4477 15 13H16ZM20 13H21C21 12.4477 20.5523 12 20 12V13ZM16 14H20V12H16V14ZM19 13V16H21V13H19ZM17 16V13H15V16H17Z" class="picker-svg-fill"/>
<path fill-rule="evenodd" clip-rule="evenodd" d="M12.8065 6.80835C14.1328 6.81035 15.2096 5.73681 15.2116 4.41053C15.2136 3.08425 14.1401 2.00746 12.8138 2.00546C11.4875 2.00345 10.4107 3.07699 10.4087 4.40328C10.4067 5.72956 11.4803 6.80635 12.8065 6.80835Z" stroke-width="2" class="picker-svg-stroke"/>
<path fill-rule="evenodd" clip-rule="evenodd" d="M7.47636 11.7067C8.36897 9.64768 10.4204 8.20803 12.8074 8.20983C14.9075 8.21142 16.7461 9.32839 17.7635 11L15.124 11C14.4826 10.5051 13.6787 10.2105 12.8059 10.2098C10.7056 10.2082 9.00168 11.9096 9.0001 14.0099L8.78394 14.0097C8.67556 13.0735 8.18695 12.2529 7.47636 11.7067ZM18.0001 13L18.0001 14.0167L16.6059 14.0156C16.6062 13.6639 16.5587 13.3234 16.4696 13L18.0001 13Z" class="picker-svg-fill"/>
<path fill-rule="evenodd" clip-rule="evenodd" d="M5.80655 16.8083C7.13283 16.8104 8.20961 15.7368 8.21162 14.4105C8.21362 13.0842 7.14008 12.0075 5.8138 12.0055C4.48752 12.0035 3.41073 13.077 3.40873 14.4033C3.40672 15.7296 4.48026 16.8063 5.80655 16.8083Z" stroke-width="2" class="picker-svg-stroke"/>
<path d="M10.6058 24.0163C10.6078 21.3638 8.45912 19.2118 5.80656 19.2098C3.15399 19.2078 1.00204 21.3565 1.00004 24.0091" stroke-width="2" class="picker-svg-stroke"/>
</svg>
