<svg class="portal-svg" alt="library" fill="none" height="16" viewBox="0 0 16 16" width="16" xmlns="http://www.w3.org/2000/svg">
  <path class="portal-custom-svg" d="m3.42072 10.3017c.10582-.0318.20899-.0582.30952-.0794s.209-.0317.3254-.0317h.63492v-7.61909h-.63492c-.17989 0-.33069.06085-.45238.18254s-.18254.27249-.18254.45238zm.63492 3.6984c-.5291 0-.97884-.1852-1.34921-.5556-.37037-.3703-.55555-.8201-.55555-1.3492v-8.88887c0-.5291.18518-.97884.55555-1.34921s.82011-.55555 1.34921-.55555h4.44445v1.26984h-2.53969v7.61909h3.80953v-1.9048h1.26987v3.1746h-6.98416c-.17989 0-.33069.0608-.45238.1825s-.18254.2725-.18254.4524.06085.3307.18254.4524.27249.1825.45238.1825h8.25396v-5.07933h1.2699v6.34923zm7.30156-6.34923c0-.97354.3387-1.79894 1.0159-2.47619.6773-.67724 1.5026-1.01587 2.4762-1.01587-.9736 0-1.7989-.33862-2.4762-1.01587-.6772-.67725-1.0159-1.50265-1.0159-2.476192 0 .973542-.3386 1.798942-1.0158 2.476192-.67729.67725-1.50269 1.01587-2.47624 1.01587.97355 0 1.79895.33863 2.47624 1.01587.6772.67725 1.0158 1.50265 1.0158 2.47619z" />
</svg>
