<svg width="16" height="16" viewBox="0 0 24 24" fill="none" xmlns="http://www.w3.org/2000/svg">
    <path
        d="M11.1135 5.9895C11.4274 5.31531 12.5726 5.31531 12.8865 5.9895L14.6743 10.0254L18.7102 11.8132C19.3844 12.1271 19.3844 13.2723 18.7102 13.5862L14.6743 15.374L12.8865 19.4099C12.5726 20.0841 11.4274 20.0841 11.1135 19.4099L9.32568 15.374L5.28981 13.5862C4.61562 13.2723 4.61562 12.1271 5.28981 11.8132L9.32568 10.0254L11.1135 5.9895Z"
        fill="#0067DF" />
    <path
        d="M11.1135 5.9895C11.4274 5.31531 12.5726 5.31531 12.8865 5.9895L14.6743 10.0254L18.7102 11.8132C19.3844 12.1271 19.3844 13.2723 18.7102 13.5862L14.6743 15.374L12.8865 19.4099C12.5726 20.0841 11.4274 20.0841 11.1135 19.4099L9.32568 15.374L5.28981 13.5862C4.61562 13.2723 4.61562 12.1271 5.28981 11.8132L9.32568 10.0254L11.1135 5.9895Z"
        fill="url(#paint0_linear)" />
    <path
        d="M11.1135 5.9895C11.4274 5.31531 12.5726 5.31531 12.8865 5.9895L14.6743 10.0254L18.7102 11.8132C19.3844 12.1271 19.3844 13.2723 18.7102 13.5862L14.6743 15.374L12.8865 19.4099C12.5726 20.0841 11.4274 20.0841 11.1135 19.4099L9.32568 15.374L5.28981 13.5862C4.61562 13.2723 4.61562 12.1271 5.28981 11.8132L9.32568 10.0254L11.1135 5.9895Z"
        fill="url(#paint1_linear)" />
    <path
        d="M11.1135 5.9895C11.4274 5.31531 12.5726 5.31531 12.8865 5.9895L14.6743 10.0254L18.7102 11.8132C19.3844 12.1271 19.3844 13.2723 18.7102 13.5862L14.6743 15.374L12.8865 19.4099C12.5726 20.0841 11.4274 20.0841 11.1135 19.4099L9.32568 15.374L5.28981 13.5862C4.61562 13.2723 4.61562 12.1271 5.28981 11.8132L9.32568 10.0254L11.1135 5.9895Z"
        fill="url(#paint2_linear)" />
    <defs>
        <linearGradient id="paint0_linear" x1="12" y1="5" x2="12" y2="20" gradientUnits="userSpaceOnUse">
            <stop stop-color="#003471" stop-opacity="0" />
            <stop offset="1" stop-color="#003471" />
        </linearGradient>
        <linearGradient id="paint1_linear" x1="12" y1="11" x2="18" y2="11" gradientUnits="userSpaceOnUse">
            <stop stop-color="#9747FF" stop-opacity="0" />
            <stop offset="1" stop-color="#9747FF" />
        </linearGradient>
        <linearGradient id="paint2_linear" x1="18" y1="17.5" x2="5" y2="4.5" gradientUnits="userSpaceOnUse">
            <stop stop-color="#2FC1FF" stop-opacity="0" />
            <stop offset="1" stop-color="#2FC1FF" />
        </linearGradient>
    </defs>
</svg>
