<svg class="portal-svg" xmlns="http://www.w3.org/2000/svg" width="21" height="21" viewBox="0 0 21 21" fill="none"
    alt="new chat">
    <path class="portal-custom-svg"
        d="M18.9904 10.5003C18.9904 9.34755 18.7716 8.26421 18.3341 7.25033C17.8966 6.23644 17.3029 5.35449 16.5529 4.60449C15.8029 3.85449 14.921 3.26074 13.9071 2.82324C12.8932 2.38574 11.8098 2.16699 10.6571 2.16699C9.50429 2.16699 8.42095 2.38574 7.40706 2.82324C6.39317 3.26074 5.51123 3.85449 4.76123 4.60449C4.01123 5.35449 3.41748 6.23644 2.97998 7.25033C2.54248 8.26421 2.32373 9.34755 2.32373 10.5003L2.32373 17.167C2.32373 17.6253 2.48692 18.0177 2.81331 18.3441C3.1397 18.6705 3.53206 18.8337 3.9904 18.8337H10.6571C11.8098 18.8337 12.8932 18.6149 13.9071 18.1774C14.921 17.7399 15.8029 17.1462 16.5529 16.3962C17.3029 15.6462 17.8966 14.7642 18.3341 13.7503C18.7716 12.7364 18.9904 11.6531 18.9904 10.5003ZM17.3237 10.5003C17.3237 12.3614 16.6779 13.9378 15.3862 15.2295C14.0946 16.5212 12.5182 17.167 10.6571 17.167H3.9904L3.9904 10.5003C3.9904 8.63921 4.63623 7.06283 5.9279 5.77116C7.21956 4.47949 8.79595 3.83366 10.6571 3.83366C12.5182 3.83366 14.0946 4.47949 15.3862 5.77116C16.6779 7.06283 17.3237 8.63921 17.3237 10.5003Z" />
    <path class="portal-custom-svg"
        d="M13.9071 11.417V9.75033H11.4071V7.25033H9.7404V9.75033H7.2404V11.417H9.7404V13.917H11.4071V11.417H13.9071Z" />
</svg>
