<svg class="portal-svg" width="24" height="24" viewBox="0 0 24 24" fill="none" xmlns="http://www.w3.org/2000/svg">
<path d="M8 21C8 20.4477 8.44772 20 9 20H14V22H9C8.44772 22 8 21.5523 8 21Z" fill="#526069"/>
<path d="M22 2C22.5523 2 23 2.44772 23 3V14H21V4H3V16H10V18H2C1.44772 18 1 17.5523 1 17V3C1 2.44772 1.44772 2 2 2H22Z" fill="#526069"/>
<path d="M17.9571 11.0463C14.9254 11.5331 12.5332 13.9255 12.0463 16.9571C12.0371 17.0143 11.9629 17.0143 11.9537 16.9571C11.4669 13.9255 9.07457 11.5331 6.04294 11.0463C5.98569 11.0371 5.98569 10.9629 6.04294 10.9537C9.07457 10.4668 11.4669 8.07451 11.9537 5.04292C11.9629 4.98569 12.0371 4.98569 12.0463 5.04292C12.5332 8.07451 14.9254 10.4668 17.9571 10.9537C18.0143 10.9629 18.0143 11.0371 17.9571 11.0463Z" fill="#FA4616"/>
<path d="M23 18L16 22L16 14L23 18Z" fill="#526069"/>
</svg>
