<svg width="24" height="24" viewBox="0 0 24 24" fill="none" xmlns="http://www.w3.org/2000/svg">
<rect width="24" height="24" fill="var(--color-icon)"/>
<path d="M5.2448 22.9091C4.69371 22.9091 4.22725 22.7182 3.84543 22.3364C3.46361 21.9546 3.27271 21.4881 3.27271 20.937L3.27271 3.06303C3.27271 2.51194 3.46361 2.04549 3.84543 1.66367C4.22725 1.28185 4.69371 1.09094 5.2448 1.09094H14.184C14.4469 1.09094 14.6997 1.14203 14.9424 1.24421C15.185 1.34621 15.3958 1.48676 15.5749 1.66585L20.1523 6.24331C20.3314 6.4224 20.472 6.63321 20.574 6.87576C20.6762 7.11849 20.7273 7.37131 20.7273 7.63421V20.937C20.7273 21.4881 20.5363 21.9546 20.1545 22.3364C19.7727 22.7182 19.3063 22.9091 18.7552 22.9091H5.2448ZM19.0909 7.8435C19.0909 7.7109 19.0382 7.58372 18.9444 7.48995L14.3282 2.87375C14.2345 2.77998 14.1073 2.72731 13.9747 2.72731H5.2448C5.1608 2.72731 5.08389 2.76231 5.01407 2.83231C4.94407 2.90212 4.90907 2.97903 4.90907 3.06303V20.937C4.90907 21.021 4.94407 21.0979 5.01407 21.1678C5.08389 21.2378 5.1608 21.2728 5.2448 21.2728H18.7552C18.8392 21.2728 18.9161 21.2378 18.9859 21.1678C19.0559 21.0979 19.0909 21.021 19.0909 20.937V7.8435Z" fill="currentColor"/>
<path fill-rule="evenodd" clip-rule="evenodd" d="M11.4545 16.0909C11.4545 15.4884 10.9661 15 10.3636 15L9.81814 15L9.81814 13.0909L14.1818 13.0909L14.1818 15L13.6363 15C13.0338 15 12.5454 15.4884 12.5454 16.0909L12.5454 18.5454C12.5454 19.1479 13.0338 19.6364 13.6363 19.6364L16.3636 19.6364C16.9661 19.6364 17.4545 19.1479 17.4545 18.5454L17.4545 16.0909C17.4545 15.4884 16.9661 15 16.3636 15L15.8181 15L15.8181 12.5454C15.8181 11.943 15.3297 11.4545 14.7272 11.4545L12.8181 11.4545L12.8181 9.69332C13.9246 9.34579 14.7272 8.31207 14.7272 7.0909C14.7272 5.58467 13.5062 4.36362 12 4.36362C10.4937 4.36362 9.27268 5.58467 9.27268 7.0909C9.27268 8.31207 10.0753 9.34579 11.1818 9.69331L11.1818 11.4545L9.27268 11.4545C8.67019 11.4545 8.18177 11.943 8.18177 12.5454L8.18177 15L7.63632 15C7.03383 15 6.54541 15.4884 6.54541 16.0909L6.54541 18.5454C6.54541 19.1479 7.03383 19.6364 7.63632 19.6364L10.3636 19.6364C10.9661 19.6364 11.4545 19.1479 11.4545 18.5454L11.4545 16.0909ZM9.81814 16.6364L8.18177 16.6364L8.18177 18L9.81814 18L9.81814 16.6364ZM15.8181 16.6364L14.1818 16.6364L14.1818 18L15.8181 18L15.8181 16.6364ZM12 8.18181C11.3975 8.18181 10.909 7.69339 10.909 7.0909C10.909 6.4884 11.3975 5.99999 12 5.99999C12.6024 5.99999 13.0909 6.4884 13.0909 7.0909C13.0909 7.69339 12.6024 8.18181 12 8.18181Z" fill="currentColor"/>
</svg>
