<svg width="24" height="24" viewBox="0 0 24 24" fill="none" xmlns="http://www.w3.org/2000/svg">
<path d="M5.2448 22.9091C4.69371 22.9091 4.22725 22.7182 3.84543 22.3364C3.46361 21.9545 3.27271 21.4881 3.27271 20.937L3.27271 3.063C3.27271 2.51191 3.46361 2.04546 3.84543 1.66364C4.22725 1.28182 4.69371 1.09091 5.2448 1.09091H14.184C14.4469 1.09091 14.6997 1.142 14.9424 1.24418C15.185 1.34618 15.3958 1.48673 15.5749 1.66582L20.1523 6.24328C20.3314 6.42237 20.472 6.63318 20.574 6.87573C20.6762 7.11846 20.7273 7.37128 20.7273 7.63418V20.937C20.7273 21.4881 20.5363 21.9545 20.1545 22.3364C19.7727 22.7182 19.3063 22.9091 18.7552 22.9091H5.2448ZM19.0909 7.84347C19.0909 7.71087 19.0382 7.58369 18.9444 7.48992L14.3282 2.87372C14.2345 2.77995 14.1073 2.72728 13.9747 2.72728H5.2448C5.1608 2.72728 5.08389 2.76227 5.01407 2.83227C4.94407 2.90209 4.90907 2.979 4.90907 3.063V20.937C4.90907 21.021 4.94407 21.0979 5.01407 21.1677C5.08389 21.2377 5.1608 21.2727 5.2448 21.2727H18.7552C18.8392 21.2727 18.9161 21.2377 18.9859 21.1677C19.0559 21.0979 19.0909 21.021 19.0909 20.937V7.84347Z" fill="currentColor"/>
<path d="M7.36359 10.9091H16.0909C16.323 10.9091 16.5174 10.8307 16.674 10.674C16.8307 10.5175 16.909 10.3231 16.909 10.0909C16.909 9.85873 16.8307 9.66436 16.674 9.50782C16.5174 9.35109 16.323 9.27273 16.0909 9.27273H7.36359C7.13141 9.27273 6.93705 9.35109 6.7805 9.50782C6.62377 9.66436 6.54541 9.85873 6.54541 10.0909C6.54541 10.3231 6.62377 10.5175 6.7805 10.674C6.93705 10.8307 7.13141 10.9091 7.36359 10.9091ZM7.36359 7.09091H13.909C14.1412 7.09091 14.3356 7.01254 14.4921 6.85582C14.6489 6.69927 14.7272 6.50491 14.7272 6.27273C14.7272 6.04054 14.6489 5.84618 14.4921 5.68963C14.3356 5.53291 14.1412 5.45454 13.909 5.45454H7.36359C7.13141 5.45454 6.93705 5.53291 6.7805 5.68963C6.62377 5.84618 6.54541 6.04054 6.54541 6.27273C6.54541 6.50491 6.62377 6.69927 6.7805 6.85582C6.93705 7.01254 7.13141 7.09091 7.36359 7.09091Z" fill="currentColor"/>
<path d="M7.36359 18.5455H10.0909C10.323 18.5455 10.5174 18.4671 10.674 18.3104C10.8307 18.1538 10.909 17.9595 10.909 17.7273C10.909 17.4951 10.8307 17.3007 10.674 17.1442C10.5174 16.9875 10.323 16.9091 10.0909 16.9091H7.36359C7.13141 16.9091 6.93705 16.9875 6.7805 17.1442C6.62377 17.3007 6.54541 17.4951 6.54541 17.7273C6.54541 17.9595 6.62377 18.1538 6.7805 18.3104C6.93705 18.4671 7.13141 18.5455 7.36359 18.5455ZM7.36359 14.7273H10.0909C10.323 14.7273 10.5174 14.6489 10.674 14.4922C10.8307 14.3356 10.909 14.1413 10.909 13.9091C10.909 13.6769 10.8307 13.4825 10.674 13.326C10.5174 13.1693 10.323 13.0909 10.0909 13.0909H7.36359C7.13141 13.0909 6.93705 13.1693 6.7805 13.326C6.62377 13.4825 6.54541 13.6769 6.54541 13.9091C6.54541 14.1413 6.62377 14.3356 6.7805 14.4922C6.93705 14.6489 7.13141 14.7273 7.36359 14.7273Z" fill="currentColor"/>
<path d="M13 14L13.4198 21L15.363 18.0929L18.8523 17.8635L13 14Z" fill="currentColor"/>
</svg>
