<svg width="24" height="24" viewBox="0 0 24 24" fill="none" xmlns="http://www.w3.org/2000/svg">
<mask id="path-1-inside-1_2_1389" fill="var(--color-foreground)">
<path d="M13.44 3H11.52V9H13.44V3Z"/>
<path d="M2.88 6H10.56V8H4.8V20H20.16V8H14.4V6H22.08V22H2.88V6Z"/>
<path fill-rule="evenodd" clip-rule="evenodd" d="M6.72001 11H12.48V17H6.72001V11ZM8.64001 13V15H10.56V13H8.64001Z"/>
<path d="M14.4 11H18.24V13H14.4V11Z"/>
<path d="M17.28 15H14.4V17H17.28V15Z"/>
</mask>
<path d="M13.44 3H11.52V9H13.44V3Z" fill="currentColor"/>
<path d="M2.88 6H10.56V8H4.8V20H20.16V8H14.4V6H22.08V22H2.88V6Z" fill="currentColor"/>
<path fill-rule="evenodd" clip-rule="evenodd" d="M6.72001 11H12.48V17H6.72001V11ZM8.64001 13V15H10.56V13H8.64001Z" fill="currentColor"/>
<path d="M14.4 11H18.24V13H14.4V11Z" fill="currentColor"/>
<path d="M17.28 15H14.4V17H17.28V15Z" fill="currentColor"/>
<path d="M11.52 3V1H9.52001V3H11.52ZM13.44 3H15.44V1H13.44V3ZM11.52 9H9.52001V11H11.52V9ZM13.44 9V11H15.44V9H13.44ZM10.56 6H12.56V4H10.56V6ZM2.88 6V4H0.880005V6H2.88ZM10.56 8V10H12.56V8H10.56ZM4.8 8V6H2.8V8H4.8ZM4.8 20H2.8V22H4.8V20ZM20.16 20V22H22.16V20H20.16ZM20.16 8H22.16V6H20.16V8ZM14.4 8H12.4V10H14.4V8ZM14.4 6V4H12.4V6H14.4ZM22.08 6H24.08V4H22.08V6ZM22.08 22V24H24.08V22H22.08ZM2.88 22H0.880005V24H2.88V22ZM12.48 11H14.48V9H12.48V11ZM6.72001 11V9H4.72001V11H6.72001ZM12.48 17V19H14.48V17H12.48ZM6.72001 17H4.72001V19H6.72001V17ZM8.64001 15H6.64001V17H8.64001V15ZM8.64001 13V11H6.64001V13H8.64001ZM10.56 15V17H12.56V15H10.56ZM10.56 13H12.56V11H10.56V13ZM18.24 11H20.24V9H18.24V11ZM14.4 11V9H12.4V11H14.4ZM18.24 13V15H20.24V13H18.24ZM14.4 13H12.4V15H14.4V13ZM14.4 15V13H12.4V15H14.4ZM17.28 15H19.28V13H17.28V15ZM14.4 17H12.4V19H14.4V17ZM17.28 17V19H19.28V17H17.28ZM11.52 5H13.44V1H11.52V5ZM13.52 9V3H9.52001V9H13.52ZM13.44 7H11.52V11H13.44V7ZM11.44 3V9H15.44V3H11.44ZM10.56 4H2.88V8H10.56V4ZM12.56 8V6H8.56001V8H12.56ZM4.8 10H10.56V6H4.8V10ZM6.8 20V8H2.8V20H6.8ZM20.16 18H4.8V22H20.16V18ZM18.16 8V20H22.16V8H18.16ZM14.4 10H20.16V6H14.4V10ZM12.4 6V8H16.4V6H12.4ZM22.08 4H14.4V8H22.08V4ZM24.08 22V6H20.08V22H24.08ZM2.88 24H22.08V20H2.88V24ZM0.880005 6V22H4.88V6H0.880005ZM12.48 9H6.72001V13H12.48V9ZM14.48 17V11H10.48V17H14.48ZM6.72001 19H12.48V15H6.72001V19ZM4.72001 11V17H8.72001V11H4.72001ZM10.64 15V13H6.64001V15H10.64ZM10.56 13H8.64001V17H10.56V13ZM8.56001 13V15H12.56V13H8.56001ZM8.64001 15H10.56V11H8.64001V15ZM18.24 9H14.4V13H18.24V9ZM20.24 13V11H16.24V13H20.24ZM14.4 15H18.24V11H14.4V15ZM12.4 11V13H16.4V11H12.4ZM14.4 17H17.28V13H14.4V17ZM16.4 17V15H12.4V17H16.4ZM17.28 15H14.4V19H17.28V15ZM15.28 15V17H19.28V15H15.28Z" fill="currentColor" mask="url(#path-1-inside-1_2_1389)"/>
</svg>
