<svg width="24" height="24" viewBox="0 0 24 24" fill="none" xmlns="http://www.w3.org/2000/svg">
<path d="M5.2448 22.9091C4.69371 22.9091 4.22725 22.7182 3.84543 22.3364C3.46361 21.9545 3.27271 21.4881 3.27271 20.937L3.27271 3.063C3.27271 2.51191 3.46361 2.04545 3.84543 1.66364C4.22725 1.28182 4.69371 1.09091 5.2448 1.09091H14.184C14.4469 1.09091 14.6997 1.142 14.9424 1.24418C15.185 1.34618 15.3958 1.48673 15.5749 1.66582L20.1523 6.24327C20.3314 6.42236 20.472 6.63318 20.574 6.87573C20.6762 7.11845 20.7273 7.37127 20.7273 7.63418V20.937C20.7273 21.4881 20.5363 21.9545 20.1545 22.3364C19.7727 22.7182 19.3063 22.9091 18.7552 22.9091H5.2448ZM19.0909 7.84347C19.0909 7.71086 19.0382 7.58368 18.9444 7.48992L14.3282 2.87372C14.2345 2.77995 14.1073 2.72727 13.9747 2.72727H5.2448C5.1608 2.72727 5.08389 2.76227 5.01407 2.83227C4.94407 2.90209 4.90907 2.979 4.90907 3.063V20.937C4.90907 21.021 4.94407 21.0979 5.01407 21.1677C5.08389 21.2377 5.1608 21.2727 5.2448 21.2727H18.7552C18.8392 21.2727 18.9161 21.2377 18.9859 21.1677C19.0559 21.0979 19.0909 21.021 19.0909 20.937V7.84347Z" fill="currentColor"/>
<path d="M7.90906 11.7273H16.0909C16.3231 11.7273 16.5174 11.6489 16.674 11.4922C16.8307 11.3356 16.9091 11.1413 16.9091 10.9091C16.9091 10.6769 16.8307 10.4825 16.674 10.326C16.5174 10.1693 16.3231 10.0909 16.0909 10.0909H7.90906C7.67688 10.0909 7.48252 10.1693 7.32597 10.326C7.16924 10.4825 7.09088 10.6769 7.09088 10.9091C7.09088 11.1413 7.16924 11.3356 7.32597 11.4922C7.48252 11.6489 7.67688 11.7273 7.90906 11.7273Z" fill="currentColor"/>
<path d="M7.90906 7.63636H13.3636C13.5958 7.63636 13.7902 7.558 13.9467 7.40127C14.1034 7.24473 14.1818 7.05036 14.1818 6.81818C14.1818 6.586 14.1034 6.39164 13.9467 6.23509C13.7902 6.07836 13.5958 6 13.3636 6H7.90906C7.67688 6 7.48252 6.07836 7.32597 6.23509C7.16924 6.39164 7.09088 6.586 7.09088 6.81818C7.09088 7.05036 7.16924 7.24473 7.32597 7.40127C7.48252 7.558 7.67688 7.63636 7.90906 7.63636Z" fill="currentColor"/>
<path fill-rule="evenodd" clip-rule="evenodd" d="M16.6268 14.4641C16.4388 14.2759 16.2042 14.1818 15.9232 14.1818H8.07679C7.7957 14.1818 7.56106 14.2759 7.37288 14.4641C7.18488 14.6523 7.09088 14.8869 7.09088 15.168V18.105C7.09088 18.3861 7.18488 18.6207 7.37288 18.8089C7.56106 18.9969 7.7957 19.0909 8.07679 19.0909H15.9232C16.2042 19.0909 16.4388 18.9969 16.6268 18.8089C16.815 18.6207 16.9091 18.3861 16.9091 18.105V15.168C16.9091 14.8869 16.815 14.6523 16.6268 14.4641ZM8.72725 17.4545H15.2727V15.8182H8.72725V17.4545Z" fill="currentColor"/>
</svg>
