<svg width="24" height="24" viewBox="0 0 24 24" fill="none" xmlns="http://www.w3.org/2000/svg">
<path d="M10.6763 16.527C10.3062 16.4521 9.96205 16.3221 9.64379 16.1372C9.32536 15.9523 9.03872 15.7222 8.78388 15.4469L8.03852 15.7008C7.81984 15.7758 7.60276 15.7764 7.38728 15.7028C7.17197 15.629 7.00283 15.4881 6.87986 15.28L6.68961 14.956C6.56665 14.7479 6.52233 14.5253 6.55664 14.2881C6.59096 14.0508 6.70189 13.8552 6.88945 13.7014L7.49124 13.201C7.37988 12.8273 7.3242 12.4472 7.3242 12.0606C7.3242 11.674 7.37988 11.2939 7.49124 10.9202L6.88945 10.4044C6.70189 10.2504 6.59096 10.0575 6.55664 9.82551C6.52233 9.59339 6.56665 9.37328 6.68961 9.16519L6.87986 8.84121C7.00283 8.63312 7.17197 8.49218 7.38728 8.41839C7.60276 8.34477 7.81984 8.34544 8.03852 8.42041L8.78388 8.6743C9.03872 8.39898 9.32536 8.16887 9.64379 7.98398C9.96205 7.79909 10.3062 7.66916 10.6763 7.59419L10.8355 6.78336C10.8833 6.55459 10.9951 6.36684 11.1711 6.22011C11.3472 6.07337 11.5549 6 11.7943 6H12.2056C12.445 6 12.6527 6.07337 12.8288 6.22011C13.0048 6.36684 13.1166 6.55459 13.1644 6.78336L13.3236 7.59419C13.6937 7.66916 14.0379 7.79909 14.3561 7.98398C14.6746 8.16887 14.9612 8.39898 15.216 8.6743L15.9614 8.42041C16.1801 8.34544 16.3971 8.34477 16.6126 8.41839C16.8279 8.49218 16.9971 8.63312 17.12 8.84121L17.3103 9.16519C17.4333 9.37328 17.4776 9.59591 17.4433 9.83307C17.409 10.0704 17.298 10.266 17.1105 10.4198L16.5087 10.9202C16.62 11.2939 16.6757 11.674 16.6757 12.0606C16.6757 12.4472 16.62 12.8273 16.5087 13.201L17.1105 13.7168C17.298 13.8708 17.409 14.0637 17.4433 14.2957C17.4776 14.5278 17.4333 14.7479 17.3103 14.956L17.12 15.28C16.9971 15.4881 16.8279 15.629 16.6126 15.7028C16.3971 15.7764 16.1801 15.7758 15.9614 15.7008L15.216 15.4469C14.9612 15.7222 14.6746 15.9523 14.3561 16.1372C14.0379 16.3221 13.6937 16.4521 13.3236 16.527L13.1644 17.3379C13.1166 17.5666 13.0048 17.7544 12.8288 17.9011C12.6527 18.0478 12.445 18.1212 12.2056 18.1212H11.7943C11.5549 18.1212 11.3472 18.0478 11.1711 17.9011C10.9951 17.7544 10.8833 17.5666 10.8355 17.3379L10.6763 16.527ZM12 15.0861C12.841 15.0861 13.5559 14.792 14.1447 14.2037C14.7334 13.6154 15.0278 12.901 15.0278 12.0606C15.0278 11.2202 14.7334 10.5058 14.1447 9.91753C13.5559 9.32924 12.841 9.03509 12 9.03509C11.1589 9.03509 10.444 9.32924 9.85523 9.91753C9.26648 10.5058 8.97211 11.2202 8.97211 12.0606C8.97211 12.901 9.26648 13.6154 9.85523 14.2037C10.444 14.792 11.1589 15.0861 12 15.0861Z" fill="currentColor"/>
<path fill-rule="evenodd" clip-rule="evenodd" d="M20.4545 3.81818H3.54544C3.39482 3.81818 3.27272 3.94029 3.27272 4.09091V19.9091C3.27272 20.0597 3.39482 20.1818 3.54544 20.1818H20.4545C20.6052 20.1818 20.7273 20.0597 20.7273 19.9091V4.09091C20.7273 3.94029 20.6052 3.81818 20.4545 3.81818ZM3.54544 2.18182C2.49108 2.18182 1.63635 3.03655 1.63635 4.09091V19.9091C1.63635 20.9635 2.49108 21.8182 3.54544 21.8182H20.4545C21.5089 21.8182 22.3636 20.9635 22.3636 19.9091V4.09091C22.3636 3.03655 21.5089 2.18182 20.4545 2.18182H3.54544Z" fill="currentColor"/>
</svg>
