<svg width="24" height="24" viewBox="0 0 24 24" fill="none" xmlns="http://www.w3.org/2000/svg">
<path d="M10.6763 18.1634C10.3063 18.0884 9.96211 17.9585 9.64385 17.7736C9.32542 17.5887 9.03878 17.3586 8.78394 17.0833L8.03858 17.3372C7.8199 17.4121 7.60282 17.4128 7.38734 17.3392C7.17203 17.2654 7.00289 17.1244 6.87992 16.9164L6.68968 16.5924C6.56671 16.3843 6.52239 16.1617 6.5567 15.9245C6.59102 15.6872 6.70195 15.4916 6.88951 15.3378L7.4913 14.8373C7.37994 14.4637 7.32426 14.0836 7.32426 13.697C7.32426 13.3104 7.37994 12.9302 7.4913 12.5566L6.88951 12.0407C6.70195 11.8868 6.59102 11.6938 6.5567 11.4619C6.52239 11.2297 6.56671 11.0096 6.68968 10.8015L6.87992 10.4776C7.00289 10.2695 7.17203 10.1285 7.38734 10.0547C7.60282 9.98113 7.8199 9.9818 8.03858 10.0568L8.78394 10.3107C9.03878 10.0353 9.32542 9.80523 9.64385 9.62033C9.96211 9.43544 10.3063 9.30551 10.6763 9.23055L10.8356 8.41971C10.8833 8.19095 10.9952 8.0032 11.1711 7.85646C11.3473 7.70972 11.555 7.63635 11.7944 7.63635H12.2057C12.445 7.63635 12.6528 7.70972 12.8289 7.85646C13.0048 8.0032 13.1167 8.19095 13.1645 8.41971L13.3237 9.23055C13.6938 9.30551 14.0379 9.43544 14.3562 9.62033C14.6746 9.80523 14.9613 10.0353 15.2161 10.3107L15.9615 10.0568C16.1801 9.9818 16.3972 9.98113 16.6127 10.0547C16.828 10.1285 16.9971 10.2695 17.1201 10.4776L17.3104 10.8015C17.4333 11.0096 17.4776 11.2323 17.4433 11.4694C17.409 11.7068 17.2981 11.9023 17.1105 12.0561L16.5087 12.5566C16.6201 12.9302 16.6758 13.3104 16.6758 13.697C16.6758 14.0836 16.6201 14.4637 16.5087 14.8373L17.1105 15.3532C17.2981 15.5071 17.409 15.7001 17.4433 15.9321C17.4776 16.1642 17.4333 16.3843 17.3104 16.5924L17.1201 16.9164C16.9971 17.1244 16.828 17.2654 16.6127 17.3392C16.3972 17.4128 16.1801 17.4121 15.9615 17.3372L15.2161 17.0833C14.9613 17.3586 14.6746 17.5887 14.3562 17.7736C14.0379 17.9585 13.6938 18.0884 13.3237 18.1634L13.1645 18.9742C13.1167 19.203 13.0048 19.3907 12.8289 19.5375C12.6528 19.6842 12.445 19.7576 12.2057 19.7576H11.7944C11.555 19.7576 11.3473 19.6842 11.1711 19.5375C10.9952 19.3907 10.8833 19.203 10.8356 18.9742L10.6763 18.1634ZM12 16.7225C12.8411 16.7225 13.556 16.4283 14.1447 15.84C14.7335 15.2517 15.0279 14.5374 15.0279 13.697C15.0279 12.8565 14.7335 12.1422 14.1447 11.5539C13.556 10.9656 12.8411 10.6714 12 10.6714C11.1589 10.6714 10.444 10.9656 9.85529 11.5539C9.26654 12.1422 8.97217 12.8565 8.97217 13.697C8.97217 14.5374 9.26654 15.2517 9.85529 15.84C10.444 16.4283 11.1589 16.7225 12 16.7225Z" fill="currentColor"/>
<path fill-rule="evenodd" clip-rule="evenodd" d="M1.63635 5.72726L4.61087 2.29512C4.97349 1.87672 5.49988 1.63635 6.05355 1.63635H17.9464C18.5001 1.63635 19.0265 1.87672 19.3891 2.29512L22.3636 5.72726V20.4545C22.3636 21.5089 21.5089 22.3636 20.4545 22.3636H3.54544C2.49108 22.3636 1.63635 21.5089 1.63635 20.4545V5.72726ZM6.05355 3.27272H17.9464C18.0255 3.27272 18.1007 3.30705 18.1525 3.36683L19.4891 4.90908H4.51084L5.84746 3.36683C5.89926 3.30705 5.97446 3.27272 6.05355 3.27272ZM20.7273 6.54544H3.27272L3.27272 20.4545C3.27272 20.6052 3.39482 20.7273 3.54544 20.7273H20.4545C20.6052 20.7273 20.7273 20.6052 20.7273 20.4545V6.54544Z" fill="currentColor"/>
</svg>
