<svg width="32" height="32" viewBox="0 0 32 32" fill="none" xmlns="http://www.w3.org/2000/svg">
<g clip-path="url(#clip0_4117_1887)">
<g clip-path="url(#clip1_4117_1887)">
<path d="M10.6678 0.853271H20.137L10.3075 29.9779C10.2064 30.2772 10.014 30.5374 9.75739 30.7216C9.50073 30.9059 9.19275 31.005 8.8768 31.005H1.50764C1.26828 31.005 1.03236 30.948 0.819394 30.8388C0.606427 30.7295 0.422537 30.5711 0.282939 30.3767C0.143341 30.1822 0.0520476 29.9573 0.016612 29.7206C-0.0188236 29.4839 0.00261742 29.2422 0.079161 29.0154L9.23717 1.88036C9.3382 1.58099 9.53059 1.32087 9.78724 1.13661C10.0439 0.952354 10.3519 0.853255 10.6678 0.853271Z" fill="url(#paint0_linear_4117_1887)"/>
<path d="M24.4278 20.3882H9.41208C9.27252 20.3882 9.13619 20.4301 9.02081 20.5087C8.90544 20.5872 8.81638 20.6986 8.76521 20.8285C8.71404 20.9583 8.70314 21.1005 8.73392 21.2367C8.7647 21.3728 8.83574 21.4965 8.93779 21.5917L18.5866 30.5971C18.8675 30.8592 19.2373 31.005 19.6215 31.005H28.1236L24.4278 20.3882Z" fill="#0078D4"/>
<path d="M10.6677 0.853282C10.3484 0.852092 10.037 0.953026 9.77908 1.14135C9.52116 1.32967 9.33019 1.59551 9.23406 1.90006L0.090409 28.9908C0.0087454 29.2184 -0.0168945 29.4623 0.0156586 29.7019C0.0482116 29.9416 0.138 30.1698 0.277427 30.3674C0.416855 30.565 0.60182 30.7261 0.816675 30.8371C1.03153 30.948 1.26995 31.0056 1.51178 31.005H9.07118C9.35281 30.9547 9.61603 30.8305 9.83394 30.6452C10.0519 30.4598 10.2166 30.2199 10.3115 29.95L12.1345 24.5766L18.6478 30.6513C18.9207 30.8771 19.2631 31.002 19.6173 31.005H28.088L24.3727 20.3881L13.5425 20.3906L20.1714 0.853282H10.6677Z" fill="url(#paint1_linear_4117_1887)"/>
<path d="M22.7627 1.87872C22.6618 1.57984 22.4698 1.32014 22.2135 1.13618C21.9573 0.952226 21.6498 0.853277 21.3344 0.853271H10.7812C11.0967 0.853269 11.4042 0.952212 11.6605 1.13617C11.9167 1.32013 12.1088 1.57983 12.2097 1.87872L21.3683 29.0152C21.4448 29.242 21.4663 29.4838 21.4308 29.7205C21.3954 29.9572 21.3041 30.1821 21.1645 30.3766C21.0249 30.571 20.841 30.7294 20.6281 30.8387C20.4151 30.948 20.1792 31.005 19.9398 31.005H30.4929C30.7323 31.005 30.9682 30.9479 31.1811 30.8387C31.3941 30.7294 31.578 30.571 31.7175 30.3765C31.8571 30.1821 31.9484 29.9572 31.9838 29.7205C32.0193 29.4838 31.9978 29.242 31.9213 29.0152L22.7627 1.87872Z" fill="url(#paint2_linear_4117_1887)"/>
</g>
</g>
<defs>
<linearGradient id="paint0_linear_4117_1887" x1="14.1192" y1="3.08756" x2="4.28529" y2="32.1393" gradientUnits="userSpaceOnUse">
<stop stop-color="#114A8B"/>
<stop offset="1" stop-color="#0669BC"/>
</linearGradient>
<linearGradient id="paint1_linear_4117_1887" x1="17.191" y1="16.6264" x2="14.9161" y2="17.3955" gradientUnits="userSpaceOnUse">
<stop stop-opacity="0.3"/>
<stop offset="0.071" stop-opacity="0.2"/>
<stop offset="0.321" stop-opacity="0.1"/>
<stop offset="0.623" stop-opacity="0.05"/>
<stop offset="1" stop-opacity="0"/>
</linearGradient>
<linearGradient id="paint2_linear_4117_1887" x1="15.9405" y1="2.24004" x2="26.735" y2="30.9992" gradientUnits="userSpaceOnUse">
<stop stop-color="#3CCBF4"/>
<stop offset="1" stop-color="#2892DF"/>
</linearGradient>
<clipPath id="clip0_4117_1887">
<rect width="32" height="32" fill="var(--color-foreground)"/>
</clipPath>
<clipPath id="clip1_4117_1887">
<rect width="32" height="32" fill="var(--color-foreground)"/>
</clipPath>
</defs>
</svg>
