<svg width="32" height="32" viewBox="0 0 32 32" fill="none" xmlns="http://www.w3.org/2000/svg">
<g clip-path="url(#clip0_4117_1871)">
<rect x="1" y="1" width="30" height="30" rx="2" fill="var(--color-foreground)"/>
<path fill-rule="evenodd" clip-rule="evenodd" d="M26.6725 20.3917L25.4663 19.6953L25.002 20.4994L26.2083 21.1958L26.6725 20.3917ZM14.9284 11.6761H15.857V9.86401H14.9284V11.6761ZM11.4398 18.2476L11.9649 19.0137L13.9172 17.6738L13.3921 16.9081L11.4398 18.2476ZM12.6511 6.37304L9.5195 4.98111L4.38914 7.74361L7.18879 9.48747L12.6511 6.37304ZM6.71429 10.2856L3.92857 8.55054V16.7429L6.71429 18.4839V10.2856ZM13.9084 6.72451L7.64286 10.2972V19.3215C7.64286 19.4905 7.55093 19.6456 7.40329 19.7273C7.33364 19.7663 7.25611 19.7858 7.17857 19.7858C7.09268 19.7858 7.00771 19.7621 6.93204 19.7152L3.21775 17.3938C3.08218 17.3088 3 17.1603 3 17.0001V7.71436C3 7.54583 3.09146 7.39029 3.23864 7.30811C3.2405 7.30718 3.24282 7.30718 3.24468 7.30579L3.24421 7.30533L9.27993 4.05533C9.40668 3.98708 9.55757 3.98197 9.6885 4.04001L13.8671 5.89715C14.0272 5.96818 14.1331 6.12326 14.1424 6.29829C14.1508 6.47286 14.0607 6.63815 13.9084 6.72451ZM24.6622 19.231L23.4694 18.528L22.9912 19.3238L24.1979 20.0351L24.6622 19.231ZM28.0714 11.9533L20.1628 16.5423L20.6833 16.8548L20.205 17.651L19.7143 17.3557V26.8508L27.6266 22.0148L27.0124 21.6601L27.4767 20.856L28.0714 21.1991V11.9533ZM27.6044 11.151L19.2458 6.38929L15.857 8.25293V9.13926H14.9284V8.76365L10.8961 10.9815L14.9284 13.4014V12.4009H15.857V13.9585L19.2537 15.9968L27.6044 11.151ZM18.7857 16.7986L15.857 15.0417V16.0984C15.857 16.2516 15.7818 16.3951 15.6555 16.4815L14.6981 17.138L14.173 16.3724L14.9284 15.8542V14.4841L10.4286 11.7843V18.9417L10.6589 18.7839L11.184 19.5499L10.4286 20.0681V21.844L18.7857 26.8587V16.7986ZM29 11.1473V22.0032C29 22.1648 28.9155 22.3152 28.7776 22.3993L19.4919 28.0747L19.491 28.0733C19.4863 28.0761 19.4835 28.0803 19.4789 28.0826C19.4079 28.123 19.3289 28.1429 19.25 28.1429C19.1674 28.1429 19.0842 28.1206 19.0109 28.0765L9.72518 22.5051C9.58543 22.4215 9.5 22.2702 9.5 22.1072V10.9644H9.50093C9.50093 10.9611 9.5 10.9588 9.5 10.9555C9.50325 10.7893 9.59471 10.6375 9.7405 10.5576L19.0262 5.45051C19.1674 5.37204 19.3396 5.3739 19.4798 5.45376L28.7655 10.7438C28.9095 10.826 28.9995 10.9792 29 11.1454V11.1473ZM22.195 18.8461L21.0008 18.1288L21.4786 17.333L22.6732 18.0498L22.195 18.8461Z" fill="#FF9900"/>
</g>
<defs>
<clipPath id="clip0_4117_1871">
<rect width="32" height="32" fill="var(--color-foreground)"/>
</clipPath>
</defs>
</svg>
