<svg width="25" height="25" viewBox="0 0 25 25" fill="none" xmlns="http://www.w3.org/2000/svg">
<path d="M20.417 6.4707H12.417L10.417 4.4707H4.41699C3.30699 4.4707 2.42699 5.3607 2.42699 6.4707L2.41699 18.4707C2.41699 19.5807 3.30699 20.4707 4.41699 20.4707H15.417V18.4707H4.41699V6.4707H9.58699L11.587 8.4707H20.417V10.4707H22.417V8.4707C22.417 7.3607 21.527 6.4707 20.417 6.4707Z" fill="currentColor"/>
<path d="M20.417 15.4707C20.417 15.721 20.325 15.9498 20.1731 16.1252C19.9582 16.3732 19.7008 16.583 19.4502 16.7873C18.9184 17.2208 18.417 17.6294 18.417 18.3259V19.4707H20.417V19.0072C20.417 18.5834 20.6944 18.2188 21.0498 17.9879C21.8727 17.4529 22.417 16.5254 22.417 15.4707C22.417 13.8138 21.0738 12.4707 19.417 12.4707C17.7601 12.4707 16.417 13.8138 16.417 15.4707H18.417C18.417 14.9184 18.8647 14.4707 19.417 14.4707C19.9693 14.4707 20.417 14.9184 20.417 15.4707Z" fill="#1976D2"/>
<path d="M19.417 22.4707C19.9693 22.4707 20.417 22.023 20.417 21.4707C20.417 20.9184 19.9693 20.4707 19.417 20.4707C18.8647 20.4707 18.417 20.9184 18.417 21.4707C18.417 22.023 18.8647 22.4707 19.417 22.4707Z" fill="#1976D2"/>
</svg>
