<svg width="24" height="24" viewBox="0 0 24 24" fill="none" xmlns="http://www.w3.org/2000/svg">
<g clip-path="url(#clip0_4117_2284)">
<mask id="path-1-inside-1_4117_2284" fill="var(--color-foreground)">
<rect x="2" y="16" width="20" height="6" rx="1"/>
</mask>
<rect x="2" y="16" width="20" height="6" rx="1" stroke="currentColor" stroke-width="4" mask="url(#path-1-inside-1_4117_2284)"/>
<mask id="path-2-inside-2_4117_2284" fill="var(--color-foreground)">
<rect x="2" y="9" width="10" height="6" rx="1"/>
</mask>
<rect x="2" y="9" width="10" height="6" rx="1" stroke="currentColor" stroke-width="4" mask="url(#path-2-inside-2_4117_2284)"/>
<mask id="path-3-inside-3_4117_2284" fill="var(--color-foreground)">
<rect x="13" y="9" width="9" height="6" rx="1"/>
</mask>
<rect x="13" y="9" width="9" height="6" rx="1" stroke="currentColor" stroke-width="4" mask="url(#path-3-inside-3_4117_2284)"/>
<mask id="path-4-inside-4_4117_2284" fill="var(--color-foreground)">
<rect x="2" y="2" width="6" height="6" rx="1"/>
</mask>
<rect x="2" y="2" width="6" height="6" rx="1" stroke="currentColor" stroke-width="4" mask="url(#path-4-inside-4_4117_2284)"/>
<mask id="path-5-inside-5_4117_2284" fill="var(--color-foreground)">
<rect x="16" y="2" width="6" height="6" rx="1"/>
</mask>
<rect x="16" y="2" width="6" height="6" rx="1" stroke="currentColor" stroke-width="4" mask="url(#path-5-inside-5_4117_2284)"/>
<mask id="path-6-inside-6_4117_2284" fill="var(--color-foreground)">
<rect x="9" y="2" width="6" height="6" rx="1"/>
</mask>
<rect x="9" y="2" width="6" height="6" rx="1" stroke="currentColor" stroke-width="4" mask="url(#path-6-inside-6_4117_2284)"/>
</g>
<defs>
<clipPath id="clip0_4117_2284">
<rect width="24" height="24" fill="var(--color-foreground)"/>
</clipPath>
</defs>
</svg>
