<svg width="24" height="24" viewBox="0 0 24 24" fill="none" xmlns="http://www.w3.org/2000/svg">
<path d="M14 21V8C14 7.44772 13.5523 7 13 7C12.4477 7 12 7.44772 12 8V21C12 21.5523 12.4477 22 13 22C13.5523 22 14 21.5523 14 21Z" fill="#526069"/>
<path d="M21 12H8C7.44772 12 7 12.4477 7 13C7 13.5523 7.44772 14 8 14H21C21.5523 14 22 13.5523 22 13C22 12.4477 21.5523 12 21 12Z" fill="#526069"/>
<path d="M21 18H8C7.44772 18 7 18.4477 7 19C7 19.5523 7.44772 20 8 20H21C21.5523 20 22 19.5523 22 19C22 18.4477 21.5523 18 21 18Z" fill="#526069"/>
<path d="M13 1H10.8985V1.33816L10 2.18861L9.10149 1.33816V1H7V2.16049L10 5L13 2.16049V1Z" fill="#526069"/>
<path d="M6 7C6 6.44772 6.44772 6 7 6C7.55228 6 8 6.44772 8 7V21C8 21.5523 7.55228 22 7 22C6.44772 22 6 21.5523 6 21V7Z" fill="#526069"/>
<path d="M6 6H21C21.5523 6 22 6.44772 22 7C22 7.55228 21.5523 8 21 8H7C6.44772 8 6 7.55228 6 7V6Z" fill="#526069"/>
</svg>
