<svg width="24" height="24" viewBox="0 0 24 24" fill="none" xmlns="http://www.w3.org/2000/svg">
<path fill-rule="evenodd" clip-rule="evenodd" d="M22.6066 11.2929C22.9971 11.6834 22.997 12.3166 22.6066 12.7071L12.7071 22.6066C12.3166 22.9971 11.6834 22.9971 11.2929 22.6066L1.39342 12.7071C1.00301 12.3166 1.00294 11.6834 1.39342 11.2929L11.2929 1.3934C11.6834 1.00302 12.3166 1.00303 12.7071 1.3934L22.6066 11.2929ZM12.3536 3.16116C12.1583 2.96594 11.8417 2.96601 11.6465 3.16116L3.16119 11.6464C2.96593 11.8417 2.96593 12.1583 3.16119 12.3536L11.6465 20.8388C11.8417 21.0341 12.1583 21.0341 12.3536 20.8388L20.8389 12.3536C21.034 12.1583 21.0341 11.8417 20.8389 11.6464L12.3536 3.16116Z" fill="currentColor"/>
<path d="M11.316 7.06569H12.816L12.816 17.0657H11.316L11.316 7.06569Z" fill="currentColor"/>
<path d="M17.066 11.3159V12.8159H7.06604V11.3159H17.066Z" fill="currentColor"/>
</svg>
