<svg width="24" height="24" viewBox="0 0 24 24" fill="none" xmlns="http://www.w3.org/2000/svg">
<path fill-rule="evenodd" clip-rule="evenodd" d="M11.4037 8.09946V13.2999C11.4037 14.7999 12.5991 16.1002 14.1933 16.1002C15.7874 16.1002 16.9829 14.9002 16.9829 13.2999V6.50007C16.9829 3.99971 14.9908 2 12.5001 2C10.0094 2 8.01733 3.99971 8.01733 6.50007V17.4999C8.01733 20.0003 10.0094 22 12.5001 22C14.9908 22 16.9829 20.0003 16.9829 17.4999V17.0002H14.9908V17.4999C14.9908 18.8996 13.8954 20.0003 12.5001 20.0003C11.1058 20.0003 10.0094 18.9006 10.0094 17.4999V6.59943C10.0094 5.19973 11.1048 4.09907 12.5001 4.09907C13.8944 4.09907 14.9908 5.19877 14.9908 6.59943V13.3992C14.9908 13.7995 14.692 14.1989 14.1942 14.1989C13.6965 14.1989 13.3976 13.8989 13.3976 13.3992V8.19882H11.4056L11.4037 8.09946Z" fill="currentColor"/>
</svg>
