<svg width="24" height="24" viewBox="0 0 24 24" fill="none" xmlns="http://www.w3.org/2000/svg">
<path fill-rule="evenodd" clip-rule="evenodd" d="M12 20C12.5523 20 13 19.5523 13 19C13 18.4477 12.5523 18 12 18C11.4477 18 11 18.4477 11 19C11 19.5523 11.4477 20 12 20ZM12 22C13.6569 22 15 20.6569 15 19C15 17.3431 13.6569 16 12 16C10.3431 16 9 17.3431 9 19C9 20.6569 10.3431 22 12 22Z" fill="currentColor"/>
<path d="M20.8408 12.9998H11.6973L14.2051 10.2068C13.7376 9.90469 13.0641 9.64142 12.1436 9.64142C10.292 9.64155 9.41771 10.8518 9.25977 11.2274L8.58789 12.825L3 11.366L4.0332 9.18439C4.44397 8.31728 5.45906 7.02249 6.8252 5.96857C8.2233 4.89006 10.2381 3.8725 12.6543 4.01349C15.1389 4.15848 16.9633 5.1181 18.2041 6.14044L20.8408 3.57208V12.9998ZM12.5381 6.01056C8.99263 5.80367 6.34082 8.98536 5.84082 10.0408L7.41699 10.452C7.81094 9.51526 9.30741 7.64155 12.1436 7.64142C14.9798 7.64142 16.4771 9.36862 16.8711 10.2322L16.1816 10.9998H18.8408V8.31329L18.1514 8.98517C17.462 7.99369 15.6838 6.19424 12.5381 6.01056Z" fill="currentColor"/>
</svg>
