<svg width="24" height="24" viewBox="0 0 24 24" fill="none" xmlns="http://www.w3.org/2000/svg">
<path d="M15.7143 20L14.2143 18.4732L18.0447 14.6429H7.67861C6.33932 14.6429 5.20093 14.1741 4.26343 13.2366C3.32593 12.2991 2.85718 11.1607 2.85718 9.82143C2.85718 8.48214 3.32593 7.34375 4.26343 6.40625C5.20093 5.46875 6.33932 5 7.67861 5H8.21432V7.14286H7.67861C6.92861 7.14286 6.29468 7.40179 5.77682 7.91964C5.25896 8.4375 5.00003 9.07143 5.00003 9.82143C5.00003 10.5714 5.25896 11.2054 5.77682 11.7232C6.29468 12.2411 6.92861 12.5 7.67861 12.5H18.0447L14.2143 8.64286L15.7143 7.14286L22.1429 13.5714L15.7143 20Z" fill="currentColor"/>
</svg>
