<svg width="24" height="24" viewBox="0 0 24 24" fill="none" xmlns="http://www.w3.org/2000/svg">
<g clip-path="url(#clip0_4117_1552)">
<rect x="7" y="6.70605" width="10" height="2" fill="#526069"/>
<rect x="7" y="10.7061" width="10" height="2" fill="#526069"/>
<rect x="7" y="14.7061" width="7" height="2" fill="#526069"/>
<path d="M2 3.70605C2 2.60148 2.89543 1.70605 4 1.70605H7V3.70605L4 3.70605V19.7061H7V21.7061H4C2.89543 21.7061 2 20.8106 2 19.7061V3.70605Z" fill="#526069"/>
<path d="M22 3.70605C22 2.60148 21.1046 1.70605 20 1.70605H17V3.70605L20 3.70605V12.7061H22V3.70605Z" fill="#526069"/>
<path d="M20 14.7061L20 18.7161L23 18.7161L19 22.7061L15 18.7161L18 18.7161L18 14.7061L20 14.7061Z" fill="#1976D2"/>
</g>
<defs>
<clipPath id="clip0_4117_1552">
<rect width="24" height="24" fill="white"/>
</clipPath>
</defs>
</svg>
