<svg width="24" height="24" viewBox="0 0 24 24" fill="none" xmlns="http://www.w3.org/2000/svg">
<g clip-path="url(#clip0_4117_1518)">
<path fill-rule="evenodd" clip-rule="evenodd" d="M4 2.82373C3.44772 2.82373 3 3.27145 3 3.82373V18.8237C3 19.376 3.44772 19.8237 4 19.8237H20C20.5523 19.8237 21 19.376 21 18.8237V17.8237H11V14.8237H14V12.8237H11V9.82373H21V3.82373C21 3.27145 20.5523 2.82373 20 2.82373H4ZM5 4.82373V7.82373H9V4.82373H5ZM5 9.82373H9V12.8237H5V9.82373ZM5 14.8237H9V17.8237H5V14.8237ZM11 4.82373V7.82373H19V4.82373H11Z" fill="currentColor"/>
<path d="M17.4142 10.3738L16 11.788L17.975 13.763L16.0001 15.7379L17.4143 17.1521L19.3892 15.1772L21.364 17.152L22.7782 15.7377L20.8034 13.763L22.7782 11.7881L21.364 10.3739L19.3892 12.3488L17.4142 10.3738Z" fill="#CC3D45"/>
</g>
<defs>
<clipPath id="clip0_4117_1518">
<rect width="24" height="24" fill="white"/>
</clipPath>
</defs>
</svg>
