<svg width="24" height="24" viewBox="0 0 24 24" fill="none" xmlns="http://www.w3.org/2000/svg">
<g clip-path="url(#clip0_4117_1440)">
<path fill-rule="evenodd" clip-rule="evenodd" d="M1.69434 4.94141C1.69434 4.38912 2.14205 3.94141 2.69434 3.94141H7.69434C8.24662 3.94141 8.69434 4.38912 8.69434 4.94141V9.94141C8.69434 10.4937 8.24662 10.9414 7.69434 10.9414H2.69434C2.14205 10.9414 1.69434 10.4937 1.69434 9.94141V4.94141ZM3.69434 8.94141V5.94141H6.69434V8.94141H3.69434Z" fill="#526069"/>
<path fill-rule="evenodd" clip-rule="evenodd" d="M1.69434 13.9414C1.69434 13.3891 2.14205 12.9414 2.69434 12.9414H7.69434C8.24662 12.9414 8.69434 13.3891 8.69434 13.9414V18.9414C8.69434 19.4937 8.24662 19.9414 7.69434 19.9414H2.69434C2.14205 19.9414 1.69434 19.4937 1.69434 18.9414V13.9414ZM3.69434 17.9414V14.9414H6.69434V17.9414H3.69434Z" fill="#526069"/>
<path d="M10.6943 3.94141H21.6943V5.94141H10.6943V3.94141Z" fill="#526069"/>
<path d="M21.6943 12.9414H10.6943V14.9414H21.6943V12.9414Z" fill="#526069"/>
<path d="M10.6943 7.94141H16.6943V9.94141H10.6943V7.94141Z" fill="#526069"/>
<path d="M16.6943 16.9414H10.6943V18.9414H16.6943V16.9414Z" fill="#526069"/>
</g>
<defs>
<clipPath id="clip0_4117_1440">
<rect width="24" height="24" fill="white"/>
</clipPath>
</defs>
</svg>
