<svg width="24" height="24" viewBox="0 0 24 24" fill="none" xmlns="http://www.w3.org/2000/svg">
<g clip-path="url(#clip0_4117_1508)">
<path d="M13 4V11.01H16L12 15L8 11.01L11 11.01V4H13Z" fill="currentColor"/>
<path d="M5 15H3V20H11V18H5V15Z" fill="currentColor"/>
<path fill-rule="evenodd" clip-rule="evenodd" d="M21.7829 16.0118L20.1456 18.4874L21.8928 21.2824C22.0813 21.5839 21.8903 22 21.5634 22H15.4366C15.1096 22 14.9186 21.5839 15.1071 21.2824L16.8543 18.4874L15.2171 16.0118C14.6467 15.1493 15.2667 14 16.3024 14H20.6976C21.7333 14 22.3533 15.1493 21.7829 16.0118ZM18.5 17.8351L17.1077 15.7297H19.8923L18.5 17.8351Z" fill="currentColor"/>
</g>
<defs>
<clipPath id="clip0_4117_1508">
<rect width="24" height="24" fill="white"/>
</clipPath>
</defs>
</svg>
