<svg width="24" height="24" viewBox="0 0 24 24" fill="none" xmlns="http://www.w3.org/2000/svg">
<g clip-path="url(#clip0_4117_1522)">
<path fill-rule="evenodd" clip-rule="evenodd" d="M20 3.82373H4C3.44772 3.82373 3 4.27145 3 4.82373V19.8237C3 20.376 3.44772 20.8237 4 20.8237H11V10.8237H19V12.8237H21V4.82373C21 4.27145 20.5523 3.82373 20 3.82373ZM9 15.8237V18.8237H5V15.8237H9ZM9 10.8237V13.8237H5V10.8237H9ZM5 8.82373V5.82373H19V8.82373H5Z" fill="currentColor"/>
<path d="M15 16.8237H16.34V18.8237L19 15.8237L16.34 12.8237V14.8237H15C13.8954 14.8237 13 15.7192 13 16.8237V20.8237C13 21.9283 13.8954 22.8237 15 22.8237H21C22.1046 22.8237 23 21.9283 23 20.8237V16.8237C23 15.7192 22.1046 14.8237 21 14.8237V20.8237H15V16.8237Z" fill="currentColor"/>
</g>
<defs>
<clipPath id="clip0_4117_1522">
<rect width="24" height="24" fill="white"/>
</clipPath>
</defs>
</svg>
