<svg width="24" height="24" viewBox="0 0 24 24" fill="none" xmlns="http://www.w3.org/2000/svg">
<g clip-path="url(#clip0_4117_1401)">
<path d="M11.6943 2C8.42434 2 5.51434 3.58 3.69434 6.01V4H1.69434V10H7.69434V8H4.78434C6.16434 5.61 8.74434 4 11.6943 4V2Z" fill="#526069"/>
<path d="M15.6943 8H13.6943V2L19.6943 2V4H17.6843C20.1143 5.81999 21.6943 8.72997 21.6943 12H19.6943C19.6943 9.04997 18.0843 6.46999 15.6943 5.09V8Z" fill="#526069"/>
<path d="M5.70434 20C3.27434 18.18 1.69434 15.27 1.69434 12H3.69434C3.69434 14.95 5.30434 17.53 7.69434 18.91L7.69434 16H9.69434V22H3.69434V20H5.70434Z" fill="#526069"/>
<rect x="13.6943" y="14" width="9" height="9" fill="#CC3D45"/>
</g>
<defs>
<clipPath id="clip0_4117_1401">
<rect width="24" height="24" fill="white"/>
</clipPath>
</defs>
</svg>
