<svg width="24" height="24" viewBox="0 0 24 24" fill="none" xmlns="http://www.w3.org/2000/svg">
<g clip-path="url(#clip0_4117_1544)">
<path fill-rule="evenodd" clip-rule="evenodd" d="M4 2.94141C3.44772 2.94141 3 3.38912 3 3.94141V18.9414C3 19.4937 3.44772 19.9414 4 19.9414H20C20.5523 19.9414 21 19.4937 21 18.9414V17.9414H11V4.94141H21V3.94141C21 3.38912 20.5523 2.94141 20 2.94141H4ZM5 4.94141V7.94141H9V4.94141H5ZM5 9.94141H9V12.9414H5V9.94141ZM5 14.9414H9V17.9414H5V14.9414Z" fill="currentColor"/>
<path d="M15.7142 9.69181C16.1692 9.22757 16.8003 8.94141 17.5 8.94141C18.8807 8.94141 20 10.0607 20 11.4414H22C22 8.95612 19.9853 6.94141 17.5 6.94141C16.2411 6.94141 15.1014 7.45971 14.2858 8.29202L15.7142 9.69181Z" fill="currentColor"/>
<path d="M17.5 13.9414C16.1193 13.9414 15 12.8221 15 11.4414H13C13 13.9267 15.0147 15.9414 17.5 15.9414C18.7589 15.9414 19.8986 15.4231 20.7142 14.5908L19.2858 13.191C18.8308 13.6552 18.1997 13.9414 17.5 13.9414Z" fill="currentColor"/>
</g>
<defs>
<clipPath id="clip0_4117_1544">
<rect width="24" height="24" fill="white"/>
</clipPath>
</defs>
</svg>
