<svg width="24" height="24" viewBox="0 0 24 24" fill="none" xmlns="http://www.w3.org/2000/svg">
<g clip-path="url(#clip0_4117_1554)">
<path d="M14 16.7061H7V14.7061H14V16.7061ZM17 12.7061H7V10.7061H17V12.7061ZM17 8.70605H7V6.70605H17V8.70605Z" fill="#526069"/>
<path d="M2 3.70605C2 2.60148 2.89543 1.70605 4 1.70605H7V3.70605L4 3.70605V19.7061H7V21.7061H4C2.89543 21.7061 2 20.8106 2 19.7061V3.70605Z" fill="#526069"/>
<path d="M22 3.70605C22 2.60148 21.1046 1.70605 20 1.70605H17V3.70605L20 3.70605V12.7061H22V3.70605Z" fill="#526069"/>
<path d="M21.001 15.2574C19.4671 14.3515 17.4583 14.5575 16.1403 15.8754C14.8224 17.1934 14.6164 19.2022 15.5223 20.7361L17.0366 19.2218C16.8584 18.5545 17.0311 17.8131 17.5545 17.2896C18.078 16.7662 18.8194 16.5935 19.4867 16.7717L21.001 15.2574Z" fill="#1976D2"/>
<path d="M18.4508 20.636C19.1181 20.8142 19.8595 20.6415 20.383 20.1181C20.9064 19.5946 21.0791 18.8532 20.9009 18.1859L22.4152 16.6716C23.3211 18.2056 23.1151 20.2144 21.7972 21.5323C20.4792 22.8502 18.4704 23.0562 16.9365 22.1503L18.4508 20.636Z" fill="#1976D2"/>
</g>
<defs>
<clipPath id="clip0_4117_1554">
<rect width="24" height="24" fill="white"/>
</clipPath>
</defs>
</svg>
