<svg width="24" height="24" viewBox="0 0 24 24" fill="none" xmlns="http://www.w3.org/2000/svg">
<g clip-path="url(#clip0_4117_1436)">
<path fill-rule="evenodd" clip-rule="evenodd" d="M2.69434 3.94141C2.14205 3.94141 1.69434 4.38912 1.69434 4.94141V9.94141C1.69434 10.4937 2.14205 10.9414 2.69434 10.9414H7.69434C8.24662 10.9414 8.69434 10.4937 8.69434 9.94141V4.94141C8.69434 4.38912 8.24662 3.94141 7.69434 3.94141H2.69434ZM3.69434 5.94141V8.94141H6.69434V5.94141H3.69434Z" fill="currentColor"/>
<path fill-rule="evenodd" clip-rule="evenodd" d="M2.69434 12.9414C2.14205 12.9414 1.69434 13.3891 1.69434 13.9414V18.9414C1.69434 19.4937 2.14205 19.9414 2.69434 19.9414H7.69434C8.24662 19.9414 8.69434 19.4937 8.69434 18.9414V13.9414C8.69434 13.3891 8.24662 12.9414 7.69434 12.9414H2.69434ZM3.69434 14.9414V17.9414H6.69434V14.9414H3.69434Z" fill="currentColor"/>
<path d="M21.6943 3.94141H10.6943V5.94141H21.6943V3.94141Z" fill="currentColor"/>
<path d="M10.6943 7.94141H15.6943V9.94141H10.6943V7.94141Z" fill="currentColor"/>
<path fill-rule="evenodd" clip-rule="evenodd" d="M20.8943 9.52641L22.1043 10.7364C22.8943 11.5164 22.8943 12.7864 22.1043 13.5664L14.7343 20.9364H10.6943V16.8964L18.0643 9.52641C18.8443 8.74641 20.1143 8.74641 20.8943 9.52641ZM12.6943 18.9364H13.9043L20.5643 12.2764L19.3543 11.0664L12.6943 17.7264V18.9364Z" fill="currentColor"/>
</g>
<defs>
<clipPath id="clip0_4117_1436">
<rect width="24" height="24" fill="white"/>
</clipPath>
</defs>
</svg>
