<svg width="24" height="24" viewBox="0 0 24 24" fill="none" xmlns="http://www.w3.org/2000/svg">
<g clip-path="url(#clip0_4117_1512)">
<path fill-rule="evenodd" clip-rule="evenodd" d="M6.41699 2.82373H4.41699C3.86471 2.82373 3.41699 3.27145 3.41699 3.82373V18.8237C3.41699 19.376 3.86471 19.8237 4.41699 19.8237H20.417C20.9693 19.8237 21.417 19.376 21.417 18.8237V3.82373C21.417 3.27145 20.9693 2.82373 20.417 2.82373H14.417V4.82373H19.417V7.82373H5.41699V4.82373H6.41699V2.82373ZM5.41699 9.82373H9.41699V12.8237H5.41699V9.82373ZM11.417 9.82373V12.8237H19.417V9.82373H11.417ZM5.41699 14.8237H9.41699V17.8237H5.41699V14.8237ZM19.417 17.8237H11.417V14.8237H19.417V17.8237Z" fill="currentColor"/>
<path d="M11.417 0.82373H9.41699V2.82373H7.41699V4.82373H9.41699V6.82373H11.417V4.82373H13.417V2.82373H11.417V0.82373Z" fill="#038108"/>
</g>
<defs>
<clipPath id="clip0_4117_1512">
<rect width="24" height="24" fill="white"/>
</clipPath>
</defs>
</svg>
