<svg width="24" height="24" viewBox="0 0 24 24" fill="none" xmlns="http://www.w3.org/2000/svg">
<g clip-path="url(#clip0_4117_1556)">
<path d="M13 16.7061H7V14.7061H13V16.7061ZM13 12.7061H7V10.7061H13V12.7061ZM17 8.70605H7V6.70605H17V8.70605Z" fill="currentColor"/>
<path d="M2 3.70605C2 2.60148 2.89543 1.70605 4 1.70605H7V3.70605L4 3.70605V19.7061H7V21.7061H4C2.89543 21.7061 2 20.8106 2 19.7061V3.70605Z" fill="currentColor"/>
<path d="M22 3.70605C22 2.60148 21.1046 1.70605 20 1.70605H17V3.70605L20 3.70605V10.7061H22V3.70605Z" fill="currentColor"/>
<path d="M23 15.2061C23 14.6561 22.55 14.2061 22 14.2061L19 14.2061V11.7061L15.5 15.2061L19 18.7061V16.2061L21 16.2061V20.706L15 20.706V17.706H13V20.706C13 21.8106 13.8954 22.706 15 22.706H21C22.1046 22.706 23 21.8106 23 20.706V15.2061Z" fill="#1976D2"/>
</g>
<defs>
<clipPath id="clip0_4117_1556">
<rect width="24" height="24" fill="white"/>
</clipPath>
</defs>
</svg>
