<svg width="24" height="24" viewBox="0 0 24 24" fill="none" xmlns="http://www.w3.org/2000/svg">
<g clip-path="url(#clip0_4117_1442)">
<path d="M11.9727 2.353C8.70266 2.353 5.79266 3.933 3.97266 6.363V4.353H1.97266V10.353H7.97266V8.353H5.06266C6.44266 5.963 9.02266 4.353 11.9727 4.353V2.353Z" fill="currentColor"/>
<path d="M15.9727 8.353H13.9727V2.353L19.9727 2.353V4.353H17.9627C20.3926 6.17299 21.9726 9.08297 21.9727 12.3529H19.9727C19.9726 9.40297 18.3626 6.82299 15.9727 5.443V8.353Z" fill="currentColor"/>
<path d="M5.98266 20.353C3.55266 18.533 1.97266 15.623 1.97266 12.353H3.97266C3.97266 15.303 5.58266 17.883 7.97266 19.263L7.97266 16.353H9.97266V22.353H3.97266V20.353H5.98266Z" fill="currentColor"/>
<path d="M12.9727 19.353L12.9727 15.353L14.9727 15.353L14.9727 18.353L18.9727 18.353L18.9727 15.853L22.4727 19.353L18.9727 22.853L18.9727 20.353L13.9727 20.353C13.4227 20.353 12.9727 19.903 12.9727 19.353Z" fill="#1976D2"/>
</g>
<defs>
<clipPath id="clip0_4117_1442">
<rect width="24" height="24" fill="white"/>
</clipPath>
</defs>
</svg>
