<svg width="24" height="24" viewBox="0 0 24 24" fill="none" xmlns="http://www.w3.org/2000/svg">
<g clip-path="url(#clip0_4117_1530)">
<path fill-rule="evenodd" clip-rule="evenodd" d="M20 2.82373H4C3.44772 2.82373 3 3.27145 3 3.82373V18.8237C3 19.376 3.44772 19.8237 4 19.8237H11V9.82373H19V11.8237H21V3.82373C21 3.27145 20.5523 2.82373 20 2.82373ZM5 7.82373V4.82373H19V7.82373H5ZM5 9.82373H9V12.8237H5V9.82373ZM5 14.8237H9V17.8237H5V14.8237Z" fill="#526069"/>
<path fill-rule="evenodd" clip-rule="evenodd" d="M13 16.5338C13 14.3246 14.7909 12.5338 17 12.5338C19.2091 12.5338 21 14.3246 21 16.5338C21 17.1665 20.8531 17.7649 20.5915 18.2968L22.4144 20.1195C22.8049 20.5101 22.8049 21.1432 22.4144 21.5338C22.0239 21.9243 21.3907 21.9243 21.0002 21.5338L19.2842 19.8178C18.6366 20.2691 17.8492 20.5338 17 20.5338C14.7909 20.5338 13 18.7429 13 16.5338ZM17 14.5338C15.8954 14.5338 15 15.4292 15 16.5338C15 17.6383 15.8954 18.5338 17 18.5338C18.1046 18.5338 19 17.6383 19 16.5338C19 15.4292 18.1046 14.5338 17 14.5338Z" fill="#526069"/>
</g>
<defs>
<clipPath id="clip0_4117_1530">
<rect width="24" height="24" fill="white"/>
</clipPath>
</defs>
</svg>
