<svg width="24" height="24" viewBox="0 0 24 24" fill="none" xmlns="http://www.w3.org/2000/svg">
<g clip-path="url(#clip0_4117_1536)">
<path fill-rule="evenodd" clip-rule="evenodd" d="M6.11133 2.82373H4.11133C3.55904 2.82373 3.11133 3.27145 3.11133 3.82373V18.8237C3.11133 19.376 3.55904 19.8237 4.11133 19.8237H20.1113C20.6636 19.8237 21.1113 19.376 21.1113 18.8237V3.82373C21.1113 3.27145 20.6636 2.82373 20.1113 2.82373H14.1113V4.82373H19.1113V7.82373H5.11133V4.82373H6.11133V2.82373ZM5.11133 9.82373H9.11133V12.8237H5.11133V9.82373ZM11.1113 9.82373V12.8237H19.1113V9.82373H11.1113ZM5.11133 14.8237H9.11133V17.8237H5.11133V14.8237ZM19.1113 17.8237H11.1113V14.8237H19.1113V17.8237Z" fill="#526069"/>
<path d="M8.09585 0.82373L6.68164 2.23794L8.65662 4.21292L6.68169 6.18784L8.09591 7.60206L10.0708 5.62713L12.0456 7.60191L13.4598 6.18769L11.485 4.21292L13.4599 2.2381L12.0457 0.823882L10.0708 2.79871L8.09585 0.82373Z" fill="#CC3D45"/>
</g>
<defs>
<clipPath id="clip0_4117_1536">
<rect width="24" height="24" fill="white"/>
</clipPath>
</defs>
</svg>
