<svg width="24" height="24" viewBox="0 0 24 24" fill="none" xmlns="http://www.w3.org/2000/svg">
<g clip-path="url(#clip0_4117_1498)">
<path fill-rule="evenodd" clip-rule="evenodd" d="M13.4026 1.19C12.6216 0.408955 11.3552 0.408955 10.5742 1.19L9.15998 2.60422C9.03856 2.72563 8.93602 2.85878 8.85235 3H6C4.9 3 4 3.9 4 5V19C4 20.1 4.9 21 6 21H9V19H6V5H8.83105C8.91841 5.15494 9.02805 5.30072 9.15998 5.43264L10.5742 6.84686C11.3552 7.62791 12.6216 7.62791 13.4026 6.84686L14.8168 5.43264C14.9488 5.30072 15.0584 5.15494 15.1458 5H18V19H13V13.99H16L12 10L8 13.99H11V19C11 20.1 11.9 21 13 21V20.99H18C19.1 20.99 20 20.1 20 19V5C20 3.9 19.1 3 18 3H15.1245C15.0408 2.85878 14.9382 2.72563 14.8168 2.60422L13.4026 1.19ZM11.9884 2.60422L13.4026 4.01843L11.9884 5.43264L10.5742 4.01843L11.9884 2.60422Z" fill="#526069"/>
</g>
<defs>
<clipPath id="clip0_4117_1498">
<rect width="24" height="24" fill="white"/>
</clipPath>
</defs>
</svg>
