<svg width="24" height="24" viewBox="0 0 24 24" fill="none" xmlns="http://www.w3.org/2000/svg">
<g clip-path="url(#clip0_4117_1542)">
<path fill-rule="evenodd" clip-rule="evenodd" d="M3 3.94141C3 3.38912 3.44772 2.94141 4 2.94141H20C20.5523 2.94141 21 3.38912 21 3.94141V14.9414H11V19.9414H4C3.44772 19.9414 3 19.4937 3 18.9414V3.94141ZM5 7.94141V4.94141H9V7.94141H5ZM9 9.94141H5V12.9414H9V9.94141ZM11 12.9414V9.94141H19V12.9414H11ZM9 14.9414H5V17.9414H9V14.9414ZM11 7.94141V4.94141H19V7.94141H11Z" fill="currentColor"/>
<path d="M13 16.9414L17.5 21.9414L22 16.9414H13Z" fill="currentColor"/>
</g>
<defs>
<clipPath id="clip0_4117_1542">
<rect width="24" height="24" fill="white"/>
</clipPath>
</defs>
</svg>
