<svg width="960" height="120" viewBox="0 0 960 120" fill="none" xmlns="http://www.w3.org/2000/svg">
<rect x="0.5" y="0.5" width="959" height="119" rx="4.5" stroke="#9747FF" stroke-dasharray="10 5"/>
<g clip-path="url(#clip0_4117_2973)">
<path d="M367.555 63.1177L367.555 67.1277L370.555 67.1277L366.555 71.1177L362.555 67.1277L365.555 67.1277L365.555 63.1177L367.555 63.1177Z" fill="#1976D2"/>
<path d="M369.555 60.1176H367.555C366.165 60.1176 364.775 59.6476 363.555 58.7876C361.115 60.4976 357.995 60.4976 355.555 58.7876C354.335 59.6476 352.945 60.1176 351.555 60.1176H349.555V62.1176H351.555C352.925 62.1176 354.295 61.7676 355.555 61.1176C358.055 62.4176 361.055 62.4176 363.555 61.1176C364.815 61.7676 366.175 62.1176 367.555 62.1176H369.555V60.1176Z" fill="#526069"/>
<path d="M369.555 54.1176H367.555C366.165 54.1176 364.775 53.6476 363.555 52.7876C361.115 54.4976 357.995 54.4976 355.555 52.7876C354.335 53.6476 352.945 54.1176 351.555 54.1176H349.555V56.1176H351.555C352.925 56.1176 354.295 55.7676 355.555 55.1176C358.055 56.4176 361.055 56.4176 363.555 55.1176C364.815 55.7676 366.175 56.1176 367.555 56.1176H369.555V54.1176Z" fill="#526069"/>
<path d="M360.555 68.0351V65.996C358.843 66.2509 357.068 65.8481 355.555 64.7876C354.335 65.6476 352.945 66.1176 351.555 66.1176H349.555V68.1176H351.555C352.925 68.1176 354.295 67.7676 355.555 67.1176C357.108 67.9255 358.855 68.2313 360.555 68.0351Z" fill="#526069"/>
</g>
<g clip-path="url(#clip1_4117_2973)">
<path d="M442.555 66.1177L446.565 66.1177L446.565 63.1177L450.555 67.1177L446.565 71.1177L446.565 68.1177L442.555 68.1177L442.555 66.1177Z" fill="#1976D2"/>
<path d="M435.555 64.7876C437.068 65.8482 438.843 66.2496 440.555 65.9946V68.0347C438.855 68.2309 437.108 67.9255 435.555 67.1177C434.295 67.7677 432.925 68.1177 431.555 68.1177H429.555V66.1177H431.555C432.945 66.1177 434.335 65.6476 435.555 64.7876ZM443.555 58.7876C444.775 59.6476 446.165 60.1177 447.555 60.1177H449.555V62.1177H447.555C446.175 62.1177 444.815 61.7677 443.555 61.1177C441.055 62.4177 438.055 62.4177 435.555 61.1177C434.295 61.7677 432.925 62.1177 431.555 62.1177H429.555V60.1177H431.555C432.945 60.1177 434.335 59.6476 435.555 58.7876C437.995 60.4976 441.115 60.4976 443.555 58.7876ZM443.555 52.7876C444.775 53.6476 446.165 54.1177 447.555 54.1177H449.555V56.1177H447.555C446.175 56.1177 444.815 55.7677 443.555 55.1177C441.055 56.4177 438.055 56.4177 435.555 55.1177C434.295 55.7677 432.925 56.1177 431.555 56.1177H429.555V54.1177H431.555C432.945 54.1177 434.335 53.6476 435.555 52.7876C437.995 54.4976 441.115 54.4976 443.555 52.7876Z" fill="#526069"/>
</g>
<g clip-path="url(#clip2_4117_2973)">
<path d="M529.555 60.1176H527.555C526.165 60.1176 524.775 59.6476 523.555 58.7876C521.115 60.4976 517.995 60.4976 515.555 58.7876C514.335 59.6476 512.945 60.1176 511.555 60.1176H509.555V62.1176H511.555C512.925 62.1176 514.295 61.7676 515.555 61.1176C518.055 62.4176 521.055 62.4176 523.555 61.1176C524.815 61.7676 526.175 62.1176 527.555 62.1176H529.555V60.1176Z" fill="#526069"/>
<path d="M529.555 54.1176H527.555C526.165 54.1176 524.775 53.6476 523.555 52.7876C521.115 54.4976 517.995 54.4976 515.555 52.7876C514.335 53.6476 512.945 54.1176 511.555 54.1176H509.555V56.1176H511.555C512.925 56.1176 514.295 55.7676 515.555 55.1176C518.055 56.4176 521.055 56.4176 523.555 55.1176C524.815 55.7676 526.175 56.1176 527.555 56.1176H529.555V54.1176Z" fill="#526069"/>
<path d="M520.555 68.0351V65.996C518.843 66.2509 517.068 65.8481 515.555 64.7876C514.335 65.6476 512.945 66.1176 511.555 66.1176H509.555V68.1176H511.555C512.925 68.1176 514.295 67.7676 515.555 67.1176C517.108 67.9255 518.855 68.2313 520.555 68.0351Z" fill="#526069"/>
<path d="M528.587 63.6712C527.053 62.7653 525.044 62.9713 523.726 64.2892C522.408 65.6072 522.202 67.616 523.108 69.1499L524.623 67.6356C524.444 66.9684 524.617 66.2269 525.14 65.7035C525.664 65.18 526.405 65.0074 527.073 65.1856L528.587 63.6712Z" fill="#1976D2"/>
<path d="M526.037 69.0498C526.704 69.228 527.445 69.0553 527.969 68.5319C528.492 68.0084 528.665 67.267 528.487 66.5998L530.001 65.0855C530.907 66.6194 530.701 68.6282 529.383 69.9461C528.065 71.264 526.056 71.47 524.522 70.5641L526.037 69.0498Z" fill="#1976D2"/>
</g>
<path d="M47.5547 63.1177H45.5547V66.1177H42.5547V68.1177H45.5547V71.1177H47.5547V68.1177H50.5547V66.1177H47.5547V63.1177Z" fill="#038108"/>
<path d="M29.5547 52.1177C29.5547 51.0177 30.4547 50.1177 31.5547 50.1177H47.5547C48.6547 50.1177 49.5547 51.0177 49.5547 52.1177V61.1177H47.5547V52.1177H31.5547V65.2877L32.7247 64.1177H40.5547V66.1177H33.5547L29.5547 70.1177V52.1177Z" fill="#526069"/>
<path d="M125.555 71.1177L125.555 67.1077L122.555 67.1077L126.555 63.1177L130.555 67.1077L127.555 67.1077L127.555 71.1177L125.555 71.1177Z" fill="#1976D2"/>
<path d="M109.555 52.1177C109.555 51.0177 110.455 50.1177 111.555 50.1177H127.555C128.655 50.1177 129.555 51.0177 129.555 52.1177V61.1177H127.555V52.1177H111.555V65.2877L112.725 64.1177H121.555V66.1177H113.555L109.555 70.1177V52.1177Z" fill="#526069"/>
<path d="M207.555 63.1177L207.555 67.1277L210.555 67.1277L206.555 71.1177L202.555 67.1277L205.555 67.1277L205.555 63.1177L207.555 63.1177Z" fill="#1976D2"/>
<path d="M191.555 50.1177C190.455 50.1177 189.555 51.0177 189.555 52.1177V70.1177L193.555 66.1177H201.555V64.1177H192.725L191.555 65.2877V52.1177H207.555V61.1177H209.555V52.1177C209.555 51.0177 208.655 50.1177 207.555 50.1177H191.555Z" fill="#526069"/>
<path d="M286.055 62.1177C285.864 62.1177 285.71 62.2732 285.694 62.4637C285.528 64.4818 283.919 66.0909 281.901 66.2573C281.71 66.273 281.555 66.4265 281.555 66.6177C281.555 66.8089 281.71 66.9623 281.901 66.978C283.919 67.1444 285.528 68.7535 285.694 70.7716C285.71 70.9622 285.864 71.1177 286.055 71.1177C286.246 71.1177 286.399 70.9622 286.415 70.7716C286.581 68.7535 288.19 67.1444 290.209 66.978C290.399 66.9623 290.555 66.8089 290.555 66.6177C290.555 66.4265 290.399 66.273 290.209 66.2573C288.19 66.0909 286.581 64.4818 286.415 62.4637C286.399 62.2732 286.246 62.1177 286.055 62.1177Z" fill="#1976D2"/>
<path d="M269.555 52.1177C269.555 51.0177 270.455 50.1177 271.555 50.1177H287.555C288.655 50.1177 289.555 51.0177 289.555 52.1177V62.1177H287.555V52.1177H271.555V65.2877L272.725 64.1177H279.555V66.1177H273.555L269.555 70.1177V52.1177Z" fill="#526069"/>
<defs>
<clipPath id="clip0_4117_2973">
<rect width="24" height="24" fill="white" transform="translate(348 48)"/>
</clipPath>
<clipPath id="clip1_4117_2973">
<rect width="24" height="24" fill="white" transform="translate(428 48)"/>
</clipPath>
<clipPath id="clip2_4117_2973">
<rect width="24" height="24" fill="white" transform="translate(508 48)"/>
</clipPath>
</defs>
</svg>
