<svg width="24" height="24" viewBox="0 0 24 24" fill="none" xmlns="http://www.w3.org/2000/svg">
<g clip-path="url(#clip0_4117_1573)">
<g clip-path="url(#clip1_4117_1573)">
<path d="M14 16.4121V18.4121H22V16.4121H14Z" fill="#CC3D45"/>
<path d="M15 2.41211C16.0544 2.41211 16.9182 3.22799 16.9945 4.26285L17 4.41211V5.41211H15V4.41211H4V15.4121H5V17.4121H4C2.94564 17.4121 2.08183 16.5962 2.00549 15.5614L2 15.4121V4.41211C2 3.35775 2.81588 2.49394 3.85074 2.4176L4 2.41211H15Z" fill="#526069"/>
<path d="M20 7.41211C21.0544 7.41211 21.9182 8.22799 21.9945 9.26285L22 9.41211V13.4121H20V9.41211H9V20.4121H14V22.4121H9C7.94564 22.4121 7.08183 21.5962 7.00549 20.5614L7 20.4121V9.41211C7 8.35775 7.81588 7.49394 8.85074 7.41759L9 7.41211H20Z" fill="#526069"/>
</g>
</g>
<defs>
<clipPath id="clip0_4117_1573">
<rect width="24" height="24" fill="white"/>
</clipPath>
<clipPath id="clip1_4117_1573">
<rect width="24" height="24" fill="white" transform="translate(0 0.412109)"/>
</clipPath>
</defs>
</svg>
