<svg width="24" height="24" viewBox="0 0 24 24" fill="none" xmlns="http://www.w3.org/2000/svg">
<g clip-path="url(#clip0_4117_1943)">
<path fill-rule="evenodd" clip-rule="evenodd" d="M16.9727 13.4121H18.9727L22.9727 17.4121V21.4121C22.9727 22.5167 22.0772 23.4121 20.9727 23.4121H16.9727C15.8681 23.4121 14.9727 22.5167 14.9727 21.4121V15.4121C14.9727 14.3075 15.8681 13.4121 16.9727 13.4121ZM20.9727 17.4121H18.9727V15.4121H16.9727V21.4121H20.9727V17.4121Z" fill="#1976D2"/>
<path fill-rule="evenodd" clip-rule="evenodd" d="M16.9727 11.4121V9.41211H15.2827L15.6027 6.41211H13.6027L13.2827 9.41211H11.2827L11.6027 6.41211H9.60266L9.28266 9.41211H6.97266V11.4121H9.07266L8.87266 13.4121H6.97266V15.4121H8.66266L8.34266 18.4121H10.3427L10.6627 15.4121H12.6627L12.3427 18.4121H14.3427L15.0727 11.4121H16.9727ZM10.8727 13.4121L11.0727 11.4121H13.0727L12.8727 13.4121H10.8727Z" fill="currentColor"/>
<path d="M12.9727 19.4121H4.97266V5.41211H18.9727V11.4121H20.9727V5.41211C20.9727 4.88168 20.7619 4.37297 20.3869 3.9979C20.0118 3.62282 19.5031 3.41211 18.9727 3.41211H4.97266C4.44222 3.41211 3.93352 3.62282 3.55844 3.9979C3.18337 4.37297 2.97266 4.88168 2.97266 5.41211V19.4121C2.97266 19.9425 3.18337 20.4513 3.55844 20.8263C3.93352 21.2014 4.44222 21.4121 4.97266 21.4121H12.9727V19.4121Z" fill="currentColor"/>
</g>
<defs>
<clipPath id="clip0_4117_1943">
<rect width="24" height="24" fill="white"/>
</clipPath>
</defs>
</svg>
