<svg width="24" height="24" viewBox="0 0 24 24" fill="none" xmlns="http://www.w3.org/2000/svg">
<g clip-path="url(#clip0_4117_1935)">
<path d="M10.1113 15.1768C10.1113 16.2768 11.0113 17.1768 12.1113 17.1768C13.2113 17.1768 14.1113 16.2768 14.1113 15.1768C14.1113 14.0768 13.2113 13.1768 12.1113 13.1768C11.0113 13.1768 10.1113 14.0768 10.1113 15.1768Z" fill="#526069"/>
<path fill-rule="evenodd" clip-rule="evenodd" d="M18.1113 14.1768V10.1768H6.11133V20.1768H14.1113V22.1768H6.11133C5.01133 22.1768 4.11133 21.2768 4.11133 20.1768V10.1768C4.11133 9.07676 5.01133 8.17676 6.11133 8.17676H7.11133V6.17676C7.11133 3.37676 9.31133 1.17676 12.1113 1.17676C14.9113 1.17676 17.1113 3.37676 17.1113 6.17676V8.17676H18.1113C19.2113 8.17676 20.1113 9.07676 20.1113 10.1768V14.1768H18.1113ZM9.11133 6.17676C9.11133 4.47676 10.4113 3.17676 12.1113 3.17676C13.8113 3.17676 15.1113 4.47676 15.1113 6.17676V8.17676H9.11133V6.17676Z" fill="#526069"/>
<path d="M22.1113 16.1768H16.1113V18.1768H22.1113V16.1768Z" fill="#1976D2"/>
<path d="M20.1113 20.1768H16.1113V22.1768H20.1113V20.1768Z" fill="#1976D2"/>
</g>
<defs>
<clipPath id="clip0_4117_1935">
<rect width="24" height="24" fill="white"/>
</clipPath>
</defs>
</svg>
