<svg width="24" height="24" viewBox="0 0 24 24" fill="none" xmlns="http://www.w3.org/2000/svg">
<g clip-path="url(#clip0_4117_1929)">
<path fill-rule="evenodd" clip-rule="evenodd" d="M16.9727 13.1768H18.9727L22.9727 17.1768V21.1768C22.9727 22.2813 22.0772 23.1768 20.9727 23.1768H16.9727C15.8681 23.1768 14.9727 22.2813 14.9727 21.1768V15.1768C14.9727 14.0722 15.8681 13.1768 16.9727 13.1768ZM20.9727 17.1768H18.9727V15.1768H16.9727V21.1768H20.9727V17.1768Z" fill="#1976D2"/>
<path d="M9.97266 15.1768C9.97266 16.2768 10.8727 17.1768 11.9727 17.1768C13.0727 17.1768 13.9727 16.2768 13.9727 15.1768C13.9727 14.0768 13.0727 13.1768 11.9727 13.1768C10.8727 13.1768 9.97266 14.0768 9.97266 15.1768Z" fill="currentColor"/>
<path fill-rule="evenodd" clip-rule="evenodd" d="M17.9727 11.1768V10.1768H5.97266V20.1768H12.9727V22.1768H5.97266C4.87266 22.1768 3.97266 21.2768 3.97266 20.1768V10.1768C3.97266 9.07676 4.87266 8.17676 5.97266 8.17676H6.97266V6.17676C6.97266 3.37676 9.17266 1.17676 11.9727 1.17676C14.7727 1.17676 16.9727 3.37676 16.9727 6.17676V8.17676H17.9727C19.0727 8.17676 19.9727 9.07676 19.9727 10.1768V11.1768H17.9727ZM8.97266 6.17676C8.97266 4.47676 10.2727 3.17676 11.9727 3.17676C13.6727 3.17676 14.9727 4.47676 14.9727 6.17676V8.17676H8.97266V6.17676Z" fill="currentColor"/>
</g>
<defs>
<clipPath id="clip0_4117_1929">
<rect width="24" height="24" fill="white"/>
</clipPath>
</defs>
</svg>
