<svg width="960" height="360" viewBox="0 0 960 360" fill="none" xmlns="http://www.w3.org/2000/svg">
<rect x="0.5" y="0.5" width="959" height="359" rx="4.5" stroke="#7B61FF" stroke-dasharray="10 5"/>
<path d="M848.139 183.353L848.139 187.363L851.139 187.363L847.139 191.353L843.139 187.363L846.139 187.363L846.139 183.353L848.139 183.353Z" fill="#1976D2"/>
<path d="M843.139 170.353H835.139C834.039 170.353 833.149 171.253 833.149 172.353L833.139 188.353C833.139 189.453 834.029 190.353 835.129 190.353H841.139V188.353H835.139V172.353H842.139V177.353H847.139V181.353H849.139V176.353L843.139 170.353Z" fill="#526069"/>
<path d="M683.139 170.353H675.139C674.039 170.353 673.149 171.253 673.149 172.353L673.139 188.353C673.139 189.453 674.029 190.353 675.129 190.353H679.139V188.353H675.139V172.353H682.139V177.353H687.139V179.353H689.139V176.353L683.139 170.353Z" fill="#526069"/>
<path d="M681.139 181.353H692.139V183.353H681.139V181.353Z" fill="#1976D2"/>
<path d="M681.139 185.353H692.139V187.353H681.139V185.353Z" fill="#1976D2"/>
<path d="M692.139 189.353H681.139V191.353H692.139V189.353Z" fill="#1976D2"/>
<path d="M848 65.5884H846V68.5884H843V70.5884H846V73.5884H848V70.5884H851V68.5884H848V65.5884Z" fill="#038108"/>
<path d="M834 55.5884H846V57.5884H834V55.5884Z" fill="#526069"/>
<path d="M846 59.5884H834V61.5884H846V59.5884Z" fill="#526069"/>
<path d="M844 63.5884H834V65.5884H844V63.5884Z" fill="#526069"/>
<path d="M831 67.5884V64.5884H829V67.5884C829 69.2452 830.343 70.5884 832 70.5884H841V68.5884H832C831.448 68.5884 831 68.1407 831 67.5884Z" fill="#526069"/>
<path fill-rule="evenodd" clip-rule="evenodd" d="M451.783 184.6L450.146 187.076L451.893 189.871C452.081 190.172 451.89 190.588 451.563 190.588H445.437C445.11 190.588 444.919 190.172 445.107 189.871L446.854 187.076L445.217 184.6C444.647 183.738 445.267 182.588 446.302 182.588H450.698C451.733 182.588 452.353 183.738 451.783 184.6ZM448.5 186.423L447.108 184.318H449.892L448.5 186.423Z" fill="#1976D2"/>
<path d="M432 172.588L444.01 172.588V169.588L448 173.588L444.01 177.588L444.01 174.588L432 174.588V186.588C430.895 186.588 430 185.693 430 184.588V174.588C430 173.484 430.895 172.588 432 172.588Z" fill="#526069"/>
<path d="M452 174.588C452 173.484 451.105 172.588 450 172.588V180.588H452V174.588Z" fill="#526069"/>
<path d="M443 186.588V184.588H437.99L437.99 181.588L434 185.588L437.99 189.588V186.588H443Z" fill="#526069"/>
<path d="M611.898 182.002L609.297 184.603C610.814 184.752 612 186.032 612 187.588C612 189.245 610.657 190.588 609 190.588C607.443 190.588 606.164 189.403 606.015 187.885L603.413 190.488L601.999 189.074L604.521 186.55C603.092 186.321 602 185.082 602 183.588C602 181.932 603.343 180.588 605 180.588C606.494 180.588 607.733 181.68 607.962 183.11L610.484 180.588L611.898 182.002ZM609 186.588C608.448 186.588 608 187.036 608 187.588C608 188.141 608.448 188.588 609 188.588C609.552 188.588 610 188.141 610 187.588C610 187.036 609.552 186.588 609 186.588ZM605 182.588C604.448 182.588 604 183.036 604 183.588C604 184.141 604.448 184.588 605 184.588C605.552 184.588 606 184.141 606 183.588C606 183.036 605.552 182.588 605 182.588Z" fill="#526069"/>
<path d="M592 172.588L604.01 172.588V169.588L608 173.588L604.01 177.588L604.01 174.588L592 174.588V186.588C590.895 186.588 590 185.693 590 184.588V174.588C590 173.484 590.895 172.588 592 172.588Z" fill="#526069"/>
<path d="M612 174.588C612 173.484 611.105 172.588 610 172.588V178.588H612V174.588Z" fill="#526069"/>
<path d="M600 186.588V184.588H597.99L597.99 181.588L594 185.588L597.99 189.588V186.588H600Z" fill="#526069"/>
<path d="M928 65.5884H926V68.5884H923V70.5884H926V73.5884H928V70.5884H931V68.5884H928V65.5884Z" fill="#038108"/>
<path d="M914 55.5884H926V57.5884H914V55.5884Z" fill="#526069"/>
<path d="M926 59.5884H914V61.5884H926V59.5884Z" fill="#526069"/>
<path d="M924 63.5884H914V65.5884H924V63.5884Z" fill="#526069"/>
<path d="M911 67.5884V64.5884H909V67.5884C909 69.2452 910.343 70.5884 912 70.5884H921V68.5884H912C911.448 68.5884 911 68.1407 911 67.5884Z" fill="#526069"/>
<path d="M45.4142 182.588L44 184.003L46.4749 186.478L44.0001 188.952L45.4143 190.367L47.8891 187.892L50.364 190.367L51.7782 188.952L49.3033 186.478L51.7782 184.003L50.364 182.588L47.8891 185.063L45.4142 182.588Z" fill="#CC3D45"/>
<path d="M35 172.588H47V174.588H35V172.588Z" fill="#526069"/>
<path d="M47 176.588H35V178.588H47V176.588Z" fill="#526069"/>
<path d="M43 180.588H35V182.588H43V180.588Z" fill="#526069"/>
<path d="M32 184.588V181.588H30V184.588C30 186.245 31.3431 187.588 33 187.588H42V185.588H33C32.4477 185.588 32 185.141 32 184.588Z" fill="#526069"/>
<path d="M288 181.588H286V184.588H283V186.588H286V189.588H288V186.588H291V184.588H288V181.588Z" fill="#038108"/>
<path d="M272 172.588L284.01 172.588V169.588L288 173.588L284.01 177.588L284.01 174.588L272 174.588V186.588C270.895 186.588 270 185.693 270 184.588V174.588C270 173.484 270.895 172.588 272 172.588Z" fill="#526069"/>
<path d="M292 174.588C292 173.484 291.105 172.588 290 172.588V182.588H292V174.588Z" fill="#526069"/>
<path d="M281 186.588V184.588H277.99L277.99 181.588L274 185.588L277.99 189.588V186.588H281Z" fill="#526069"/>
<path d="M367 190.588L367 186.578L364 186.578L368 182.588L372 186.578L369 186.578L369 190.588L367 190.588Z" fill="#1976D2"/>
<path d="M352 172.588L364.01 172.588V169.588L368 173.588L364.01 177.588L364.01 174.588L352 174.588V186.588C350.895 186.588 350 185.693 350 184.588V174.588C350 173.484 350.895 172.588 352 172.588Z" fill="#526069"/>
<path d="M372 174.588C372 173.484 371.105 172.588 370 172.588V180.588H372V174.588Z" fill="#526069"/>
<path d="M361 186.588V184.588H357.99L357.99 181.588L354 185.588L357.99 189.588V186.588H361Z" fill="#526069"/>
<path d="M195 172.588H207V174.588H195V172.588Z" fill="#526069"/>
<path d="M207 176.588H195V178.588H207V176.588Z" fill="#526069"/>
<path d="M202 180.588H195V182.588H202V180.588Z" fill="#526069"/>
<path d="M192 184.588V181.588H190V184.588C190 186.245 191.343 187.588 193 187.588H202V185.588H193C192.448 185.588 192 185.141 192 184.588Z" fill="#526069"/>
<path fill-rule="evenodd" clip-rule="evenodd" d="M210.783 183.6L209.146 186.076L210.893 188.871C211.081 189.172 210.89 189.588 210.563 189.588H204.437C204.11 189.588 203.919 189.172 204.107 188.871L205.854 186.076L204.217 183.6C203.647 182.738 204.267 181.588 205.302 181.588H209.698C210.733 181.588 211.353 182.738 210.783 183.6ZM207.5 185.423L206.108 183.318H208.892L207.5 185.423Z" fill="#1976D2"/>
<path d="M115 172.588H127V174.588H115V172.588Z" fill="#526069"/>
<path d="M127 176.588H115V178.588H127V176.588Z" fill="#526069"/>
<path d="M125 180.588H115V182.588H125V180.588Z" fill="#526069"/>
<path d="M112 184.588V181.588H110V184.588C110 186.245 111.343 187.588 113 187.588H122V185.588H113C112.448 185.588 112 185.141 112 184.588Z" fill="#526069"/>
<path d="M129 182.588L129 186.598L132 186.598L128 190.588L124 186.598L127 186.598L127 182.588L129 182.588Z" fill="#1976D2"/>
<path d="M528 182.588L528 186.598L531 186.598L527 190.588L523 186.598L526 186.598L526 182.588L528 182.588Z" fill="#1976D2"/>
<path d="M512 172.588L524.01 172.588V169.588L528 173.588L524.01 177.588L524.01 174.588L512 174.588V186.588C510.895 186.588 510 185.693 510 184.588V174.588C510 173.484 510.895 172.588 512 172.588Z" fill="#526069"/>
<path d="M532 174.588C532 173.484 531.105 172.588 530 172.588V180.588H532V174.588Z" fill="#526069"/>
<path d="M521 186.588V184.588H517.99L517.99 181.588L514 185.588L517.99 189.588V186.588H521Z" fill="#526069"/>
<path d="M49.1387 303.353L49.1387 307.363L52.1387 307.363L48.1387 311.353L44.1387 307.363L47.1387 307.363L47.1387 303.353L49.1387 303.353Z" fill="#1976D2"/>
<path d="M49.1387 290.353H33.1387V294.353H35.1387V292.353H40.1387V307.353H38.1387V309.353H42.1387V292.353H47.1387V294.353H49.1387V290.353Z" fill="#526069"/>
<path fill-rule="evenodd" clip-rule="evenodd" d="M930.339 179.938L931.549 181.148C932.339 181.928 932.339 183.198 931.549 183.978L924.179 191.348H920.139V187.308L927.509 179.938C928.289 179.158 929.559 179.158 930.339 179.938ZM922.139 189.348H923.349L930.009 182.688L928.799 181.478L922.139 188.138V189.348Z" fill="#526069"/>
<path d="M929.139 170.353H913.139V174.353H915.139V172.353H920.139V184.853L922.139 182.853V172.353H927.139V174.353H929.139V170.353Z" fill="#526069"/>
<path d="M121.556 290.235H113.556C112.456 290.235 111.566 291.135 111.566 292.235L111.556 308.235C111.556 309.335 112.446 310.235 113.546 310.235H120.556V308.235H113.556V292.235H120.556V297.235H125.556V302.235H127.556V296.235L121.556 290.235Z" fill="#526069"/>
<path d="M123.97 304.235L122.556 305.65L125.031 308.124L122.556 310.599L123.97 312.014L126.445 309.539L128.92 312.014L130.334 310.599L127.859 308.124L130.334 305.65L128.92 304.235L126.445 306.71L123.97 304.235Z" fill="#CC3D45"/>
<path d="M763.417 170.235H755.417C754.317 170.235 753.427 171.135 753.427 172.235L753.417 188.235C753.417 189.335 754.307 190.235 755.407 190.235H762.417V188.235H755.417V172.235H762.417V177.235H767.417V181.235H769.417V176.235L763.417 170.235Z" fill="#526069"/>
<path d="M769.417 183.235H767.417V186.235H764.417V188.235H767.417V191.235H769.417V188.235H772.417V186.235H769.417V183.235Z" fill="#038108"/>
<g clip-path="url(#clip0_4117_1364)">
<path d="M34.417 57.9L32.287 55.78L33.697 54.37L35.817 56.5L34.417 57.9ZM41.417 52V55H39.417V52H41.417ZM48.547 55.78L46.417 57.9L45.017 56.5L47.137 54.37L48.547 55.78ZM32.917 61.5V63.5H29.917V61.5H32.917ZM47.917 61.5H50.917V63.5H47.917V61.5ZM34.417 71H46.417C46.9474 71 47.4561 71.2107 47.8312 71.5858C48.2063 71.9609 48.417 72.4696 48.417 73H32.417C32.417 72.4696 32.6277 71.9609 33.0028 71.5858C33.3779 71.2107 33.8866 71 34.417 71ZM40.417 56C42.0083 56 43.5344 56.6321 44.6596 57.7574C45.7849 58.8826 46.417 60.4087 46.417 62V70H34.417V62C34.417 60.4087 35.0491 58.8826 36.1744 57.7574C37.2996 56.6321 38.8257 56 40.417 56ZM40.417 58C39.3561 58 38.3387 58.4214 37.5886 59.1716C36.8384 59.9217 36.417 60.9391 36.417 62V68H44.417V62C44.417 60.9391 43.9956 59.9217 43.2454 59.1716C42.4953 58.4214 41.4779 58 40.417 58Z" fill="#526069"/>
</g>
<g clip-path="url(#clip1_4117_1364)">
<path d="M119.059 53.9997L118.582 55.9997L111 56V70L115.249 69.9997L114.772 71.9997L111 72C109.895 72 109 71.1046 109 70V56C109 54.8954 109.895 54 111 54L119.059 53.9997ZM119.361 69.9997L118.885 71.9997H116.829L117.305 69.9997H119.361ZM123.461 69.9997L122.985 71.9997H120.929L121.405 69.9997H123.461ZM131 56V70C131 71.1046 130.105 72 129 72L125.04 71.9997L125.517 69.9997L129 70V54.0256H129.321C130.273 54.1791 131 55.0046 131 56ZM123.171 53.9997L122.694 55.9997H120.638L121.114 53.9997H123.171ZM127.271 53.9997L126.794 55.9997H124.738L125.214 53.9997H127.271Z" fill="#526069"/>
<path d="M114.518 62C115.346 62 116.018 61.3284 116.018 60.5C116.018 59.6716 115.346 59 114.518 59C113.689 59 113.018 59.6716 113.018 60.5C113.018 61.3284 113.689 62 114.518 62Z" fill="#526069"/>
<path d="M114.518 67C115.346 67 116.018 66.3284 116.018 65.5C116.018 64.6716 115.346 64 114.518 64C113.689 64 113.018 64.6716 113.018 65.5C113.018 66.3284 113.689 67 114.518 67Z" fill="#526069"/>
<path d="M123.409 53L118.647 73H116.592L121.352 53H123.409ZM127.508 53L122.747 73H120.69L125.452 53H127.508Z" fill="#526069"/>
</g>
<g clip-path="url(#clip2_4117_1364)">
<path d="M759.694 53C756.424 53 753.514 54.58 751.694 57.01V55H749.694V61H755.694V59H752.784C754.164 56.61 756.744 55 759.694 55V53Z" fill="#526069"/>
<path d="M763.694 59H761.694V53L767.694 53V55H765.684C768.114 56.82 769.694 59.73 769.694 63H767.694C767.694 60.05 766.084 57.47 763.694 56.09V59Z" fill="#526069"/>
<path d="M753.704 71C751.274 69.18 749.694 66.27 749.694 63H751.694C751.694 65.95 753.304 68.53 755.694 69.91L755.694 67H757.694V73H751.694V71H753.704Z" fill="#526069"/>
<rect x="761.694" y="65" width="9" height="9" fill="#CC3D45"/>
</g>
<path d="M527 66L527 70.01L530 70.01L526 74L522 70.01L525 70.01L525 66L527 66Z" fill="#1976D2"/>
<path d="M527.433 63.98C527.473 63.66 527.503 63.34 527.503 63C527.503 62.66 527.473 62.34 527.433 62.02L529.543 60.37C529.733 60.22 529.783 59.95 529.663 59.73L527.663 56.27C527.573 56.11 527.403 56.02 527.223 56.02C527.163 56.02 527.103 56.03 527.053 56.05L524.563 57.05C524.043 56.65 523.483 56.32 522.873 56.07L522.493 53.42C522.463 53.18 522.253 53 522.003 53H518.003C517.753 53 517.543 53.18 517.513 53.42L517.133 56.07C516.523 56.32 515.963 56.66 515.443 57.05L512.953 56.05C512.893 56.03 512.833 56.02 512.773 56.02C512.603 56.02 512.433 56.11 512.343 56.27L510.343 59.73C510.213 59.95 510.273 60.22 510.463 60.37L512.573 62.02C512.533 62.34 512.503 62.67 512.503 63C512.503 63.33 512.533 63.66 512.573 63.98L510.463 65.63C510.273 65.78 510.223 66.05 510.343 66.27L512.343 69.73C512.433 69.89 512.603 69.98 512.783 69.98C512.843 69.98 512.903 69.97 512.953 69.95L515.443 68.95C515.963 69.35 516.523 69.68 517.133 69.93L517.513 72.58C517.543 72.82 517.753 73 518.003 73H520.001V71H519.303L518.953 68.52L517.893 68.09C517.463 67.91 517.063 67.68 516.663 67.38L515.753 66.68L514.693 67.11L513.423 67.62L512.723 66.41L513.803 65.57L514.693 64.87L514.553 63.74C514.523 63.43 514.503 63.2 514.503 63C514.503 62.8 514.523 62.57 514.553 62.27L514.693 61.14L513.803 60.44L512.723 59.6L513.423 58.39L514.693 58.9L515.733 59.32L516.633 58.64C517.063 58.32 517.473 58.08 517.883 57.91L518.943 57.48L519.103 56.35L519.303 55H520.693L521.043 57.48L522.103 57.91C522.533 58.09 522.933 58.32 523.333 58.62L524.243 59.32L525.303 58.89L526.573 58.38L527.273 59.59L526.203 60.44L525.313 61.14L525.453 62.27C525.493 62.58 525.503 62.79 525.503 63C525.503 63.21 525.483 63.43 525.453 63.73L525.419 64H527.458L527.433 63.98Z" fill="#526069"/>
<path fill-rule="evenodd" clip-rule="evenodd" d="M516.003 63C516.003 60.79 517.793 59 520.003 59C522.213 59 524.003 60.79 524.003 63C524.003 65.21 522.213 67 520.003 67C517.793 67 516.003 65.21 516.003 63ZM520.003 65C518.903 65 518.003 64.1 518.003 63C518.003 61.9 518.903 61 520.003 61C521.103 61 522.003 61.9 522.003 63C522.003 64.1 521.103 65 520.003 65Z" fill="#526069"/>
<path d="M607.433 63.98C607.473 63.66 607.503 63.34 607.503 63C607.503 62.66 607.473 62.34 607.433 62.02L609.543 60.37C609.733 60.22 609.783 59.95 609.663 59.73L607.663 56.27C607.573 56.11 607.403 56.02 607.223 56.02C607.163 56.02 607.103 56.03 607.053 56.05L604.563 57.05C604.043 56.65 603.483 56.32 602.873 56.07L602.493 53.42C602.463 53.18 602.253 53 602.003 53H598.003C597.753 53 597.543 53.18 597.513 53.42L597.133 56.07C596.523 56.32 595.963 56.66 595.443 57.05L592.953 56.05C592.893 56.03 592.833 56.02 592.773 56.02C592.603 56.02 592.433 56.11 592.343 56.27L590.343 59.73C590.213 59.95 590.273 60.22 590.463 60.37L592.573 62.02C592.533 62.34 592.503 62.67 592.503 63C592.503 63.33 592.533 63.66 592.573 63.98L590.463 65.63C590.273 65.78 590.223 66.05 590.343 66.27L592.343 69.73C592.433 69.89 592.603 69.98 592.783 69.98C592.843 69.98 592.903 69.97 592.953 69.95L595.443 68.95C595.963 69.35 596.523 69.68 597.133 69.93L597.513 72.58C597.543 72.82 597.753 73 598.003 73H600.001V71H599.303L598.953 68.52L597.893 68.09C597.463 67.91 597.063 67.68 596.663 67.38L595.753 66.68L594.693 67.11L593.423 67.62L592.723 66.41L593.803 65.57L594.693 64.87L594.553 63.74C594.523 63.43 594.503 63.2 594.503 63C594.503 62.8 594.523 62.57 594.553 62.27L594.693 61.14L593.803 60.44L592.723 59.6L593.423 58.39L594.693 58.9L595.733 59.32L596.633 58.64C597.063 58.32 597.473 58.08 597.883 57.91L598.943 57.48L599.103 56.35L599.303 55H600.693L601.043 57.48L602.103 57.91C602.533 58.09 602.933 58.32 603.333 58.62L604.243 59.32L605.303 58.89L606.573 58.38L607.273 59.59L606.203 60.44L605.313 61.14L605.453 62.27C605.493 62.58 605.503 62.79 605.503 63C605.503 63.21 605.483 63.43 605.453 63.73L605.313 64.86L605.491 65H608.737L607.433 63.98Z" fill="#526069"/>
<path fill-rule="evenodd" clip-rule="evenodd" d="M600.003 67C602.213 67 604.003 65.21 604.003 63C604.003 60.79 602.213 59 600.003 59C597.793 59 596.003 60.79 596.003 63C596.003 65.2093 597.792 66.9988 600.001 67H600.003ZM600.003 65C598.903 65 598.003 64.1 598.003 63C598.003 61.9 598.903 61 600.003 61C601.103 61 602.003 61.9 602.003 63C602.003 64.1 601.103 65 600.003 65Z" fill="#526069"/>
<path d="M611 69L602 73.3301L602 64.6699L611 69Z" fill="#6EB84A"/>
<path d="M687.433 62.02C687.473 62.34 687.503 62.66 687.503 63H685.503C685.503 62.79 685.493 62.58 685.453 62.27L685.313 61.14L686.203 60.44L687.273 59.59L686.573 58.38L685.303 58.89L684.243 59.32L683.333 58.62C682.933 58.32 682.533 58.09 682.103 57.91L681.043 57.48L680.693 55H679.303L679.103 56.35L678.943 57.48L677.883 57.91C677.473 58.08 677.063 58.32 676.633 58.64L675.733 59.32L674.693 58.9L673.423 58.39L672.723 59.6L673.803 60.44L674.693 61.14L674.553 62.27C674.523 62.57 674.503 62.8 674.503 63C674.503 63.2 674.523 63.43 674.553 63.74L674.693 64.87L673.803 65.57L672.723 66.41L673.423 67.62L674.693 67.11L675.753 66.68L676.663 67.38C677.063 67.68 677.463 67.91 677.893 68.09L678.953 68.52L679.303 71H680.001V73H678.003C677.753 73 677.543 72.82 677.513 72.58L677.133 69.93C676.523 69.68 675.963 69.35 675.443 68.95L672.953 69.95C672.903 69.97 672.843 69.98 672.783 69.98C672.603 69.98 672.433 69.89 672.343 69.73L670.343 66.27C670.223 66.05 670.273 65.78 670.463 65.63L672.573 63.98C672.533 63.66 672.503 63.33 672.503 63C672.503 62.67 672.533 62.34 672.573 62.02L670.463 60.37C670.273 60.22 670.213 59.95 670.343 59.73L672.343 56.27C672.433 56.11 672.603 56.02 672.773 56.02C672.833 56.02 672.893 56.03 672.953 56.05L675.443 57.05C675.963 56.66 676.523 56.32 677.133 56.07L677.513 53.42C677.543 53.18 677.753 53 678.003 53H682.003C682.253 53 682.463 53.18 682.493 53.42L682.873 56.07C683.483 56.32 684.043 56.65 684.563 57.05L687.053 56.05C687.103 56.03 687.163 56.02 687.223 56.02C687.403 56.02 687.573 56.11 687.663 56.27L689.663 59.73C689.783 59.95 689.733 60.22 689.543 60.37L687.433 62.02Z" fill="#526069"/>
<path fill-rule="evenodd" clip-rule="evenodd" d="M680.003 67C682.213 67 684.003 65.21 684.003 63C684.003 60.79 682.213 59 680.003 59C677.793 59 676.003 60.79 676.003 63C676.003 65.2093 677.792 66.9988 680.001 67H680.003ZM678.003 63C678.003 64.1 678.903 65 680.003 65C681.103 65 682.003 64.1 682.003 63C682.003 61.9 681.103 61 680.003 61C678.903 61 678.003 61.9 678.003 63Z" fill="#526069"/>
<rect x="682" y="65" width="9" height="9" fill="#CC3D45"/>
<path d="M208 66.1177L208 70.1277L211 70.1277L207 74.1177L203 70.1277L206 70.1277L206 66.1177L208 66.1177Z" fill="#1976D2"/>
<path fill-rule="evenodd" clip-rule="evenodd" d="M202.82 55.1177H207C208.1 55.1177 209 56.0177 209 57.1177V64.1177H207V57.1177H193V71.1177H202V73.1177H193C191.9 73.1177 191 72.2177 191 71.1177V57.1177C191 56.0177 191.9 55.1177 193 55.1177H197.18C197.6 53.9577 198.7 53.1177 200 53.1177C201.3 53.1177 202.4 53.9577 202.82 55.1177ZM200.55 55.1177C200.41 54.9677 200.22 54.8677 200 54.8677C199.78 54.8677 199.59 54.9677 199.45 55.1177C199.33 55.2477 199.25 55.4277 199.25 55.6177C199.25 56.0277 199.59 56.3677 200 56.3677C200.41 56.3677 200.75 56.0277 200.75 55.6177C200.75 55.4277 200.67 55.2477 200.55 55.1177Z" fill="#526069"/>
<path d="M204.612 66.3394C203.271 65.4244 201.261 65.0077 200 65.0077C197.97 65.0077 194 66.0777 194 68.5877V70.1177H202V68.1177H202.082L196.31 68.1177C197 67.5577 198.69 66.9977 200 66.9977C200.857 66.9977 201.881 67.2374 202.677 67.5601L204.612 66.3394Z" fill="#526069"/>
<path fill-rule="evenodd" clip-rule="evenodd" d="M197 61.1177C197 59.4677 198.35 58.1177 200 58.1177C201.65 58.1177 203 59.4677 203 61.1177C203 62.7677 201.65 64.1177 200 64.1177C198.35 64.1177 197 62.7677 197 61.1177ZM200 62.1177C199.45 62.1177 199 61.6677 199 61.1177C199 60.5677 199.45 60.1177 200 60.1177C200.55 60.1177 201 60.5677 201 61.1177C201 61.6677 200.55 62.1177 200 62.1177Z" fill="#526069"/>
<path d="M286 74.1177L286 70.1077L283 70.1077L287 66.1177L291 70.1077L288 70.1077L288 74.1177L286 74.1177Z" fill="#1976D2"/>
<path fill-rule="evenodd" clip-rule="evenodd" d="M282.82 55.1177H287C288.1 55.1177 289 56.0177 289 57.1177V64.1177H287V57.1177H273V71.1177H282V73.1177H273C271.9 73.1177 271 72.2177 271 71.1177V57.1177C271 56.0177 271.9 55.1177 273 55.1177H277.18C277.6 53.9577 278.7 53.1177 280 53.1177C281.3 53.1177 282.4 53.9577 282.82 55.1177ZM280.55 55.1177C280.41 54.9677 280.22 54.8677 280 54.8677C279.78 54.8677 279.59 54.9677 279.45 55.1177C279.33 55.2477 279.25 55.4277 279.25 55.6177C279.25 56.0277 279.59 56.3677 280 56.3677C280.41 56.3677 280.75 56.0277 280.75 55.6177C280.75 55.4277 280.67 55.2477 280.55 55.1177Z" fill="#526069"/>
<path d="M284.612 66.3394C283.271 65.4244 281.261 65.0077 280 65.0077C277.97 65.0077 274 66.0777 274 68.5877V70.1177H282V68.1177H282.082L276.31 68.1177C277 67.5577 278.69 66.9977 280 66.9977C280.857 66.9977 281.881 67.2374 282.677 67.5601L284.612 66.3394Z" fill="#526069"/>
<path fill-rule="evenodd" clip-rule="evenodd" d="M277 61.1177C277 59.4677 278.35 58.1177 280 58.1177C281.65 58.1177 283 59.4677 283 61.1177C283 62.7677 281.65 64.1177 280 64.1177C278.35 64.1177 277 62.7677 277 61.1177ZM280 62.1177C279.45 62.1177 279 61.6677 279 61.1177C279 60.5677 279.45 60.1177 280 60.1177C280.55 60.1177 281 60.5677 281 61.1177C281 61.6677 280.55 62.1177 280 62.1177Z" fill="#526069"/>
<path d="M368 66.1177L368 70.1277L371 70.1277L367 74.1177L363 70.1277L366 70.1277L366 66.1177L368 66.1177Z" fill="#1976D2"/>
<path d="M369 56.5V62.5635L358.193 72.2891L350 68.7774V62.6436L361.868 52.9336L369 56.5ZM358 66.5918V69.7715L367 61.6719V59.2276L358 66.5918ZM352 67.458L356 69.1719V66.7354L352 64.7354V67.458ZM352.828 62.9131L356.868 64.9336L366.172 57.3213L362.132 55.3018L352.828 62.9131Z" fill="#526069"/>
<path d="M446 74.1177L446 70.1077L443 70.1077L447 66.1177L451 70.1077L448 70.1077L448 74.1177L446 74.1177Z" fill="#1976D2"/>
<path d="M449 56.5V62.5635L438.193 72.2891L430 68.7774V62.6436L441.868 52.9336L449 56.5ZM438 66.5918V69.7715L447 61.6719V59.2276L438 66.5918ZM432 67.458L436 69.1719V66.7354L432 64.7354V67.458ZM432.828 62.9131L436.868 64.9336L446.172 57.3213L442.132 55.3018L432.828 62.9131Z" fill="#526069"/>
<defs>
<clipPath id="clip0_4117_1364">
<rect width="24" height="24" fill="white" transform="translate(28 51)"/>
</clipPath>
<clipPath id="clip1_4117_1364">
<rect width="24" height="24" fill="white" transform="translate(108 51)"/>
</clipPath>
<clipPath id="clip2_4117_1364">
<rect width="24" height="24" fill="white" transform="translate(748 51)"/>
</clipPath>
</defs>
</svg>
