<svg width="24" height="24" viewBox="0 0 24 24" fill="none" xmlns="http://www.w3.org/2000/svg">
<g clip-path="url(#clip0_4117_2090)">
<g clip-path="url(#clip1_4117_2090)">
<path fill-rule="evenodd" clip-rule="evenodd" d="M3.97266 3.41211C3.42037 3.41211 2.97266 3.85982 2.97266 4.41211V19.4121C2.97266 19.9644 3.42037 20.4121 3.97266 20.4121H15.9727L13.9727 18.4121H10.9727V15.4121H16.9727V13.4121H10.9727V10.4121H15.9727H18.9727V11.4121H20.9727V4.41211C20.9727 3.85982 20.5249 3.41211 19.9727 3.41211H3.97266ZM4.97266 5.41211V8.41211H8.97266V5.41211H4.97266ZM4.97266 10.4121H8.97266V13.4121H4.97266V10.4121ZM4.97266 15.4121H8.97266V18.4121H4.97266V15.4121ZM10.9727 5.41211V8.41211H18.9727V5.41211H10.9727Z" fill="#526069"/>
<path d="M20.9727 13.4121L20.9727 17.4221L23.9727 17.4221L19.9727 21.4121L15.9727 17.4221L18.9727 17.4221L18.9727 13.4121L20.9727 13.4121Z" fill="#1976D2"/>
</g>
</g>
<defs>
<clipPath id="clip0_4117_2090">
<rect width="24" height="24" fill="white"/>
</clipPath>
<clipPath id="clip1_4117_2090">
<rect width="24" height="24" fill="white" transform="translate(-0.0273438 0.412109)"/>
</clipPath>
</defs>
</svg>
